G04 #@! TF.FileFunction,Copper,L2,Bot,Signal*
%FSLAX46Y46*%
G04 Gerber Fmt 4.6, Leading zero omitted, Abs format (unit mm)*
G04 Created by KiCad (PCBNEW 4.0.7) date Wed Jun 27 14:29:21 2018*
%MOMM*%
%LPD*%
G01*
G04 APERTURE LIST*
%ADD10C,0.100000*%
%ADD11C,0.650000*%
%ADD12R,4.000000X0.635000*%
%ADD13R,1.700000X1.700000*%
%ADD14O,1.700000X1.700000*%
%ADD15R,1.250000X1.500000*%
%ADD16C,1.700000*%
%ADD17C,0.203200*%
%ADD18C,1.000000*%
%ADD19C,0.800000*%
%ADD20C,1.016000*%
%ADD21C,0.254000*%
G04 APERTURE END LIST*
D10*
D11*
X160972500Y-95567500D03*
X176000000Y-73914000D03*
X175250000Y-73914000D03*
X189250000Y-90424000D03*
X174500000Y-73914000D03*
X171200000Y-76149200D03*
X160800000Y-78100000D03*
X160782000Y-91948000D03*
X166000000Y-92000000D03*
X190000000Y-117500000D03*
X185500000Y-117500000D03*
X169500000Y-122000000D03*
X169500000Y-117500000D03*
X169000000Y-102500000D03*
X180500000Y-111000000D03*
X176500000Y-111000000D03*
X185500000Y-109500000D03*
X190000000Y-109500000D03*
X190000000Y-102641400D03*
X185674000Y-102641400D03*
X196697600Y-101600000D03*
X178206400Y-84886800D03*
X176174400Y-76149200D03*
D12*
X172720000Y-78232000D03*
X182120000Y-78232000D03*
X172720000Y-79502000D03*
X182120000Y-79502000D03*
X172720000Y-80772000D03*
X182120000Y-80772000D03*
X172720000Y-82042000D03*
X182120000Y-82042000D03*
X172720000Y-83312000D03*
X182120000Y-83312000D03*
X172720000Y-84582000D03*
X182120000Y-84582000D03*
X172720000Y-85852000D03*
X182120000Y-85852000D03*
X172720000Y-87122000D03*
X182120000Y-87122000D03*
X172720000Y-88392000D03*
X182120000Y-88392000D03*
X172720000Y-89662000D03*
X182120000Y-89662000D03*
X172720000Y-90932000D03*
X182120000Y-90932000D03*
X172720000Y-92202000D03*
X182120000Y-92202000D03*
X172720000Y-93472000D03*
X182120000Y-93472000D03*
X172720000Y-94742000D03*
X182120000Y-94742000D03*
X172720000Y-96012000D03*
X182120000Y-96012000D03*
X172720000Y-97282000D03*
X182120000Y-97282000D03*
X172720000Y-98552000D03*
X182120000Y-98552000D03*
X172720000Y-99822000D03*
X182120000Y-99822000D03*
X172720000Y-101092000D03*
X182120000Y-101092000D03*
X172720000Y-102362000D03*
X182120000Y-102362000D03*
D13*
X155194000Y-94488000D03*
D14*
X157734000Y-94488000D03*
D13*
X156210000Y-109960000D03*
D14*
X156210000Y-112500000D03*
D13*
X158750000Y-112522000D03*
D14*
X158750000Y-109982000D03*
D15*
X172847000Y-73914000D03*
X172847000Y-71414000D03*
D11*
X185674000Y-90424000D03*
D16*
X147828000Y-56388000D03*
D13*
X150368000Y-56388000D03*
D16*
X150368000Y-58928000D03*
X147828000Y-58928000D03*
X150368000Y-61468000D03*
X147828000Y-61468000D03*
X150368000Y-64008000D03*
X147828000Y-64008000D03*
X150368000Y-66548000D03*
X147828000Y-66548000D03*
X150368000Y-69088000D03*
X147828000Y-69088000D03*
X150368000Y-71628000D03*
X147828000Y-71628000D03*
X150368000Y-74168000D03*
X147828000Y-74168000D03*
X150368000Y-76708000D03*
X147828000Y-76708000D03*
X150368000Y-79248000D03*
X147828000Y-79248000D03*
X150368000Y-81788000D03*
X147828000Y-81788000D03*
X150368000Y-84328000D03*
X147828000Y-84328000D03*
X150368000Y-86868000D03*
X147828000Y-86868000D03*
X150368000Y-89408000D03*
X147828000Y-89408000D03*
X150368000Y-91948000D03*
X147828000Y-91948000D03*
X150368000Y-94488000D03*
X147828000Y-94488000D03*
X150368000Y-97028000D03*
X147828000Y-97028000D03*
X150368000Y-99568000D03*
X147828000Y-99568000D03*
X150368000Y-102108000D03*
X147828000Y-102108000D03*
X150368000Y-104648000D03*
X147828000Y-104648000D03*
X150368000Y-107188000D03*
X147828000Y-107188000D03*
X150368000Y-109728000D03*
X147828000Y-109728000D03*
X150368000Y-112268000D03*
X147828000Y-112268000D03*
X150368000Y-114808000D03*
X147828000Y-114808000D03*
X150368000Y-117348000D03*
X147828000Y-117348000D03*
X150368000Y-119888000D03*
X147828000Y-119888000D03*
X150368000Y-122428000D03*
X147828000Y-122428000D03*
X150368000Y-124968000D03*
X147828000Y-124968000D03*
D11*
X169672000Y-56388000D03*
X156972000Y-56388000D03*
X175641000Y-79502000D03*
X168910000Y-58674000D03*
X156972000Y-58674000D03*
X175640974Y-80772000D03*
X168148000Y-60960000D03*
X156972000Y-60960000D03*
X175641000Y-82042000D03*
X156972000Y-63246000D03*
X167513000Y-63246000D03*
X175641000Y-83312000D03*
X166751000Y-65532000D03*
X156972000Y-65532000D03*
X175641000Y-85852000D03*
X165862000Y-67818000D03*
X156972000Y-67818000D03*
X175641000Y-87122000D03*
X164973000Y-70104000D03*
X156972000Y-70104000D03*
X175641000Y-88392000D03*
X164211000Y-72390000D03*
X156972000Y-72390000D03*
X175641000Y-89662000D03*
X164000000Y-74750000D03*
X163829990Y-89662000D03*
X156972000Y-74676000D03*
X179197000Y-90297000D03*
X163068012Y-76962000D03*
X163068000Y-88392000D03*
X156972000Y-76962000D03*
X179196992Y-89027000D03*
X162500000Y-79250000D03*
X162433000Y-87122000D03*
X156972000Y-79248000D03*
X179197000Y-87757000D03*
X161671000Y-80772000D03*
X161798000Y-85852000D03*
X156972000Y-81534000D03*
X179196990Y-86487000D03*
X156972000Y-83820000D03*
X179214354Y-84063612D03*
X161250000Y-86750000D03*
X161163000Y-83185000D03*
X156972000Y-86106000D03*
X179197004Y-82677000D03*
X160500000Y-88249996D03*
X156971997Y-88392003D03*
X160500000Y-82500000D03*
X179197000Y-81407000D03*
X160655000Y-89662000D03*
X161000000Y-81750006D03*
X156972000Y-90678000D03*
X179197008Y-80137000D03*
X159004000Y-98552000D03*
X146507202Y-100787200D03*
X160147000Y-101092000D03*
X153797000Y-108077000D03*
X192659000Y-108839000D03*
X198678800Y-101498400D03*
X152781000Y-107696008D03*
X193294000Y-107950000D03*
X199186800Y-103378000D03*
X152273000Y-106807002D03*
X193929000Y-107061006D03*
X199593202Y-104597200D03*
X201117200Y-105562406D03*
X194818000Y-106299000D03*
X152019000Y-101727000D03*
X154559000Y-102870000D03*
X154686000Y-103891190D03*
X162941000Y-104521000D03*
X175499992Y-109500000D03*
X178562000Y-112522004D03*
X178562000Y-95631000D03*
X168782994Y-97282000D03*
X161250000Y-96750000D03*
X175641000Y-97282000D03*
X175641000Y-99822000D03*
X168783000Y-99949000D03*
X165862000Y-99949000D03*
X185674000Y-101092000D03*
X188341000Y-101092000D03*
X179197000Y-101727000D03*
X185674000Y-98552000D03*
X188341000Y-98552000D03*
X179197000Y-99187000D03*
X185674000Y-96012000D03*
X188341000Y-96012000D03*
X179197000Y-96520000D03*
X197358000Y-92202000D03*
X185674000Y-92202000D03*
X179197002Y-92202000D03*
X168783000Y-93471992D03*
X165862000Y-93472000D03*
X175641000Y-94107010D03*
X168783000Y-98552004D03*
X165862000Y-98552000D03*
X175641000Y-98552000D03*
X175641000Y-101092000D03*
X168783000Y-101092000D03*
X165862000Y-101092000D03*
X185674000Y-99822000D03*
X197358000Y-99822000D03*
X179197000Y-100457000D03*
X197358000Y-97282000D03*
X185674000Y-97282000D03*
X179197000Y-97917046D03*
X197358000Y-94742000D03*
X179197000Y-94742000D03*
X185674000Y-94742000D03*
X185674000Y-93472000D03*
X188341000Y-93472000D03*
X179196994Y-93472000D03*
D17*
X174500000Y-73914000D02*
X172847000Y-73914000D01*
X175250000Y-73914000D02*
X174500000Y-73914000D01*
X176000000Y-73914000D02*
X175250000Y-73914000D01*
D18*
X175133000Y-73894000D02*
X176042000Y-73894000D01*
X175133000Y-73894000D02*
X172867000Y-73894000D01*
D19*
X172867000Y-73894000D02*
X172847000Y-73914000D01*
X185674000Y-84074000D02*
X185166000Y-84582000D01*
X185166000Y-84582000D02*
X182120000Y-84582000D01*
X185674000Y-78986000D02*
X185674000Y-84074000D01*
X182120000Y-78232000D02*
X184920000Y-78232000D01*
X184920000Y-78232000D02*
X185674000Y-78986000D01*
X172720000Y-78232000D02*
X175520000Y-78232000D01*
X175520000Y-78232000D02*
X182120000Y-78232000D01*
D20*
X172847000Y-73894000D02*
X172847000Y-78105000D01*
X172827000Y-73894000D02*
X172847000Y-73914000D01*
D17*
X177729001Y-84612601D02*
X178054000Y-84937600D01*
X177698400Y-84582000D02*
X177729001Y-84612601D01*
X172720000Y-84582000D02*
X177698400Y-84582000D01*
X169672000Y-56388000D02*
X156972000Y-56388000D01*
X175641000Y-79502000D02*
X176100619Y-79502000D01*
X176100619Y-79502000D02*
X182120000Y-79502000D01*
X156972000Y-58674000D02*
X168910000Y-58674000D01*
X182120000Y-80772000D02*
X175640974Y-80772000D01*
X168148000Y-60960000D02*
X156972000Y-60960000D01*
X175641000Y-82042000D02*
X182120000Y-82042000D01*
X167513000Y-63246000D02*
X156972000Y-63246000D01*
X175641000Y-83312000D02*
X179916800Y-83312000D01*
X179916800Y-83312000D02*
X182120000Y-83312000D01*
X166751000Y-65532000D02*
X156972000Y-65532000D01*
X175514000Y-85852000D02*
X182120000Y-85852000D01*
X165862000Y-67818000D02*
X156972000Y-67818000D01*
X182120000Y-87122000D02*
X175514000Y-87122000D01*
X164973000Y-70104000D02*
X156972000Y-70104000D01*
X175641000Y-88392000D02*
X176100619Y-88392000D01*
X176100619Y-88392000D02*
X182120000Y-88392000D01*
X164211000Y-72390000D02*
X156972000Y-72390000D01*
X175641000Y-89662000D02*
X182120000Y-89662000D01*
X175641000Y-89662000D02*
X175768000Y-89662000D01*
X163926000Y-74676000D02*
X164000000Y-74750000D01*
X156972000Y-74676000D02*
X163926000Y-74676000D01*
X172720000Y-89662000D02*
X163829990Y-89662000D01*
X175037500Y-90297000D02*
X178737381Y-90297000D01*
X174402500Y-89662000D02*
X175037500Y-90297000D01*
X172720000Y-89662000D02*
X174402500Y-89662000D01*
X178737381Y-90297000D02*
X179197000Y-90297000D01*
X156972000Y-76962000D02*
X163068012Y-76962000D01*
X172720000Y-88392000D02*
X163068000Y-88392000D01*
X172720000Y-88392000D02*
X171037500Y-88392000D01*
X172720000Y-88392000D02*
X174402500Y-88392000D01*
X174402500Y-88392000D02*
X175037500Y-89027000D01*
X175037500Y-89027000D02*
X178737373Y-89027000D01*
X178737373Y-89027000D02*
X179196992Y-89027000D01*
X162498000Y-79248000D02*
X162500000Y-79250000D01*
X156972000Y-79248000D02*
X162498000Y-79248000D01*
X172720000Y-87122000D02*
X162433000Y-87122000D01*
X179197000Y-87757000D02*
X175037500Y-87757000D01*
X175037500Y-87757000D02*
X174402500Y-87122000D01*
X174402500Y-87122000D02*
X172720000Y-87122000D01*
X157734000Y-80772000D02*
X161211381Y-80772000D01*
X156972000Y-81534000D02*
X157734000Y-80772000D01*
X161211381Y-80772000D02*
X161671000Y-80772000D01*
X172720000Y-85852000D02*
X161798000Y-85852000D01*
X178737371Y-86487000D02*
X179196990Y-86487000D01*
X175037500Y-86487000D02*
X178737371Y-86487000D01*
X174402500Y-85852000D02*
X175037500Y-86487000D01*
X172720000Y-85852000D02*
X174402500Y-85852000D01*
X172720000Y-83312000D02*
X174402500Y-83312000D01*
X175062900Y-83972400D02*
X178663523Y-83972400D01*
X174402500Y-83312000D02*
X175062900Y-83972400D01*
X178663523Y-83972400D02*
X178754735Y-84063612D01*
X178754735Y-84063612D02*
X179214354Y-84063612D01*
X172720000Y-83312000D02*
X169672000Y-83312000D01*
X169672000Y-83312000D02*
X169164000Y-83820000D01*
X169164000Y-83820000D02*
X156972000Y-83820000D01*
X156972000Y-86106000D02*
X157616000Y-86750000D01*
X160790381Y-86750000D02*
X161250000Y-86750000D01*
X157616000Y-86750000D02*
X160790381Y-86750000D01*
X172720000Y-82042000D02*
X169672000Y-82042000D01*
X169672000Y-82042000D02*
X168529000Y-83185000D01*
X168529000Y-83185000D02*
X161163000Y-83185000D01*
X178737373Y-82677012D02*
X178737385Y-82677000D01*
X174402500Y-82042000D02*
X175037512Y-82677012D01*
X178737385Y-82677000D02*
X179197004Y-82677000D01*
X172720000Y-82042000D02*
X174402500Y-82042000D01*
X175037512Y-82677012D02*
X178737373Y-82677012D01*
X160357993Y-88392003D02*
X160500000Y-88249996D01*
X156971997Y-88392003D02*
X160357993Y-88392003D01*
X160959619Y-82500000D02*
X160500000Y-82500000D01*
X167944000Y-82500000D02*
X160959619Y-82500000D01*
X169672000Y-80772000D02*
X167944000Y-82500000D01*
X172720000Y-80772000D02*
X169672000Y-80772000D01*
X179197000Y-81407000D02*
X175037500Y-81407000D01*
X175037500Y-81407000D02*
X174402500Y-80772000D01*
X174402500Y-80772000D02*
X172720000Y-80772000D01*
X160147000Y-90170000D02*
X160330001Y-89986999D01*
X160330001Y-89986999D02*
X160655000Y-89662000D01*
X160147000Y-90678000D02*
X160147000Y-90170000D01*
X156972000Y-90678000D02*
X160147000Y-90678000D01*
X161459619Y-81750006D02*
X161000000Y-81750006D01*
X169672000Y-79502000D02*
X167423994Y-81750006D01*
X172720000Y-79502000D02*
X169672000Y-79502000D01*
X167423994Y-81750006D02*
X161459619Y-81750006D01*
X172720000Y-79502000D02*
X171037500Y-79502000D01*
X178737389Y-80137000D02*
X179197008Y-80137000D01*
X174402500Y-79502000D02*
X175037500Y-80137000D01*
X172720000Y-79502000D02*
X174402500Y-79502000D01*
X175037500Y-80137000D02*
X178737389Y-80137000D01*
X159004000Y-98552000D02*
X158750000Y-98298000D01*
X158750000Y-98298000D02*
X146913600Y-98298000D01*
X146913600Y-98298000D02*
X146507200Y-97891600D01*
X146507200Y-97891600D02*
X146507200Y-85648800D01*
X146507200Y-85648800D02*
X147828000Y-84328000D01*
X159382581Y-100787200D02*
X146507202Y-100787200D01*
X160147000Y-101092000D02*
X159687381Y-101092000D01*
X159687381Y-101092000D02*
X159382581Y-100787200D01*
X191897000Y-108077000D02*
X154256619Y-108077000D01*
X192659000Y-108839000D02*
X191897000Y-108077000D01*
X154256619Y-108077000D02*
X153797000Y-108077000D01*
X147828000Y-89408000D02*
X149098000Y-88138000D01*
X160000000Y-96500000D02*
X167436800Y-103936800D01*
X149098000Y-88138000D02*
X151138000Y-88138000D01*
X151138000Y-88138000D02*
X155456000Y-92456000D01*
X155456000Y-92456000D02*
X159456000Y-92456000D01*
X159456000Y-92456000D02*
X160000000Y-93000000D01*
X167436800Y-103936800D02*
X196240400Y-103936800D01*
X196240400Y-103936800D02*
X198353801Y-101823399D01*
X198353801Y-101823399D02*
X198678800Y-101498400D01*
X160000000Y-93000000D02*
X160000000Y-96500000D01*
X153105999Y-107371009D02*
X152781000Y-107696008D01*
X192715009Y-107371009D02*
X153105999Y-107371009D01*
X193294000Y-107950000D02*
X192715009Y-107371009D01*
X147828000Y-91948000D02*
X149098000Y-90678000D01*
X149098000Y-90678000D02*
X151511000Y-90678000D01*
X158877000Y-92964000D02*
X159385000Y-93472000D01*
X151511000Y-90678000D02*
X153797000Y-92964000D01*
X167411400Y-104546400D02*
X198018400Y-104546400D01*
X153797000Y-92964000D02*
X158877000Y-92964000D01*
X159385000Y-93472000D02*
X159385000Y-96520000D01*
X159385000Y-96520000D02*
X167411400Y-104546400D01*
X198018400Y-104546400D02*
X199186800Y-103378000D01*
X193929000Y-107061006D02*
X193469381Y-107061006D01*
X152732619Y-106807002D02*
X152273000Y-106807002D01*
X193469381Y-107061006D02*
X193215377Y-106807002D01*
X193215377Y-106807002D02*
X152732619Y-106807002D01*
X149098000Y-93218000D02*
X152870800Y-93218000D01*
X152870800Y-93218000D02*
X154140800Y-94488000D01*
X154140800Y-94488000D02*
X155194000Y-94488000D01*
X147828000Y-94488000D02*
X149098000Y-93218000D01*
X147828000Y-97028000D02*
X149098000Y-95758000D01*
X199268203Y-104922199D02*
X199593202Y-104597200D01*
X149098000Y-95758000D02*
X151258000Y-95758000D01*
X151258000Y-95758000D02*
X152500000Y-97000000D01*
X152500000Y-97000000D02*
X159230000Y-97000000D01*
X159230000Y-97000000D02*
X167360590Y-105130590D01*
X167360590Y-105130590D02*
X199059812Y-105130590D01*
X199059812Y-105130590D02*
X199268203Y-104922199D01*
X150368000Y-99568000D02*
X161163000Y-99568000D01*
X161163000Y-99568000D02*
X167157406Y-105562406D01*
X167157406Y-105562406D02*
X200657581Y-105562406D01*
X200657581Y-105562406D02*
X201117200Y-105562406D01*
X194358381Y-106299000D02*
X194818000Y-106299000D01*
X161079106Y-101727000D02*
X165651106Y-106299000D01*
X165651106Y-106299000D02*
X194358381Y-106299000D01*
X152019000Y-101727000D02*
X161079106Y-101727000D01*
X150368000Y-102108000D02*
X151130000Y-102870000D01*
X151130000Y-102870000D02*
X154559000Y-102870000D01*
X154361001Y-103566191D02*
X154686000Y-103891190D01*
X149098000Y-103378000D02*
X154172810Y-103378000D01*
X147828000Y-102108000D02*
X149098000Y-103378000D01*
X154172810Y-103378000D02*
X154361001Y-103566191D01*
X150368000Y-104648000D02*
X150495000Y-104521000D01*
X150495000Y-104521000D02*
X162941000Y-104521000D01*
X175174993Y-109824999D02*
X175499992Y-109500000D01*
X173747992Y-111252000D02*
X175174993Y-109824999D01*
X156210000Y-112500000D02*
X157458000Y-111252000D01*
X157458000Y-111252000D02*
X173747992Y-111252000D01*
X178561996Y-112522000D02*
X178562000Y-112522004D01*
X158750000Y-112522000D02*
X178561996Y-112522000D01*
X178562000Y-95631000D02*
X179324000Y-95631000D01*
X179324000Y-95631000D02*
X180213000Y-94742000D01*
X180213000Y-94742000D02*
X182120000Y-94742000D01*
X161250000Y-96750000D02*
X161774000Y-96750000D01*
X161774000Y-96750000D02*
X162306000Y-97282000D01*
X162306000Y-97282000D02*
X168450381Y-97282000D01*
X168450381Y-97282000D02*
X168782994Y-97282000D01*
X162282000Y-97282000D02*
X168450381Y-97282000D01*
X162250000Y-97250000D02*
X162282000Y-97282000D01*
X182120000Y-97282000D02*
X175641000Y-97282000D01*
X175641000Y-99822000D02*
X182120000Y-99822000D01*
X165862000Y-99949000D02*
X168783000Y-99949000D01*
X188341000Y-101092000D02*
X185674000Y-101092000D01*
X179197000Y-101727000D02*
X175133000Y-101727000D01*
X175133000Y-101727000D02*
X174498000Y-101092000D01*
X174498000Y-101092000D02*
X172720000Y-101092000D01*
X174402500Y-101092000D02*
X172720000Y-101092000D01*
X188341000Y-98552000D02*
X185674000Y-98552000D01*
X179197000Y-99187000D02*
X178737381Y-99187000D01*
X178737381Y-99187000D02*
X178732182Y-99181801D01*
X178732182Y-99181801D02*
X175127801Y-99181801D01*
X175127801Y-99181801D02*
X174498000Y-98552000D01*
X174498000Y-98552000D02*
X172720000Y-98552000D01*
X188341000Y-96012000D02*
X185674000Y-96012000D01*
X179197000Y-96520000D02*
X175641000Y-96520000D01*
X175641000Y-96520000D02*
X175133000Y-96012000D01*
X175133000Y-96012000D02*
X172720000Y-96012000D01*
X174402500Y-96012000D02*
X172720000Y-96012000D01*
X197358000Y-92202000D02*
X194056000Y-92202000D01*
X194056000Y-92202000D02*
X185674000Y-92202000D01*
X172720000Y-92202000D02*
X179197002Y-92202000D01*
X168782992Y-93472000D02*
X168783000Y-93471992D01*
X165862000Y-93472000D02*
X168782992Y-93472000D01*
X182120000Y-93472000D02*
X180437500Y-93472000D01*
X180437500Y-93472000D02*
X179802500Y-94107000D01*
X179802500Y-94107000D02*
X176100629Y-94107000D01*
X176100629Y-94107000D02*
X176100619Y-94107010D01*
X176100619Y-94107010D02*
X175641000Y-94107010D01*
X165862000Y-98552000D02*
X168782996Y-98552000D01*
X168782996Y-98552000D02*
X168783000Y-98552004D01*
X182120000Y-98552000D02*
X175641000Y-98552000D01*
X175641000Y-101092000D02*
X179494106Y-101092000D01*
X179494106Y-101092000D02*
X182120000Y-101092000D01*
X165862000Y-101092000D02*
X168783000Y-101092000D01*
X197358000Y-99822000D02*
X185674000Y-99822000D01*
X194056000Y-99822000D02*
X185674000Y-99822000D01*
X175037500Y-100457000D02*
X179197000Y-100457000D01*
X174402500Y-99822000D02*
X175037500Y-100457000D01*
X172720000Y-99822000D02*
X174402500Y-99822000D01*
X185674000Y-97282000D02*
X193929000Y-97282000D01*
X193929000Y-97282000D02*
X194056000Y-97282000D01*
X194564000Y-97282000D02*
X193929000Y-97282000D01*
X194564000Y-97282000D02*
X197358000Y-97282000D01*
X178737381Y-97917046D02*
X179197000Y-97917046D01*
X175037546Y-97917046D02*
X178737381Y-97917046D01*
X174402500Y-97282000D02*
X175037546Y-97917046D01*
X172720000Y-97282000D02*
X174402500Y-97282000D01*
X197358000Y-94742000D02*
X194056000Y-94742000D01*
X194056000Y-94742000D02*
X185674000Y-94742000D01*
X172720000Y-94742000D02*
X175216892Y-94742000D01*
X175216892Y-94742000D02*
X179197000Y-94742000D01*
X188341000Y-93472000D02*
X185674000Y-93472000D01*
X172720000Y-93472000D02*
X179196994Y-93472000D01*
D21*
G36*
X201354989Y-54710152D02*
X201944170Y-55103830D01*
X202337848Y-55693011D01*
X202490000Y-56457931D01*
X202490000Y-124898069D01*
X202337848Y-125662989D01*
X201944170Y-126252170D01*
X201354989Y-126645848D01*
X200590069Y-126798000D01*
X147389931Y-126798000D01*
X146625011Y-126645848D01*
X146035830Y-126252170D01*
X145642152Y-125662989D01*
X145562409Y-125262089D01*
X146342743Y-125262089D01*
X146568344Y-125808086D01*
X146985717Y-126226188D01*
X147531319Y-126452742D01*
X148122089Y-126453257D01*
X148668086Y-126227656D01*
X149086188Y-125810283D01*
X149097748Y-125782443D01*
X149108344Y-125808086D01*
X149525717Y-126226188D01*
X150071319Y-126452742D01*
X150662089Y-126453257D01*
X151208086Y-126227656D01*
X151626188Y-125810283D01*
X151852742Y-125264681D01*
X151853257Y-124673911D01*
X151627656Y-124127914D01*
X151210283Y-123709812D01*
X151045614Y-123641435D01*
X151133062Y-123605213D01*
X151214499Y-123377737D01*
X150368000Y-122531238D01*
X149521501Y-123377737D01*
X149602938Y-123605213D01*
X149691710Y-123640665D01*
X149527914Y-123708344D01*
X149109812Y-124125717D01*
X149098252Y-124153557D01*
X149087656Y-124127914D01*
X148670283Y-123709812D01*
X148505614Y-123641435D01*
X148593062Y-123605213D01*
X148674499Y-123377737D01*
X147828000Y-122531238D01*
X146981501Y-123377737D01*
X147062938Y-123605213D01*
X147151710Y-123640665D01*
X146987914Y-123708344D01*
X146569812Y-124125717D01*
X146343258Y-124671319D01*
X146342743Y-125262089D01*
X145562409Y-125262089D01*
X145490000Y-124898069D01*
X145490000Y-122171675D01*
X146447620Y-122171675D01*
X146454603Y-122719435D01*
X146650787Y-123193062D01*
X146878263Y-123274499D01*
X147724762Y-122428000D01*
X147931238Y-122428000D01*
X148777737Y-123274499D01*
X149005213Y-123193062D01*
X149096305Y-122964964D01*
X149190787Y-123193062D01*
X149418263Y-123274499D01*
X150264762Y-122428000D01*
X150471238Y-122428000D01*
X151317737Y-123274499D01*
X151545213Y-123193062D01*
X151748380Y-122684325D01*
X151741397Y-122136565D01*
X151545213Y-121662938D01*
X151317737Y-121581501D01*
X150471238Y-122428000D01*
X150264762Y-122428000D01*
X149418263Y-121581501D01*
X149190787Y-121662938D01*
X149099695Y-121891036D01*
X149005213Y-121662938D01*
X148777737Y-121581501D01*
X147931238Y-122428000D01*
X147724762Y-122428000D01*
X146878263Y-121581501D01*
X146650787Y-121662938D01*
X146447620Y-122171675D01*
X145490000Y-122171675D01*
X145490000Y-100977318D01*
X145547035Y-100977318D01*
X145692879Y-101330286D01*
X145962695Y-101600574D01*
X146315408Y-101747033D01*
X146369932Y-101747081D01*
X146343258Y-101811319D01*
X146342743Y-102402089D01*
X146568344Y-102948086D01*
X146985717Y-103366188D01*
X147013557Y-103377748D01*
X146987914Y-103388344D01*
X146569812Y-103805717D01*
X146343258Y-104351319D01*
X146342743Y-104942089D01*
X146568344Y-105488086D01*
X146985717Y-105906188D01*
X147013557Y-105917748D01*
X146987914Y-105928344D01*
X146569812Y-106345717D01*
X146343258Y-106891319D01*
X146342743Y-107482089D01*
X146568344Y-108028086D01*
X146985717Y-108446188D01*
X147013557Y-108457748D01*
X146987914Y-108468344D01*
X146569812Y-108885717D01*
X146343258Y-109431319D01*
X146342743Y-110022089D01*
X146568344Y-110568086D01*
X146985717Y-110986188D01*
X147013557Y-110997748D01*
X146987914Y-111008344D01*
X146569812Y-111425717D01*
X146343258Y-111971319D01*
X146342743Y-112562089D01*
X146568344Y-113108086D01*
X146985717Y-113526188D01*
X147013557Y-113537748D01*
X146987914Y-113548344D01*
X146569812Y-113965717D01*
X146343258Y-114511319D01*
X146342743Y-115102089D01*
X146568344Y-115648086D01*
X146985717Y-116066188D01*
X147013557Y-116077748D01*
X146987914Y-116088344D01*
X146569812Y-116505717D01*
X146343258Y-117051319D01*
X146342743Y-117642089D01*
X146568344Y-118188086D01*
X146985717Y-118606188D01*
X147013557Y-118617748D01*
X146987914Y-118628344D01*
X146569812Y-119045717D01*
X146343258Y-119591319D01*
X146342743Y-120182089D01*
X146568344Y-120728086D01*
X146985717Y-121146188D01*
X147150386Y-121214565D01*
X147062938Y-121250787D01*
X146981501Y-121478263D01*
X147828000Y-122324762D01*
X148674499Y-121478263D01*
X148593062Y-121250787D01*
X148504290Y-121215335D01*
X148668086Y-121147656D01*
X149086188Y-120730283D01*
X149097748Y-120702443D01*
X149108344Y-120728086D01*
X149525717Y-121146188D01*
X149690386Y-121214565D01*
X149602938Y-121250787D01*
X149521501Y-121478263D01*
X150368000Y-122324762D01*
X151214499Y-121478263D01*
X151133062Y-121250787D01*
X151044290Y-121215335D01*
X151208086Y-121147656D01*
X151626188Y-120730283D01*
X151852742Y-120184681D01*
X151853257Y-119593911D01*
X151627656Y-119047914D01*
X151210283Y-118629812D01*
X151182443Y-118618252D01*
X151208086Y-118607656D01*
X151626188Y-118190283D01*
X151852742Y-117644681D01*
X151853257Y-117053911D01*
X151627656Y-116507914D01*
X151210283Y-116089812D01*
X151182443Y-116078252D01*
X151208086Y-116067656D01*
X151626188Y-115650283D01*
X151852742Y-115104681D01*
X151853257Y-114513911D01*
X151627656Y-113967914D01*
X151210283Y-113549812D01*
X151182443Y-113538252D01*
X151208086Y-113527656D01*
X151626188Y-113110283D01*
X151852742Y-112564681D01*
X151853257Y-111973911D01*
X151627656Y-111427914D01*
X151210283Y-111009812D01*
X151182443Y-110998252D01*
X151208086Y-110987656D01*
X151626188Y-110570283D01*
X151852742Y-110024681D01*
X151853257Y-109433911D01*
X151627656Y-108887914D01*
X151210283Y-108469812D01*
X151182443Y-108458252D01*
X151208086Y-108447656D01*
X151626188Y-108030283D01*
X151786410Y-107644425D01*
X151821032Y-107658801D01*
X151820833Y-107886126D01*
X151966677Y-108239094D01*
X152236493Y-108509382D01*
X152589206Y-108655841D01*
X152971118Y-108656175D01*
X153004807Y-108642255D01*
X153252493Y-108890374D01*
X153605206Y-109036833D01*
X153987118Y-109037167D01*
X154340086Y-108891323D01*
X154417945Y-108813600D01*
X154793981Y-108813600D01*
X154763569Y-108858110D01*
X154712560Y-109110000D01*
X154712560Y-110810000D01*
X154756838Y-111045317D01*
X154895910Y-111261441D01*
X155108110Y-111406431D01*
X155175541Y-111420086D01*
X155130853Y-111449946D01*
X154808946Y-111931715D01*
X154695907Y-112500000D01*
X154808946Y-113068285D01*
X155130853Y-113550054D01*
X155612622Y-113871961D01*
X156180907Y-113985000D01*
X156239093Y-113985000D01*
X156807378Y-113871961D01*
X157286408Y-113551884D01*
X157296838Y-113607317D01*
X157435910Y-113823441D01*
X157648110Y-113968431D01*
X157900000Y-114019440D01*
X159600000Y-114019440D01*
X159835317Y-113975162D01*
X160051441Y-113836090D01*
X160196431Y-113623890D01*
X160247440Y-113372000D01*
X160247440Y-113258600D01*
X177940849Y-113258600D01*
X178017493Y-113335378D01*
X178370206Y-113481837D01*
X178752118Y-113482171D01*
X179105086Y-113336327D01*
X179375374Y-113066511D01*
X179521833Y-112713798D01*
X179522167Y-112331886D01*
X179376323Y-111978918D01*
X179106507Y-111708630D01*
X178753794Y-111562171D01*
X178371882Y-111561837D01*
X178018914Y-111707681D01*
X177941059Y-111785400D01*
X174250072Y-111785400D01*
X174268847Y-111772855D01*
X175581630Y-110460072D01*
X175690110Y-110460167D01*
X176043078Y-110314323D01*
X176313366Y-110044507D01*
X176459825Y-109691794D01*
X176460159Y-109309882D01*
X176314315Y-108956914D01*
X176171251Y-108813600D01*
X191591890Y-108813600D01*
X191698928Y-108920638D01*
X191698833Y-109029118D01*
X191844677Y-109382086D01*
X192114493Y-109652374D01*
X192467206Y-109798833D01*
X192849118Y-109799167D01*
X193202086Y-109653323D01*
X193472374Y-109383507D01*
X193618833Y-109030794D01*
X193618987Y-108854440D01*
X193837086Y-108764323D01*
X194107374Y-108494507D01*
X194253833Y-108141794D01*
X194253987Y-107965446D01*
X194472086Y-107875329D01*
X194742374Y-107605513D01*
X194886233Y-107259060D01*
X195008118Y-107259167D01*
X195361086Y-107113323D01*
X195631374Y-106843507D01*
X195777833Y-106490794D01*
X195778001Y-106299006D01*
X200496053Y-106299006D01*
X200572693Y-106375780D01*
X200925406Y-106522239D01*
X201307318Y-106522573D01*
X201660286Y-106376729D01*
X201930574Y-106106913D01*
X202077033Y-105754200D01*
X202077367Y-105372288D01*
X201931523Y-105019320D01*
X201661707Y-104749032D01*
X201308994Y-104602573D01*
X200927082Y-104602239D01*
X200574114Y-104748083D01*
X200553052Y-104769108D01*
X200553369Y-104407082D01*
X200407525Y-104054114D01*
X200137709Y-103783826D01*
X200069517Y-103755510D01*
X200146633Y-103569794D01*
X200146967Y-103187882D01*
X200001123Y-102834914D01*
X199731307Y-102564626D01*
X199378594Y-102418167D01*
X198996682Y-102417833D01*
X198663344Y-102555566D01*
X198760438Y-102458472D01*
X198868918Y-102458567D01*
X199221886Y-102312723D01*
X199492174Y-102042907D01*
X199638633Y-101690194D01*
X199638967Y-101308282D01*
X199493123Y-100955314D01*
X199223307Y-100685026D01*
X198870594Y-100538567D01*
X198488682Y-100538233D01*
X198135714Y-100684077D01*
X197865426Y-100953893D01*
X197718967Y-101306606D01*
X197718871Y-101416619D01*
X195935290Y-103200200D01*
X184240036Y-103200200D01*
X184418521Y-103126269D01*
X184566769Y-102978022D01*
X184647000Y-102784327D01*
X184647000Y-102566750D01*
X184515250Y-102435000D01*
X182193000Y-102435000D01*
X182193000Y-102455000D01*
X182047000Y-102455000D01*
X182047000Y-102435000D01*
X182027000Y-102435000D01*
X182027000Y-102289000D01*
X182047000Y-102289000D01*
X182047000Y-102269000D01*
X182193000Y-102269000D01*
X182193000Y-102289000D01*
X184515250Y-102289000D01*
X184647000Y-102157250D01*
X184647000Y-101939673D01*
X184601441Y-101829684D01*
X184716431Y-101661390D01*
X184767120Y-101411081D01*
X184859677Y-101635086D01*
X185129493Y-101905374D01*
X185482206Y-102051833D01*
X185864118Y-102052167D01*
X186217086Y-101906323D01*
X186294945Y-101828600D01*
X187719853Y-101828600D01*
X187796493Y-101905374D01*
X188149206Y-102051833D01*
X188531118Y-102052167D01*
X188884086Y-101906323D01*
X189154374Y-101636507D01*
X189300833Y-101283794D01*
X189301167Y-100901882D01*
X189159325Y-100558600D01*
X196736853Y-100558600D01*
X196813493Y-100635374D01*
X197166206Y-100781833D01*
X197548118Y-100782167D01*
X197901086Y-100636323D01*
X198171374Y-100366507D01*
X198317833Y-100013794D01*
X198318167Y-99631882D01*
X198172323Y-99278914D01*
X198127000Y-99233512D01*
X198127000Y-97870804D01*
X198171374Y-97826507D01*
X198317833Y-97473794D01*
X198318167Y-97091882D01*
X198172323Y-96738914D01*
X198127000Y-96693512D01*
X198127000Y-95330804D01*
X198171374Y-95286507D01*
X198317833Y-94933794D01*
X198318167Y-94551882D01*
X198172323Y-94198914D01*
X198127000Y-94153512D01*
X198127000Y-92790804D01*
X198171374Y-92746507D01*
X198317833Y-92393794D01*
X198318167Y-92011882D01*
X198172323Y-91658914D01*
X197902507Y-91388626D01*
X197549794Y-91242167D01*
X197167882Y-91241833D01*
X196814914Y-91387677D01*
X196737055Y-91465400D01*
X186295147Y-91465400D01*
X186218507Y-91388626D01*
X185865794Y-91242167D01*
X185483882Y-91241833D01*
X185130914Y-91387677D01*
X184860626Y-91657493D01*
X184767105Y-91882718D01*
X184723162Y-91649183D01*
X184670920Y-91567997D01*
X184716431Y-91501390D01*
X184767440Y-91249500D01*
X184767440Y-90614500D01*
X184723162Y-90379183D01*
X184670920Y-90297997D01*
X184716431Y-90231390D01*
X184767440Y-89979500D01*
X184767440Y-89344500D01*
X184723162Y-89109183D01*
X184670920Y-89027997D01*
X184716431Y-88961390D01*
X184767440Y-88709500D01*
X184767440Y-88074500D01*
X184723162Y-87839183D01*
X184670920Y-87757997D01*
X184716431Y-87691390D01*
X184767440Y-87439500D01*
X184767440Y-86804500D01*
X184723162Y-86569183D01*
X184670920Y-86487997D01*
X184716431Y-86421390D01*
X184767440Y-86169500D01*
X184767440Y-85617000D01*
X185165995Y-85617000D01*
X185166000Y-85617001D01*
X185562077Y-85538215D01*
X185897856Y-85313856D01*
X186405853Y-84805858D01*
X186405856Y-84805856D01*
X186630215Y-84470077D01*
X186709000Y-84074000D01*
X186709000Y-78986005D01*
X186709001Y-78986000D01*
X186630215Y-78589923D01*
X186405856Y-78254144D01*
X185651856Y-77500144D01*
X185316077Y-77275785D01*
X184920000Y-77196999D01*
X184919995Y-77197000D01*
X173990000Y-77197000D01*
X173990000Y-75030678D01*
X173991146Y-75029000D01*
X176042000Y-75029000D01*
X176476346Y-74942603D01*
X176844566Y-74696566D01*
X177090603Y-74328346D01*
X177177000Y-73894000D01*
X177090603Y-73459654D01*
X176844566Y-73091434D01*
X176476346Y-72845397D01*
X176042000Y-72759000D01*
X173965974Y-72759000D01*
X173936090Y-72712559D01*
X173777257Y-72604033D01*
X173918769Y-72462522D01*
X173999000Y-72268827D01*
X173999000Y-71618750D01*
X173867250Y-71487000D01*
X172920000Y-71487000D01*
X172920000Y-71507000D01*
X172774000Y-71507000D01*
X172774000Y-71487000D01*
X171826750Y-71487000D01*
X171695000Y-71618750D01*
X171695000Y-72268827D01*
X171775231Y-72462522D01*
X171917844Y-72605134D01*
X171770559Y-72699910D01*
X171625569Y-72912110D01*
X171574560Y-73164000D01*
X171574560Y-74664000D01*
X171618838Y-74899317D01*
X171704000Y-75031662D01*
X171704000Y-77267060D01*
X170720000Y-77267060D01*
X170484683Y-77311338D01*
X170268559Y-77450410D01*
X170123569Y-77662610D01*
X170072560Y-77914500D01*
X170072560Y-78549500D01*
X170113184Y-78765400D01*
X169672005Y-78765400D01*
X169672000Y-78765399D01*
X169436883Y-78812167D01*
X169390115Y-78821470D01*
X169186543Y-78957493D01*
X169151145Y-78981145D01*
X167118884Y-81013406D01*
X162610232Y-81013406D01*
X162630833Y-80963794D01*
X162631167Y-80581882D01*
X162485323Y-80228914D01*
X162466413Y-80209971D01*
X162690118Y-80210167D01*
X163043086Y-80064323D01*
X163313374Y-79794507D01*
X163459833Y-79441794D01*
X163460167Y-79059882D01*
X163314323Y-78706914D01*
X163044507Y-78436626D01*
X162691794Y-78290167D01*
X162309882Y-78289833D01*
X161956914Y-78435677D01*
X161881059Y-78511400D01*
X157593147Y-78511400D01*
X157516507Y-78434626D01*
X157163794Y-78288167D01*
X156781882Y-78287833D01*
X156428914Y-78433677D01*
X156158626Y-78703493D01*
X156012167Y-79056206D01*
X156011833Y-79438118D01*
X156157677Y-79791086D01*
X156427493Y-80061374D01*
X156780206Y-80207833D01*
X157162118Y-80208167D01*
X157515086Y-80062323D01*
X157592945Y-79984600D01*
X161100944Y-79984600D01*
X161050055Y-80035400D01*
X157734000Y-80035400D01*
X157452115Y-80091470D01*
X157248543Y-80227493D01*
X157213145Y-80251145D01*
X156890362Y-80573928D01*
X156781882Y-80573833D01*
X156428914Y-80719677D01*
X156158626Y-80989493D01*
X156012167Y-81342206D01*
X156011833Y-81724118D01*
X156157677Y-82077086D01*
X156427493Y-82347374D01*
X156780206Y-82493833D01*
X157162118Y-82494167D01*
X157515086Y-82348323D01*
X157785374Y-82078507D01*
X157931833Y-81725794D01*
X157931929Y-81615781D01*
X158039110Y-81508600D01*
X160060768Y-81508600D01*
X160040167Y-81558212D01*
X160040086Y-81651311D01*
X159956914Y-81685677D01*
X159686626Y-81955493D01*
X159540167Y-82308206D01*
X159539833Y-82690118D01*
X159685677Y-83043086D01*
X159725921Y-83083400D01*
X157593147Y-83083400D01*
X157516507Y-83006626D01*
X157163794Y-82860167D01*
X156781882Y-82859833D01*
X156428914Y-83005677D01*
X156158626Y-83275493D01*
X156012167Y-83628206D01*
X156011833Y-84010118D01*
X156157677Y-84363086D01*
X156427493Y-84633374D01*
X156780206Y-84779833D01*
X157162118Y-84780167D01*
X157515086Y-84634323D01*
X157592945Y-84556600D01*
X169164000Y-84556600D01*
X169445885Y-84500530D01*
X169684855Y-84340855D01*
X169977110Y-84048600D01*
X170235099Y-84048600D01*
X170237477Y-84052296D01*
X170193000Y-84159673D01*
X170193000Y-84377250D01*
X170324750Y-84509000D01*
X172647000Y-84509000D01*
X172647000Y-84489000D01*
X172793000Y-84489000D01*
X172793000Y-84509000D01*
X172813000Y-84509000D01*
X172813000Y-84655000D01*
X172793000Y-84655000D01*
X172793000Y-84675000D01*
X172647000Y-84675000D01*
X172647000Y-84655000D01*
X170324750Y-84655000D01*
X170193000Y-84786750D01*
X170193000Y-85004327D01*
X170238559Y-85114316D01*
X170237819Y-85115400D01*
X162419147Y-85115400D01*
X162342507Y-85038626D01*
X161989794Y-84892167D01*
X161607882Y-84891833D01*
X161254914Y-85037677D01*
X160984626Y-85307493D01*
X160838167Y-85660206D01*
X160837973Y-85881524D01*
X160706914Y-85935677D01*
X160629055Y-86013400D01*
X157932082Y-86013400D01*
X157932167Y-85915882D01*
X157786323Y-85562914D01*
X157516507Y-85292626D01*
X157163794Y-85146167D01*
X156781882Y-85145833D01*
X156428914Y-85291677D01*
X156158626Y-85561493D01*
X156012167Y-85914206D01*
X156011833Y-86296118D01*
X156157677Y-86649086D01*
X156427493Y-86919374D01*
X156780206Y-87065833D01*
X156890219Y-87065929D01*
X157095145Y-87270855D01*
X157334116Y-87430531D01*
X157616000Y-87486601D01*
X157616005Y-87486600D01*
X159905898Y-87486600D01*
X159736800Y-87655403D01*
X157593144Y-87655403D01*
X157516504Y-87578629D01*
X157163791Y-87432170D01*
X156781879Y-87431836D01*
X156428911Y-87577680D01*
X156158623Y-87847496D01*
X156012164Y-88200209D01*
X156011830Y-88582121D01*
X156157674Y-88935089D01*
X156427490Y-89205377D01*
X156780203Y-89351836D01*
X157162115Y-89352170D01*
X157515083Y-89206326D01*
X157592942Y-89128603D01*
X159837013Y-89128603D01*
X159695167Y-89470206D01*
X159695071Y-89580219D01*
X159626145Y-89649145D01*
X159466470Y-89888115D01*
X159455871Y-89941400D01*
X157593147Y-89941400D01*
X157516507Y-89864626D01*
X157163794Y-89718167D01*
X156781882Y-89717833D01*
X156428914Y-89863677D01*
X156158626Y-90133493D01*
X156012167Y-90486206D01*
X156011833Y-90868118D01*
X156157677Y-91221086D01*
X156427493Y-91491374D01*
X156780206Y-91637833D01*
X157162118Y-91638167D01*
X157515086Y-91492323D01*
X157592945Y-91414600D01*
X160147000Y-91414600D01*
X160428885Y-91358530D01*
X160667855Y-91198855D01*
X160827530Y-90959885D01*
X160883600Y-90678000D01*
X160883600Y-90606266D01*
X161198086Y-90476323D01*
X161468374Y-90206507D01*
X161614833Y-89853794D01*
X161615167Y-89471882D01*
X161469323Y-89118914D01*
X161229280Y-88878451D01*
X161313374Y-88794503D01*
X161459833Y-88441790D01*
X161460167Y-88059878D01*
X161315624Y-87710058D01*
X161440118Y-87710167D01*
X161608548Y-87640573D01*
X161618677Y-87665086D01*
X161888493Y-87935374D01*
X162169656Y-88052123D01*
X162108167Y-88200206D01*
X162107833Y-88582118D01*
X162253677Y-88935086D01*
X162523493Y-89205374D01*
X162876206Y-89351833D01*
X162919294Y-89351871D01*
X162870157Y-89470206D01*
X162869823Y-89852118D01*
X163015667Y-90205086D01*
X163285483Y-90475374D01*
X163638196Y-90621833D01*
X164020108Y-90622167D01*
X164373076Y-90476323D01*
X164450935Y-90398600D01*
X170116281Y-90398600D01*
X170072560Y-90614500D01*
X170072560Y-91249500D01*
X170116838Y-91484817D01*
X170169080Y-91566003D01*
X170123569Y-91632610D01*
X170072560Y-91884500D01*
X170072560Y-92519500D01*
X170116838Y-92754817D01*
X170169080Y-92836003D01*
X170123569Y-92902610D01*
X170072560Y-93154500D01*
X170072560Y-93789500D01*
X170116838Y-94024817D01*
X170169080Y-94106003D01*
X170123569Y-94172610D01*
X170072560Y-94424500D01*
X170072560Y-95059500D01*
X170116838Y-95294817D01*
X170169080Y-95376003D01*
X170123569Y-95442610D01*
X170072560Y-95694500D01*
X170072560Y-96329500D01*
X170116838Y-96564817D01*
X170169080Y-96646003D01*
X170123569Y-96712610D01*
X170072560Y-96964500D01*
X170072560Y-97599500D01*
X170116838Y-97834817D01*
X170169080Y-97916003D01*
X170123569Y-97982610D01*
X170072560Y-98234500D01*
X170072560Y-98869500D01*
X170116838Y-99104817D01*
X170169080Y-99186003D01*
X170123569Y-99252610D01*
X170072560Y-99504500D01*
X170072560Y-100139500D01*
X170116838Y-100374817D01*
X170169080Y-100456003D01*
X170123569Y-100522610D01*
X170072560Y-100774500D01*
X170072560Y-101409500D01*
X170116838Y-101644817D01*
X170237477Y-101832296D01*
X170193000Y-101939673D01*
X170193000Y-102157250D01*
X170324750Y-102289000D01*
X172647000Y-102289000D01*
X172647000Y-102269000D01*
X172793000Y-102269000D01*
X172793000Y-102289000D01*
X172813000Y-102289000D01*
X172813000Y-102435000D01*
X172793000Y-102435000D01*
X172793000Y-102455000D01*
X172647000Y-102455000D01*
X172647000Y-102435000D01*
X170324750Y-102435000D01*
X170193000Y-102566750D01*
X170193000Y-102784327D01*
X170273231Y-102978022D01*
X170421479Y-103126269D01*
X170599964Y-103200200D01*
X167741910Y-103200200D01*
X166426578Y-101884868D01*
X166482945Y-101828600D01*
X168161853Y-101828600D01*
X168238493Y-101905374D01*
X168591206Y-102051833D01*
X168973118Y-102052167D01*
X169326086Y-101906323D01*
X169596374Y-101636507D01*
X169742833Y-101283794D01*
X169743167Y-100901882D01*
X169597323Y-100548914D01*
X169569146Y-100520688D01*
X169596374Y-100493507D01*
X169742833Y-100140794D01*
X169743167Y-99758882D01*
X169597323Y-99405914D01*
X169442148Y-99250468D01*
X169596374Y-99096511D01*
X169742833Y-98743798D01*
X169743167Y-98361886D01*
X169597323Y-98008918D01*
X169505641Y-97917076D01*
X169596368Y-97826507D01*
X169742827Y-97473794D01*
X169743161Y-97091882D01*
X169597317Y-96738914D01*
X169327501Y-96468626D01*
X168974788Y-96322167D01*
X168592876Y-96321833D01*
X168239908Y-96467677D01*
X168162049Y-96545400D01*
X162611110Y-96545400D01*
X162294855Y-96229145D01*
X162055885Y-96069470D01*
X161895216Y-96037511D01*
X161794507Y-95936626D01*
X161441794Y-95790167D01*
X161059882Y-95789833D01*
X160736600Y-95923411D01*
X160736600Y-93662118D01*
X164901833Y-93662118D01*
X165047677Y-94015086D01*
X165317493Y-94285374D01*
X165670206Y-94431833D01*
X166052118Y-94432167D01*
X166405086Y-94286323D01*
X166482945Y-94208600D01*
X168161861Y-94208600D01*
X168238493Y-94285366D01*
X168591206Y-94431825D01*
X168973118Y-94432159D01*
X169326086Y-94286315D01*
X169596374Y-94016499D01*
X169742833Y-93663786D01*
X169743167Y-93281874D01*
X169597323Y-92928906D01*
X169327507Y-92658618D01*
X168974794Y-92512159D01*
X168592882Y-92511825D01*
X168239914Y-92657669D01*
X168162047Y-92735400D01*
X166483147Y-92735400D01*
X166406507Y-92658626D01*
X166053794Y-92512167D01*
X165671882Y-92511833D01*
X165318914Y-92657677D01*
X165048626Y-92927493D01*
X164902167Y-93280206D01*
X164901833Y-93662118D01*
X160736600Y-93662118D01*
X160736600Y-93000000D01*
X160680530Y-92718115D01*
X160520855Y-92479145D01*
X159976855Y-91935145D01*
X159737885Y-91775470D01*
X159456000Y-91719400D01*
X155761110Y-91719400D01*
X151663100Y-87621390D01*
X151852742Y-87164681D01*
X151853257Y-86573911D01*
X151627656Y-86027914D01*
X151210283Y-85609812D01*
X151182443Y-85598252D01*
X151208086Y-85587656D01*
X151626188Y-85170283D01*
X151852742Y-84624681D01*
X151853257Y-84033911D01*
X151627656Y-83487914D01*
X151210283Y-83069812D01*
X151045614Y-83001435D01*
X151133062Y-82965213D01*
X151214499Y-82737737D01*
X150368000Y-81891238D01*
X149521501Y-82737737D01*
X149602938Y-82965213D01*
X149691710Y-83000665D01*
X149527914Y-83068344D01*
X149109812Y-83485717D01*
X149098252Y-83513557D01*
X149087656Y-83487914D01*
X148670283Y-83069812D01*
X148505614Y-83001435D01*
X148593062Y-82965213D01*
X148674499Y-82737737D01*
X147828000Y-81891238D01*
X146981501Y-82737737D01*
X147062938Y-82965213D01*
X147151710Y-83000665D01*
X146987914Y-83068344D01*
X146569812Y-83485717D01*
X146343258Y-84031319D01*
X146342743Y-84622089D01*
X146386442Y-84727848D01*
X145986345Y-85127945D01*
X145826670Y-85366915D01*
X145770600Y-85648800D01*
X145770600Y-97891600D01*
X145826670Y-98173485D01*
X145986345Y-98412455D01*
X146392745Y-98818855D01*
X146501080Y-98891242D01*
X146343258Y-99271319D01*
X146342774Y-99827055D01*
X146317084Y-99827033D01*
X145964116Y-99972877D01*
X145693828Y-100242693D01*
X145547369Y-100595406D01*
X145547035Y-100977318D01*
X145490000Y-100977318D01*
X145490000Y-81531675D01*
X146447620Y-81531675D01*
X146454603Y-82079435D01*
X146650787Y-82553062D01*
X146878263Y-82634499D01*
X147724762Y-81788000D01*
X147931238Y-81788000D01*
X148777737Y-82634499D01*
X149005213Y-82553062D01*
X149096305Y-82324964D01*
X149190787Y-82553062D01*
X149418263Y-82634499D01*
X150264762Y-81788000D01*
X150471238Y-81788000D01*
X151317737Y-82634499D01*
X151545213Y-82553062D01*
X151748380Y-82044325D01*
X151741397Y-81496565D01*
X151545213Y-81022938D01*
X151317737Y-80941501D01*
X150471238Y-81788000D01*
X150264762Y-81788000D01*
X149418263Y-80941501D01*
X149190787Y-81022938D01*
X149099695Y-81251036D01*
X149005213Y-81022938D01*
X148777737Y-80941501D01*
X147931238Y-81788000D01*
X147724762Y-81788000D01*
X146878263Y-80941501D01*
X146650787Y-81022938D01*
X146447620Y-81531675D01*
X145490000Y-81531675D01*
X145490000Y-61762089D01*
X146342743Y-61762089D01*
X146568344Y-62308086D01*
X146985717Y-62726188D01*
X147013557Y-62737748D01*
X146987914Y-62748344D01*
X146569812Y-63165717D01*
X146343258Y-63711319D01*
X146342743Y-64302089D01*
X146568344Y-64848086D01*
X146985717Y-65266188D01*
X147013557Y-65277748D01*
X146987914Y-65288344D01*
X146569812Y-65705717D01*
X146343258Y-66251319D01*
X146342743Y-66842089D01*
X146568344Y-67388086D01*
X146985717Y-67806188D01*
X147013557Y-67817748D01*
X146987914Y-67828344D01*
X146569812Y-68245717D01*
X146343258Y-68791319D01*
X146342743Y-69382089D01*
X146568344Y-69928086D01*
X146985717Y-70346188D01*
X147013557Y-70357748D01*
X146987914Y-70368344D01*
X146569812Y-70785717D01*
X146343258Y-71331319D01*
X146342743Y-71922089D01*
X146568344Y-72468086D01*
X146985717Y-72886188D01*
X147013557Y-72897748D01*
X146987914Y-72908344D01*
X146569812Y-73325717D01*
X146343258Y-73871319D01*
X146342743Y-74462089D01*
X146568344Y-75008086D01*
X146985717Y-75426188D01*
X147013557Y-75437748D01*
X146987914Y-75448344D01*
X146569812Y-75865717D01*
X146343258Y-76411319D01*
X146342743Y-77002089D01*
X146568344Y-77548086D01*
X146985717Y-77966188D01*
X147013557Y-77977748D01*
X146987914Y-77988344D01*
X146569812Y-78405717D01*
X146343258Y-78951319D01*
X146342743Y-79542089D01*
X146568344Y-80088086D01*
X146985717Y-80506188D01*
X147150386Y-80574565D01*
X147062938Y-80610787D01*
X146981501Y-80838263D01*
X147828000Y-81684762D01*
X148674499Y-80838263D01*
X148593062Y-80610787D01*
X148504290Y-80575335D01*
X148668086Y-80507656D01*
X149086188Y-80090283D01*
X149097748Y-80062443D01*
X149108344Y-80088086D01*
X149525717Y-80506188D01*
X149690386Y-80574565D01*
X149602938Y-80610787D01*
X149521501Y-80838263D01*
X150368000Y-81684762D01*
X151214499Y-80838263D01*
X151133062Y-80610787D01*
X151044290Y-80575335D01*
X151208086Y-80507656D01*
X151626188Y-80090283D01*
X151852742Y-79544681D01*
X151853257Y-78953911D01*
X151627656Y-78407914D01*
X151210283Y-77989812D01*
X151182443Y-77978252D01*
X151208086Y-77967656D01*
X151626188Y-77550283D01*
X151791520Y-77152118D01*
X156011833Y-77152118D01*
X156157677Y-77505086D01*
X156427493Y-77775374D01*
X156780206Y-77921833D01*
X157162118Y-77922167D01*
X157515086Y-77776323D01*
X157592945Y-77698600D01*
X162446865Y-77698600D01*
X162523505Y-77775374D01*
X162876218Y-77921833D01*
X163258130Y-77922167D01*
X163611098Y-77776323D01*
X163881386Y-77506507D01*
X164027845Y-77153794D01*
X164028179Y-76771882D01*
X163882335Y-76418914D01*
X163612519Y-76148626D01*
X163259806Y-76002167D01*
X162877894Y-76001833D01*
X162524926Y-76147677D01*
X162447067Y-76225400D01*
X157593147Y-76225400D01*
X157516507Y-76148626D01*
X157163794Y-76002167D01*
X156781882Y-76001833D01*
X156428914Y-76147677D01*
X156158626Y-76417493D01*
X156012167Y-76770206D01*
X156011833Y-77152118D01*
X151791520Y-77152118D01*
X151852742Y-77004681D01*
X151853257Y-76413911D01*
X151627656Y-75867914D01*
X151210283Y-75449812D01*
X151182443Y-75438252D01*
X151208086Y-75427656D01*
X151626188Y-75010283D01*
X151686050Y-74866118D01*
X156011833Y-74866118D01*
X156157677Y-75219086D01*
X156427493Y-75489374D01*
X156780206Y-75635833D01*
X157162118Y-75636167D01*
X157515086Y-75490323D01*
X157592945Y-75412600D01*
X163304982Y-75412600D01*
X163455493Y-75563374D01*
X163808206Y-75709833D01*
X164190118Y-75710167D01*
X164543086Y-75564323D01*
X164813374Y-75294507D01*
X164959833Y-74941794D01*
X164960167Y-74559882D01*
X164814323Y-74206914D01*
X164544507Y-73936626D01*
X164191794Y-73790167D01*
X163809882Y-73789833D01*
X163456914Y-73935677D01*
X163453184Y-73939400D01*
X157593147Y-73939400D01*
X157516507Y-73862626D01*
X157163794Y-73716167D01*
X156781882Y-73715833D01*
X156428914Y-73861677D01*
X156158626Y-74131493D01*
X156012167Y-74484206D01*
X156011833Y-74866118D01*
X151686050Y-74866118D01*
X151852742Y-74464681D01*
X151853257Y-73873911D01*
X151627656Y-73327914D01*
X151210283Y-72909812D01*
X151182443Y-72898252D01*
X151208086Y-72887656D01*
X151516161Y-72580118D01*
X156011833Y-72580118D01*
X156157677Y-72933086D01*
X156427493Y-73203374D01*
X156780206Y-73349833D01*
X157162118Y-73350167D01*
X157515086Y-73204323D01*
X157592945Y-73126600D01*
X163589853Y-73126600D01*
X163666493Y-73203374D01*
X164019206Y-73349833D01*
X164401118Y-73350167D01*
X164754086Y-73204323D01*
X165024374Y-72934507D01*
X165170833Y-72581794D01*
X165171167Y-72199882D01*
X165025323Y-71846914D01*
X164755507Y-71576626D01*
X164402794Y-71430167D01*
X164020882Y-71429833D01*
X163667914Y-71575677D01*
X163590055Y-71653400D01*
X157593147Y-71653400D01*
X157516507Y-71576626D01*
X157163794Y-71430167D01*
X156781882Y-71429833D01*
X156428914Y-71575677D01*
X156158626Y-71845493D01*
X156012167Y-72198206D01*
X156011833Y-72580118D01*
X151516161Y-72580118D01*
X151626188Y-72470283D01*
X151852742Y-71924681D01*
X151853257Y-71333911D01*
X151627656Y-70787914D01*
X151210283Y-70369812D01*
X151182443Y-70358252D01*
X151208086Y-70347656D01*
X151261717Y-70294118D01*
X156011833Y-70294118D01*
X156157677Y-70647086D01*
X156427493Y-70917374D01*
X156780206Y-71063833D01*
X157162118Y-71064167D01*
X157515086Y-70918323D01*
X157592945Y-70840600D01*
X164351853Y-70840600D01*
X164428493Y-70917374D01*
X164781206Y-71063833D01*
X165163118Y-71064167D01*
X165516086Y-70918323D01*
X165786374Y-70648507D01*
X165823468Y-70559173D01*
X171695000Y-70559173D01*
X171695000Y-71209250D01*
X171826750Y-71341000D01*
X172774000Y-71341000D01*
X172774000Y-70268750D01*
X172920000Y-70268750D01*
X172920000Y-71341000D01*
X173867250Y-71341000D01*
X173999000Y-71209250D01*
X173999000Y-70559173D01*
X173918769Y-70365478D01*
X173770521Y-70217231D01*
X173576827Y-70137000D01*
X173051750Y-70137000D01*
X172920000Y-70268750D01*
X172774000Y-70268750D01*
X172642250Y-70137000D01*
X172117173Y-70137000D01*
X171923479Y-70217231D01*
X171775231Y-70365478D01*
X171695000Y-70559173D01*
X165823468Y-70559173D01*
X165932833Y-70295794D01*
X165933167Y-69913882D01*
X165787323Y-69560914D01*
X165517507Y-69290626D01*
X165164794Y-69144167D01*
X164782882Y-69143833D01*
X164429914Y-69289677D01*
X164352055Y-69367400D01*
X157593147Y-69367400D01*
X157516507Y-69290626D01*
X157163794Y-69144167D01*
X156781882Y-69143833D01*
X156428914Y-69289677D01*
X156158626Y-69559493D01*
X156012167Y-69912206D01*
X156011833Y-70294118D01*
X151261717Y-70294118D01*
X151626188Y-69930283D01*
X151852742Y-69384681D01*
X151853257Y-68793911D01*
X151627656Y-68247914D01*
X151388279Y-68008118D01*
X156011833Y-68008118D01*
X156157677Y-68361086D01*
X156427493Y-68631374D01*
X156780206Y-68777833D01*
X157162118Y-68778167D01*
X157515086Y-68632323D01*
X157592945Y-68554600D01*
X165240853Y-68554600D01*
X165317493Y-68631374D01*
X165670206Y-68777833D01*
X166052118Y-68778167D01*
X166405086Y-68632323D01*
X166675374Y-68362507D01*
X166821833Y-68009794D01*
X166822167Y-67627882D01*
X166676323Y-67274914D01*
X166406507Y-67004626D01*
X166053794Y-66858167D01*
X165671882Y-66857833D01*
X165318914Y-67003677D01*
X165241055Y-67081400D01*
X157593147Y-67081400D01*
X157516507Y-67004626D01*
X157163794Y-66858167D01*
X156781882Y-66857833D01*
X156428914Y-67003677D01*
X156158626Y-67273493D01*
X156012167Y-67626206D01*
X156011833Y-68008118D01*
X151388279Y-68008118D01*
X151210283Y-67829812D01*
X151182443Y-67818252D01*
X151208086Y-67807656D01*
X151626188Y-67390283D01*
X151852742Y-66844681D01*
X151853257Y-66253911D01*
X151633525Y-65722118D01*
X156011833Y-65722118D01*
X156157677Y-66075086D01*
X156427493Y-66345374D01*
X156780206Y-66491833D01*
X157162118Y-66492167D01*
X157515086Y-66346323D01*
X157592945Y-66268600D01*
X166129853Y-66268600D01*
X166206493Y-66345374D01*
X166559206Y-66491833D01*
X166941118Y-66492167D01*
X167294086Y-66346323D01*
X167564374Y-66076507D01*
X167710833Y-65723794D01*
X167711167Y-65341882D01*
X167565323Y-64988914D01*
X167295507Y-64718626D01*
X166942794Y-64572167D01*
X166560882Y-64571833D01*
X166207914Y-64717677D01*
X166130055Y-64795400D01*
X157593147Y-64795400D01*
X157516507Y-64718626D01*
X157163794Y-64572167D01*
X156781882Y-64571833D01*
X156428914Y-64717677D01*
X156158626Y-64987493D01*
X156012167Y-65340206D01*
X156011833Y-65722118D01*
X151633525Y-65722118D01*
X151627656Y-65707914D01*
X151210283Y-65289812D01*
X151182443Y-65278252D01*
X151208086Y-65267656D01*
X151626188Y-64850283D01*
X151852742Y-64304681D01*
X151853257Y-63713911D01*
X151738476Y-63436118D01*
X156011833Y-63436118D01*
X156157677Y-63789086D01*
X156427493Y-64059374D01*
X156780206Y-64205833D01*
X157162118Y-64206167D01*
X157515086Y-64060323D01*
X157592945Y-63982600D01*
X166891853Y-63982600D01*
X166968493Y-64059374D01*
X167321206Y-64205833D01*
X167703118Y-64206167D01*
X168056086Y-64060323D01*
X168326374Y-63790507D01*
X168472833Y-63437794D01*
X168473167Y-63055882D01*
X168327323Y-62702914D01*
X168057507Y-62432626D01*
X167704794Y-62286167D01*
X167322882Y-62285833D01*
X166969914Y-62431677D01*
X166892055Y-62509400D01*
X157593147Y-62509400D01*
X157516507Y-62432626D01*
X157163794Y-62286167D01*
X156781882Y-62285833D01*
X156428914Y-62431677D01*
X156158626Y-62701493D01*
X156012167Y-63054206D01*
X156011833Y-63436118D01*
X151738476Y-63436118D01*
X151627656Y-63167914D01*
X151210283Y-62749812D01*
X151182443Y-62738252D01*
X151208086Y-62727656D01*
X151626188Y-62310283D01*
X151852742Y-61764681D01*
X151853257Y-61173911D01*
X151843426Y-61150118D01*
X156011833Y-61150118D01*
X156157677Y-61503086D01*
X156427493Y-61773374D01*
X156780206Y-61919833D01*
X157162118Y-61920167D01*
X157515086Y-61774323D01*
X157592945Y-61696600D01*
X167526853Y-61696600D01*
X167603493Y-61773374D01*
X167956206Y-61919833D01*
X168338118Y-61920167D01*
X168691086Y-61774323D01*
X168961374Y-61504507D01*
X169107833Y-61151794D01*
X169108167Y-60769882D01*
X168962323Y-60416914D01*
X168692507Y-60146626D01*
X168339794Y-60000167D01*
X167957882Y-59999833D01*
X167604914Y-60145677D01*
X167527055Y-60223400D01*
X157593147Y-60223400D01*
X157516507Y-60146626D01*
X157163794Y-60000167D01*
X156781882Y-59999833D01*
X156428914Y-60145677D01*
X156158626Y-60415493D01*
X156012167Y-60768206D01*
X156011833Y-61150118D01*
X151843426Y-61150118D01*
X151627656Y-60627914D01*
X151210283Y-60209812D01*
X151045614Y-60141435D01*
X151133062Y-60105213D01*
X151214499Y-59877737D01*
X150368000Y-59031238D01*
X149521501Y-59877737D01*
X149602938Y-60105213D01*
X149691710Y-60140665D01*
X149527914Y-60208344D01*
X149109812Y-60625717D01*
X149098252Y-60653557D01*
X149087656Y-60627914D01*
X148670283Y-60209812D01*
X148505614Y-60141435D01*
X148593062Y-60105213D01*
X148674499Y-59877737D01*
X147828000Y-59031238D01*
X146981501Y-59877737D01*
X147062938Y-60105213D01*
X147151710Y-60140665D01*
X146987914Y-60208344D01*
X146569812Y-60625717D01*
X146343258Y-61171319D01*
X146342743Y-61762089D01*
X145490000Y-61762089D01*
X145490000Y-58671675D01*
X146447620Y-58671675D01*
X146454603Y-59219435D01*
X146650787Y-59693062D01*
X146878263Y-59774499D01*
X147724762Y-58928000D01*
X147931238Y-58928000D01*
X148777737Y-59774499D01*
X149005213Y-59693062D01*
X149096305Y-59464964D01*
X149190787Y-59693062D01*
X149418263Y-59774499D01*
X150264762Y-58928000D01*
X150471238Y-58928000D01*
X151317737Y-59774499D01*
X151545213Y-59693062D01*
X151748380Y-59184325D01*
X151744298Y-58864118D01*
X156011833Y-58864118D01*
X156157677Y-59217086D01*
X156427493Y-59487374D01*
X156780206Y-59633833D01*
X157162118Y-59634167D01*
X157515086Y-59488323D01*
X157592945Y-59410600D01*
X168288853Y-59410600D01*
X168365493Y-59487374D01*
X168718206Y-59633833D01*
X169100118Y-59634167D01*
X169453086Y-59488323D01*
X169723374Y-59218507D01*
X169869833Y-58865794D01*
X169870167Y-58483882D01*
X169724323Y-58130914D01*
X169454507Y-57860626D01*
X169101794Y-57714167D01*
X168719882Y-57713833D01*
X168366914Y-57859677D01*
X168289055Y-57937400D01*
X157593147Y-57937400D01*
X157516507Y-57860626D01*
X157163794Y-57714167D01*
X156781882Y-57713833D01*
X156428914Y-57859677D01*
X156158626Y-58129493D01*
X156012167Y-58482206D01*
X156011833Y-58864118D01*
X151744298Y-58864118D01*
X151741397Y-58636565D01*
X151545213Y-58162938D01*
X151317737Y-58081501D01*
X150471238Y-58928000D01*
X150264762Y-58928000D01*
X149418263Y-58081501D01*
X149190787Y-58162938D01*
X149099695Y-58391036D01*
X149005213Y-58162938D01*
X148777737Y-58081501D01*
X147931238Y-58928000D01*
X147724762Y-58928000D01*
X146878263Y-58081501D01*
X146650787Y-58162938D01*
X146447620Y-58671675D01*
X145490000Y-58671675D01*
X145490000Y-56682089D01*
X146342743Y-56682089D01*
X146568344Y-57228086D01*
X146985717Y-57646188D01*
X147150386Y-57714565D01*
X147062938Y-57750787D01*
X146981501Y-57978263D01*
X147828000Y-58824762D01*
X148674499Y-57978263D01*
X148593062Y-57750787D01*
X148504290Y-57715335D01*
X148668086Y-57647656D01*
X148903435Y-57412717D01*
X148914838Y-57473317D01*
X149053910Y-57689441D01*
X149266110Y-57834431D01*
X149518000Y-57885440D01*
X149554732Y-57885440D01*
X149521501Y-57978263D01*
X150368000Y-58824762D01*
X151214499Y-57978263D01*
X151181268Y-57885440D01*
X151218000Y-57885440D01*
X151453317Y-57841162D01*
X151669441Y-57702090D01*
X151814431Y-57489890D01*
X151865440Y-57238000D01*
X151865440Y-56578118D01*
X156011833Y-56578118D01*
X156157677Y-56931086D01*
X156427493Y-57201374D01*
X156780206Y-57347833D01*
X157162118Y-57348167D01*
X157515086Y-57202323D01*
X157592945Y-57124600D01*
X169050853Y-57124600D01*
X169127493Y-57201374D01*
X169480206Y-57347833D01*
X169862118Y-57348167D01*
X170215086Y-57202323D01*
X170485374Y-56932507D01*
X170631833Y-56579794D01*
X170632167Y-56197882D01*
X170486323Y-55844914D01*
X170216507Y-55574626D01*
X169863794Y-55428167D01*
X169481882Y-55427833D01*
X169128914Y-55573677D01*
X169051055Y-55651400D01*
X157593147Y-55651400D01*
X157516507Y-55574626D01*
X157163794Y-55428167D01*
X156781882Y-55427833D01*
X156428914Y-55573677D01*
X156158626Y-55843493D01*
X156012167Y-56196206D01*
X156011833Y-56578118D01*
X151865440Y-56578118D01*
X151865440Y-55538000D01*
X151821162Y-55302683D01*
X151682090Y-55086559D01*
X151469890Y-54941569D01*
X151218000Y-54890560D01*
X149518000Y-54890560D01*
X149282683Y-54934838D01*
X149066559Y-55073910D01*
X148921569Y-55286110D01*
X148905504Y-55365443D01*
X148670283Y-55129812D01*
X148124681Y-54903258D01*
X147533911Y-54902743D01*
X146987914Y-55128344D01*
X146569812Y-55545717D01*
X146343258Y-56091319D01*
X146342743Y-56682089D01*
X145490000Y-56682089D01*
X145490000Y-56457931D01*
X145642152Y-55693011D01*
X146035830Y-55103830D01*
X146625011Y-54710152D01*
X147389931Y-54558000D01*
X200590069Y-54558000D01*
X201354989Y-54710152D01*
X201354989Y-54710152D01*
G37*
X201354989Y-54710152D02*
X201944170Y-55103830D01*
X202337848Y-55693011D01*
X202490000Y-56457931D01*
X202490000Y-124898069D01*
X202337848Y-125662989D01*
X201944170Y-126252170D01*
X201354989Y-126645848D01*
X200590069Y-126798000D01*
X147389931Y-126798000D01*
X146625011Y-126645848D01*
X146035830Y-126252170D01*
X145642152Y-125662989D01*
X145562409Y-125262089D01*
X146342743Y-125262089D01*
X146568344Y-125808086D01*
X146985717Y-126226188D01*
X147531319Y-126452742D01*
X148122089Y-126453257D01*
X148668086Y-126227656D01*
X149086188Y-125810283D01*
X149097748Y-125782443D01*
X149108344Y-125808086D01*
X149525717Y-126226188D01*
X150071319Y-126452742D01*
X150662089Y-126453257D01*
X151208086Y-126227656D01*
X151626188Y-125810283D01*
X151852742Y-125264681D01*
X151853257Y-124673911D01*
X151627656Y-124127914D01*
X151210283Y-123709812D01*
X151045614Y-123641435D01*
X151133062Y-123605213D01*
X151214499Y-123377737D01*
X150368000Y-122531238D01*
X149521501Y-123377737D01*
X149602938Y-123605213D01*
X149691710Y-123640665D01*
X149527914Y-123708344D01*
X149109812Y-124125717D01*
X149098252Y-124153557D01*
X149087656Y-124127914D01*
X148670283Y-123709812D01*
X148505614Y-123641435D01*
X148593062Y-123605213D01*
X148674499Y-123377737D01*
X147828000Y-122531238D01*
X146981501Y-123377737D01*
X147062938Y-123605213D01*
X147151710Y-123640665D01*
X146987914Y-123708344D01*
X146569812Y-124125717D01*
X146343258Y-124671319D01*
X146342743Y-125262089D01*
X145562409Y-125262089D01*
X145490000Y-124898069D01*
X145490000Y-122171675D01*
X146447620Y-122171675D01*
X146454603Y-122719435D01*
X146650787Y-123193062D01*
X146878263Y-123274499D01*
X147724762Y-122428000D01*
X147931238Y-122428000D01*
X148777737Y-123274499D01*
X149005213Y-123193062D01*
X149096305Y-122964964D01*
X149190787Y-123193062D01*
X149418263Y-123274499D01*
X150264762Y-122428000D01*
X150471238Y-122428000D01*
X151317737Y-123274499D01*
X151545213Y-123193062D01*
X151748380Y-122684325D01*
X151741397Y-122136565D01*
X151545213Y-121662938D01*
X151317737Y-121581501D01*
X150471238Y-122428000D01*
X150264762Y-122428000D01*
X149418263Y-121581501D01*
X149190787Y-121662938D01*
X149099695Y-121891036D01*
X149005213Y-121662938D01*
X148777737Y-121581501D01*
X147931238Y-122428000D01*
X147724762Y-122428000D01*
X146878263Y-121581501D01*
X146650787Y-121662938D01*
X146447620Y-122171675D01*
X145490000Y-122171675D01*
X145490000Y-100977318D01*
X145547035Y-100977318D01*
X145692879Y-101330286D01*
X145962695Y-101600574D01*
X146315408Y-101747033D01*
X146369932Y-101747081D01*
X146343258Y-101811319D01*
X146342743Y-102402089D01*
X146568344Y-102948086D01*
X146985717Y-103366188D01*
X147013557Y-103377748D01*
X146987914Y-103388344D01*
X146569812Y-103805717D01*
X146343258Y-104351319D01*
X146342743Y-104942089D01*
X146568344Y-105488086D01*
X146985717Y-105906188D01*
X147013557Y-105917748D01*
X146987914Y-105928344D01*
X146569812Y-106345717D01*
X146343258Y-106891319D01*
X146342743Y-107482089D01*
X146568344Y-108028086D01*
X146985717Y-108446188D01*
X147013557Y-108457748D01*
X146987914Y-108468344D01*
X146569812Y-108885717D01*
X146343258Y-109431319D01*
X146342743Y-110022089D01*
X146568344Y-110568086D01*
X146985717Y-110986188D01*
X147013557Y-110997748D01*
X146987914Y-111008344D01*
X146569812Y-111425717D01*
X146343258Y-111971319D01*
X146342743Y-112562089D01*
X146568344Y-113108086D01*
X146985717Y-113526188D01*
X147013557Y-113537748D01*
X146987914Y-113548344D01*
X146569812Y-113965717D01*
X146343258Y-114511319D01*
X146342743Y-115102089D01*
X146568344Y-115648086D01*
X146985717Y-116066188D01*
X147013557Y-116077748D01*
X146987914Y-116088344D01*
X146569812Y-116505717D01*
X146343258Y-117051319D01*
X146342743Y-117642089D01*
X146568344Y-118188086D01*
X146985717Y-118606188D01*
X147013557Y-118617748D01*
X146987914Y-118628344D01*
X146569812Y-119045717D01*
X146343258Y-119591319D01*
X146342743Y-120182089D01*
X146568344Y-120728086D01*
X146985717Y-121146188D01*
X147150386Y-121214565D01*
X147062938Y-121250787D01*
X146981501Y-121478263D01*
X147828000Y-122324762D01*
X148674499Y-121478263D01*
X148593062Y-121250787D01*
X148504290Y-121215335D01*
X148668086Y-121147656D01*
X149086188Y-120730283D01*
X149097748Y-120702443D01*
X149108344Y-120728086D01*
X149525717Y-121146188D01*
X149690386Y-121214565D01*
X149602938Y-121250787D01*
X149521501Y-121478263D01*
X150368000Y-122324762D01*
X151214499Y-121478263D01*
X151133062Y-121250787D01*
X151044290Y-121215335D01*
X151208086Y-121147656D01*
X151626188Y-120730283D01*
X151852742Y-120184681D01*
X151853257Y-119593911D01*
X151627656Y-119047914D01*
X151210283Y-118629812D01*
X151182443Y-118618252D01*
X151208086Y-118607656D01*
X151626188Y-118190283D01*
X151852742Y-117644681D01*
X151853257Y-117053911D01*
X151627656Y-116507914D01*
X151210283Y-116089812D01*
X151182443Y-116078252D01*
X151208086Y-116067656D01*
X151626188Y-115650283D01*
X151852742Y-115104681D01*
X151853257Y-114513911D01*
X151627656Y-113967914D01*
X151210283Y-113549812D01*
X151182443Y-113538252D01*
X151208086Y-113527656D01*
X151626188Y-113110283D01*
X151852742Y-112564681D01*
X151853257Y-111973911D01*
X151627656Y-111427914D01*
X151210283Y-111009812D01*
X151182443Y-110998252D01*
X151208086Y-110987656D01*
X151626188Y-110570283D01*
X151852742Y-110024681D01*
X151853257Y-109433911D01*
X151627656Y-108887914D01*
X151210283Y-108469812D01*
X151182443Y-108458252D01*
X151208086Y-108447656D01*
X151626188Y-108030283D01*
X151786410Y-107644425D01*
X151821032Y-107658801D01*
X151820833Y-107886126D01*
X151966677Y-108239094D01*
X152236493Y-108509382D01*
X152589206Y-108655841D01*
X152971118Y-108656175D01*
X153004807Y-108642255D01*
X153252493Y-108890374D01*
X153605206Y-109036833D01*
X153987118Y-109037167D01*
X154340086Y-108891323D01*
X154417945Y-108813600D01*
X154793981Y-108813600D01*
X154763569Y-108858110D01*
X154712560Y-109110000D01*
X154712560Y-110810000D01*
X154756838Y-111045317D01*
X154895910Y-111261441D01*
X155108110Y-111406431D01*
X155175541Y-111420086D01*
X155130853Y-111449946D01*
X154808946Y-111931715D01*
X154695907Y-112500000D01*
X154808946Y-113068285D01*
X155130853Y-113550054D01*
X155612622Y-113871961D01*
X156180907Y-113985000D01*
X156239093Y-113985000D01*
X156807378Y-113871961D01*
X157286408Y-113551884D01*
X157296838Y-113607317D01*
X157435910Y-113823441D01*
X157648110Y-113968431D01*
X157900000Y-114019440D01*
X159600000Y-114019440D01*
X159835317Y-113975162D01*
X160051441Y-113836090D01*
X160196431Y-113623890D01*
X160247440Y-113372000D01*
X160247440Y-113258600D01*
X177940849Y-113258600D01*
X178017493Y-113335378D01*
X178370206Y-113481837D01*
X178752118Y-113482171D01*
X179105086Y-113336327D01*
X179375374Y-113066511D01*
X179521833Y-112713798D01*
X179522167Y-112331886D01*
X179376323Y-111978918D01*
X179106507Y-111708630D01*
X178753794Y-111562171D01*
X178371882Y-111561837D01*
X178018914Y-111707681D01*
X177941059Y-111785400D01*
X174250072Y-111785400D01*
X174268847Y-111772855D01*
X175581630Y-110460072D01*
X175690110Y-110460167D01*
X176043078Y-110314323D01*
X176313366Y-110044507D01*
X176459825Y-109691794D01*
X176460159Y-109309882D01*
X176314315Y-108956914D01*
X176171251Y-108813600D01*
X191591890Y-108813600D01*
X191698928Y-108920638D01*
X191698833Y-109029118D01*
X191844677Y-109382086D01*
X192114493Y-109652374D01*
X192467206Y-109798833D01*
X192849118Y-109799167D01*
X193202086Y-109653323D01*
X193472374Y-109383507D01*
X193618833Y-109030794D01*
X193618987Y-108854440D01*
X193837086Y-108764323D01*
X194107374Y-108494507D01*
X194253833Y-108141794D01*
X194253987Y-107965446D01*
X194472086Y-107875329D01*
X194742374Y-107605513D01*
X194886233Y-107259060D01*
X195008118Y-107259167D01*
X195361086Y-107113323D01*
X195631374Y-106843507D01*
X195777833Y-106490794D01*
X195778001Y-106299006D01*
X200496053Y-106299006D01*
X200572693Y-106375780D01*
X200925406Y-106522239D01*
X201307318Y-106522573D01*
X201660286Y-106376729D01*
X201930574Y-106106913D01*
X202077033Y-105754200D01*
X202077367Y-105372288D01*
X201931523Y-105019320D01*
X201661707Y-104749032D01*
X201308994Y-104602573D01*
X200927082Y-104602239D01*
X200574114Y-104748083D01*
X200553052Y-104769108D01*
X200553369Y-104407082D01*
X200407525Y-104054114D01*
X200137709Y-103783826D01*
X200069517Y-103755510D01*
X200146633Y-103569794D01*
X200146967Y-103187882D01*
X200001123Y-102834914D01*
X199731307Y-102564626D01*
X199378594Y-102418167D01*
X198996682Y-102417833D01*
X198663344Y-102555566D01*
X198760438Y-102458472D01*
X198868918Y-102458567D01*
X199221886Y-102312723D01*
X199492174Y-102042907D01*
X199638633Y-101690194D01*
X199638967Y-101308282D01*
X199493123Y-100955314D01*
X199223307Y-100685026D01*
X198870594Y-100538567D01*
X198488682Y-100538233D01*
X198135714Y-100684077D01*
X197865426Y-100953893D01*
X197718967Y-101306606D01*
X197718871Y-101416619D01*
X195935290Y-103200200D01*
X184240036Y-103200200D01*
X184418521Y-103126269D01*
X184566769Y-102978022D01*
X184647000Y-102784327D01*
X184647000Y-102566750D01*
X184515250Y-102435000D01*
X182193000Y-102435000D01*
X182193000Y-102455000D01*
X182047000Y-102455000D01*
X182047000Y-102435000D01*
X182027000Y-102435000D01*
X182027000Y-102289000D01*
X182047000Y-102289000D01*
X182047000Y-102269000D01*
X182193000Y-102269000D01*
X182193000Y-102289000D01*
X184515250Y-102289000D01*
X184647000Y-102157250D01*
X184647000Y-101939673D01*
X184601441Y-101829684D01*
X184716431Y-101661390D01*
X184767120Y-101411081D01*
X184859677Y-101635086D01*
X185129493Y-101905374D01*
X185482206Y-102051833D01*
X185864118Y-102052167D01*
X186217086Y-101906323D01*
X186294945Y-101828600D01*
X187719853Y-101828600D01*
X187796493Y-101905374D01*
X188149206Y-102051833D01*
X188531118Y-102052167D01*
X188884086Y-101906323D01*
X189154374Y-101636507D01*
X189300833Y-101283794D01*
X189301167Y-100901882D01*
X189159325Y-100558600D01*
X196736853Y-100558600D01*
X196813493Y-100635374D01*
X197166206Y-100781833D01*
X197548118Y-100782167D01*
X197901086Y-100636323D01*
X198171374Y-100366507D01*
X198317833Y-100013794D01*
X198318167Y-99631882D01*
X198172323Y-99278914D01*
X198127000Y-99233512D01*
X198127000Y-97870804D01*
X198171374Y-97826507D01*
X198317833Y-97473794D01*
X198318167Y-97091882D01*
X198172323Y-96738914D01*
X198127000Y-96693512D01*
X198127000Y-95330804D01*
X198171374Y-95286507D01*
X198317833Y-94933794D01*
X198318167Y-94551882D01*
X198172323Y-94198914D01*
X198127000Y-94153512D01*
X198127000Y-92790804D01*
X198171374Y-92746507D01*
X198317833Y-92393794D01*
X198318167Y-92011882D01*
X198172323Y-91658914D01*
X197902507Y-91388626D01*
X197549794Y-91242167D01*
X197167882Y-91241833D01*
X196814914Y-91387677D01*
X196737055Y-91465400D01*
X186295147Y-91465400D01*
X186218507Y-91388626D01*
X185865794Y-91242167D01*
X185483882Y-91241833D01*
X185130914Y-91387677D01*
X184860626Y-91657493D01*
X184767105Y-91882718D01*
X184723162Y-91649183D01*
X184670920Y-91567997D01*
X184716431Y-91501390D01*
X184767440Y-91249500D01*
X184767440Y-90614500D01*
X184723162Y-90379183D01*
X184670920Y-90297997D01*
X184716431Y-90231390D01*
X184767440Y-89979500D01*
X184767440Y-89344500D01*
X184723162Y-89109183D01*
X184670920Y-89027997D01*
X184716431Y-88961390D01*
X184767440Y-88709500D01*
X184767440Y-88074500D01*
X184723162Y-87839183D01*
X184670920Y-87757997D01*
X184716431Y-87691390D01*
X184767440Y-87439500D01*
X184767440Y-86804500D01*
X184723162Y-86569183D01*
X184670920Y-86487997D01*
X184716431Y-86421390D01*
X184767440Y-86169500D01*
X184767440Y-85617000D01*
X185165995Y-85617000D01*
X185166000Y-85617001D01*
X185562077Y-85538215D01*
X185897856Y-85313856D01*
X186405853Y-84805858D01*
X186405856Y-84805856D01*
X186630215Y-84470077D01*
X186709000Y-84074000D01*
X186709000Y-78986005D01*
X186709001Y-78986000D01*
X186630215Y-78589923D01*
X186405856Y-78254144D01*
X185651856Y-77500144D01*
X185316077Y-77275785D01*
X184920000Y-77196999D01*
X184919995Y-77197000D01*
X173990000Y-77197000D01*
X173990000Y-75030678D01*
X173991146Y-75029000D01*
X176042000Y-75029000D01*
X176476346Y-74942603D01*
X176844566Y-74696566D01*
X177090603Y-74328346D01*
X177177000Y-73894000D01*
X177090603Y-73459654D01*
X176844566Y-73091434D01*
X176476346Y-72845397D01*
X176042000Y-72759000D01*
X173965974Y-72759000D01*
X173936090Y-72712559D01*
X173777257Y-72604033D01*
X173918769Y-72462522D01*
X173999000Y-72268827D01*
X173999000Y-71618750D01*
X173867250Y-71487000D01*
X172920000Y-71487000D01*
X172920000Y-71507000D01*
X172774000Y-71507000D01*
X172774000Y-71487000D01*
X171826750Y-71487000D01*
X171695000Y-71618750D01*
X171695000Y-72268827D01*
X171775231Y-72462522D01*
X171917844Y-72605134D01*
X171770559Y-72699910D01*
X171625569Y-72912110D01*
X171574560Y-73164000D01*
X171574560Y-74664000D01*
X171618838Y-74899317D01*
X171704000Y-75031662D01*
X171704000Y-77267060D01*
X170720000Y-77267060D01*
X170484683Y-77311338D01*
X170268559Y-77450410D01*
X170123569Y-77662610D01*
X170072560Y-77914500D01*
X170072560Y-78549500D01*
X170113184Y-78765400D01*
X169672005Y-78765400D01*
X169672000Y-78765399D01*
X169436883Y-78812167D01*
X169390115Y-78821470D01*
X169186543Y-78957493D01*
X169151145Y-78981145D01*
X167118884Y-81013406D01*
X162610232Y-81013406D01*
X162630833Y-80963794D01*
X162631167Y-80581882D01*
X162485323Y-80228914D01*
X162466413Y-80209971D01*
X162690118Y-80210167D01*
X163043086Y-80064323D01*
X163313374Y-79794507D01*
X163459833Y-79441794D01*
X163460167Y-79059882D01*
X163314323Y-78706914D01*
X163044507Y-78436626D01*
X162691794Y-78290167D01*
X162309882Y-78289833D01*
X161956914Y-78435677D01*
X161881059Y-78511400D01*
X157593147Y-78511400D01*
X157516507Y-78434626D01*
X157163794Y-78288167D01*
X156781882Y-78287833D01*
X156428914Y-78433677D01*
X156158626Y-78703493D01*
X156012167Y-79056206D01*
X156011833Y-79438118D01*
X156157677Y-79791086D01*
X156427493Y-80061374D01*
X156780206Y-80207833D01*
X157162118Y-80208167D01*
X157515086Y-80062323D01*
X157592945Y-79984600D01*
X161100944Y-79984600D01*
X161050055Y-80035400D01*
X157734000Y-80035400D01*
X157452115Y-80091470D01*
X157248543Y-80227493D01*
X157213145Y-80251145D01*
X156890362Y-80573928D01*
X156781882Y-80573833D01*
X156428914Y-80719677D01*
X156158626Y-80989493D01*
X156012167Y-81342206D01*
X156011833Y-81724118D01*
X156157677Y-82077086D01*
X156427493Y-82347374D01*
X156780206Y-82493833D01*
X157162118Y-82494167D01*
X157515086Y-82348323D01*
X157785374Y-82078507D01*
X157931833Y-81725794D01*
X157931929Y-81615781D01*
X158039110Y-81508600D01*
X160060768Y-81508600D01*
X160040167Y-81558212D01*
X160040086Y-81651311D01*
X159956914Y-81685677D01*
X159686626Y-81955493D01*
X159540167Y-82308206D01*
X159539833Y-82690118D01*
X159685677Y-83043086D01*
X159725921Y-83083400D01*
X157593147Y-83083400D01*
X157516507Y-83006626D01*
X157163794Y-82860167D01*
X156781882Y-82859833D01*
X156428914Y-83005677D01*
X156158626Y-83275493D01*
X156012167Y-83628206D01*
X156011833Y-84010118D01*
X156157677Y-84363086D01*
X156427493Y-84633374D01*
X156780206Y-84779833D01*
X157162118Y-84780167D01*
X157515086Y-84634323D01*
X157592945Y-84556600D01*
X169164000Y-84556600D01*
X169445885Y-84500530D01*
X169684855Y-84340855D01*
X169977110Y-84048600D01*
X170235099Y-84048600D01*
X170237477Y-84052296D01*
X170193000Y-84159673D01*
X170193000Y-84377250D01*
X170324750Y-84509000D01*
X172647000Y-84509000D01*
X172647000Y-84489000D01*
X172793000Y-84489000D01*
X172793000Y-84509000D01*
X172813000Y-84509000D01*
X172813000Y-84655000D01*
X172793000Y-84655000D01*
X172793000Y-84675000D01*
X172647000Y-84675000D01*
X172647000Y-84655000D01*
X170324750Y-84655000D01*
X170193000Y-84786750D01*
X170193000Y-85004327D01*
X170238559Y-85114316D01*
X170237819Y-85115400D01*
X162419147Y-85115400D01*
X162342507Y-85038626D01*
X161989794Y-84892167D01*
X161607882Y-84891833D01*
X161254914Y-85037677D01*
X160984626Y-85307493D01*
X160838167Y-85660206D01*
X160837973Y-85881524D01*
X160706914Y-85935677D01*
X160629055Y-86013400D01*
X157932082Y-86013400D01*
X157932167Y-85915882D01*
X157786323Y-85562914D01*
X157516507Y-85292626D01*
X157163794Y-85146167D01*
X156781882Y-85145833D01*
X156428914Y-85291677D01*
X156158626Y-85561493D01*
X156012167Y-85914206D01*
X156011833Y-86296118D01*
X156157677Y-86649086D01*
X156427493Y-86919374D01*
X156780206Y-87065833D01*
X156890219Y-87065929D01*
X157095145Y-87270855D01*
X157334116Y-87430531D01*
X157616000Y-87486601D01*
X157616005Y-87486600D01*
X159905898Y-87486600D01*
X159736800Y-87655403D01*
X157593144Y-87655403D01*
X157516504Y-87578629D01*
X157163791Y-87432170D01*
X156781879Y-87431836D01*
X156428911Y-87577680D01*
X156158623Y-87847496D01*
X156012164Y-88200209D01*
X156011830Y-88582121D01*
X156157674Y-88935089D01*
X156427490Y-89205377D01*
X156780203Y-89351836D01*
X157162115Y-89352170D01*
X157515083Y-89206326D01*
X157592942Y-89128603D01*
X159837013Y-89128603D01*
X159695167Y-89470206D01*
X159695071Y-89580219D01*
X159626145Y-89649145D01*
X159466470Y-89888115D01*
X159455871Y-89941400D01*
X157593147Y-89941400D01*
X157516507Y-89864626D01*
X157163794Y-89718167D01*
X156781882Y-89717833D01*
X156428914Y-89863677D01*
X156158626Y-90133493D01*
X156012167Y-90486206D01*
X156011833Y-90868118D01*
X156157677Y-91221086D01*
X156427493Y-91491374D01*
X156780206Y-91637833D01*
X157162118Y-91638167D01*
X157515086Y-91492323D01*
X157592945Y-91414600D01*
X160147000Y-91414600D01*
X160428885Y-91358530D01*
X160667855Y-91198855D01*
X160827530Y-90959885D01*
X160883600Y-90678000D01*
X160883600Y-90606266D01*
X161198086Y-90476323D01*
X161468374Y-90206507D01*
X161614833Y-89853794D01*
X161615167Y-89471882D01*
X161469323Y-89118914D01*
X161229280Y-88878451D01*
X161313374Y-88794503D01*
X161459833Y-88441790D01*
X161460167Y-88059878D01*
X161315624Y-87710058D01*
X161440118Y-87710167D01*
X161608548Y-87640573D01*
X161618677Y-87665086D01*
X161888493Y-87935374D01*
X162169656Y-88052123D01*
X162108167Y-88200206D01*
X162107833Y-88582118D01*
X162253677Y-88935086D01*
X162523493Y-89205374D01*
X162876206Y-89351833D01*
X162919294Y-89351871D01*
X162870157Y-89470206D01*
X162869823Y-89852118D01*
X163015667Y-90205086D01*
X163285483Y-90475374D01*
X163638196Y-90621833D01*
X164020108Y-90622167D01*
X164373076Y-90476323D01*
X164450935Y-90398600D01*
X170116281Y-90398600D01*
X170072560Y-90614500D01*
X170072560Y-91249500D01*
X170116838Y-91484817D01*
X170169080Y-91566003D01*
X170123569Y-91632610D01*
X170072560Y-91884500D01*
X170072560Y-92519500D01*
X170116838Y-92754817D01*
X170169080Y-92836003D01*
X170123569Y-92902610D01*
X170072560Y-93154500D01*
X170072560Y-93789500D01*
X170116838Y-94024817D01*
X170169080Y-94106003D01*
X170123569Y-94172610D01*
X170072560Y-94424500D01*
X170072560Y-95059500D01*
X170116838Y-95294817D01*
X170169080Y-95376003D01*
X170123569Y-95442610D01*
X170072560Y-95694500D01*
X170072560Y-96329500D01*
X170116838Y-96564817D01*
X170169080Y-96646003D01*
X170123569Y-96712610D01*
X170072560Y-96964500D01*
X170072560Y-97599500D01*
X170116838Y-97834817D01*
X170169080Y-97916003D01*
X170123569Y-97982610D01*
X170072560Y-98234500D01*
X170072560Y-98869500D01*
X170116838Y-99104817D01*
X170169080Y-99186003D01*
X170123569Y-99252610D01*
X170072560Y-99504500D01*
X170072560Y-100139500D01*
X170116838Y-100374817D01*
X170169080Y-100456003D01*
X170123569Y-100522610D01*
X170072560Y-100774500D01*
X170072560Y-101409500D01*
X170116838Y-101644817D01*
X170237477Y-101832296D01*
X170193000Y-101939673D01*
X170193000Y-102157250D01*
X170324750Y-102289000D01*
X172647000Y-102289000D01*
X172647000Y-102269000D01*
X172793000Y-102269000D01*
X172793000Y-102289000D01*
X172813000Y-102289000D01*
X172813000Y-102435000D01*
X172793000Y-102435000D01*
X172793000Y-102455000D01*
X172647000Y-102455000D01*
X172647000Y-102435000D01*
X170324750Y-102435000D01*
X170193000Y-102566750D01*
X170193000Y-102784327D01*
X170273231Y-102978022D01*
X170421479Y-103126269D01*
X170599964Y-103200200D01*
X167741910Y-103200200D01*
X166426578Y-101884868D01*
X166482945Y-101828600D01*
X168161853Y-101828600D01*
X168238493Y-101905374D01*
X168591206Y-102051833D01*
X168973118Y-102052167D01*
X169326086Y-101906323D01*
X169596374Y-101636507D01*
X169742833Y-101283794D01*
X169743167Y-100901882D01*
X169597323Y-100548914D01*
X169569146Y-100520688D01*
X169596374Y-100493507D01*
X169742833Y-100140794D01*
X169743167Y-99758882D01*
X169597323Y-99405914D01*
X169442148Y-99250468D01*
X169596374Y-99096511D01*
X169742833Y-98743798D01*
X169743167Y-98361886D01*
X169597323Y-98008918D01*
X169505641Y-97917076D01*
X169596368Y-97826507D01*
X169742827Y-97473794D01*
X169743161Y-97091882D01*
X169597317Y-96738914D01*
X169327501Y-96468626D01*
X168974788Y-96322167D01*
X168592876Y-96321833D01*
X168239908Y-96467677D01*
X168162049Y-96545400D01*
X162611110Y-96545400D01*
X162294855Y-96229145D01*
X162055885Y-96069470D01*
X161895216Y-96037511D01*
X161794507Y-95936626D01*
X161441794Y-95790167D01*
X161059882Y-95789833D01*
X160736600Y-95923411D01*
X160736600Y-93662118D01*
X164901833Y-93662118D01*
X165047677Y-94015086D01*
X165317493Y-94285374D01*
X165670206Y-94431833D01*
X166052118Y-94432167D01*
X166405086Y-94286323D01*
X166482945Y-94208600D01*
X168161861Y-94208600D01*
X168238493Y-94285366D01*
X168591206Y-94431825D01*
X168973118Y-94432159D01*
X169326086Y-94286315D01*
X169596374Y-94016499D01*
X169742833Y-93663786D01*
X169743167Y-93281874D01*
X169597323Y-92928906D01*
X169327507Y-92658618D01*
X168974794Y-92512159D01*
X168592882Y-92511825D01*
X168239914Y-92657669D01*
X168162047Y-92735400D01*
X166483147Y-92735400D01*
X166406507Y-92658626D01*
X166053794Y-92512167D01*
X165671882Y-92511833D01*
X165318914Y-92657677D01*
X165048626Y-92927493D01*
X164902167Y-93280206D01*
X164901833Y-93662118D01*
X160736600Y-93662118D01*
X160736600Y-93000000D01*
X160680530Y-92718115D01*
X160520855Y-92479145D01*
X159976855Y-91935145D01*
X159737885Y-91775470D01*
X159456000Y-91719400D01*
X155761110Y-91719400D01*
X151663100Y-87621390D01*
X151852742Y-87164681D01*
X151853257Y-86573911D01*
X151627656Y-86027914D01*
X151210283Y-85609812D01*
X151182443Y-85598252D01*
X151208086Y-85587656D01*
X151626188Y-85170283D01*
X151852742Y-84624681D01*
X151853257Y-84033911D01*
X151627656Y-83487914D01*
X151210283Y-83069812D01*
X151045614Y-83001435D01*
X151133062Y-82965213D01*
X151214499Y-82737737D01*
X150368000Y-81891238D01*
X149521501Y-82737737D01*
X149602938Y-82965213D01*
X149691710Y-83000665D01*
X149527914Y-83068344D01*
X149109812Y-83485717D01*
X149098252Y-83513557D01*
X149087656Y-83487914D01*
X148670283Y-83069812D01*
X148505614Y-83001435D01*
X148593062Y-82965213D01*
X148674499Y-82737737D01*
X147828000Y-81891238D01*
X146981501Y-82737737D01*
X147062938Y-82965213D01*
X147151710Y-83000665D01*
X146987914Y-83068344D01*
X146569812Y-83485717D01*
X146343258Y-84031319D01*
X146342743Y-84622089D01*
X146386442Y-84727848D01*
X145986345Y-85127945D01*
X145826670Y-85366915D01*
X145770600Y-85648800D01*
X145770600Y-97891600D01*
X145826670Y-98173485D01*
X145986345Y-98412455D01*
X146392745Y-98818855D01*
X146501080Y-98891242D01*
X146343258Y-99271319D01*
X146342774Y-99827055D01*
X146317084Y-99827033D01*
X145964116Y-99972877D01*
X145693828Y-100242693D01*
X145547369Y-100595406D01*
X145547035Y-100977318D01*
X145490000Y-100977318D01*
X145490000Y-81531675D01*
X146447620Y-81531675D01*
X146454603Y-82079435D01*
X146650787Y-82553062D01*
X146878263Y-82634499D01*
X147724762Y-81788000D01*
X147931238Y-81788000D01*
X148777737Y-82634499D01*
X149005213Y-82553062D01*
X149096305Y-82324964D01*
X149190787Y-82553062D01*
X149418263Y-82634499D01*
X150264762Y-81788000D01*
X150471238Y-81788000D01*
X151317737Y-82634499D01*
X151545213Y-82553062D01*
X151748380Y-82044325D01*
X151741397Y-81496565D01*
X151545213Y-81022938D01*
X151317737Y-80941501D01*
X150471238Y-81788000D01*
X150264762Y-81788000D01*
X149418263Y-80941501D01*
X149190787Y-81022938D01*
X149099695Y-81251036D01*
X149005213Y-81022938D01*
X148777737Y-80941501D01*
X147931238Y-81788000D01*
X147724762Y-81788000D01*
X146878263Y-80941501D01*
X146650787Y-81022938D01*
X146447620Y-81531675D01*
X145490000Y-81531675D01*
X145490000Y-61762089D01*
X146342743Y-61762089D01*
X146568344Y-62308086D01*
X146985717Y-62726188D01*
X147013557Y-62737748D01*
X146987914Y-62748344D01*
X146569812Y-63165717D01*
X146343258Y-63711319D01*
X146342743Y-64302089D01*
X146568344Y-64848086D01*
X146985717Y-65266188D01*
X147013557Y-65277748D01*
X146987914Y-65288344D01*
X146569812Y-65705717D01*
X146343258Y-66251319D01*
X146342743Y-66842089D01*
X146568344Y-67388086D01*
X146985717Y-67806188D01*
X147013557Y-67817748D01*
X146987914Y-67828344D01*
X146569812Y-68245717D01*
X146343258Y-68791319D01*
X146342743Y-69382089D01*
X146568344Y-69928086D01*
X146985717Y-70346188D01*
X147013557Y-70357748D01*
X146987914Y-70368344D01*
X146569812Y-70785717D01*
X146343258Y-71331319D01*
X146342743Y-71922089D01*
X146568344Y-72468086D01*
X146985717Y-72886188D01*
X147013557Y-72897748D01*
X146987914Y-72908344D01*
X146569812Y-73325717D01*
X146343258Y-73871319D01*
X146342743Y-74462089D01*
X146568344Y-75008086D01*
X146985717Y-75426188D01*
X147013557Y-75437748D01*
X146987914Y-75448344D01*
X146569812Y-75865717D01*
X146343258Y-76411319D01*
X146342743Y-77002089D01*
X146568344Y-77548086D01*
X146985717Y-77966188D01*
X147013557Y-77977748D01*
X146987914Y-77988344D01*
X146569812Y-78405717D01*
X146343258Y-78951319D01*
X146342743Y-79542089D01*
X146568344Y-80088086D01*
X146985717Y-80506188D01*
X147150386Y-80574565D01*
X147062938Y-80610787D01*
X146981501Y-80838263D01*
X147828000Y-81684762D01*
X148674499Y-80838263D01*
X148593062Y-80610787D01*
X148504290Y-80575335D01*
X148668086Y-80507656D01*
X149086188Y-80090283D01*
X149097748Y-80062443D01*
X149108344Y-80088086D01*
X149525717Y-80506188D01*
X149690386Y-80574565D01*
X149602938Y-80610787D01*
X149521501Y-80838263D01*
X150368000Y-81684762D01*
X151214499Y-80838263D01*
X151133062Y-80610787D01*
X151044290Y-80575335D01*
X151208086Y-80507656D01*
X151626188Y-80090283D01*
X151852742Y-79544681D01*
X151853257Y-78953911D01*
X151627656Y-78407914D01*
X151210283Y-77989812D01*
X151182443Y-77978252D01*
X151208086Y-77967656D01*
X151626188Y-77550283D01*
X151791520Y-77152118D01*
X156011833Y-77152118D01*
X156157677Y-77505086D01*
X156427493Y-77775374D01*
X156780206Y-77921833D01*
X157162118Y-77922167D01*
X157515086Y-77776323D01*
X157592945Y-77698600D01*
X162446865Y-77698600D01*
X162523505Y-77775374D01*
X162876218Y-77921833D01*
X163258130Y-77922167D01*
X163611098Y-77776323D01*
X163881386Y-77506507D01*
X164027845Y-77153794D01*
X164028179Y-76771882D01*
X163882335Y-76418914D01*
X163612519Y-76148626D01*
X163259806Y-76002167D01*
X162877894Y-76001833D01*
X162524926Y-76147677D01*
X162447067Y-76225400D01*
X157593147Y-76225400D01*
X157516507Y-76148626D01*
X157163794Y-76002167D01*
X156781882Y-76001833D01*
X156428914Y-76147677D01*
X156158626Y-76417493D01*
X156012167Y-76770206D01*
X156011833Y-77152118D01*
X151791520Y-77152118D01*
X151852742Y-77004681D01*
X151853257Y-76413911D01*
X151627656Y-75867914D01*
X151210283Y-75449812D01*
X151182443Y-75438252D01*
X151208086Y-75427656D01*
X151626188Y-75010283D01*
X151686050Y-74866118D01*
X156011833Y-74866118D01*
X156157677Y-75219086D01*
X156427493Y-75489374D01*
X156780206Y-75635833D01*
X157162118Y-75636167D01*
X157515086Y-75490323D01*
X157592945Y-75412600D01*
X163304982Y-75412600D01*
X163455493Y-75563374D01*
X163808206Y-75709833D01*
X164190118Y-75710167D01*
X164543086Y-75564323D01*
X164813374Y-75294507D01*
X164959833Y-74941794D01*
X164960167Y-74559882D01*
X164814323Y-74206914D01*
X164544507Y-73936626D01*
X164191794Y-73790167D01*
X163809882Y-73789833D01*
X163456914Y-73935677D01*
X163453184Y-73939400D01*
X157593147Y-73939400D01*
X157516507Y-73862626D01*
X157163794Y-73716167D01*
X156781882Y-73715833D01*
X156428914Y-73861677D01*
X156158626Y-74131493D01*
X156012167Y-74484206D01*
X156011833Y-74866118D01*
X151686050Y-74866118D01*
X151852742Y-74464681D01*
X151853257Y-73873911D01*
X151627656Y-73327914D01*
X151210283Y-72909812D01*
X151182443Y-72898252D01*
X151208086Y-72887656D01*
X151516161Y-72580118D01*
X156011833Y-72580118D01*
X156157677Y-72933086D01*
X156427493Y-73203374D01*
X156780206Y-73349833D01*
X157162118Y-73350167D01*
X157515086Y-73204323D01*
X157592945Y-73126600D01*
X163589853Y-73126600D01*
X163666493Y-73203374D01*
X164019206Y-73349833D01*
X164401118Y-73350167D01*
X164754086Y-73204323D01*
X165024374Y-72934507D01*
X165170833Y-72581794D01*
X165171167Y-72199882D01*
X165025323Y-71846914D01*
X164755507Y-71576626D01*
X164402794Y-71430167D01*
X164020882Y-71429833D01*
X163667914Y-71575677D01*
X163590055Y-71653400D01*
X157593147Y-71653400D01*
X157516507Y-71576626D01*
X157163794Y-71430167D01*
X156781882Y-71429833D01*
X156428914Y-71575677D01*
X156158626Y-71845493D01*
X156012167Y-72198206D01*
X156011833Y-72580118D01*
X151516161Y-72580118D01*
X151626188Y-72470283D01*
X151852742Y-71924681D01*
X151853257Y-71333911D01*
X151627656Y-70787914D01*
X151210283Y-70369812D01*
X151182443Y-70358252D01*
X151208086Y-70347656D01*
X151261717Y-70294118D01*
X156011833Y-70294118D01*
X156157677Y-70647086D01*
X156427493Y-70917374D01*
X156780206Y-71063833D01*
X157162118Y-71064167D01*
X157515086Y-70918323D01*
X157592945Y-70840600D01*
X164351853Y-70840600D01*
X164428493Y-70917374D01*
X164781206Y-71063833D01*
X165163118Y-71064167D01*
X165516086Y-70918323D01*
X165786374Y-70648507D01*
X165823468Y-70559173D01*
X171695000Y-70559173D01*
X171695000Y-71209250D01*
X171826750Y-71341000D01*
X172774000Y-71341000D01*
X172774000Y-70268750D01*
X172920000Y-70268750D01*
X172920000Y-71341000D01*
X173867250Y-71341000D01*
X173999000Y-71209250D01*
X173999000Y-70559173D01*
X173918769Y-70365478D01*
X173770521Y-70217231D01*
X173576827Y-70137000D01*
X173051750Y-70137000D01*
X172920000Y-70268750D01*
X172774000Y-70268750D01*
X172642250Y-70137000D01*
X172117173Y-70137000D01*
X171923479Y-70217231D01*
X171775231Y-70365478D01*
X171695000Y-70559173D01*
X165823468Y-70559173D01*
X165932833Y-70295794D01*
X165933167Y-69913882D01*
X165787323Y-69560914D01*
X165517507Y-69290626D01*
X165164794Y-69144167D01*
X164782882Y-69143833D01*
X164429914Y-69289677D01*
X164352055Y-69367400D01*
X157593147Y-69367400D01*
X157516507Y-69290626D01*
X157163794Y-69144167D01*
X156781882Y-69143833D01*
X156428914Y-69289677D01*
X156158626Y-69559493D01*
X156012167Y-69912206D01*
X156011833Y-70294118D01*
X151261717Y-70294118D01*
X151626188Y-69930283D01*
X151852742Y-69384681D01*
X151853257Y-68793911D01*
X151627656Y-68247914D01*
X151388279Y-68008118D01*
X156011833Y-68008118D01*
X156157677Y-68361086D01*
X156427493Y-68631374D01*
X156780206Y-68777833D01*
X157162118Y-68778167D01*
X157515086Y-68632323D01*
X157592945Y-68554600D01*
X165240853Y-68554600D01*
X165317493Y-68631374D01*
X165670206Y-68777833D01*
X166052118Y-68778167D01*
X166405086Y-68632323D01*
X166675374Y-68362507D01*
X166821833Y-68009794D01*
X166822167Y-67627882D01*
X166676323Y-67274914D01*
X166406507Y-67004626D01*
X166053794Y-66858167D01*
X165671882Y-66857833D01*
X165318914Y-67003677D01*
X165241055Y-67081400D01*
X157593147Y-67081400D01*
X157516507Y-67004626D01*
X157163794Y-66858167D01*
X156781882Y-66857833D01*
X156428914Y-67003677D01*
X156158626Y-67273493D01*
X156012167Y-67626206D01*
X156011833Y-68008118D01*
X151388279Y-68008118D01*
X151210283Y-67829812D01*
X151182443Y-67818252D01*
X151208086Y-67807656D01*
X151626188Y-67390283D01*
X151852742Y-66844681D01*
X151853257Y-66253911D01*
X151633525Y-65722118D01*
X156011833Y-65722118D01*
X156157677Y-66075086D01*
X156427493Y-66345374D01*
X156780206Y-66491833D01*
X157162118Y-66492167D01*
X157515086Y-66346323D01*
X157592945Y-66268600D01*
X166129853Y-66268600D01*
X166206493Y-66345374D01*
X166559206Y-66491833D01*
X166941118Y-66492167D01*
X167294086Y-66346323D01*
X167564374Y-66076507D01*
X167710833Y-65723794D01*
X167711167Y-65341882D01*
X167565323Y-64988914D01*
X167295507Y-64718626D01*
X166942794Y-64572167D01*
X166560882Y-64571833D01*
X166207914Y-64717677D01*
X166130055Y-64795400D01*
X157593147Y-64795400D01*
X157516507Y-64718626D01*
X157163794Y-64572167D01*
X156781882Y-64571833D01*
X156428914Y-64717677D01*
X156158626Y-64987493D01*
X156012167Y-65340206D01*
X156011833Y-65722118D01*
X151633525Y-65722118D01*
X151627656Y-65707914D01*
X151210283Y-65289812D01*
X151182443Y-65278252D01*
X151208086Y-65267656D01*
X151626188Y-64850283D01*
X151852742Y-64304681D01*
X151853257Y-63713911D01*
X151738476Y-63436118D01*
X156011833Y-63436118D01*
X156157677Y-63789086D01*
X156427493Y-64059374D01*
X156780206Y-64205833D01*
X157162118Y-64206167D01*
X157515086Y-64060323D01*
X157592945Y-63982600D01*
X166891853Y-63982600D01*
X166968493Y-64059374D01*
X167321206Y-64205833D01*
X167703118Y-64206167D01*
X168056086Y-64060323D01*
X168326374Y-63790507D01*
X168472833Y-63437794D01*
X168473167Y-63055882D01*
X168327323Y-62702914D01*
X168057507Y-62432626D01*
X167704794Y-62286167D01*
X167322882Y-62285833D01*
X166969914Y-62431677D01*
X166892055Y-62509400D01*
X157593147Y-62509400D01*
X157516507Y-62432626D01*
X157163794Y-62286167D01*
X156781882Y-62285833D01*
X156428914Y-62431677D01*
X156158626Y-62701493D01*
X156012167Y-63054206D01*
X156011833Y-63436118D01*
X151738476Y-63436118D01*
X151627656Y-63167914D01*
X151210283Y-62749812D01*
X151182443Y-62738252D01*
X151208086Y-62727656D01*
X151626188Y-62310283D01*
X151852742Y-61764681D01*
X151853257Y-61173911D01*
X151843426Y-61150118D01*
X156011833Y-61150118D01*
X156157677Y-61503086D01*
X156427493Y-61773374D01*
X156780206Y-61919833D01*
X157162118Y-61920167D01*
X157515086Y-61774323D01*
X157592945Y-61696600D01*
X167526853Y-61696600D01*
X167603493Y-61773374D01*
X167956206Y-61919833D01*
X168338118Y-61920167D01*
X168691086Y-61774323D01*
X168961374Y-61504507D01*
X169107833Y-61151794D01*
X169108167Y-60769882D01*
X168962323Y-60416914D01*
X168692507Y-60146626D01*
X168339794Y-60000167D01*
X167957882Y-59999833D01*
X167604914Y-60145677D01*
X167527055Y-60223400D01*
X157593147Y-60223400D01*
X157516507Y-60146626D01*
X157163794Y-60000167D01*
X156781882Y-59999833D01*
X156428914Y-60145677D01*
X156158626Y-60415493D01*
X156012167Y-60768206D01*
X156011833Y-61150118D01*
X151843426Y-61150118D01*
X151627656Y-60627914D01*
X151210283Y-60209812D01*
X151045614Y-60141435D01*
X151133062Y-60105213D01*
X151214499Y-59877737D01*
X150368000Y-59031238D01*
X149521501Y-59877737D01*
X149602938Y-60105213D01*
X149691710Y-60140665D01*
X149527914Y-60208344D01*
X149109812Y-60625717D01*
X149098252Y-60653557D01*
X149087656Y-60627914D01*
X148670283Y-60209812D01*
X148505614Y-60141435D01*
X148593062Y-60105213D01*
X148674499Y-59877737D01*
X147828000Y-59031238D01*
X146981501Y-59877737D01*
X147062938Y-60105213D01*
X147151710Y-60140665D01*
X146987914Y-60208344D01*
X146569812Y-60625717D01*
X146343258Y-61171319D01*
X146342743Y-61762089D01*
X145490000Y-61762089D01*
X145490000Y-58671675D01*
X146447620Y-58671675D01*
X146454603Y-59219435D01*
X146650787Y-59693062D01*
X146878263Y-59774499D01*
X147724762Y-58928000D01*
X147931238Y-58928000D01*
X148777737Y-59774499D01*
X149005213Y-59693062D01*
X149096305Y-59464964D01*
X149190787Y-59693062D01*
X149418263Y-59774499D01*
X150264762Y-58928000D01*
X150471238Y-58928000D01*
X151317737Y-59774499D01*
X151545213Y-59693062D01*
X151748380Y-59184325D01*
X151744298Y-58864118D01*
X156011833Y-58864118D01*
X156157677Y-59217086D01*
X156427493Y-59487374D01*
X156780206Y-59633833D01*
X157162118Y-59634167D01*
X157515086Y-59488323D01*
X157592945Y-59410600D01*
X168288853Y-59410600D01*
X168365493Y-59487374D01*
X168718206Y-59633833D01*
X169100118Y-59634167D01*
X169453086Y-59488323D01*
X169723374Y-59218507D01*
X169869833Y-58865794D01*
X169870167Y-58483882D01*
X169724323Y-58130914D01*
X169454507Y-57860626D01*
X169101794Y-57714167D01*
X168719882Y-57713833D01*
X168366914Y-57859677D01*
X168289055Y-57937400D01*
X157593147Y-57937400D01*
X157516507Y-57860626D01*
X157163794Y-57714167D01*
X156781882Y-57713833D01*
X156428914Y-57859677D01*
X156158626Y-58129493D01*
X156012167Y-58482206D01*
X156011833Y-58864118D01*
X151744298Y-58864118D01*
X151741397Y-58636565D01*
X151545213Y-58162938D01*
X151317737Y-58081501D01*
X150471238Y-58928000D01*
X150264762Y-58928000D01*
X149418263Y-58081501D01*
X149190787Y-58162938D01*
X149099695Y-58391036D01*
X149005213Y-58162938D01*
X148777737Y-58081501D01*
X147931238Y-58928000D01*
X147724762Y-58928000D01*
X146878263Y-58081501D01*
X146650787Y-58162938D01*
X146447620Y-58671675D01*
X145490000Y-58671675D01*
X145490000Y-56682089D01*
X146342743Y-56682089D01*
X146568344Y-57228086D01*
X146985717Y-57646188D01*
X147150386Y-57714565D01*
X147062938Y-57750787D01*
X146981501Y-57978263D01*
X147828000Y-58824762D01*
X148674499Y-57978263D01*
X148593062Y-57750787D01*
X148504290Y-57715335D01*
X148668086Y-57647656D01*
X148903435Y-57412717D01*
X148914838Y-57473317D01*
X149053910Y-57689441D01*
X149266110Y-57834431D01*
X149518000Y-57885440D01*
X149554732Y-57885440D01*
X149521501Y-57978263D01*
X150368000Y-58824762D01*
X151214499Y-57978263D01*
X151181268Y-57885440D01*
X151218000Y-57885440D01*
X151453317Y-57841162D01*
X151669441Y-57702090D01*
X151814431Y-57489890D01*
X151865440Y-57238000D01*
X151865440Y-56578118D01*
X156011833Y-56578118D01*
X156157677Y-56931086D01*
X156427493Y-57201374D01*
X156780206Y-57347833D01*
X157162118Y-57348167D01*
X157515086Y-57202323D01*
X157592945Y-57124600D01*
X169050853Y-57124600D01*
X169127493Y-57201374D01*
X169480206Y-57347833D01*
X169862118Y-57348167D01*
X170215086Y-57202323D01*
X170485374Y-56932507D01*
X170631833Y-56579794D01*
X170632167Y-56197882D01*
X170486323Y-55844914D01*
X170216507Y-55574626D01*
X169863794Y-55428167D01*
X169481882Y-55427833D01*
X169128914Y-55573677D01*
X169051055Y-55651400D01*
X157593147Y-55651400D01*
X157516507Y-55574626D01*
X157163794Y-55428167D01*
X156781882Y-55427833D01*
X156428914Y-55573677D01*
X156158626Y-55843493D01*
X156012167Y-56196206D01*
X156011833Y-56578118D01*
X151865440Y-56578118D01*
X151865440Y-55538000D01*
X151821162Y-55302683D01*
X151682090Y-55086559D01*
X151469890Y-54941569D01*
X151218000Y-54890560D01*
X149518000Y-54890560D01*
X149282683Y-54934838D01*
X149066559Y-55073910D01*
X148921569Y-55286110D01*
X148905504Y-55365443D01*
X148670283Y-55129812D01*
X148124681Y-54903258D01*
X147533911Y-54902743D01*
X146987914Y-55128344D01*
X146569812Y-55545717D01*
X146343258Y-56091319D01*
X146342743Y-56682089D01*
X145490000Y-56682089D01*
X145490000Y-56457931D01*
X145642152Y-55693011D01*
X146035830Y-55103830D01*
X146625011Y-54710152D01*
X147389931Y-54558000D01*
X200590069Y-54558000D01*
X201354989Y-54710152D01*
G36*
X153619945Y-95008855D02*
X153696560Y-95060048D01*
X153696560Y-95338000D01*
X153740838Y-95573317D01*
X153879910Y-95789441D01*
X154092110Y-95934431D01*
X154344000Y-95985440D01*
X156044000Y-95985440D01*
X156279317Y-95941162D01*
X156495441Y-95802090D01*
X156640431Y-95589890D01*
X156688063Y-95354675D01*
X156984813Y-95643363D01*
X157446791Y-95834715D01*
X157661000Y-95731108D01*
X157661000Y-94561000D01*
X157641000Y-94561000D01*
X157641000Y-94415000D01*
X157661000Y-94415000D01*
X157661000Y-94395000D01*
X157807000Y-94395000D01*
X157807000Y-94415000D01*
X157827000Y-94415000D01*
X157827000Y-94561000D01*
X157807000Y-94561000D01*
X157807000Y-95731108D01*
X158021209Y-95834715D01*
X158483187Y-95643363D01*
X158648400Y-95482638D01*
X158648400Y-96263400D01*
X152805110Y-96263400D01*
X151778855Y-95237145D01*
X151689621Y-95177520D01*
X151852742Y-94784681D01*
X151853257Y-94193911D01*
X151754376Y-93954600D01*
X152565690Y-93954600D01*
X153619945Y-95008855D01*
X153619945Y-95008855D01*
G37*
X153619945Y-95008855D02*
X153696560Y-95060048D01*
X153696560Y-95338000D01*
X153740838Y-95573317D01*
X153879910Y-95789441D01*
X154092110Y-95934431D01*
X154344000Y-95985440D01*
X156044000Y-95985440D01*
X156279317Y-95941162D01*
X156495441Y-95802090D01*
X156640431Y-95589890D01*
X156688063Y-95354675D01*
X156984813Y-95643363D01*
X157446791Y-95834715D01*
X157661000Y-95731108D01*
X157661000Y-94561000D01*
X157641000Y-94561000D01*
X157641000Y-94415000D01*
X157661000Y-94415000D01*
X157661000Y-94395000D01*
X157807000Y-94395000D01*
X157807000Y-94415000D01*
X157827000Y-94415000D01*
X157827000Y-94561000D01*
X157807000Y-94561000D01*
X157807000Y-95731108D01*
X158021209Y-95834715D01*
X158483187Y-95643363D01*
X158648400Y-95482638D01*
X158648400Y-96263400D01*
X152805110Y-96263400D01*
X151778855Y-95237145D01*
X151689621Y-95177520D01*
X151852742Y-94784681D01*
X151853257Y-94193911D01*
X151754376Y-93954600D01*
X152565690Y-93954600D01*
X153619945Y-95008855D01*
G36*
X178472850Y-84744142D02*
X178553187Y-84760122D01*
X178669847Y-84876986D01*
X179022560Y-85023445D01*
X179404472Y-85023779D01*
X179489346Y-84988710D01*
X179513184Y-85115400D01*
X176262147Y-85115400D01*
X176185507Y-85038626D01*
X175832794Y-84892167D01*
X175450882Y-84891833D01*
X175247000Y-84976076D01*
X175247000Y-84786750D01*
X175169250Y-84709000D01*
X178420256Y-84709000D01*
X178472850Y-84744142D01*
X178472850Y-84744142D01*
G37*
X178472850Y-84744142D02*
X178553187Y-84760122D01*
X178669847Y-84876986D01*
X179022560Y-85023445D01*
X179404472Y-85023779D01*
X179489346Y-84988710D01*
X179513184Y-85115400D01*
X176262147Y-85115400D01*
X176185507Y-85038626D01*
X175832794Y-84892167D01*
X175450882Y-84891833D01*
X175247000Y-84976076D01*
X175247000Y-84786750D01*
X175169250Y-84709000D01*
X178420256Y-84709000D01*
X178472850Y-84744142D01*
M02*
