M48
;DRILL file {KiCad 4.0.7} date Wed Jun 27 14:29:42 2018
;FORMAT={2:4/ absolute / inch / keep zeros}
FMAT,2
INCH,TZ
T1C0.012
T2C0.039
%
G90
G05
M72
T1
X057680Y-039680
X059850Y-040050
X059950Y-042050
X060150Y-042400
X060550Y-042550
X060850Y-040500
X060900Y-040902
X061800Y-034800
X061800Y-022200
X061800Y-023100
X061800Y-024000
X061800Y-024900
X061800Y-025800
X061800Y-026700
X061800Y-027600
X061800Y-028500
X061800Y-029400
X061800Y-030300
X061800Y-031200
X061800Y-032100
X061800Y-033000
X061800Y-033900
X061800Y-035700
X062600Y-038800
X063050Y-039800
X063189Y-032480
X063189Y-034744
X063250Y-035300
X063300Y-036200
X063307Y-030748
X063375Y-037625
X063386Y-032185
X063450Y-032750
X063484Y-034154
X063484Y-038091
X063650Y-031800
X063700Y-033800
X063950Y-034300
X063976Y-031201
X064150Y-041150
X064200Y-034800
X064200Y-030300
X064500Y-035300
X064567Y-029429
X064650Y-028500
X064950Y-027600
X065300Y-026700
X065300Y-036800
X065300Y-038800
X065300Y-039350
X065300Y-039800
X065354Y-036220
X065650Y-025800
X065950Y-024900
X066200Y-024000
X066450Y-038300
X066450Y-036800
X066450Y-038800
X066450Y-039350
X066450Y-039800
X066500Y-023100
X066535Y-040354
X066732Y-046260
X066732Y-048031
X066800Y-022200
X067402Y-029980
X068701Y-029100
X068996Y-029100
X069094Y-043110
X069150Y-031800
X069150Y-031300
X069150Y-032300
X069150Y-032800
X069150Y-033800
X069150Y-034300
X069150Y-034800
X069150Y-035300
X069150Y-037050
X069150Y-038300
X069150Y-038800
X069150Y-039300
X069150Y-039800
X069291Y-029100
X069360Y-029980
X069488Y-043701
X070160Y-033420
X070300Y-037650
X070300Y-044300
X070550Y-034050
X070550Y-035050
X070550Y-036800
X070550Y-032050
X070550Y-034550
X070550Y-035550
X070550Y-037300
X070550Y-038000
X070550Y-038550
X070550Y-039050
X070550Y-039550
X070550Y-040050
X070550Y-036300
X070550Y-032550
X070550Y-031550
X070557Y-033096
X071063Y-043701
X073031Y-043110
X073031Y-046260
X073100Y-035600
X073100Y-036300
X073100Y-036800
X073100Y-037300
X073100Y-037800
X073100Y-038300
X073100Y-038800
X073100Y-039300
X073100Y-039800
X073100Y-040410
X074150Y-036800
X074150Y-037800
X074150Y-038800
X074150Y-039800
X074508Y-035600
X074803Y-040410
X074803Y-043110
X074803Y-046260
X075850Y-042850
X076100Y-042500
X076350Y-042150
X076700Y-041850
X077440Y-040000
X077700Y-036300
X077700Y-037300
X077700Y-038300
X077700Y-039300
X078220Y-039960
X078420Y-040700
X078580Y-041180
X079180Y-041560
T2
X058200Y-022200
X058200Y-023200
X058200Y-024200
X058200Y-025200
X058200Y-026200
X058200Y-027200
X058200Y-028200
X058200Y-029200
X058200Y-030200
X058200Y-031200
X058200Y-032200
X058200Y-033200
X058200Y-034200
X058200Y-035200
X058200Y-036200
X058200Y-037200
X058200Y-038200
X058200Y-039200
X058200Y-040200
X058200Y-041200
X058200Y-042200
X058200Y-043200
X058200Y-044200
X058200Y-045200
X058200Y-046200
X058200Y-047200
X058200Y-048200
X058200Y-049200
X059200Y-022200
X059200Y-023200
X059200Y-024200
X059200Y-025200
X059200Y-026200
X059200Y-027200
X059200Y-028200
X059200Y-029200
X059200Y-030200
X059200Y-031200
X059200Y-032200
X059200Y-033200
X059200Y-034200
X059200Y-035200
X059200Y-036200
X059200Y-037200
X059200Y-038200
X059200Y-039200
X059200Y-040200
X059200Y-041200
X059200Y-042200
X059200Y-043200
X059200Y-044200
X059200Y-045200
X059200Y-046200
X059200Y-047200
X059200Y-048200
X059200Y-049200
X061100Y-037200
X061500Y-043291
X061500Y-044291
X062100Y-037200
X062500Y-043300
X062500Y-044300
T0
M30
