G04 #@! TF.FileFunction,Soldermask,Bot*
%FSLAX46Y46*%
G04 Gerber Fmt 4.6, Leading zero omitted, Abs format (unit mm)*
G04 Created by KiCad (PCBNEW 4.0.7) date Wed Jun 27 14:29:21 2018*
%MOMM*%
%LPD*%
G01*
G04 APERTURE LIST*
%ADD10C,0.100000*%
%ADD11R,4.400000X1.035000*%
%ADD12R,2.100000X2.100000*%
%ADD13O,2.100000X2.100000*%
%ADD14R,1.650000X1.900000*%
%ADD15C,2.100000*%
G04 APERTURE END LIST*
D10*
D11*
X172720000Y-78232000D03*
X182120000Y-78232000D03*
X172720000Y-79502000D03*
X182120000Y-79502000D03*
X172720000Y-80772000D03*
X182120000Y-80772000D03*
X172720000Y-82042000D03*
X182120000Y-82042000D03*
X172720000Y-83312000D03*
X182120000Y-83312000D03*
X172720000Y-84582000D03*
X182120000Y-84582000D03*
X172720000Y-85852000D03*
X182120000Y-85852000D03*
X172720000Y-87122000D03*
X182120000Y-87122000D03*
X172720000Y-88392000D03*
X182120000Y-88392000D03*
X172720000Y-89662000D03*
X182120000Y-89662000D03*
X172720000Y-90932000D03*
X182120000Y-90932000D03*
X172720000Y-92202000D03*
X182120000Y-92202000D03*
X172720000Y-93472000D03*
X182120000Y-93472000D03*
X172720000Y-94742000D03*
X182120000Y-94742000D03*
X172720000Y-96012000D03*
X182120000Y-96012000D03*
X172720000Y-97282000D03*
X182120000Y-97282000D03*
X172720000Y-98552000D03*
X182120000Y-98552000D03*
X172720000Y-99822000D03*
X182120000Y-99822000D03*
X172720000Y-101092000D03*
X182120000Y-101092000D03*
X172720000Y-102362000D03*
X182120000Y-102362000D03*
D12*
X155194000Y-94488000D03*
D13*
X157734000Y-94488000D03*
D12*
X156210000Y-109960000D03*
D13*
X156210000Y-112500000D03*
D12*
X158750000Y-112522000D03*
D13*
X158750000Y-109982000D03*
D14*
X172847000Y-73914000D03*
X172847000Y-71414000D03*
D15*
X147828000Y-56388000D03*
D12*
X150368000Y-56388000D03*
D15*
X150368000Y-58928000D03*
X147828000Y-58928000D03*
X150368000Y-61468000D03*
X147828000Y-61468000D03*
X150368000Y-64008000D03*
X147828000Y-64008000D03*
X150368000Y-66548000D03*
X147828000Y-66548000D03*
X150368000Y-69088000D03*
X147828000Y-69088000D03*
X150368000Y-71628000D03*
X147828000Y-71628000D03*
X150368000Y-74168000D03*
X147828000Y-74168000D03*
X150368000Y-76708000D03*
X147828000Y-76708000D03*
X150368000Y-79248000D03*
X147828000Y-79248000D03*
X150368000Y-81788000D03*
X147828000Y-81788000D03*
X150368000Y-84328000D03*
X147828000Y-84328000D03*
X150368000Y-86868000D03*
X147828000Y-86868000D03*
X150368000Y-89408000D03*
X147828000Y-89408000D03*
X150368000Y-91948000D03*
X147828000Y-91948000D03*
X150368000Y-94488000D03*
X147828000Y-94488000D03*
X150368000Y-97028000D03*
X147828000Y-97028000D03*
X150368000Y-99568000D03*
X147828000Y-99568000D03*
X150368000Y-102108000D03*
X147828000Y-102108000D03*
X150368000Y-104648000D03*
X147828000Y-104648000D03*
X150368000Y-107188000D03*
X147828000Y-107188000D03*
X150368000Y-109728000D03*
X147828000Y-109728000D03*
X150368000Y-112268000D03*
X147828000Y-112268000D03*
X150368000Y-114808000D03*
X147828000Y-114808000D03*
X150368000Y-117348000D03*
X147828000Y-117348000D03*
X150368000Y-119888000D03*
X147828000Y-119888000D03*
X150368000Y-122428000D03*
X147828000Y-122428000D03*
X150368000Y-124968000D03*
X147828000Y-124968000D03*
M02*
