G04 #@! TF.FileFunction,Legend,Top*
%FSLAX46Y46*%
G04 Gerber Fmt 4.6, Leading zero omitted, Abs format (unit mm)*
G04 Created by KiCad (PCBNEW 4.0.7) date Wed Jun 27 14:29:21 2018*
%MOMM*%
%LPD*%
G01*
G04 APERTURE LIST*
%ADD10C,0.100000*%
%ADD11C,0.300000*%
%ADD12C,0.250000*%
%ADD13C,0.120000*%
%ADD14C,0.150000*%
%ADD15C,0.010000*%
%ADD16R,1.900000X1.700000*%
%ADD17R,1.700000X1.900000*%
%ADD18R,4.400000X1.035000*%
%ADD19R,2.100000X2.100000*%
%ADD20O,2.100000X2.100000*%
%ADD21R,1.650000X1.900000*%
%ADD22C,2.100000*%
G04 APERTURE END LIST*
D10*
D11*
X170976957Y-106379271D02*
X171834100Y-106379271D01*
X171405529Y-107879271D02*
X171405529Y-106379271D01*
X172334100Y-107879271D02*
X172334100Y-106379271D01*
X172976957Y-107879271D02*
X172976957Y-107093557D01*
X172905528Y-106950700D01*
X172762671Y-106879271D01*
X172548386Y-106879271D01*
X172405528Y-106950700D01*
X172334100Y-107022129D01*
X173691243Y-107879271D02*
X173691243Y-106879271D01*
X173691243Y-106379271D02*
X173619814Y-106450700D01*
X173691243Y-106522129D01*
X173762671Y-106450700D01*
X173691243Y-106379271D01*
X173691243Y-106522129D01*
X174334100Y-107807843D02*
X174476957Y-107879271D01*
X174762672Y-107879271D01*
X174905529Y-107807843D01*
X174976957Y-107664986D01*
X174976957Y-107593557D01*
X174905529Y-107450700D01*
X174762672Y-107379271D01*
X174548386Y-107379271D01*
X174405529Y-107307843D01*
X174334100Y-107164986D01*
X174334100Y-107093557D01*
X174405529Y-106950700D01*
X174548386Y-106879271D01*
X174762672Y-106879271D01*
X174905529Y-106950700D01*
X176619815Y-106879271D02*
X176905529Y-107879271D01*
X177191243Y-107164986D01*
X177476958Y-107879271D01*
X177762672Y-106879271D01*
X178976958Y-107879271D02*
X178976958Y-107093557D01*
X178905529Y-106950700D01*
X178762672Y-106879271D01*
X178476958Y-106879271D01*
X178334101Y-106950700D01*
X178976958Y-107807843D02*
X178834101Y-107879271D01*
X178476958Y-107879271D01*
X178334101Y-107807843D01*
X178262672Y-107664986D01*
X178262672Y-107522129D01*
X178334101Y-107379271D01*
X178476958Y-107307843D01*
X178834101Y-107307843D01*
X178976958Y-107236414D01*
X179548387Y-106879271D02*
X179905530Y-107879271D01*
X180262672Y-106879271D02*
X179905530Y-107879271D01*
X179762672Y-108236414D01*
X179691244Y-108307843D01*
X179548387Y-108379271D01*
X182619815Y-106879271D02*
X182619815Y-107879271D01*
X181976958Y-106879271D02*
X181976958Y-107664986D01*
X182048386Y-107807843D01*
X182191244Y-107879271D01*
X182405529Y-107879271D01*
X182548386Y-107807843D01*
X182619815Y-107736414D01*
X183334101Y-106879271D02*
X183334101Y-108379271D01*
X183334101Y-106950700D02*
X183476958Y-106879271D01*
X183762672Y-106879271D01*
X183905529Y-106950700D01*
X183976958Y-107022129D01*
X184048387Y-107164986D01*
X184048387Y-107593557D01*
X183976958Y-107736414D01*
X183905529Y-107807843D01*
X183762672Y-107879271D01*
X183476958Y-107879271D01*
X183334101Y-107807843D01*
D12*
X155302381Y-119414286D02*
X155240476Y-119476190D01*
X155054762Y-119538095D01*
X154930952Y-119538095D01*
X154745238Y-119476190D01*
X154621429Y-119352381D01*
X154559524Y-119228571D01*
X154497619Y-118980952D01*
X154497619Y-118795238D01*
X154559524Y-118547619D01*
X154621429Y-118423810D01*
X154745238Y-118300000D01*
X154930952Y-118238095D01*
X155054762Y-118238095D01*
X155240476Y-118300000D01*
X155302381Y-118361905D01*
X156045238Y-119538095D02*
X155921429Y-119476190D01*
X155859524Y-119414286D01*
X155797619Y-119290476D01*
X155797619Y-118919048D01*
X155859524Y-118795238D01*
X155921429Y-118733333D01*
X156045238Y-118671429D01*
X156230952Y-118671429D01*
X156354762Y-118733333D01*
X156416667Y-118795238D01*
X156478571Y-118919048D01*
X156478571Y-119290476D01*
X156416667Y-119414286D01*
X156354762Y-119476190D01*
X156230952Y-119538095D01*
X156045238Y-119538095D01*
X157035714Y-118671429D02*
X157035714Y-119971429D01*
X157035714Y-118733333D02*
X157159523Y-118671429D01*
X157407142Y-118671429D01*
X157530952Y-118733333D01*
X157592857Y-118795238D01*
X157654761Y-118919048D01*
X157654761Y-119290476D01*
X157592857Y-119414286D01*
X157530952Y-119476190D01*
X157407142Y-119538095D01*
X157159523Y-119538095D01*
X157035714Y-119476190D01*
X158088094Y-118671429D02*
X158397618Y-119538095D01*
X158707142Y-118671429D02*
X158397618Y-119538095D01*
X158273809Y-119847619D01*
X158211904Y-119909524D01*
X158088094Y-119971429D01*
X159202380Y-119538095D02*
X159202380Y-118671429D01*
X159202380Y-118919048D02*
X159264285Y-118795238D01*
X159326189Y-118733333D01*
X159449999Y-118671429D01*
X159573808Y-118671429D01*
X160007142Y-119538095D02*
X160007142Y-118671429D01*
X160007142Y-118238095D02*
X159945237Y-118300000D01*
X160007142Y-118361905D01*
X160069047Y-118300000D01*
X160007142Y-118238095D01*
X160007142Y-118361905D01*
X161183333Y-118671429D02*
X161183333Y-119723810D01*
X161121428Y-119847619D01*
X161059523Y-119909524D01*
X160935714Y-119971429D01*
X160749999Y-119971429D01*
X160626190Y-119909524D01*
X161183333Y-119476190D02*
X161059523Y-119538095D01*
X160811904Y-119538095D01*
X160688095Y-119476190D01*
X160626190Y-119414286D01*
X160564285Y-119290476D01*
X160564285Y-118919048D01*
X160626190Y-118795238D01*
X160688095Y-118733333D01*
X160811904Y-118671429D01*
X161059523Y-118671429D01*
X161183333Y-118733333D01*
X161802380Y-119538095D02*
X161802380Y-118238095D01*
X162359523Y-119538095D02*
X162359523Y-118857143D01*
X162297618Y-118733333D01*
X162173808Y-118671429D01*
X161988094Y-118671429D01*
X161864285Y-118733333D01*
X161802380Y-118795238D01*
X162792856Y-118671429D02*
X163288094Y-118671429D01*
X162978570Y-118238095D02*
X162978570Y-119352381D01*
X163040475Y-119476190D01*
X163164284Y-119538095D01*
X163288094Y-119538095D01*
X165083331Y-120033333D02*
X165021427Y-119971429D01*
X164897617Y-119785714D01*
X164835712Y-119661905D01*
X164773808Y-119476190D01*
X164711903Y-119166667D01*
X164711903Y-118919048D01*
X164773808Y-118609524D01*
X164835712Y-118423810D01*
X164897617Y-118300000D01*
X165021427Y-118114286D01*
X165083331Y-118052381D01*
X166321427Y-119414286D02*
X166259522Y-119476190D01*
X166073808Y-119538095D01*
X165949998Y-119538095D01*
X165764284Y-119476190D01*
X165640475Y-119352381D01*
X165578570Y-119228571D01*
X165516665Y-118980952D01*
X165516665Y-118795238D01*
X165578570Y-118547619D01*
X165640475Y-118423810D01*
X165764284Y-118300000D01*
X165949998Y-118238095D01*
X166073808Y-118238095D01*
X166259522Y-118300000D01*
X166321427Y-118361905D01*
X166754760Y-120033333D02*
X166816665Y-119971429D01*
X166940475Y-119785714D01*
X167002379Y-119661905D01*
X167064284Y-119476190D01*
X167126189Y-119166667D01*
X167126189Y-118919048D01*
X167064284Y-118609524D01*
X167002379Y-118423810D01*
X166940475Y-118300000D01*
X166816665Y-118114286D01*
X166754760Y-118052381D01*
X168673808Y-118361905D02*
X168735713Y-118300000D01*
X168859522Y-118238095D01*
X169169046Y-118238095D01*
X169292856Y-118300000D01*
X169354760Y-118361905D01*
X169416665Y-118485714D01*
X169416665Y-118609524D01*
X169354760Y-118795238D01*
X168611903Y-119538095D01*
X169416665Y-119538095D01*
X170221427Y-118238095D02*
X170345236Y-118238095D01*
X170469046Y-118300000D01*
X170530951Y-118361905D01*
X170592855Y-118485714D01*
X170654760Y-118733333D01*
X170654760Y-119042857D01*
X170592855Y-119290476D01*
X170530951Y-119414286D01*
X170469046Y-119476190D01*
X170345236Y-119538095D01*
X170221427Y-119538095D01*
X170097617Y-119476190D01*
X170035713Y-119414286D01*
X169973808Y-119290476D01*
X169911903Y-119042857D01*
X169911903Y-118733333D01*
X169973808Y-118485714D01*
X170035713Y-118361905D01*
X170097617Y-118300000D01*
X170221427Y-118238095D01*
X171892855Y-119538095D02*
X171149998Y-119538095D01*
X171521427Y-119538095D02*
X171521427Y-118238095D01*
X171397617Y-118423810D01*
X171273808Y-118547619D01*
X171149998Y-118609524D01*
X172635712Y-118795238D02*
X172511903Y-118733333D01*
X172449998Y-118671429D01*
X172388093Y-118547619D01*
X172388093Y-118485714D01*
X172449998Y-118361905D01*
X172511903Y-118300000D01*
X172635712Y-118238095D01*
X172883331Y-118238095D01*
X173007141Y-118300000D01*
X173069045Y-118361905D01*
X173130950Y-118485714D01*
X173130950Y-118547619D01*
X173069045Y-118671429D01*
X173007141Y-118733333D01*
X172883331Y-118795238D01*
X172635712Y-118795238D01*
X172511903Y-118857143D01*
X172449998Y-118919048D01*
X172388093Y-119042857D01*
X172388093Y-119290476D01*
X172449998Y-119414286D01*
X172511903Y-119476190D01*
X172635712Y-119538095D01*
X172883331Y-119538095D01*
X173007141Y-119476190D01*
X173069045Y-119414286D01*
X173130950Y-119290476D01*
X173130950Y-119042857D01*
X173069045Y-118919048D01*
X173007141Y-118857143D01*
X172883331Y-118795238D01*
X154559524Y-120438095D02*
X154559524Y-121490476D01*
X154621429Y-121614286D01*
X154683333Y-121676190D01*
X154807143Y-121738095D01*
X155054762Y-121738095D01*
X155178571Y-121676190D01*
X155240476Y-121614286D01*
X155302381Y-121490476D01*
X155302381Y-120438095D01*
X155921429Y-120871429D02*
X155921429Y-121738095D01*
X155921429Y-120995238D02*
X155983334Y-120933333D01*
X156107143Y-120871429D01*
X156292857Y-120871429D01*
X156416667Y-120933333D01*
X156478572Y-121057143D01*
X156478572Y-121738095D01*
X157654762Y-121738095D02*
X157654762Y-120438095D01*
X157654762Y-121676190D02*
X157530952Y-121738095D01*
X157283333Y-121738095D01*
X157159524Y-121676190D01*
X157097619Y-121614286D01*
X157035714Y-121490476D01*
X157035714Y-121119048D01*
X157097619Y-120995238D01*
X157159524Y-120933333D01*
X157283333Y-120871429D01*
X157530952Y-120871429D01*
X157654762Y-120933333D01*
X158769047Y-121676190D02*
X158645237Y-121738095D01*
X158397618Y-121738095D01*
X158273809Y-121676190D01*
X158211904Y-121552381D01*
X158211904Y-121057143D01*
X158273809Y-120933333D01*
X158397618Y-120871429D01*
X158645237Y-120871429D01*
X158769047Y-120933333D01*
X158830952Y-121057143D01*
X158830952Y-121180952D01*
X158211904Y-121304762D01*
X159388095Y-121738095D02*
X159388095Y-120871429D01*
X159388095Y-121119048D02*
X159450000Y-120995238D01*
X159511904Y-120933333D01*
X159635714Y-120871429D01*
X159759523Y-120871429D01*
X160997619Y-120871429D02*
X161492857Y-120871429D01*
X161183333Y-120438095D02*
X161183333Y-121552381D01*
X161245238Y-121676190D01*
X161369047Y-121738095D01*
X161492857Y-121738095D01*
X161926190Y-121738095D02*
X161926190Y-120438095D01*
X162483333Y-121738095D02*
X162483333Y-121057143D01*
X162421428Y-120933333D01*
X162297618Y-120871429D01*
X162111904Y-120871429D01*
X161988095Y-120933333D01*
X161926190Y-120995238D01*
X163597618Y-121676190D02*
X163473808Y-121738095D01*
X163226189Y-121738095D01*
X163102380Y-121676190D01*
X163040475Y-121552381D01*
X163040475Y-121057143D01*
X163102380Y-120933333D01*
X163226189Y-120871429D01*
X163473808Y-120871429D01*
X163597618Y-120933333D01*
X163659523Y-121057143D01*
X163659523Y-121180952D01*
X163040475Y-121304762D01*
X165888094Y-120500000D02*
X165764285Y-120438095D01*
X165578570Y-120438095D01*
X165392856Y-120500000D01*
X165269047Y-120623810D01*
X165207142Y-120747619D01*
X165145237Y-120995238D01*
X165145237Y-121180952D01*
X165207142Y-121428571D01*
X165269047Y-121552381D01*
X165392856Y-121676190D01*
X165578570Y-121738095D01*
X165702380Y-121738095D01*
X165888094Y-121676190D01*
X165949999Y-121614286D01*
X165949999Y-121180952D01*
X165702380Y-121180952D01*
X166507142Y-121738095D02*
X166507142Y-120438095D01*
X167249999Y-121738095D01*
X167249999Y-120438095D01*
X167869047Y-120438095D02*
X167869047Y-121490476D01*
X167930952Y-121614286D01*
X167992856Y-121676190D01*
X168116666Y-121738095D01*
X168364285Y-121738095D01*
X168488094Y-121676190D01*
X168549999Y-121614286D01*
X168611904Y-121490476D01*
X168611904Y-120438095D01*
X170902380Y-120500000D02*
X170778571Y-120438095D01*
X170592856Y-120438095D01*
X170407142Y-120500000D01*
X170283333Y-120623810D01*
X170221428Y-120747619D01*
X170159523Y-120995238D01*
X170159523Y-121180952D01*
X170221428Y-121428571D01*
X170283333Y-121552381D01*
X170407142Y-121676190D01*
X170592856Y-121738095D01*
X170716666Y-121738095D01*
X170902380Y-121676190D01*
X170964285Y-121614286D01*
X170964285Y-121180952D01*
X170716666Y-121180952D01*
X172016666Y-121676190D02*
X171892856Y-121738095D01*
X171645237Y-121738095D01*
X171521428Y-121676190D01*
X171459523Y-121552381D01*
X171459523Y-121057143D01*
X171521428Y-120933333D01*
X171645237Y-120871429D01*
X171892856Y-120871429D01*
X172016666Y-120933333D01*
X172078571Y-121057143D01*
X172078571Y-121180952D01*
X171459523Y-121304762D01*
X172635714Y-120871429D02*
X172635714Y-121738095D01*
X172635714Y-120995238D02*
X172697619Y-120933333D01*
X172821428Y-120871429D01*
X173007142Y-120871429D01*
X173130952Y-120933333D01*
X173192857Y-121057143D01*
X173192857Y-121738095D01*
X174307142Y-121676190D02*
X174183332Y-121738095D01*
X173935713Y-121738095D01*
X173811904Y-121676190D01*
X173749999Y-121552381D01*
X173749999Y-121057143D01*
X173811904Y-120933333D01*
X173935713Y-120871429D01*
X174183332Y-120871429D01*
X174307142Y-120933333D01*
X174369047Y-121057143D01*
X174369047Y-121180952D01*
X173749999Y-121304762D01*
X174926190Y-121738095D02*
X174926190Y-120871429D01*
X174926190Y-121119048D02*
X174988095Y-120995238D01*
X175049999Y-120933333D01*
X175173809Y-120871429D01*
X175297618Y-120871429D01*
X176288095Y-121738095D02*
X176288095Y-121057143D01*
X176226190Y-120933333D01*
X176102380Y-120871429D01*
X175854761Y-120871429D01*
X175730952Y-120933333D01*
X176288095Y-121676190D02*
X176164285Y-121738095D01*
X175854761Y-121738095D01*
X175730952Y-121676190D01*
X175669047Y-121552381D01*
X175669047Y-121428571D01*
X175730952Y-121304762D01*
X175854761Y-121242857D01*
X176164285Y-121242857D01*
X176288095Y-121180952D01*
X177092856Y-121738095D02*
X176969047Y-121676190D01*
X176907142Y-121552381D01*
X176907142Y-120438095D01*
X178578570Y-121738095D02*
X178578570Y-120438095D01*
X179073808Y-120438095D01*
X179197617Y-120500000D01*
X179259522Y-120561905D01*
X179321427Y-120685714D01*
X179321427Y-120871429D01*
X179259522Y-120995238D01*
X179197617Y-121057143D01*
X179073808Y-121119048D01*
X178578570Y-121119048D01*
X180435713Y-120871429D02*
X180435713Y-121738095D01*
X179878570Y-120871429D02*
X179878570Y-121552381D01*
X179940475Y-121676190D01*
X180064284Y-121738095D01*
X180249998Y-121738095D01*
X180373808Y-121676190D01*
X180435713Y-121614286D01*
X181054760Y-121738095D02*
X181054760Y-120438095D01*
X181054760Y-120933333D02*
X181178569Y-120871429D01*
X181426188Y-120871429D01*
X181549998Y-120933333D01*
X181611903Y-120995238D01*
X181673807Y-121119048D01*
X181673807Y-121490476D01*
X181611903Y-121614286D01*
X181549998Y-121676190D01*
X181426188Y-121738095D01*
X181178569Y-121738095D01*
X181054760Y-121676190D01*
X182416664Y-121738095D02*
X182292855Y-121676190D01*
X182230950Y-121552381D01*
X182230950Y-120438095D01*
X182911902Y-121738095D02*
X182911902Y-120871429D01*
X182911902Y-120438095D02*
X182849997Y-120500000D01*
X182911902Y-120561905D01*
X182973807Y-120500000D01*
X182911902Y-120438095D01*
X182911902Y-120561905D01*
X184088093Y-121676190D02*
X183964283Y-121738095D01*
X183716664Y-121738095D01*
X183592855Y-121676190D01*
X183530950Y-121614286D01*
X183469045Y-121490476D01*
X183469045Y-121119048D01*
X183530950Y-120995238D01*
X183592855Y-120933333D01*
X183716664Y-120871429D01*
X183964283Y-120871429D01*
X184088093Y-120933333D01*
X186254759Y-121738095D02*
X185635712Y-121738095D01*
X185635712Y-120438095D01*
X186688093Y-121738095D02*
X186688093Y-120871429D01*
X186688093Y-120438095D02*
X186626188Y-120500000D01*
X186688093Y-120561905D01*
X186749998Y-120500000D01*
X186688093Y-120438095D01*
X186688093Y-120561905D01*
X187864284Y-121676190D02*
X187740474Y-121738095D01*
X187492855Y-121738095D01*
X187369046Y-121676190D01*
X187307141Y-121614286D01*
X187245236Y-121490476D01*
X187245236Y-121119048D01*
X187307141Y-120995238D01*
X187369046Y-120933333D01*
X187492855Y-120871429D01*
X187740474Y-120871429D01*
X187864284Y-120933333D01*
X188916665Y-121676190D02*
X188792855Y-121738095D01*
X188545236Y-121738095D01*
X188421427Y-121676190D01*
X188359522Y-121552381D01*
X188359522Y-121057143D01*
X188421427Y-120933333D01*
X188545236Y-120871429D01*
X188792855Y-120871429D01*
X188916665Y-120933333D01*
X188978570Y-121057143D01*
X188978570Y-121180952D01*
X188359522Y-121304762D01*
X189535713Y-120871429D02*
X189535713Y-121738095D01*
X189535713Y-120995238D02*
X189597618Y-120933333D01*
X189721427Y-120871429D01*
X189907141Y-120871429D01*
X190030951Y-120933333D01*
X190092856Y-121057143D01*
X190092856Y-121738095D01*
X190649998Y-121676190D02*
X190773808Y-121738095D01*
X191021427Y-121738095D01*
X191145236Y-121676190D01*
X191207141Y-121552381D01*
X191207141Y-121490476D01*
X191145236Y-121366667D01*
X191021427Y-121304762D01*
X190835712Y-121304762D01*
X190711903Y-121242857D01*
X190649998Y-121119048D01*
X190649998Y-121057143D01*
X190711903Y-120933333D01*
X190835712Y-120871429D01*
X191021427Y-120871429D01*
X191145236Y-120933333D01*
X192259522Y-121676190D02*
X192135712Y-121738095D01*
X191888093Y-121738095D01*
X191764284Y-121676190D01*
X191702379Y-121552381D01*
X191702379Y-121057143D01*
X191764284Y-120933333D01*
X191888093Y-120871429D01*
X192135712Y-120871429D01*
X192259522Y-120933333D01*
X192321427Y-121057143D01*
X192321427Y-121180952D01*
X191702379Y-121304762D01*
X193745236Y-120871429D02*
X194054760Y-121738095D01*
X194364284Y-120871429D01*
X194735712Y-120438095D02*
X195540474Y-120438095D01*
X195107141Y-120933333D01*
X195292855Y-120933333D01*
X195416665Y-120995238D01*
X195478569Y-121057143D01*
X195540474Y-121180952D01*
X195540474Y-121490476D01*
X195478569Y-121614286D01*
X195416665Y-121676190D01*
X195292855Y-121738095D01*
X194921427Y-121738095D01*
X194797617Y-121676190D01*
X194735712Y-121614286D01*
X196097617Y-121614286D02*
X196159522Y-121676190D01*
X196097617Y-121738095D01*
X196035712Y-121676190D01*
X196097617Y-121614286D01*
X196097617Y-121738095D01*
X196964284Y-120438095D02*
X197088093Y-120438095D01*
X197211903Y-120500000D01*
X197273808Y-120561905D01*
X197335712Y-120685714D01*
X197397617Y-120933333D01*
X197397617Y-121242857D01*
X197335712Y-121490476D01*
X197273808Y-121614286D01*
X197211903Y-121676190D01*
X197088093Y-121738095D01*
X196964284Y-121738095D01*
X196840474Y-121676190D01*
X196778570Y-121614286D01*
X196716665Y-121490476D01*
X196654760Y-121242857D01*
X196654760Y-120933333D01*
X196716665Y-120685714D01*
X196778570Y-120561905D01*
X196840474Y-120500000D01*
X196964284Y-120438095D01*
X154807143Y-122638095D02*
X155054762Y-122638095D01*
X155178571Y-122700000D01*
X155302381Y-122823810D01*
X155364286Y-123071429D01*
X155364286Y-123504762D01*
X155302381Y-123752381D01*
X155178571Y-123876190D01*
X155054762Y-123938095D01*
X154807143Y-123938095D01*
X154683333Y-123876190D01*
X154559524Y-123752381D01*
X154497619Y-123504762D01*
X154497619Y-123071429D01*
X154559524Y-122823810D01*
X154683333Y-122700000D01*
X154807143Y-122638095D01*
X155921429Y-123938095D02*
X155921429Y-123071429D01*
X155921429Y-123319048D02*
X155983334Y-123195238D01*
X156045238Y-123133333D01*
X156169048Y-123071429D01*
X156292857Y-123071429D01*
X157654762Y-123566667D02*
X158273810Y-123566667D01*
X157530953Y-123938095D02*
X157964286Y-122638095D01*
X158397619Y-123938095D01*
X158830953Y-123071429D02*
X158830953Y-123938095D01*
X158830953Y-123195238D02*
X158892858Y-123133333D01*
X159016667Y-123071429D01*
X159202381Y-123071429D01*
X159326191Y-123133333D01*
X159388096Y-123257143D01*
X159388096Y-123938095D01*
X159883333Y-123071429D02*
X160192857Y-123938095D01*
X160502381Y-123071429D02*
X160192857Y-123938095D01*
X160069048Y-124247619D01*
X160007143Y-124309524D01*
X159883333Y-124371429D01*
X162607142Y-123938095D02*
X161988095Y-123938095D01*
X161988095Y-122638095D01*
X163597619Y-123938095D02*
X163597619Y-123257143D01*
X163535714Y-123133333D01*
X163411904Y-123071429D01*
X163164285Y-123071429D01*
X163040476Y-123133333D01*
X163597619Y-123876190D02*
X163473809Y-123938095D01*
X163164285Y-123938095D01*
X163040476Y-123876190D01*
X162978571Y-123752381D01*
X162978571Y-123628571D01*
X163040476Y-123504762D01*
X163164285Y-123442857D01*
X163473809Y-123442857D01*
X163597619Y-123380952D01*
X164030952Y-123071429D02*
X164526190Y-123071429D01*
X164216666Y-122638095D02*
X164216666Y-123752381D01*
X164278571Y-123876190D01*
X164402380Y-123938095D01*
X164526190Y-123938095D01*
X165454761Y-123876190D02*
X165330951Y-123938095D01*
X165083332Y-123938095D01*
X164959523Y-123876190D01*
X164897618Y-123752381D01*
X164897618Y-123257143D01*
X164959523Y-123133333D01*
X165083332Y-123071429D01*
X165330951Y-123071429D01*
X165454761Y-123133333D01*
X165516666Y-123257143D01*
X165516666Y-123380952D01*
X164897618Y-123504762D01*
X166073809Y-123938095D02*
X166073809Y-123071429D01*
X166073809Y-123319048D02*
X166135714Y-123195238D01*
X166197618Y-123133333D01*
X166321428Y-123071429D01*
X166445237Y-123071429D01*
X167683333Y-122638095D02*
X168116666Y-123938095D01*
X168549999Y-122638095D01*
X169478571Y-123876190D02*
X169354761Y-123938095D01*
X169107142Y-123938095D01*
X168983333Y-123876190D01*
X168921428Y-123752381D01*
X168921428Y-123257143D01*
X168983333Y-123133333D01*
X169107142Y-123071429D01*
X169354761Y-123071429D01*
X169478571Y-123133333D01*
X169540476Y-123257143D01*
X169540476Y-123380952D01*
X168921428Y-123504762D01*
X170097619Y-123938095D02*
X170097619Y-123071429D01*
X170097619Y-123319048D02*
X170159524Y-123195238D01*
X170221428Y-123133333D01*
X170345238Y-123071429D01*
X170469047Y-123071429D01*
X170840476Y-123876190D02*
X170964286Y-123938095D01*
X171211905Y-123938095D01*
X171335714Y-123876190D01*
X171397619Y-123752381D01*
X171397619Y-123690476D01*
X171335714Y-123566667D01*
X171211905Y-123504762D01*
X171026190Y-123504762D01*
X170902381Y-123442857D01*
X170840476Y-123319048D01*
X170840476Y-123257143D01*
X170902381Y-123133333D01*
X171026190Y-123071429D01*
X171211905Y-123071429D01*
X171335714Y-123133333D01*
X171954762Y-123938095D02*
X171954762Y-123071429D01*
X171954762Y-122638095D02*
X171892857Y-122700000D01*
X171954762Y-122761905D01*
X172016667Y-122700000D01*
X171954762Y-122638095D01*
X171954762Y-122761905D01*
X172759524Y-123938095D02*
X172635715Y-123876190D01*
X172573810Y-123814286D01*
X172511905Y-123690476D01*
X172511905Y-123319048D01*
X172573810Y-123195238D01*
X172635715Y-123133333D01*
X172759524Y-123071429D01*
X172945238Y-123071429D01*
X173069048Y-123133333D01*
X173130953Y-123195238D01*
X173192857Y-123319048D01*
X173192857Y-123690476D01*
X173130953Y-123814286D01*
X173069048Y-123876190D01*
X172945238Y-123938095D01*
X172759524Y-123938095D01*
X173750000Y-123071429D02*
X173750000Y-123938095D01*
X173750000Y-123195238D02*
X173811905Y-123133333D01*
X173935714Y-123071429D01*
X174121428Y-123071429D01*
X174245238Y-123133333D01*
X174307143Y-123257143D01*
X174307143Y-123938095D01*
X154559524Y-126138095D02*
X154559524Y-124838095D01*
X155054762Y-124838095D01*
X155178571Y-124900000D01*
X155240476Y-124961905D01*
X155302381Y-125085714D01*
X155302381Y-125271429D01*
X155240476Y-125395238D01*
X155178571Y-125457143D01*
X155054762Y-125519048D01*
X154559524Y-125519048D01*
X156602381Y-126014286D02*
X156540476Y-126076190D01*
X156354762Y-126138095D01*
X156230952Y-126138095D01*
X156045238Y-126076190D01*
X155921429Y-125952381D01*
X155859524Y-125828571D01*
X155797619Y-125580952D01*
X155797619Y-125395238D01*
X155859524Y-125147619D01*
X155921429Y-125023810D01*
X156045238Y-124900000D01*
X156230952Y-124838095D01*
X156354762Y-124838095D01*
X156540476Y-124900000D01*
X156602381Y-124961905D01*
X157592857Y-125457143D02*
X157778571Y-125519048D01*
X157840476Y-125580952D01*
X157902381Y-125704762D01*
X157902381Y-125890476D01*
X157840476Y-126014286D01*
X157778571Y-126076190D01*
X157654762Y-126138095D01*
X157159524Y-126138095D01*
X157159524Y-124838095D01*
X157592857Y-124838095D01*
X157716667Y-124900000D01*
X157778571Y-124961905D01*
X157840476Y-125085714D01*
X157840476Y-125209524D01*
X157778571Y-125333333D01*
X157716667Y-125395238D01*
X157592857Y-125457143D01*
X157159524Y-125457143D01*
X160192857Y-126138095D02*
X159759524Y-125519048D01*
X159450000Y-126138095D02*
X159450000Y-124838095D01*
X159945238Y-124838095D01*
X160069047Y-124900000D01*
X160130952Y-124961905D01*
X160192857Y-125085714D01*
X160192857Y-125271429D01*
X160130952Y-125395238D01*
X160069047Y-125457143D01*
X159945238Y-125519048D01*
X159450000Y-125519048D01*
X161245238Y-126076190D02*
X161121428Y-126138095D01*
X160873809Y-126138095D01*
X160750000Y-126076190D01*
X160688095Y-125952381D01*
X160688095Y-125457143D01*
X160750000Y-125333333D01*
X160873809Y-125271429D01*
X161121428Y-125271429D01*
X161245238Y-125333333D01*
X161307143Y-125457143D01*
X161307143Y-125580952D01*
X160688095Y-125704762D01*
X161740476Y-125271429D02*
X162050000Y-126138095D01*
X162359524Y-125271429D01*
X162854762Y-126138095D02*
X162854762Y-125271429D01*
X162854762Y-124838095D02*
X162792857Y-124900000D01*
X162854762Y-124961905D01*
X162916667Y-124900000D01*
X162854762Y-124838095D01*
X162854762Y-124961905D01*
X163411905Y-126076190D02*
X163535715Y-126138095D01*
X163783334Y-126138095D01*
X163907143Y-126076190D01*
X163969048Y-125952381D01*
X163969048Y-125890476D01*
X163907143Y-125766667D01*
X163783334Y-125704762D01*
X163597619Y-125704762D01*
X163473810Y-125642857D01*
X163411905Y-125519048D01*
X163411905Y-125457143D01*
X163473810Y-125333333D01*
X163597619Y-125271429D01*
X163783334Y-125271429D01*
X163907143Y-125333333D01*
X164526191Y-126138095D02*
X164526191Y-125271429D01*
X164526191Y-124838095D02*
X164464286Y-124900000D01*
X164526191Y-124961905D01*
X164588096Y-124900000D01*
X164526191Y-124838095D01*
X164526191Y-124961905D01*
X165330953Y-126138095D02*
X165207144Y-126076190D01*
X165145239Y-126014286D01*
X165083334Y-125890476D01*
X165083334Y-125519048D01*
X165145239Y-125395238D01*
X165207144Y-125333333D01*
X165330953Y-125271429D01*
X165516667Y-125271429D01*
X165640477Y-125333333D01*
X165702382Y-125395238D01*
X165764286Y-125519048D01*
X165764286Y-125890476D01*
X165702382Y-126014286D01*
X165640477Y-126076190D01*
X165516667Y-126138095D01*
X165330953Y-126138095D01*
X166321429Y-125271429D02*
X166321429Y-126138095D01*
X166321429Y-125395238D02*
X166383334Y-125333333D01*
X166507143Y-125271429D01*
X166692857Y-125271429D01*
X166816667Y-125333333D01*
X166878572Y-125457143D01*
X166878572Y-126138095D01*
X169169047Y-126138095D02*
X168426190Y-126138095D01*
X168797619Y-126138095D02*
X168797619Y-124838095D01*
X168673809Y-125023810D01*
X168550000Y-125147619D01*
X168426190Y-125209524D01*
X169726190Y-126014286D02*
X169788095Y-126076190D01*
X169726190Y-126138095D01*
X169664285Y-126076190D01*
X169726190Y-126014286D01*
X169726190Y-126138095D01*
X170592857Y-124838095D02*
X170716666Y-124838095D01*
X170840476Y-124900000D01*
X170902381Y-124961905D01*
X170964285Y-125085714D01*
X171026190Y-125333333D01*
X171026190Y-125642857D01*
X170964285Y-125890476D01*
X170902381Y-126014286D01*
X170840476Y-126076190D01*
X170716666Y-126138095D01*
X170592857Y-126138095D01*
X170469047Y-126076190D01*
X170407143Y-126014286D01*
X170345238Y-125890476D01*
X170283333Y-125642857D01*
X170283333Y-125333333D01*
X170345238Y-125085714D01*
X170407143Y-124961905D01*
X170469047Y-124900000D01*
X170592857Y-124838095D01*
D13*
X157572000Y-57268000D02*
X156372000Y-57268000D01*
X156372000Y-55508000D02*
X157572000Y-55508000D01*
X157572000Y-59554000D02*
X156372000Y-59554000D01*
X156372000Y-57794000D02*
X157572000Y-57794000D01*
X157572000Y-61840000D02*
X156372000Y-61840000D01*
X156372000Y-60080000D02*
X157572000Y-60080000D01*
X157586000Y-64126000D02*
X156386000Y-64126000D01*
X156386000Y-62366000D02*
X157586000Y-62366000D01*
X157586000Y-66412000D02*
X156386000Y-66412000D01*
X156386000Y-64652000D02*
X157586000Y-64652000D01*
X157586000Y-68698000D02*
X156386000Y-68698000D01*
X156386000Y-66938000D02*
X157586000Y-66938000D01*
X157586000Y-70984000D02*
X156386000Y-70984000D01*
X156386000Y-69224000D02*
X157586000Y-69224000D01*
X157586000Y-73270000D02*
X156386000Y-73270000D01*
X156386000Y-71510000D02*
X157586000Y-71510000D01*
X157586000Y-75556000D02*
X156386000Y-75556000D01*
X156386000Y-73796000D02*
X157586000Y-73796000D01*
X157586000Y-77842000D02*
X156386000Y-77842000D01*
X156386000Y-76082000D02*
X157586000Y-76082000D01*
X157586000Y-80128000D02*
X156386000Y-80128000D01*
X156386000Y-78368000D02*
X157586000Y-78368000D01*
X157586000Y-82414000D02*
X156386000Y-82414000D01*
X156386000Y-80654000D02*
X157586000Y-80654000D01*
X157586000Y-84700000D02*
X156386000Y-84700000D01*
X156386000Y-82940000D02*
X157586000Y-82940000D01*
X157586000Y-86986000D02*
X156386000Y-86986000D01*
X156386000Y-85226000D02*
X157586000Y-85226000D01*
X157586000Y-89272000D02*
X156386000Y-89272000D01*
X156386000Y-87512000D02*
X157586000Y-87512000D01*
X157586000Y-91558000D02*
X156386000Y-91558000D01*
X156386000Y-89798000D02*
X157586000Y-89798000D01*
X156800000Y-96402000D02*
X158000000Y-96402000D01*
X158000000Y-98162000D02*
X156800000Y-98162000D01*
X163588000Y-99432000D02*
X162388000Y-99432000D01*
X162388000Y-97672000D02*
X163588000Y-97672000D01*
X156800000Y-99069000D02*
X158000000Y-99069000D01*
X158000000Y-100829000D02*
X156800000Y-100829000D01*
X163588000Y-101972000D02*
X162388000Y-101972000D01*
X162388000Y-100212000D02*
X163588000Y-100212000D01*
X191942000Y-101972000D02*
X190742000Y-101972000D01*
X190742000Y-100212000D02*
X191942000Y-100212000D01*
X196758000Y-98942000D02*
X197958000Y-98942000D01*
X197958000Y-100702000D02*
X196758000Y-100702000D01*
X191942000Y-99432000D02*
X190742000Y-99432000D01*
X190742000Y-97672000D02*
X191942000Y-97672000D01*
X196758000Y-96402000D02*
X197958000Y-96402000D01*
X197958000Y-98162000D02*
X196758000Y-98162000D01*
X191862000Y-96892000D02*
X190662000Y-96892000D01*
X190662000Y-95132000D02*
X191862000Y-95132000D01*
X196758000Y-93862000D02*
X197958000Y-93862000D01*
X197958000Y-95622000D02*
X196758000Y-95622000D01*
X197958000Y-93082000D02*
X196758000Y-93082000D01*
X196758000Y-91322000D02*
X197958000Y-91322000D01*
X190662000Y-92592000D02*
X191862000Y-92592000D01*
X191862000Y-94352000D02*
X190662000Y-94352000D01*
X157090000Y-103540000D02*
X157090000Y-104740000D01*
X155330000Y-104740000D02*
X155330000Y-103540000D01*
X157870000Y-104740000D02*
X157870000Y-103540000D01*
X159630000Y-103540000D02*
X159630000Y-104740000D01*
X162388000Y-92592000D02*
X163588000Y-92592000D01*
X163588000Y-94352000D02*
X162388000Y-94352000D01*
D14*
X185120000Y-77914500D02*
X184120000Y-76914500D01*
X184120000Y-76914500D02*
X169720000Y-76914500D01*
X169720000Y-76914500D02*
X169720000Y-103679500D01*
X169720000Y-103679500D02*
X185120000Y-103679500D01*
X185120000Y-103679500D02*
X185120000Y-77914500D01*
D13*
X159064000Y-95818000D02*
X159064000Y-93158000D01*
X156464000Y-95818000D02*
X159064000Y-95818000D01*
X156464000Y-93158000D02*
X159064000Y-93158000D01*
X156464000Y-95818000D02*
X156464000Y-93158000D01*
X155194000Y-95818000D02*
X153864000Y-95818000D01*
X153864000Y-95818000D02*
X153864000Y-94488000D01*
X154880000Y-113830000D02*
X157540000Y-113830000D01*
X154880000Y-111230000D02*
X154880000Y-113830000D01*
X157540000Y-111230000D02*
X157540000Y-113830000D01*
X154880000Y-111230000D02*
X157540000Y-111230000D01*
X154880000Y-109960000D02*
X154880000Y-108630000D01*
X154880000Y-108630000D02*
X156210000Y-108630000D01*
X160080000Y-108652000D02*
X157420000Y-108652000D01*
X160080000Y-111252000D02*
X160080000Y-108652000D01*
X157420000Y-111252000D02*
X157420000Y-108652000D01*
X160080000Y-111252000D02*
X157420000Y-111252000D01*
X160080000Y-112522000D02*
X160080000Y-113852000D01*
X160080000Y-113852000D02*
X158750000Y-113852000D01*
X176696000Y-72144000D02*
X176696000Y-73144000D01*
X178396000Y-73144000D02*
X178396000Y-72144000D01*
X171997000Y-72144000D02*
X171997000Y-73144000D01*
X173697000Y-73144000D02*
X173697000Y-72144000D01*
D15*
G36*
X185576192Y-70016166D02*
X185663985Y-70059540D01*
X185772249Y-70135122D01*
X185851155Y-70217542D01*
X185905195Y-70321037D01*
X185938859Y-70459843D01*
X185956637Y-70648194D01*
X185963020Y-70900328D01*
X185963393Y-71008724D01*
X185962304Y-71246287D01*
X185957778Y-71416068D01*
X185947932Y-71533550D01*
X185930882Y-71614215D01*
X185904741Y-71673545D01*
X185877542Y-71714020D01*
X185703920Y-71886225D01*
X185499462Y-71989806D01*
X185278896Y-72020960D01*
X185056954Y-71975885D01*
X184986640Y-71944009D01*
X184818311Y-71856271D01*
X184818311Y-73231172D01*
X184941162Y-73167643D01*
X185103033Y-73118491D01*
X185301995Y-73105900D01*
X185500672Y-73129147D01*
X185650710Y-73181370D01*
X185775159Y-73280826D01*
X185881492Y-73423143D01*
X185889487Y-73437755D01*
X185923207Y-73506582D01*
X185947834Y-73575956D01*
X185964786Y-73659996D01*
X185975481Y-73772816D01*
X185981338Y-73928533D01*
X185983773Y-74141265D01*
X185984213Y-74380664D01*
X185984213Y-75144443D01*
X185526180Y-75144443D01*
X185526180Y-73736108D01*
X185398067Y-73628308D01*
X185264982Y-73542079D01*
X185138952Y-73526401D01*
X185012222Y-73566747D01*
X184944683Y-73606254D01*
X184894414Y-73662527D01*
X184858662Y-73747572D01*
X184834672Y-73873394D01*
X184819689Y-74051998D01*
X184810960Y-74295391D01*
X184807886Y-74457394D01*
X184797492Y-75123623D01*
X184578885Y-75136209D01*
X184360279Y-75148795D01*
X184360279Y-71014464D01*
X184818311Y-71014464D01*
X184829989Y-71244953D01*
X184869338Y-71404950D01*
X184942834Y-71504497D01*
X185056951Y-71553639D01*
X185172246Y-71563459D01*
X185302762Y-71552175D01*
X185389383Y-71507764D01*
X185443549Y-71449081D01*
X185486190Y-71385962D01*
X185511574Y-71315645D01*
X185522869Y-71217123D01*
X185523240Y-71069387D01*
X185519440Y-70945683D01*
X185510712Y-70759328D01*
X185497720Y-70636982D01*
X185475841Y-70559377D01*
X185440454Y-70507245D01*
X185407059Y-70477111D01*
X185267525Y-70411399D01*
X185102381Y-70400787D01*
X185007554Y-70423423D01*
X184913666Y-70503881D01*
X184851474Y-70660392D01*
X184821331Y-70891852D01*
X184818311Y-71014464D01*
X184360279Y-71014464D01*
X184360279Y-69981164D01*
X184589295Y-69981164D01*
X184726794Y-69986602D01*
X184797733Y-70005909D01*
X184818303Y-70043576D01*
X184818311Y-70044692D01*
X184827855Y-70081581D01*
X184869949Y-70077393D01*
X184953639Y-70036859D01*
X185148646Y-69974850D01*
X185368046Y-69968332D01*
X185576192Y-70016166D01*
X185576192Y-70016166D01*
G37*
X185576192Y-70016166D02*
X185663985Y-70059540D01*
X185772249Y-70135122D01*
X185851155Y-70217542D01*
X185905195Y-70321037D01*
X185938859Y-70459843D01*
X185956637Y-70648194D01*
X185963020Y-70900328D01*
X185963393Y-71008724D01*
X185962304Y-71246287D01*
X185957778Y-71416068D01*
X185947932Y-71533550D01*
X185930882Y-71614215D01*
X185904741Y-71673545D01*
X185877542Y-71714020D01*
X185703920Y-71886225D01*
X185499462Y-71989806D01*
X185278896Y-72020960D01*
X185056954Y-71975885D01*
X184986640Y-71944009D01*
X184818311Y-71856271D01*
X184818311Y-73231172D01*
X184941162Y-73167643D01*
X185103033Y-73118491D01*
X185301995Y-73105900D01*
X185500672Y-73129147D01*
X185650710Y-73181370D01*
X185775159Y-73280826D01*
X185881492Y-73423143D01*
X185889487Y-73437755D01*
X185923207Y-73506582D01*
X185947834Y-73575956D01*
X185964786Y-73659996D01*
X185975481Y-73772816D01*
X185981338Y-73928533D01*
X185983773Y-74141265D01*
X185984213Y-74380664D01*
X185984213Y-75144443D01*
X185526180Y-75144443D01*
X185526180Y-73736108D01*
X185398067Y-73628308D01*
X185264982Y-73542079D01*
X185138952Y-73526401D01*
X185012222Y-73566747D01*
X184944683Y-73606254D01*
X184894414Y-73662527D01*
X184858662Y-73747572D01*
X184834672Y-73873394D01*
X184819689Y-74051998D01*
X184810960Y-74295391D01*
X184807886Y-74457394D01*
X184797492Y-75123623D01*
X184578885Y-75136209D01*
X184360279Y-75148795D01*
X184360279Y-71014464D01*
X184818311Y-71014464D01*
X184829989Y-71244953D01*
X184869338Y-71404950D01*
X184942834Y-71504497D01*
X185056951Y-71553639D01*
X185172246Y-71563459D01*
X185302762Y-71552175D01*
X185389383Y-71507764D01*
X185443549Y-71449081D01*
X185486190Y-71385962D01*
X185511574Y-71315645D01*
X185522869Y-71217123D01*
X185523240Y-71069387D01*
X185519440Y-70945683D01*
X185510712Y-70759328D01*
X185497720Y-70636982D01*
X185475841Y-70559377D01*
X185440454Y-70507245D01*
X185407059Y-70477111D01*
X185267525Y-70411399D01*
X185102381Y-70400787D01*
X185007554Y-70423423D01*
X184913666Y-70503881D01*
X184851474Y-70660392D01*
X184821331Y-70891852D01*
X184818311Y-71014464D01*
X184360279Y-71014464D01*
X184360279Y-69981164D01*
X184589295Y-69981164D01*
X184726794Y-69986602D01*
X184797733Y-70005909D01*
X184818303Y-70043576D01*
X184818311Y-70044692D01*
X184827855Y-70081581D01*
X184869949Y-70077393D01*
X184953639Y-70036859D01*
X185148646Y-69974850D01*
X185368046Y-69968332D01*
X185576192Y-70016166D01*
G36*
X187313221Y-73120247D02*
X187509111Y-73172514D01*
X187658233Y-73267253D01*
X187763465Y-73391338D01*
X187796179Y-73444296D01*
X187820331Y-73499768D01*
X187837216Y-73570730D01*
X187848127Y-73670154D01*
X187854360Y-73811016D01*
X187857209Y-74006289D01*
X187857968Y-74268948D01*
X187857984Y-74338633D01*
X187857984Y-75144443D01*
X187658115Y-75144443D01*
X187530630Y-75135515D01*
X187436366Y-75112896D01*
X187412749Y-75098946D01*
X187348185Y-75074870D01*
X187282241Y-75098946D01*
X187173668Y-75129003D01*
X187015958Y-75141100D01*
X186841156Y-75135851D01*
X186681307Y-75113869D01*
X186587984Y-75085663D01*
X186407391Y-74969731D01*
X186294530Y-74808847D01*
X186243791Y-74594936D01*
X186243320Y-74589443D01*
X186247773Y-74494547D01*
X186650443Y-74494547D01*
X186685646Y-74602484D01*
X186742986Y-74663229D01*
X186858087Y-74709172D01*
X187010014Y-74727512D01*
X187164939Y-74718485D01*
X187289036Y-74682332D01*
X187323803Y-74659137D01*
X187384556Y-74551960D01*
X187399951Y-74430120D01*
X187399951Y-74270017D01*
X187169597Y-74270017D01*
X186950759Y-74286863D01*
X186784863Y-74334593D01*
X186681662Y-74408986D01*
X186650443Y-74494547D01*
X186247773Y-74494547D01*
X186254287Y-74355731D01*
X186331369Y-74170946D01*
X186476286Y-74031206D01*
X186496317Y-74018495D01*
X186582390Y-73977105D01*
X186688927Y-73952041D01*
X186837859Y-73939858D01*
X187014787Y-73937057D01*
X187399951Y-73936902D01*
X187399951Y-73775443D01*
X187383613Y-73650168D01*
X187341922Y-73566241D01*
X187337041Y-73561773D01*
X187244264Y-73525059D01*
X187104216Y-73510828D01*
X186949445Y-73517821D01*
X186812501Y-73544780D01*
X186731241Y-73585212D01*
X186687210Y-73617601D01*
X186640715Y-73623784D01*
X186576549Y-73597248D01*
X186479505Y-73531479D01*
X186334374Y-73419963D01*
X186321053Y-73409516D01*
X186327879Y-73370862D01*
X186384822Y-73306572D01*
X186471370Y-73235131D01*
X186567008Y-73175021D01*
X186597056Y-73160827D01*
X186706659Y-73132503D01*
X186867265Y-73112300D01*
X187046698Y-73104196D01*
X187055089Y-73104180D01*
X187313221Y-73120247D01*
X187313221Y-73120247D01*
G37*
X187313221Y-73120247D02*
X187509111Y-73172514D01*
X187658233Y-73267253D01*
X187763465Y-73391338D01*
X187796179Y-73444296D01*
X187820331Y-73499768D01*
X187837216Y-73570730D01*
X187848127Y-73670154D01*
X187854360Y-73811016D01*
X187857209Y-74006289D01*
X187857968Y-74268948D01*
X187857984Y-74338633D01*
X187857984Y-75144443D01*
X187658115Y-75144443D01*
X187530630Y-75135515D01*
X187436366Y-75112896D01*
X187412749Y-75098946D01*
X187348185Y-75074870D01*
X187282241Y-75098946D01*
X187173668Y-75129003D01*
X187015958Y-75141100D01*
X186841156Y-75135851D01*
X186681307Y-75113869D01*
X186587984Y-75085663D01*
X186407391Y-74969731D01*
X186294530Y-74808847D01*
X186243791Y-74594936D01*
X186243320Y-74589443D01*
X186247773Y-74494547D01*
X186650443Y-74494547D01*
X186685646Y-74602484D01*
X186742986Y-74663229D01*
X186858087Y-74709172D01*
X187010014Y-74727512D01*
X187164939Y-74718485D01*
X187289036Y-74682332D01*
X187323803Y-74659137D01*
X187384556Y-74551960D01*
X187399951Y-74430120D01*
X187399951Y-74270017D01*
X187169597Y-74270017D01*
X186950759Y-74286863D01*
X186784863Y-74334593D01*
X186681662Y-74408986D01*
X186650443Y-74494547D01*
X186247773Y-74494547D01*
X186254287Y-74355731D01*
X186331369Y-74170946D01*
X186476286Y-74031206D01*
X186496317Y-74018495D01*
X186582390Y-73977105D01*
X186688927Y-73952041D01*
X186837859Y-73939858D01*
X187014787Y-73937057D01*
X187399951Y-73936902D01*
X187399951Y-73775443D01*
X187383613Y-73650168D01*
X187341922Y-73566241D01*
X187337041Y-73561773D01*
X187244264Y-73525059D01*
X187104216Y-73510828D01*
X186949445Y-73517821D01*
X186812501Y-73544780D01*
X186731241Y-73585212D01*
X186687210Y-73617601D01*
X186640715Y-73623784D01*
X186576549Y-73597248D01*
X186479505Y-73531479D01*
X186334374Y-73419963D01*
X186321053Y-73409516D01*
X186327879Y-73370862D01*
X186384822Y-73306572D01*
X186471370Y-73235131D01*
X186567008Y-73175021D01*
X186597056Y-73160827D01*
X186706659Y-73132503D01*
X186867265Y-73112300D01*
X187046698Y-73104196D01*
X187055089Y-73104180D01*
X187313221Y-73120247D01*
G36*
X188607525Y-73108540D02*
X188669837Y-73127218D01*
X188689925Y-73168255D01*
X188690770Y-73186782D01*
X188694375Y-73238383D01*
X188719200Y-73246484D01*
X188786263Y-73211108D01*
X188826098Y-73186937D01*
X188951773Y-73135175D01*
X189101877Y-73109581D01*
X189259263Y-73107613D01*
X189406786Y-73126729D01*
X189527300Y-73164387D01*
X189603660Y-73218044D01*
X189618719Y-73285158D01*
X189611119Y-73303333D01*
X189555718Y-73378777D01*
X189469810Y-73471568D01*
X189454272Y-73486568D01*
X189372388Y-73555540D01*
X189301737Y-73577825D01*
X189202932Y-73562272D01*
X189163348Y-73551938D01*
X189040172Y-73527116D01*
X188953564Y-73538278D01*
X188880424Y-73577646D01*
X188813426Y-73630479D01*
X188764082Y-73696924D01*
X188729791Y-73789652D01*
X188707952Y-73921334D01*
X188695966Y-74104641D01*
X188691231Y-74352246D01*
X188690770Y-74501744D01*
X188690770Y-75144443D01*
X188274377Y-75144443D01*
X188274377Y-73104115D01*
X188482574Y-73104115D01*
X188607525Y-73108540D01*
X188607525Y-73108540D01*
G37*
X188607525Y-73108540D02*
X188669837Y-73127218D01*
X188689925Y-73168255D01*
X188690770Y-73186782D01*
X188694375Y-73238383D01*
X188719200Y-73246484D01*
X188786263Y-73211108D01*
X188826098Y-73186937D01*
X188951773Y-73135175D01*
X189101877Y-73109581D01*
X189259263Y-73107613D01*
X189406786Y-73126729D01*
X189527300Y-73164387D01*
X189603660Y-73218044D01*
X189618719Y-73285158D01*
X189611119Y-73303333D01*
X189555718Y-73378777D01*
X189469810Y-73471568D01*
X189454272Y-73486568D01*
X189372388Y-73555540D01*
X189301737Y-73577825D01*
X189202932Y-73562272D01*
X189163348Y-73551938D01*
X189040172Y-73527116D01*
X188953564Y-73538278D01*
X188880424Y-73577646D01*
X188813426Y-73630479D01*
X188764082Y-73696924D01*
X188729791Y-73789652D01*
X188707952Y-73921334D01*
X188695966Y-74104641D01*
X188691231Y-74352246D01*
X188690770Y-74501744D01*
X188690770Y-75144443D01*
X188274377Y-75144443D01*
X188274377Y-73104115D01*
X188482574Y-73104115D01*
X188607525Y-73108540D01*
G36*
X191230770Y-75144443D02*
X191001754Y-75144443D01*
X190868825Y-75140546D01*
X190799595Y-75124407D01*
X190774668Y-75089354D01*
X190772738Y-75065653D01*
X190768534Y-75018123D01*
X190742026Y-75009008D01*
X190672367Y-75038308D01*
X190618196Y-75065653D01*
X190410223Y-75130451D01*
X190184147Y-75134201D01*
X190000345Y-75085873D01*
X189829187Y-74969118D01*
X189698716Y-74796781D01*
X189627273Y-74593506D01*
X189625454Y-74582141D01*
X189614839Y-74458136D01*
X189609560Y-74280117D01*
X189609984Y-74145480D01*
X190064828Y-74145480D01*
X190075365Y-74324428D01*
X190099334Y-74471924D01*
X190131783Y-74555217D01*
X190254544Y-74669041D01*
X190400299Y-74709845D01*
X190550607Y-74676848D01*
X190679049Y-74578422D01*
X190727692Y-74512224D01*
X190756134Y-74433231D01*
X190769456Y-74317926D01*
X190772738Y-74144736D01*
X190766865Y-73973229D01*
X190751353Y-73822540D01*
X190729362Y-73721698D01*
X190725697Y-73712659D01*
X190637012Y-73605195D01*
X190507572Y-73546195D01*
X190362743Y-73536669D01*
X190227891Y-73577626D01*
X190128383Y-73670076D01*
X190118060Y-73688473D01*
X190085750Y-73800646D01*
X190068148Y-73961934D01*
X190064828Y-74145480D01*
X189609984Y-74145480D01*
X189610200Y-74077212D01*
X189613194Y-73968010D01*
X189633558Y-73697856D01*
X189675883Y-73495024D01*
X189746294Y-73345077D01*
X189850912Y-73233579D01*
X189952479Y-73168127D01*
X190094384Y-73122117D01*
X190270879Y-73106336D01*
X190451607Y-73119190D01*
X190606213Y-73159081D01*
X190687899Y-73206801D01*
X190772738Y-73283579D01*
X190772738Y-72312967D01*
X191230770Y-72312967D01*
X191230770Y-75144443D01*
X191230770Y-75144443D01*
G37*
X191230770Y-75144443D02*
X191001754Y-75144443D01*
X190868825Y-75140546D01*
X190799595Y-75124407D01*
X190774668Y-75089354D01*
X190772738Y-75065653D01*
X190768534Y-75018123D01*
X190742026Y-75009008D01*
X190672367Y-75038308D01*
X190618196Y-75065653D01*
X190410223Y-75130451D01*
X190184147Y-75134201D01*
X190000345Y-75085873D01*
X189829187Y-74969118D01*
X189698716Y-74796781D01*
X189627273Y-74593506D01*
X189625454Y-74582141D01*
X189614839Y-74458136D01*
X189609560Y-74280117D01*
X189609984Y-74145480D01*
X190064828Y-74145480D01*
X190075365Y-74324428D01*
X190099334Y-74471924D01*
X190131783Y-74555217D01*
X190254544Y-74669041D01*
X190400299Y-74709845D01*
X190550607Y-74676848D01*
X190679049Y-74578422D01*
X190727692Y-74512224D01*
X190756134Y-74433231D01*
X190769456Y-74317926D01*
X190772738Y-74144736D01*
X190766865Y-73973229D01*
X190751353Y-73822540D01*
X190729362Y-73721698D01*
X190725697Y-73712659D01*
X190637012Y-73605195D01*
X190507572Y-73546195D01*
X190362743Y-73536669D01*
X190227891Y-73577626D01*
X190128383Y-73670076D01*
X190118060Y-73688473D01*
X190085750Y-73800646D01*
X190068148Y-73961934D01*
X190064828Y-74145480D01*
X189609984Y-74145480D01*
X189610200Y-74077212D01*
X189613194Y-73968010D01*
X189633558Y-73697856D01*
X189675883Y-73495024D01*
X189746294Y-73345077D01*
X189850912Y-73233579D01*
X189952479Y-73168127D01*
X190094384Y-73122117D01*
X190270879Y-73106336D01*
X190451607Y-73119190D01*
X190606213Y-73159081D01*
X190687899Y-73206801D01*
X190772738Y-73283579D01*
X190772738Y-72312967D01*
X191230770Y-72312967D01*
X191230770Y-75144443D01*
G36*
X192993942Y-73124935D02*
X193209248Y-73770344D01*
X193424555Y-74415754D01*
X193492064Y-74186738D01*
X193532691Y-74045204D01*
X193586133Y-73853936D01*
X193643842Y-73643693D01*
X193674355Y-73530918D01*
X193789136Y-73104115D01*
X194262687Y-73104115D01*
X194121139Y-73551738D01*
X194051433Y-73771903D01*
X193967223Y-74037471D01*
X193879281Y-74314492D01*
X193800772Y-74561492D01*
X193621952Y-75123623D01*
X193428882Y-75136185D01*
X193235811Y-75148746D01*
X193131118Y-74803070D01*
X193066553Y-74588335D01*
X192996092Y-74351604D01*
X192934511Y-74142526D01*
X192932081Y-74134205D01*
X192886085Y-73992537D01*
X192845503Y-73895874D01*
X192817080Y-73859321D01*
X192811239Y-73863549D01*
X192790738Y-73920217D01*
X192751785Y-74041605D01*
X192699122Y-74212448D01*
X192637491Y-74417482D01*
X192604143Y-74530262D01*
X192423546Y-75144443D01*
X192040267Y-75144443D01*
X191733867Y-74176328D01*
X191647791Y-73904759D01*
X191569380Y-73658138D01*
X191502339Y-73448048D01*
X191450369Y-73286076D01*
X191417174Y-73183808D01*
X191407084Y-73153928D01*
X191415072Y-73123334D01*
X191477792Y-73109935D01*
X191608315Y-73111275D01*
X191628747Y-73112288D01*
X191870792Y-73124935D01*
X192029317Y-73707885D01*
X192087585Y-73920486D01*
X192139655Y-74107377D01*
X192180944Y-74252331D01*
X192206866Y-74339120D01*
X192211656Y-74353269D01*
X192231504Y-74336998D01*
X192271530Y-74252697D01*
X192327138Y-74111842D01*
X192393731Y-73925911D01*
X192450024Y-73757956D01*
X192664578Y-73100209D01*
X192993942Y-73124935D01*
X192993942Y-73124935D01*
G37*
X192993942Y-73124935D02*
X193209248Y-73770344D01*
X193424555Y-74415754D01*
X193492064Y-74186738D01*
X193532691Y-74045204D01*
X193586133Y-73853936D01*
X193643842Y-73643693D01*
X193674355Y-73530918D01*
X193789136Y-73104115D01*
X194262687Y-73104115D01*
X194121139Y-73551738D01*
X194051433Y-73771903D01*
X193967223Y-74037471D01*
X193879281Y-74314492D01*
X193800772Y-74561492D01*
X193621952Y-75123623D01*
X193428882Y-75136185D01*
X193235811Y-75148746D01*
X193131118Y-74803070D01*
X193066553Y-74588335D01*
X192996092Y-74351604D01*
X192934511Y-74142526D01*
X192932081Y-74134205D01*
X192886085Y-73992537D01*
X192845503Y-73895874D01*
X192817080Y-73859321D01*
X192811239Y-73863549D01*
X192790738Y-73920217D01*
X192751785Y-74041605D01*
X192699122Y-74212448D01*
X192637491Y-74417482D01*
X192604143Y-74530262D01*
X192423546Y-75144443D01*
X192040267Y-75144443D01*
X191733867Y-74176328D01*
X191647791Y-73904759D01*
X191569380Y-73658138D01*
X191502339Y-73448048D01*
X191450369Y-73286076D01*
X191417174Y-73183808D01*
X191407084Y-73153928D01*
X191415072Y-73123334D01*
X191477792Y-73109935D01*
X191608315Y-73111275D01*
X191628747Y-73112288D01*
X191870792Y-73124935D01*
X192029317Y-73707885D01*
X192087585Y-73920486D01*
X192139655Y-74107377D01*
X192180944Y-74252331D01*
X192206866Y-74339120D01*
X192211656Y-74353269D01*
X192231504Y-74336998D01*
X192271530Y-74252697D01*
X192327138Y-74111842D01*
X192393731Y-73925911D01*
X192450024Y-73757956D01*
X192664578Y-73100209D01*
X192993942Y-73124935D01*
G36*
X195335670Y-73116480D02*
X195511179Y-73159109D01*
X195561912Y-73181693D01*
X195660254Y-73240847D01*
X195735727Y-73307472D01*
X195791571Y-73393135D01*
X195831026Y-73509405D01*
X195857332Y-73667848D01*
X195873729Y-73880034D01*
X195883457Y-74157529D01*
X195887151Y-74342885D01*
X195900745Y-75144443D01*
X195668544Y-75144443D01*
X195527677Y-75138536D01*
X195455102Y-75118350D01*
X195436344Y-75084453D01*
X195426441Y-75047799D01*
X195382166Y-75054807D01*
X195321836Y-75084197D01*
X195170803Y-75129246D01*
X194976693Y-75141385D01*
X194772531Y-75121529D01*
X194591340Y-75070592D01*
X194575089Y-75063522D01*
X194409491Y-74947188D01*
X194300324Y-74785467D01*
X194250091Y-74596430D01*
X194253928Y-74528515D01*
X194663763Y-74528515D01*
X194699875Y-74619914D01*
X194806942Y-74685411D01*
X194979684Y-74720563D01*
X195072000Y-74725231D01*
X195225850Y-74713282D01*
X195328115Y-74666844D01*
X195353066Y-74644771D01*
X195420661Y-74524681D01*
X195436344Y-74415754D01*
X195436344Y-74270017D01*
X195233352Y-74270017D01*
X194997387Y-74282043D01*
X194831881Y-74319871D01*
X194727305Y-74386121D01*
X194703891Y-74415656D01*
X194663763Y-74528515D01*
X194253928Y-74528515D01*
X194261295Y-74398148D01*
X194336440Y-74208692D01*
X194438968Y-74080656D01*
X194501065Y-74025302D01*
X194561855Y-73988924D01*
X194640952Y-73966744D01*
X194757971Y-73953982D01*
X194932527Y-73945857D01*
X195001763Y-73943521D01*
X195436344Y-73929321D01*
X195435707Y-73797784D01*
X195418876Y-73659519D01*
X195358026Y-73575917D01*
X195235095Y-73522507D01*
X195231797Y-73521555D01*
X195057504Y-73500555D01*
X194886952Y-73527985D01*
X194760200Y-73594689D01*
X194709342Y-73627625D01*
X194654565Y-73623068D01*
X194570272Y-73575349D01*
X194520773Y-73541671D01*
X194423955Y-73469716D01*
X194363982Y-73415779D01*
X194354359Y-73400337D01*
X194393985Y-73320424D01*
X194511064Y-73224989D01*
X194561918Y-73192789D01*
X194708113Y-73137332D01*
X194905137Y-73105913D01*
X195123989Y-73098855D01*
X195335670Y-73116480D01*
X195335670Y-73116480D01*
G37*
X195335670Y-73116480D02*
X195511179Y-73159109D01*
X195561912Y-73181693D01*
X195660254Y-73240847D01*
X195735727Y-73307472D01*
X195791571Y-73393135D01*
X195831026Y-73509405D01*
X195857332Y-73667848D01*
X195873729Y-73880034D01*
X195883457Y-74157529D01*
X195887151Y-74342885D01*
X195900745Y-75144443D01*
X195668544Y-75144443D01*
X195527677Y-75138536D01*
X195455102Y-75118350D01*
X195436344Y-75084453D01*
X195426441Y-75047799D01*
X195382166Y-75054807D01*
X195321836Y-75084197D01*
X195170803Y-75129246D01*
X194976693Y-75141385D01*
X194772531Y-75121529D01*
X194591340Y-75070592D01*
X194575089Y-75063522D01*
X194409491Y-74947188D01*
X194300324Y-74785467D01*
X194250091Y-74596430D01*
X194253928Y-74528515D01*
X194663763Y-74528515D01*
X194699875Y-74619914D01*
X194806942Y-74685411D01*
X194979684Y-74720563D01*
X195072000Y-74725231D01*
X195225850Y-74713282D01*
X195328115Y-74666844D01*
X195353066Y-74644771D01*
X195420661Y-74524681D01*
X195436344Y-74415754D01*
X195436344Y-74270017D01*
X195233352Y-74270017D01*
X194997387Y-74282043D01*
X194831881Y-74319871D01*
X194727305Y-74386121D01*
X194703891Y-74415656D01*
X194663763Y-74528515D01*
X194253928Y-74528515D01*
X194261295Y-74398148D01*
X194336440Y-74208692D01*
X194438968Y-74080656D01*
X194501065Y-74025302D01*
X194561855Y-73988924D01*
X194640952Y-73966744D01*
X194757971Y-73953982D01*
X194932527Y-73945857D01*
X195001763Y-73943521D01*
X195436344Y-73929321D01*
X195435707Y-73797784D01*
X195418876Y-73659519D01*
X195358026Y-73575917D01*
X195235095Y-73522507D01*
X195231797Y-73521555D01*
X195057504Y-73500555D01*
X194886952Y-73527985D01*
X194760200Y-73594689D01*
X194709342Y-73627625D01*
X194654565Y-73623068D01*
X194570272Y-73575349D01*
X194520773Y-73541671D01*
X194423955Y-73469716D01*
X194363982Y-73415779D01*
X194354359Y-73400337D01*
X194393985Y-73320424D01*
X194511064Y-73224989D01*
X194561918Y-73192789D01*
X194708113Y-73137332D01*
X194905137Y-73105913D01*
X195123989Y-73098855D01*
X195335670Y-73116480D01*
G36*
X197312107Y-73103460D02*
X197472182Y-73135017D01*
X197563312Y-73181743D01*
X197659179Y-73259370D01*
X197522787Y-73431579D01*
X197438694Y-73535867D01*
X197381592Y-73586746D01*
X197324844Y-73594519D01*
X197241811Y-73569488D01*
X197202833Y-73555327D01*
X197043926Y-73534433D01*
X196898399Y-73579220D01*
X196791560Y-73680399D01*
X196774205Y-73712659D01*
X196755303Y-73798115D01*
X196740716Y-73955606D01*
X196731126Y-74173969D01*
X196727219Y-74442038D01*
X196727164Y-74480172D01*
X196727164Y-75144443D01*
X196269131Y-75144443D01*
X196269131Y-73104115D01*
X196498148Y-73104115D01*
X196630199Y-73107563D01*
X196698992Y-73122907D01*
X196724430Y-73157648D01*
X196727164Y-73190416D01*
X196727164Y-73276717D01*
X196836878Y-73190416D01*
X196962680Y-73131538D01*
X197131681Y-73102426D01*
X197312107Y-73103460D01*
X197312107Y-73103460D01*
G37*
X197312107Y-73103460D02*
X197472182Y-73135017D01*
X197563312Y-73181743D01*
X197659179Y-73259370D01*
X197522787Y-73431579D01*
X197438694Y-73535867D01*
X197381592Y-73586746D01*
X197324844Y-73594519D01*
X197241811Y-73569488D01*
X197202833Y-73555327D01*
X197043926Y-73534433D01*
X196898399Y-73579220D01*
X196791560Y-73680399D01*
X196774205Y-73712659D01*
X196755303Y-73798115D01*
X196740716Y-73955606D01*
X196731126Y-74173969D01*
X196727219Y-74442038D01*
X196727164Y-74480172D01*
X196727164Y-75144443D01*
X196269131Y-75144443D01*
X196269131Y-73104115D01*
X196498148Y-73104115D01*
X196630199Y-73107563D01*
X196698992Y-73122907D01*
X196724430Y-73157648D01*
X196727164Y-73190416D01*
X196727164Y-73276717D01*
X196836878Y-73190416D01*
X196962680Y-73131538D01*
X197131681Y-73102426D01*
X197312107Y-73103460D01*
G36*
X198627842Y-73114999D02*
X198826876Y-73166746D01*
X198993561Y-73273544D01*
X199074269Y-73353326D01*
X199206568Y-73541931D01*
X199282390Y-73760720D01*
X199308438Y-74029668D01*
X199308571Y-74051410D01*
X199308803Y-74270017D01*
X198050595Y-74270017D01*
X198077415Y-74384525D01*
X198125841Y-74488232D01*
X198210596Y-74596290D01*
X198228323Y-74613541D01*
X198380680Y-74706904D01*
X198554424Y-74722738D01*
X198754411Y-74661313D01*
X198788311Y-74644771D01*
X198892288Y-74594484D01*
X198961931Y-74565834D01*
X198974083Y-74563184D01*
X199016501Y-74588913D01*
X199097399Y-74651861D01*
X199138465Y-74686259D01*
X199223560Y-74765276D01*
X199251503Y-74817451D01*
X199232110Y-74865446D01*
X199221743Y-74878570D01*
X199151531Y-74936008D01*
X199035674Y-75005813D01*
X198954869Y-75046564D01*
X198725501Y-75118362D01*
X198471564Y-75141625D01*
X198231074Y-75114059D01*
X198163721Y-75094321D01*
X197955262Y-74982612D01*
X197800746Y-74810721D01*
X197699278Y-74576979D01*
X197649965Y-74279716D01*
X197644551Y-74124279D01*
X197660359Y-73897973D01*
X198059623Y-73897973D01*
X198098240Y-73914702D01*
X198202042Y-73927829D01*
X198352956Y-73935575D01*
X198455197Y-73936902D01*
X198639101Y-73935623D01*
X198755174Y-73929638D01*
X198818852Y-73915724D01*
X198845567Y-73890655D01*
X198850770Y-73854280D01*
X198815073Y-73742229D01*
X198725196Y-73631488D01*
X198606966Y-73546489D01*
X198488690Y-73511718D01*
X198328044Y-73542563D01*
X198188978Y-73631732D01*
X198092557Y-73760263D01*
X198059623Y-73897973D01*
X197660359Y-73897973D01*
X197667572Y-73794733D01*
X197738624Y-73532175D01*
X197859210Y-73334525D01*
X198030834Y-73199702D01*
X198254998Y-73125626D01*
X198376438Y-73111360D01*
X198627842Y-73114999D01*
X198627842Y-73114999D01*
G37*
X198627842Y-73114999D02*
X198826876Y-73166746D01*
X198993561Y-73273544D01*
X199074269Y-73353326D01*
X199206568Y-73541931D01*
X199282390Y-73760720D01*
X199308438Y-74029668D01*
X199308571Y-74051410D01*
X199308803Y-74270017D01*
X198050595Y-74270017D01*
X198077415Y-74384525D01*
X198125841Y-74488232D01*
X198210596Y-74596290D01*
X198228323Y-74613541D01*
X198380680Y-74706904D01*
X198554424Y-74722738D01*
X198754411Y-74661313D01*
X198788311Y-74644771D01*
X198892288Y-74594484D01*
X198961931Y-74565834D01*
X198974083Y-74563184D01*
X199016501Y-74588913D01*
X199097399Y-74651861D01*
X199138465Y-74686259D01*
X199223560Y-74765276D01*
X199251503Y-74817451D01*
X199232110Y-74865446D01*
X199221743Y-74878570D01*
X199151531Y-74936008D01*
X199035674Y-75005813D01*
X198954869Y-75046564D01*
X198725501Y-75118362D01*
X198471564Y-75141625D01*
X198231074Y-75114059D01*
X198163721Y-75094321D01*
X197955262Y-74982612D01*
X197800746Y-74810721D01*
X197699278Y-74576979D01*
X197649965Y-74279716D01*
X197644551Y-74124279D01*
X197660359Y-73897973D01*
X198059623Y-73897973D01*
X198098240Y-73914702D01*
X198202042Y-73927829D01*
X198352956Y-73935575D01*
X198455197Y-73936902D01*
X198639101Y-73935623D01*
X198755174Y-73929638D01*
X198818852Y-73915724D01*
X198845567Y-73890655D01*
X198850770Y-73854280D01*
X198815073Y-73742229D01*
X198725196Y-73631488D01*
X198606966Y-73546489D01*
X198488690Y-73511718D01*
X198328044Y-73542563D01*
X198188978Y-73631732D01*
X198092557Y-73760263D01*
X198059623Y-73897973D01*
X197660359Y-73897973D01*
X197667572Y-73794733D01*
X197738624Y-73532175D01*
X197859210Y-73334525D01*
X198030834Y-73199702D01*
X198254998Y-73125626D01*
X198376438Y-73111360D01*
X198627842Y-73114999D01*
G36*
X183491610Y-70002802D02*
X183709447Y-70099108D01*
X183874816Y-70259919D01*
X183987957Y-70485482D01*
X184049112Y-70776042D01*
X184053495Y-70821408D01*
X184056930Y-71141256D01*
X184012398Y-71421614D01*
X183922609Y-71648847D01*
X183874529Y-71721941D01*
X183707055Y-71876643D01*
X183493768Y-71976838D01*
X183255154Y-72018418D01*
X183011697Y-71997272D01*
X182826630Y-71932145D01*
X182667479Y-71822393D01*
X182537404Y-71678496D01*
X182535154Y-71675130D01*
X182482330Y-71586314D01*
X182448001Y-71497005D01*
X182427212Y-71384294D01*
X182415009Y-71225273D01*
X182409633Y-71094868D01*
X182407395Y-70976611D01*
X182823706Y-70976611D01*
X182827775Y-71094335D01*
X182842545Y-71251049D01*
X182868602Y-71351621D01*
X182915593Y-71423173D01*
X182959603Y-71464971D01*
X183115623Y-71552484D01*
X183278869Y-71564179D01*
X183430904Y-71501212D01*
X183506920Y-71430653D01*
X183561697Y-71359550D01*
X183593737Y-71291512D01*
X183607800Y-71202967D01*
X183608642Y-71070339D01*
X183604309Y-70948195D01*
X183594989Y-70773710D01*
X183580212Y-70660538D01*
X183553580Y-70586721D01*
X183508691Y-70530298D01*
X183473120Y-70498050D01*
X183324329Y-70413340D01*
X183163813Y-70409117D01*
X183029220Y-70459292D01*
X182914400Y-70564075D01*
X182845996Y-70736198D01*
X182823706Y-70976611D01*
X182407395Y-70976611D01*
X182404724Y-70835548D01*
X182413107Y-70641610D01*
X182438228Y-70495745D01*
X182483532Y-70380641D01*
X182552464Y-70278986D01*
X182578022Y-70248802D01*
X182737825Y-70098412D01*
X182909231Y-70010566D01*
X183118849Y-69973762D01*
X183221064Y-69970754D01*
X183491610Y-70002802D01*
X183491610Y-70002802D01*
G37*
X183491610Y-70002802D02*
X183709447Y-70099108D01*
X183874816Y-70259919D01*
X183987957Y-70485482D01*
X184049112Y-70776042D01*
X184053495Y-70821408D01*
X184056930Y-71141256D01*
X184012398Y-71421614D01*
X183922609Y-71648847D01*
X183874529Y-71721941D01*
X183707055Y-71876643D01*
X183493768Y-71976838D01*
X183255154Y-72018418D01*
X183011697Y-71997272D01*
X182826630Y-71932145D01*
X182667479Y-71822393D01*
X182537404Y-71678496D01*
X182535154Y-71675130D01*
X182482330Y-71586314D01*
X182448001Y-71497005D01*
X182427212Y-71384294D01*
X182415009Y-71225273D01*
X182409633Y-71094868D01*
X182407395Y-70976611D01*
X182823706Y-70976611D01*
X182827775Y-71094335D01*
X182842545Y-71251049D01*
X182868602Y-71351621D01*
X182915593Y-71423173D01*
X182959603Y-71464971D01*
X183115623Y-71552484D01*
X183278869Y-71564179D01*
X183430904Y-71501212D01*
X183506920Y-71430653D01*
X183561697Y-71359550D01*
X183593737Y-71291512D01*
X183607800Y-71202967D01*
X183608642Y-71070339D01*
X183604309Y-70948195D01*
X183594989Y-70773710D01*
X183580212Y-70660538D01*
X183553580Y-70586721D01*
X183508691Y-70530298D01*
X183473120Y-70498050D01*
X183324329Y-70413340D01*
X183163813Y-70409117D01*
X183029220Y-70459292D01*
X182914400Y-70564075D01*
X182845996Y-70736198D01*
X182823706Y-70976611D01*
X182407395Y-70976611D01*
X182404724Y-70835548D01*
X182413107Y-70641610D01*
X182438228Y-70495745D01*
X182483532Y-70380641D01*
X182552464Y-70278986D01*
X182578022Y-70248802D01*
X182737825Y-70098412D01*
X182909231Y-70010566D01*
X183118849Y-69973762D01*
X183221064Y-69970754D01*
X183491610Y-70002802D01*
G36*
X187404325Y-70027526D02*
X187445819Y-70047061D01*
X187589434Y-70152263D01*
X187725236Y-70305793D01*
X187826638Y-70474845D01*
X187855480Y-70552567D01*
X187881794Y-70691398D01*
X187897485Y-70859177D01*
X187899391Y-70928459D01*
X187899623Y-71147066D01*
X186641415Y-71147066D01*
X186668234Y-71261574D01*
X186734066Y-71397004D01*
X186849161Y-71514046D01*
X186986087Y-71589442D01*
X187073342Y-71605098D01*
X187191672Y-71586099D01*
X187332851Y-71538446D01*
X187380811Y-71516521D01*
X187558171Y-71427944D01*
X187709530Y-71543391D01*
X187796869Y-71621474D01*
X187843342Y-71685922D01*
X187845695Y-71704837D01*
X187804178Y-71750681D01*
X187713190Y-71820349D01*
X187630605Y-71874700D01*
X187407751Y-71972405D01*
X187157913Y-72016628D01*
X186910290Y-72005130D01*
X186712902Y-71945029D01*
X186509424Y-71816284D01*
X186364821Y-71646774D01*
X186274361Y-71427462D01*
X186233311Y-71149309D01*
X186229671Y-71022034D01*
X186244239Y-70730375D01*
X186246028Y-70721891D01*
X186662941Y-70721891D01*
X186674423Y-70749242D01*
X186721616Y-70764324D01*
X186818951Y-70770788D01*
X186980864Y-70772285D01*
X187043210Y-70772312D01*
X187232897Y-70770052D01*
X187353189Y-70761844D01*
X187417884Y-70745550D01*
X187440780Y-70719027D01*
X187441590Y-70710510D01*
X187415460Y-70642825D01*
X187350063Y-70548005D01*
X187321948Y-70514805D01*
X187217574Y-70420906D01*
X187108775Y-70383988D01*
X187050157Y-70380902D01*
X186891574Y-70419493D01*
X186758587Y-70523155D01*
X186674228Y-70673717D01*
X186672733Y-70678623D01*
X186662941Y-70721891D01*
X186246028Y-70721891D01*
X186292684Y-70500722D01*
X186379955Y-70316983D01*
X186486689Y-70186557D01*
X186684020Y-70045131D01*
X186915985Y-69969556D01*
X187162712Y-69962724D01*
X187404325Y-70027526D01*
X187404325Y-70027526D01*
G37*
X187404325Y-70027526D02*
X187445819Y-70047061D01*
X187589434Y-70152263D01*
X187725236Y-70305793D01*
X187826638Y-70474845D01*
X187855480Y-70552567D01*
X187881794Y-70691398D01*
X187897485Y-70859177D01*
X187899391Y-70928459D01*
X187899623Y-71147066D01*
X186641415Y-71147066D01*
X186668234Y-71261574D01*
X186734066Y-71397004D01*
X186849161Y-71514046D01*
X186986087Y-71589442D01*
X187073342Y-71605098D01*
X187191672Y-71586099D01*
X187332851Y-71538446D01*
X187380811Y-71516521D01*
X187558171Y-71427944D01*
X187709530Y-71543391D01*
X187796869Y-71621474D01*
X187843342Y-71685922D01*
X187845695Y-71704837D01*
X187804178Y-71750681D01*
X187713190Y-71820349D01*
X187630605Y-71874700D01*
X187407751Y-71972405D01*
X187157913Y-72016628D01*
X186910290Y-72005130D01*
X186712902Y-71945029D01*
X186509424Y-71816284D01*
X186364821Y-71646774D01*
X186274361Y-71427462D01*
X186233311Y-71149309D01*
X186229671Y-71022034D01*
X186244239Y-70730375D01*
X186246028Y-70721891D01*
X186662941Y-70721891D01*
X186674423Y-70749242D01*
X186721616Y-70764324D01*
X186818951Y-70770788D01*
X186980864Y-70772285D01*
X187043210Y-70772312D01*
X187232897Y-70770052D01*
X187353189Y-70761844D01*
X187417884Y-70745550D01*
X187440780Y-70719027D01*
X187441590Y-70710510D01*
X187415460Y-70642825D01*
X187350063Y-70548005D01*
X187321948Y-70514805D01*
X187217574Y-70420906D01*
X187108775Y-70383988D01*
X187050157Y-70380902D01*
X186891574Y-70419493D01*
X186758587Y-70523155D01*
X186674228Y-70673717D01*
X186672733Y-70678623D01*
X186662941Y-70721891D01*
X186246028Y-70721891D01*
X186292684Y-70500722D01*
X186379955Y-70316983D01*
X186486689Y-70186557D01*
X186684020Y-70045131D01*
X186915985Y-69969556D01*
X187162712Y-69962724D01*
X187404325Y-70027526D01*
G36*
X191943418Y-69974003D02*
X192101100Y-70003907D01*
X192264685Y-70066452D01*
X192282164Y-70074426D01*
X192406217Y-70139656D01*
X192492129Y-70200274D01*
X192519898Y-70239106D01*
X192493453Y-70302437D01*
X192429220Y-70395881D01*
X192400708Y-70430762D01*
X192283211Y-70568066D01*
X192131732Y-70478691D01*
X191987570Y-70419152D01*
X191821000Y-70387326D01*
X191661262Y-70385316D01*
X191537594Y-70415221D01*
X191507916Y-70433886D01*
X191451398Y-70519466D01*
X191444529Y-70618049D01*
X191486820Y-70695062D01*
X191511836Y-70709998D01*
X191586796Y-70728547D01*
X191718561Y-70750348D01*
X191880991Y-70771180D01*
X191910956Y-70774447D01*
X192171840Y-70819575D01*
X192361055Y-70896230D01*
X192486543Y-71011491D01*
X192556243Y-71172435D01*
X192577956Y-71369015D01*
X192547961Y-71592473D01*
X192450559Y-71767949D01*
X192285361Y-71895758D01*
X192051977Y-71976218D01*
X191792902Y-72007962D01*
X191581633Y-72007580D01*
X191410265Y-71978749D01*
X191293230Y-71938944D01*
X191145350Y-71869587D01*
X191008687Y-71789097D01*
X190960115Y-71753670D01*
X190835197Y-71651705D01*
X191136509Y-71346813D01*
X191307796Y-71460165D01*
X191479594Y-71545300D01*
X191663048Y-71589830D01*
X191839397Y-71594528D01*
X191989881Y-71560170D01*
X192095740Y-71487529D01*
X192129921Y-71426238D01*
X192124794Y-71327941D01*
X192039857Y-71252773D01*
X191875343Y-71200866D01*
X191695101Y-71176875D01*
X191417709Y-71131104D01*
X191211635Y-71044748D01*
X191074122Y-70915280D01*
X191002413Y-70740172D01*
X190992479Y-70532565D01*
X191041548Y-70315714D01*
X191153420Y-70151805D01*
X191329097Y-70040088D01*
X191569581Y-69979814D01*
X191747743Y-69967999D01*
X191943418Y-69974003D01*
X191943418Y-69974003D01*
G37*
X191943418Y-69974003D02*
X192101100Y-70003907D01*
X192264685Y-70066452D01*
X192282164Y-70074426D01*
X192406217Y-70139656D01*
X192492129Y-70200274D01*
X192519898Y-70239106D01*
X192493453Y-70302437D01*
X192429220Y-70395881D01*
X192400708Y-70430762D01*
X192283211Y-70568066D01*
X192131732Y-70478691D01*
X191987570Y-70419152D01*
X191821000Y-70387326D01*
X191661262Y-70385316D01*
X191537594Y-70415221D01*
X191507916Y-70433886D01*
X191451398Y-70519466D01*
X191444529Y-70618049D01*
X191486820Y-70695062D01*
X191511836Y-70709998D01*
X191586796Y-70728547D01*
X191718561Y-70750348D01*
X191880991Y-70771180D01*
X191910956Y-70774447D01*
X192171840Y-70819575D01*
X192361055Y-70896230D01*
X192486543Y-71011491D01*
X192556243Y-71172435D01*
X192577956Y-71369015D01*
X192547961Y-71592473D01*
X192450559Y-71767949D01*
X192285361Y-71895758D01*
X192051977Y-71976218D01*
X191792902Y-72007962D01*
X191581633Y-72007580D01*
X191410265Y-71978749D01*
X191293230Y-71938944D01*
X191145350Y-71869587D01*
X191008687Y-71789097D01*
X190960115Y-71753670D01*
X190835197Y-71651705D01*
X191136509Y-71346813D01*
X191307796Y-71460165D01*
X191479594Y-71545300D01*
X191663048Y-71589830D01*
X191839397Y-71594528D01*
X191989881Y-71560170D01*
X192095740Y-71487529D01*
X192129921Y-71426238D01*
X192124794Y-71327941D01*
X192039857Y-71252773D01*
X191875343Y-71200866D01*
X191695101Y-71176875D01*
X191417709Y-71131104D01*
X191211635Y-71044748D01*
X191074122Y-70915280D01*
X191002413Y-70740172D01*
X190992479Y-70532565D01*
X191041548Y-70315714D01*
X191153420Y-70151805D01*
X191329097Y-70040088D01*
X191569581Y-69979814D01*
X191747743Y-69967999D01*
X191943418Y-69974003D01*
G36*
X193919521Y-70005805D02*
X194130136Y-70120505D01*
X194294915Y-70301574D01*
X194372554Y-70448838D01*
X194405886Y-70578907D01*
X194427483Y-70764333D01*
X194436739Y-70977939D01*
X194433045Y-71192550D01*
X194415794Y-71380991D01*
X194395643Y-71481637D01*
X194327667Y-71619323D01*
X194209942Y-71765566D01*
X194068065Y-71893452D01*
X193927632Y-71976063D01*
X193924207Y-71977373D01*
X193749945Y-72013472D01*
X193543427Y-72014365D01*
X193347174Y-71981501D01*
X193271396Y-71955161D01*
X193076221Y-71844484D01*
X192936438Y-71699478D01*
X192844599Y-71507503D01*
X192793254Y-71255920D01*
X192781637Y-71124142D01*
X192783119Y-70958553D01*
X193229459Y-70958553D01*
X193244494Y-71200177D01*
X193287772Y-71384303D01*
X193356551Y-71501949D01*
X193405550Y-71535590D01*
X193531093Y-71559050D01*
X193680318Y-71552104D01*
X193809333Y-71518345D01*
X193843166Y-71499772D01*
X193932428Y-71391599D01*
X193991345Y-71226051D01*
X194016424Y-71024581D01*
X194004174Y-70808646D01*
X193976796Y-70678690D01*
X193898191Y-70528191D01*
X193774104Y-70434114D01*
X193624661Y-70401587D01*
X193469987Y-70435738D01*
X193351174Y-70519273D01*
X193288735Y-70588193D01*
X193252293Y-70656126D01*
X193234923Y-70748064D01*
X193229699Y-70888999D01*
X193229459Y-70958553D01*
X192783119Y-70958553D01*
X192784785Y-70772495D01*
X192842056Y-70484134D01*
X192953457Y-70259049D01*
X193118993Y-70097230D01*
X193338670Y-69998666D01*
X193385842Y-69987236D01*
X193669336Y-69960406D01*
X193919521Y-70005805D01*
X193919521Y-70005805D01*
G37*
X193919521Y-70005805D02*
X194130136Y-70120505D01*
X194294915Y-70301574D01*
X194372554Y-70448838D01*
X194405886Y-70578907D01*
X194427483Y-70764333D01*
X194436739Y-70977939D01*
X194433045Y-71192550D01*
X194415794Y-71380991D01*
X194395643Y-71481637D01*
X194327667Y-71619323D01*
X194209942Y-71765566D01*
X194068065Y-71893452D01*
X193927632Y-71976063D01*
X193924207Y-71977373D01*
X193749945Y-72013472D01*
X193543427Y-72014365D01*
X193347174Y-71981501D01*
X193271396Y-71955161D01*
X193076221Y-71844484D01*
X192936438Y-71699478D01*
X192844599Y-71507503D01*
X192793254Y-71255920D01*
X192781637Y-71124142D01*
X192783119Y-70958553D01*
X193229459Y-70958553D01*
X193244494Y-71200177D01*
X193287772Y-71384303D01*
X193356551Y-71501949D01*
X193405550Y-71535590D01*
X193531093Y-71559050D01*
X193680318Y-71552104D01*
X193809333Y-71518345D01*
X193843166Y-71499772D01*
X193932428Y-71391599D01*
X193991345Y-71226051D01*
X194016424Y-71024581D01*
X194004174Y-70808646D01*
X193976796Y-70678690D01*
X193898191Y-70528191D01*
X193774104Y-70434114D01*
X193624661Y-70401587D01*
X193469987Y-70435738D01*
X193351174Y-70519273D01*
X193288735Y-70588193D01*
X193252293Y-70656126D01*
X193234923Y-70748064D01*
X193229699Y-70888999D01*
X193229459Y-70958553D01*
X192783119Y-70958553D01*
X192784785Y-70772495D01*
X192842056Y-70484134D01*
X192953457Y-70259049D01*
X193118993Y-70097230D01*
X193338670Y-69998666D01*
X193385842Y-69987236D01*
X193669336Y-69960406D01*
X193919521Y-70005805D01*
G36*
X195186508Y-70629311D02*
X195190444Y-70934698D01*
X195204823Y-71166660D01*
X195233504Y-71334786D01*
X195280348Y-71448671D01*
X195349211Y-71517905D01*
X195443954Y-71552080D01*
X195561262Y-71560811D01*
X195684123Y-71551028D01*
X195777444Y-71515287D01*
X195845084Y-71443995D01*
X195890901Y-71327561D01*
X195918755Y-71156391D01*
X195932504Y-70920896D01*
X195936016Y-70629311D01*
X195936016Y-69981164D01*
X196394049Y-69981164D01*
X196394049Y-71979853D01*
X196165033Y-71979853D01*
X196026971Y-71974258D01*
X195955878Y-71954611D01*
X195936016Y-71917313D01*
X195924054Y-71884094D01*
X195876447Y-71891121D01*
X195780485Y-71938132D01*
X195560548Y-72010654D01*
X195327274Y-72005516D01*
X195103755Y-71926766D01*
X194997313Y-71864558D01*
X194916122Y-71797204D01*
X194856808Y-71712928D01*
X194815996Y-71599957D01*
X194790312Y-71446515D01*
X194776381Y-71240827D01*
X194770829Y-70971118D01*
X194770115Y-70762551D01*
X194770115Y-69981164D01*
X195186508Y-69981164D01*
X195186508Y-70629311D01*
X195186508Y-70629311D01*
G37*
X195186508Y-70629311D02*
X195190444Y-70934698D01*
X195204823Y-71166660D01*
X195233504Y-71334786D01*
X195280348Y-71448671D01*
X195349211Y-71517905D01*
X195443954Y-71552080D01*
X195561262Y-71560811D01*
X195684123Y-71551028D01*
X195777444Y-71515287D01*
X195845084Y-71443995D01*
X195890901Y-71327561D01*
X195918755Y-71156391D01*
X195932504Y-70920896D01*
X195936016Y-70629311D01*
X195936016Y-69981164D01*
X196394049Y-69981164D01*
X196394049Y-71979853D01*
X196165033Y-71979853D01*
X196026971Y-71974258D01*
X195955878Y-71954611D01*
X195936016Y-71917313D01*
X195924054Y-71884094D01*
X195876447Y-71891121D01*
X195780485Y-71938132D01*
X195560548Y-72010654D01*
X195327274Y-72005516D01*
X195103755Y-71926766D01*
X194997313Y-71864558D01*
X194916122Y-71797204D01*
X194856808Y-71712928D01*
X194815996Y-71599957D01*
X194790312Y-71446515D01*
X194776381Y-71240827D01*
X194770829Y-70971118D01*
X194770115Y-70762551D01*
X194770115Y-69981164D01*
X195186508Y-69981164D01*
X195186508Y-70629311D01*
G36*
X199239288Y-69998602D02*
X199480543Y-70101090D01*
X199556531Y-70150981D01*
X199653648Y-70227651D01*
X199714612Y-70287936D01*
X199725197Y-70307571D01*
X199695308Y-70351142D01*
X199618819Y-70425077D01*
X199557582Y-70476679D01*
X199389967Y-70611378D01*
X199257614Y-70500010D01*
X199155336Y-70428113D01*
X199055610Y-70403296D01*
X198941475Y-70409357D01*
X198760234Y-70454418D01*
X198635475Y-70547949D01*
X198559658Y-70699154D01*
X198525240Y-70917236D01*
X198525231Y-70917373D01*
X198528208Y-71161124D01*
X198574467Y-71339966D01*
X198666742Y-71461730D01*
X198729650Y-71502964D01*
X198896717Y-71554311D01*
X199075162Y-71554342D01*
X199230415Y-71504522D01*
X199267164Y-71480180D01*
X199359330Y-71418004D01*
X199431387Y-71407813D01*
X199509102Y-71454092D01*
X199595018Y-71537212D01*
X199731011Y-71677521D01*
X199580023Y-71801978D01*
X199346740Y-71942443D01*
X199083673Y-72011666D01*
X198808760Y-72006653D01*
X198628216Y-71960755D01*
X198417194Y-71847249D01*
X198248426Y-71668685D01*
X198171753Y-71542639D01*
X198109654Y-71361791D01*
X198078581Y-71132745D01*
X198078342Y-70884510D01*
X198108743Y-70646093D01*
X198169592Y-70446503D01*
X198179176Y-70426039D01*
X198321102Y-70225341D01*
X198513259Y-70079217D01*
X198740464Y-69990698D01*
X198987535Y-69962815D01*
X199239288Y-69998602D01*
X199239288Y-69998602D01*
G37*
X199239288Y-69998602D02*
X199480543Y-70101090D01*
X199556531Y-70150981D01*
X199653648Y-70227651D01*
X199714612Y-70287936D01*
X199725197Y-70307571D01*
X199695308Y-70351142D01*
X199618819Y-70425077D01*
X199557582Y-70476679D01*
X199389967Y-70611378D01*
X199257614Y-70500010D01*
X199155336Y-70428113D01*
X199055610Y-70403296D01*
X198941475Y-70409357D01*
X198760234Y-70454418D01*
X198635475Y-70547949D01*
X198559658Y-70699154D01*
X198525240Y-70917236D01*
X198525231Y-70917373D01*
X198528208Y-71161124D01*
X198574467Y-71339966D01*
X198666742Y-71461730D01*
X198729650Y-71502964D01*
X198896717Y-71554311D01*
X199075162Y-71554342D01*
X199230415Y-71504522D01*
X199267164Y-71480180D01*
X199359330Y-71418004D01*
X199431387Y-71407813D01*
X199509102Y-71454092D01*
X199595018Y-71537212D01*
X199731011Y-71677521D01*
X199580023Y-71801978D01*
X199346740Y-71942443D01*
X199083673Y-72011666D01*
X198808760Y-72006653D01*
X198628216Y-71960755D01*
X198417194Y-71847249D01*
X198248426Y-71668685D01*
X198171753Y-71542639D01*
X198109654Y-71361791D01*
X198078581Y-71132745D01*
X198078342Y-70884510D01*
X198108743Y-70646093D01*
X198169592Y-70446503D01*
X198179176Y-70426039D01*
X198321102Y-70225341D01*
X198513259Y-70079217D01*
X198740464Y-69990698D01*
X198987535Y-69962815D01*
X199239288Y-69998602D01*
G36*
X200764792Y-69974019D02*
X200871414Y-69999922D01*
X201075830Y-70094772D01*
X201250625Y-70239633D01*
X201371597Y-70413320D01*
X201388217Y-70452317D01*
X201411016Y-70554465D01*
X201426975Y-70705573D01*
X201432410Y-70858301D01*
X201432410Y-71147066D01*
X200828639Y-71147066D01*
X200579619Y-71148007D01*
X200404189Y-71153723D01*
X200292665Y-71168550D01*
X200235360Y-71196827D01*
X200222588Y-71242890D01*
X200244662Y-71311077D01*
X200284205Y-71390863D01*
X200394509Y-71524017D01*
X200547792Y-71590355D01*
X200735141Y-71588194D01*
X200947363Y-71515991D01*
X201130773Y-71426883D01*
X201282962Y-71547220D01*
X201435151Y-71667558D01*
X201291974Y-71799843D01*
X201100828Y-71924832D01*
X200865753Y-72000189D01*
X200612898Y-72021278D01*
X200368413Y-71983460D01*
X200328967Y-71970628D01*
X200114090Y-71858414D01*
X199954250Y-71691118D01*
X199846080Y-71463748D01*
X199786210Y-71171308D01*
X199785513Y-71165040D01*
X199780152Y-70846332D01*
X199801823Y-70732632D01*
X200224869Y-70732632D01*
X200263722Y-70750116D01*
X200369205Y-70763508D01*
X200524707Y-70771155D01*
X200623249Y-70772312D01*
X200807013Y-70771588D01*
X200921914Y-70766983D01*
X200982366Y-70754848D01*
X201002783Y-70731530D01*
X200997581Y-70693382D01*
X200993217Y-70678623D01*
X200918724Y-70539944D01*
X200801566Y-70428179D01*
X200698173Y-70379066D01*
X200560816Y-70382032D01*
X200421629Y-70443278D01*
X200304874Y-70544683D01*
X200234810Y-70668122D01*
X200224869Y-70732632D01*
X199801823Y-70732632D01*
X199833579Y-70566020D01*
X199939572Y-70330780D01*
X200091911Y-70147284D01*
X200284374Y-70022209D01*
X200510742Y-69962229D01*
X200764792Y-69974019D01*
X200764792Y-69974019D01*
G37*
X200764792Y-69974019D02*
X200871414Y-69999922D01*
X201075830Y-70094772D01*
X201250625Y-70239633D01*
X201371597Y-70413320D01*
X201388217Y-70452317D01*
X201411016Y-70554465D01*
X201426975Y-70705573D01*
X201432410Y-70858301D01*
X201432410Y-71147066D01*
X200828639Y-71147066D01*
X200579619Y-71148007D01*
X200404189Y-71153723D01*
X200292665Y-71168550D01*
X200235360Y-71196827D01*
X200222588Y-71242890D01*
X200244662Y-71311077D01*
X200284205Y-71390863D01*
X200394509Y-71524017D01*
X200547792Y-71590355D01*
X200735141Y-71588194D01*
X200947363Y-71515991D01*
X201130773Y-71426883D01*
X201282962Y-71547220D01*
X201435151Y-71667558D01*
X201291974Y-71799843D01*
X201100828Y-71924832D01*
X200865753Y-72000189D01*
X200612898Y-72021278D01*
X200368413Y-71983460D01*
X200328967Y-71970628D01*
X200114090Y-71858414D01*
X199954250Y-71691118D01*
X199846080Y-71463748D01*
X199786210Y-71171308D01*
X199785513Y-71165040D01*
X199780152Y-70846332D01*
X199801823Y-70732632D01*
X200224869Y-70732632D01*
X200263722Y-70750116D01*
X200369205Y-70763508D01*
X200524707Y-70771155D01*
X200623249Y-70772312D01*
X200807013Y-70771588D01*
X200921914Y-70766983D01*
X200982366Y-70754848D01*
X201002783Y-70731530D01*
X200997581Y-70693382D01*
X200993217Y-70678623D01*
X200918724Y-70539944D01*
X200801566Y-70428179D01*
X200698173Y-70379066D01*
X200560816Y-70382032D01*
X200421629Y-70443278D01*
X200304874Y-70544683D01*
X200234810Y-70668122D01*
X200224869Y-70732632D01*
X199801823Y-70732632D01*
X199833579Y-70566020D01*
X199939572Y-70330780D01*
X200091911Y-70147284D01*
X200284374Y-70022209D01*
X200510742Y-69962229D01*
X200764792Y-69974019D01*
G36*
X189400108Y-70015563D02*
X189503740Y-70065062D01*
X189604106Y-70136561D01*
X189680568Y-70218853D01*
X189736262Y-70323811D01*
X189774323Y-70463313D01*
X189797885Y-70649233D01*
X189810085Y-70893448D01*
X189814056Y-71207833D01*
X189814118Y-71240754D01*
X189815033Y-71979853D01*
X189357000Y-71979853D01*
X189357000Y-71298481D01*
X189356674Y-71046050D01*
X189354419Y-70863093D01*
X189348319Y-70735807D01*
X189336459Y-70650386D01*
X189316924Y-70593026D01*
X189287797Y-70549924D01*
X189247224Y-70507334D01*
X189105269Y-70415824D01*
X188950306Y-70398843D01*
X188802677Y-70456701D01*
X188751337Y-70499763D01*
X188713647Y-70540249D01*
X188686587Y-70583607D01*
X188668397Y-70643463D01*
X188657316Y-70733441D01*
X188651586Y-70867168D01*
X188649444Y-71058270D01*
X188649131Y-71290911D01*
X188649131Y-71979853D01*
X188191098Y-71979853D01*
X188191098Y-69981164D01*
X188420115Y-69981164D01*
X188557614Y-69986602D01*
X188628553Y-70005909D01*
X188649122Y-70043576D01*
X188649131Y-70044692D01*
X188658675Y-70081581D01*
X188700767Y-70077395D01*
X188784459Y-70036861D01*
X188974273Y-69977224D01*
X189191401Y-69970591D01*
X189400108Y-70015563D01*
X189400108Y-70015563D01*
G37*
X189400108Y-70015563D02*
X189503740Y-70065062D01*
X189604106Y-70136561D01*
X189680568Y-70218853D01*
X189736262Y-70323811D01*
X189774323Y-70463313D01*
X189797885Y-70649233D01*
X189810085Y-70893448D01*
X189814056Y-71207833D01*
X189814118Y-71240754D01*
X189815033Y-71979853D01*
X189357000Y-71979853D01*
X189357000Y-71298481D01*
X189356674Y-71046050D01*
X189354419Y-70863093D01*
X189348319Y-70735807D01*
X189336459Y-70650386D01*
X189316924Y-70593026D01*
X189287797Y-70549924D01*
X189247224Y-70507334D01*
X189105269Y-70415824D01*
X188950306Y-70398843D01*
X188802677Y-70456701D01*
X188751337Y-70499763D01*
X188713647Y-70540249D01*
X188686587Y-70583607D01*
X188668397Y-70643463D01*
X188657316Y-70733441D01*
X188651586Y-70867168D01*
X188649444Y-71058270D01*
X188649131Y-71290911D01*
X188649131Y-71979853D01*
X188191098Y-71979853D01*
X188191098Y-69981164D01*
X188420115Y-69981164D01*
X188557614Y-69986602D01*
X188628553Y-70005909D01*
X188649122Y-70043576D01*
X188649131Y-70044692D01*
X188658675Y-70081581D01*
X188700767Y-70077395D01*
X188784459Y-70036861D01*
X188974273Y-69977224D01*
X189191401Y-69970591D01*
X189400108Y-70015563D01*
G36*
X197855869Y-69979231D02*
X197999092Y-70022989D01*
X198091306Y-70078280D01*
X198121344Y-70122004D01*
X198113076Y-70173834D01*
X198059427Y-70255259D01*
X198014063Y-70312927D01*
X197920546Y-70417182D01*
X197850287Y-70461045D01*
X197790393Y-70458182D01*
X197612720Y-70412967D01*
X197482234Y-70415020D01*
X197376273Y-70466261D01*
X197340700Y-70496252D01*
X197226836Y-70601778D01*
X197226836Y-71979853D01*
X196768803Y-71979853D01*
X196768803Y-69981164D01*
X196997820Y-69981164D01*
X197135318Y-69986602D01*
X197206258Y-70005909D01*
X197226827Y-70043576D01*
X197226836Y-70044692D01*
X197236550Y-70084146D01*
X197280478Y-70079000D01*
X197341344Y-70050536D01*
X197467054Y-69997569D01*
X197569134Y-69965703D01*
X197700480Y-69957533D01*
X197855869Y-69979231D01*
X197855869Y-69979231D01*
G37*
X197855869Y-69979231D02*
X197999092Y-70022989D01*
X198091306Y-70078280D01*
X198121344Y-70122004D01*
X198113076Y-70173834D01*
X198059427Y-70255259D01*
X198014063Y-70312927D01*
X197920546Y-70417182D01*
X197850287Y-70461045D01*
X197790393Y-70458182D01*
X197612720Y-70412967D01*
X197482234Y-70415020D01*
X197376273Y-70466261D01*
X197340700Y-70496252D01*
X197226836Y-70601778D01*
X197226836Y-71979853D01*
X196768803Y-71979853D01*
X196768803Y-69981164D01*
X196997820Y-69981164D01*
X197135318Y-69986602D01*
X197206258Y-70005909D01*
X197226827Y-70043576D01*
X197226836Y-70044692D01*
X197236550Y-70084146D01*
X197280478Y-70079000D01*
X197341344Y-70050536D01*
X197467054Y-69997569D01*
X197569134Y-69965703D01*
X197700480Y-69957533D01*
X197855869Y-69979231D01*
G36*
X193145305Y-56176960D02*
X193333557Y-57175542D01*
X194028183Y-57461889D01*
X194722808Y-57748237D01*
X195556128Y-57181586D01*
X195789501Y-57023811D01*
X196000457Y-56882939D01*
X196179153Y-56765401D01*
X196315744Y-56677629D01*
X196400386Y-56626055D01*
X196423437Y-56614935D01*
X196464963Y-56643535D01*
X196553698Y-56722604D01*
X196679697Y-56842041D01*
X196833014Y-56991744D01*
X197003702Y-57161615D01*
X197181814Y-57341551D01*
X197357406Y-57521454D01*
X197520530Y-57691222D01*
X197661241Y-57840754D01*
X197769592Y-57959952D01*
X197835637Y-58038713D01*
X197851426Y-58065072D01*
X197828703Y-58113666D01*
X197764999Y-58220126D01*
X197667013Y-58374039D01*
X197541441Y-58564991D01*
X197394982Y-58782569D01*
X197310115Y-58906671D01*
X197155426Y-59133279D01*
X197017970Y-59337770D01*
X196904414Y-59509965D01*
X196821428Y-59639685D01*
X196775678Y-59716751D01*
X196768803Y-59732947D01*
X196784388Y-59778975D01*
X196826868Y-59886250D01*
X196889835Y-60039687D01*
X196966879Y-60224206D01*
X197051590Y-60424721D01*
X197137558Y-60626152D01*
X197218373Y-60813415D01*
X197287627Y-60971428D01*
X197338908Y-61085107D01*
X197365809Y-61139370D01*
X197367396Y-61141506D01*
X197409635Y-61151867D01*
X197522126Y-61174982D01*
X197693209Y-61208579D01*
X197911223Y-61250385D01*
X198164509Y-61298127D01*
X198312288Y-61325659D01*
X198582938Y-61377190D01*
X198827397Y-61426225D01*
X199033300Y-61470081D01*
X199188277Y-61506074D01*
X199279962Y-61531521D01*
X199298393Y-61539595D01*
X199316445Y-61594242D01*
X199331010Y-61717662D01*
X199342098Y-61895423D01*
X199349719Y-62113091D01*
X199353884Y-62356235D01*
X199354602Y-62610423D01*
X199351882Y-62861220D01*
X199345735Y-63094196D01*
X199336171Y-63294918D01*
X199323199Y-63448954D01*
X199306829Y-63541870D01*
X199297011Y-63561213D01*
X199238323Y-63584398D01*
X199113966Y-63617544D01*
X198940390Y-63656758D01*
X198734042Y-63698145D01*
X198662011Y-63711534D01*
X198314719Y-63775147D01*
X198040383Y-63826378D01*
X197829939Y-63867261D01*
X197674322Y-63899834D01*
X197564467Y-63926132D01*
X197491311Y-63948192D01*
X197445787Y-63968049D01*
X197418833Y-63987741D01*
X197415061Y-63991632D01*
X197377415Y-64054324D01*
X197319986Y-64176331D01*
X197248508Y-64342712D01*
X197168715Y-64538529D01*
X197086343Y-64748840D01*
X197007125Y-64958708D01*
X196936796Y-65153191D01*
X196881089Y-65317350D01*
X196845741Y-65436245D01*
X196836484Y-65494936D01*
X196837256Y-65496992D01*
X196868620Y-65544964D01*
X196939774Y-65650516D01*
X197043240Y-65802660D01*
X197171540Y-65990410D01*
X197317199Y-66202780D01*
X197358680Y-66263130D01*
X197506587Y-66481929D01*
X197636739Y-66681562D01*
X197742045Y-66850565D01*
X197815416Y-66977475D01*
X197849763Y-67050829D01*
X197851426Y-67059841D01*
X197822569Y-67107207D01*
X197742831Y-67201042D01*
X197622462Y-67331261D01*
X197471713Y-67487779D01*
X197300836Y-67660510D01*
X197120079Y-67839371D01*
X196939694Y-68014276D01*
X196769932Y-68175140D01*
X196621042Y-68311878D01*
X196503276Y-68414407D01*
X196426883Y-68472640D01*
X196405750Y-68482148D01*
X196356560Y-68459754D01*
X196255847Y-68399356D01*
X196120017Y-68311129D01*
X196015510Y-68240115D01*
X195826149Y-68109811D01*
X195601899Y-67956384D01*
X195376964Y-67803201D01*
X195256032Y-67721218D01*
X194846704Y-67444353D01*
X194503102Y-67630136D01*
X194346565Y-67711523D01*
X194213454Y-67774784D01*
X194123389Y-67810865D01*
X194100463Y-67815885D01*
X194072895Y-67778817D01*
X194018508Y-67674069D01*
X193941363Y-67511303D01*
X193845518Y-67300181D01*
X193735034Y-67050365D01*
X193613971Y-66771517D01*
X193486389Y-66473299D01*
X193356347Y-66165374D01*
X193227906Y-65857404D01*
X193105126Y-65559050D01*
X192992067Y-65279975D01*
X192892788Y-65029841D01*
X192811349Y-64818310D01*
X192751811Y-64655043D01*
X192718234Y-64549705D01*
X192712834Y-64513527D01*
X192755634Y-64467381D01*
X192849344Y-64392472D01*
X192974373Y-64304364D01*
X192984867Y-64297394D01*
X193308020Y-64038721D01*
X193568587Y-63736938D01*
X193764310Y-63401695D01*
X193892932Y-63042642D01*
X193952195Y-62669426D01*
X193939839Y-62291700D01*
X193853607Y-61919111D01*
X193691241Y-61561310D01*
X193643472Y-61483027D01*
X193395009Y-61166919D01*
X193101481Y-60913079D01*
X192773047Y-60722827D01*
X192419865Y-60597485D01*
X192052095Y-60538372D01*
X191679897Y-60546807D01*
X191313429Y-60624112D01*
X190962851Y-60771606D01*
X190638323Y-60990610D01*
X190537936Y-61079498D01*
X190282449Y-61357744D01*
X190096278Y-61650656D01*
X189968570Y-61978986D01*
X189897444Y-62304133D01*
X189879886Y-62669702D01*
X189938434Y-63037086D01*
X190067142Y-63393866D01*
X190260062Y-63727626D01*
X190511248Y-64025947D01*
X190814752Y-64276411D01*
X190854640Y-64302813D01*
X190981009Y-64389272D01*
X191077073Y-64464184D01*
X191123000Y-64512015D01*
X191123668Y-64513527D01*
X191113808Y-64565267D01*
X191074722Y-64682696D01*
X191010472Y-64856154D01*
X190925120Y-65075979D01*
X190822727Y-65332513D01*
X190707354Y-65616096D01*
X190583063Y-65917067D01*
X190453916Y-66225767D01*
X190323974Y-66532536D01*
X190197298Y-66827714D01*
X190077951Y-67101640D01*
X189969994Y-67344656D01*
X189877488Y-67547101D01*
X189804496Y-67699315D01*
X189755077Y-67791638D01*
X189735177Y-67815885D01*
X189674366Y-67797004D01*
X189560582Y-67746364D01*
X189413445Y-67673017D01*
X189332538Y-67630136D01*
X188988935Y-67444353D01*
X188579607Y-67721218D01*
X188370654Y-67863054D01*
X188141887Y-68019141D01*
X187927509Y-68166109D01*
X187820129Y-68240115D01*
X187669102Y-68341531D01*
X187541218Y-68421898D01*
X187453158Y-68471041D01*
X187424555Y-68481429D01*
X187382924Y-68453405D01*
X187290789Y-68375172D01*
X187157082Y-68254852D01*
X186990735Y-68100568D01*
X186800680Y-67920443D01*
X186680479Y-67804790D01*
X186470185Y-67598167D01*
X186288444Y-67413358D01*
X186142603Y-67258270D01*
X186040009Y-67140807D01*
X185988009Y-67068875D01*
X185983020Y-67054278D01*
X186006171Y-66998753D01*
X186070146Y-66886484D01*
X186167847Y-66728837D01*
X186292180Y-66537179D01*
X186436046Y-66322876D01*
X186476959Y-66263130D01*
X186626033Y-66045982D01*
X186759775Y-65850475D01*
X186870709Y-65687599D01*
X186951356Y-65568337D01*
X186994241Y-65503678D01*
X186998383Y-65496992D01*
X186992188Y-65445462D01*
X186959300Y-65332166D01*
X186905455Y-65172042D01*
X186836387Y-64980032D01*
X186757831Y-64771074D01*
X186675520Y-64560109D01*
X186595189Y-64362076D01*
X186522572Y-64191916D01*
X186463405Y-64064567D01*
X186423420Y-63994971D01*
X186420578Y-63991632D01*
X186396127Y-63971742D01*
X186354831Y-63952073D01*
X186287623Y-63930589D01*
X186185441Y-63905253D01*
X186039219Y-63874029D01*
X185839893Y-63834882D01*
X185578397Y-63785775D01*
X185245669Y-63724672D01*
X185173628Y-63711534D01*
X184960115Y-63670282D01*
X184773978Y-63629926D01*
X184631666Y-63594361D01*
X184549629Y-63567480D01*
X184538628Y-63561213D01*
X184520502Y-63505654D01*
X184505767Y-63381495D01*
X184494436Y-63203169D01*
X184486516Y-62985109D01*
X184482019Y-62741746D01*
X184480954Y-62487514D01*
X184483330Y-62236845D01*
X184489159Y-62004171D01*
X184498449Y-61803924D01*
X184511211Y-61650538D01*
X184527454Y-61558444D01*
X184537246Y-61539595D01*
X184591761Y-61520582D01*
X184715896Y-61489650D01*
X184897285Y-61449482D01*
X185123560Y-61402762D01*
X185382353Y-61352173D01*
X185523351Y-61325659D01*
X185790873Y-61275650D01*
X186029438Y-61230346D01*
X186227386Y-61192021D01*
X186373057Y-61162947D01*
X186454791Y-61145397D01*
X186468243Y-61141506D01*
X186490979Y-61097638D01*
X186539040Y-60991976D01*
X186606019Y-60839613D01*
X186685510Y-60655646D01*
X186771108Y-60455170D01*
X186856405Y-60253281D01*
X186934995Y-60065073D01*
X187000473Y-59905642D01*
X187046431Y-59790084D01*
X187066463Y-59733494D01*
X187066836Y-59731021D01*
X187044126Y-59686379D01*
X186980459Y-59583647D01*
X186882525Y-59433037D01*
X186757017Y-59244757D01*
X186610626Y-59029018D01*
X186525525Y-58905098D01*
X186370455Y-58677883D01*
X186232725Y-58471595D01*
X186119053Y-58296671D01*
X186036161Y-58163545D01*
X185990769Y-58082653D01*
X185984213Y-58064520D01*
X186012395Y-58022312D01*
X186090304Y-57932191D01*
X186207990Y-57804254D01*
X186355500Y-57648596D01*
X186522881Y-57475315D01*
X186700181Y-57294507D01*
X186877448Y-57116267D01*
X187044730Y-56950693D01*
X187192075Y-56807880D01*
X187309530Y-56697925D01*
X187387143Y-56630924D01*
X187413108Y-56614935D01*
X187455384Y-56637419D01*
X187556501Y-56700585D01*
X187706627Y-56798003D01*
X187895930Y-56923243D01*
X188114579Y-57069875D01*
X188279511Y-57181586D01*
X189112831Y-57748237D01*
X189807456Y-57461889D01*
X190502082Y-57175542D01*
X190690334Y-56176960D01*
X190878587Y-55178377D01*
X192957052Y-55178377D01*
X193145305Y-56176960D01*
X193145305Y-56176960D01*
G37*
X193145305Y-56176960D02*
X193333557Y-57175542D01*
X194028183Y-57461889D01*
X194722808Y-57748237D01*
X195556128Y-57181586D01*
X195789501Y-57023811D01*
X196000457Y-56882939D01*
X196179153Y-56765401D01*
X196315744Y-56677629D01*
X196400386Y-56626055D01*
X196423437Y-56614935D01*
X196464963Y-56643535D01*
X196553698Y-56722604D01*
X196679697Y-56842041D01*
X196833014Y-56991744D01*
X197003702Y-57161615D01*
X197181814Y-57341551D01*
X197357406Y-57521454D01*
X197520530Y-57691222D01*
X197661241Y-57840754D01*
X197769592Y-57959952D01*
X197835637Y-58038713D01*
X197851426Y-58065072D01*
X197828703Y-58113666D01*
X197764999Y-58220126D01*
X197667013Y-58374039D01*
X197541441Y-58564991D01*
X197394982Y-58782569D01*
X197310115Y-58906671D01*
X197155426Y-59133279D01*
X197017970Y-59337770D01*
X196904414Y-59509965D01*
X196821428Y-59639685D01*
X196775678Y-59716751D01*
X196768803Y-59732947D01*
X196784388Y-59778975D01*
X196826868Y-59886250D01*
X196889835Y-60039687D01*
X196966879Y-60224206D01*
X197051590Y-60424721D01*
X197137558Y-60626152D01*
X197218373Y-60813415D01*
X197287627Y-60971428D01*
X197338908Y-61085107D01*
X197365809Y-61139370D01*
X197367396Y-61141506D01*
X197409635Y-61151867D01*
X197522126Y-61174982D01*
X197693209Y-61208579D01*
X197911223Y-61250385D01*
X198164509Y-61298127D01*
X198312288Y-61325659D01*
X198582938Y-61377190D01*
X198827397Y-61426225D01*
X199033300Y-61470081D01*
X199188277Y-61506074D01*
X199279962Y-61531521D01*
X199298393Y-61539595D01*
X199316445Y-61594242D01*
X199331010Y-61717662D01*
X199342098Y-61895423D01*
X199349719Y-62113091D01*
X199353884Y-62356235D01*
X199354602Y-62610423D01*
X199351882Y-62861220D01*
X199345735Y-63094196D01*
X199336171Y-63294918D01*
X199323199Y-63448954D01*
X199306829Y-63541870D01*
X199297011Y-63561213D01*
X199238323Y-63584398D01*
X199113966Y-63617544D01*
X198940390Y-63656758D01*
X198734042Y-63698145D01*
X198662011Y-63711534D01*
X198314719Y-63775147D01*
X198040383Y-63826378D01*
X197829939Y-63867261D01*
X197674322Y-63899834D01*
X197564467Y-63926132D01*
X197491311Y-63948192D01*
X197445787Y-63968049D01*
X197418833Y-63987741D01*
X197415061Y-63991632D01*
X197377415Y-64054324D01*
X197319986Y-64176331D01*
X197248508Y-64342712D01*
X197168715Y-64538529D01*
X197086343Y-64748840D01*
X197007125Y-64958708D01*
X196936796Y-65153191D01*
X196881089Y-65317350D01*
X196845741Y-65436245D01*
X196836484Y-65494936D01*
X196837256Y-65496992D01*
X196868620Y-65544964D01*
X196939774Y-65650516D01*
X197043240Y-65802660D01*
X197171540Y-65990410D01*
X197317199Y-66202780D01*
X197358680Y-66263130D01*
X197506587Y-66481929D01*
X197636739Y-66681562D01*
X197742045Y-66850565D01*
X197815416Y-66977475D01*
X197849763Y-67050829D01*
X197851426Y-67059841D01*
X197822569Y-67107207D01*
X197742831Y-67201042D01*
X197622462Y-67331261D01*
X197471713Y-67487779D01*
X197300836Y-67660510D01*
X197120079Y-67839371D01*
X196939694Y-68014276D01*
X196769932Y-68175140D01*
X196621042Y-68311878D01*
X196503276Y-68414407D01*
X196426883Y-68472640D01*
X196405750Y-68482148D01*
X196356560Y-68459754D01*
X196255847Y-68399356D01*
X196120017Y-68311129D01*
X196015510Y-68240115D01*
X195826149Y-68109811D01*
X195601899Y-67956384D01*
X195376964Y-67803201D01*
X195256032Y-67721218D01*
X194846704Y-67444353D01*
X194503102Y-67630136D01*
X194346565Y-67711523D01*
X194213454Y-67774784D01*
X194123389Y-67810865D01*
X194100463Y-67815885D01*
X194072895Y-67778817D01*
X194018508Y-67674069D01*
X193941363Y-67511303D01*
X193845518Y-67300181D01*
X193735034Y-67050365D01*
X193613971Y-66771517D01*
X193486389Y-66473299D01*
X193356347Y-66165374D01*
X193227906Y-65857404D01*
X193105126Y-65559050D01*
X192992067Y-65279975D01*
X192892788Y-65029841D01*
X192811349Y-64818310D01*
X192751811Y-64655043D01*
X192718234Y-64549705D01*
X192712834Y-64513527D01*
X192755634Y-64467381D01*
X192849344Y-64392472D01*
X192974373Y-64304364D01*
X192984867Y-64297394D01*
X193308020Y-64038721D01*
X193568587Y-63736938D01*
X193764310Y-63401695D01*
X193892932Y-63042642D01*
X193952195Y-62669426D01*
X193939839Y-62291700D01*
X193853607Y-61919111D01*
X193691241Y-61561310D01*
X193643472Y-61483027D01*
X193395009Y-61166919D01*
X193101481Y-60913079D01*
X192773047Y-60722827D01*
X192419865Y-60597485D01*
X192052095Y-60538372D01*
X191679897Y-60546807D01*
X191313429Y-60624112D01*
X190962851Y-60771606D01*
X190638323Y-60990610D01*
X190537936Y-61079498D01*
X190282449Y-61357744D01*
X190096278Y-61650656D01*
X189968570Y-61978986D01*
X189897444Y-62304133D01*
X189879886Y-62669702D01*
X189938434Y-63037086D01*
X190067142Y-63393866D01*
X190260062Y-63727626D01*
X190511248Y-64025947D01*
X190814752Y-64276411D01*
X190854640Y-64302813D01*
X190981009Y-64389272D01*
X191077073Y-64464184D01*
X191123000Y-64512015D01*
X191123668Y-64513527D01*
X191113808Y-64565267D01*
X191074722Y-64682696D01*
X191010472Y-64856154D01*
X190925120Y-65075979D01*
X190822727Y-65332513D01*
X190707354Y-65616096D01*
X190583063Y-65917067D01*
X190453916Y-66225767D01*
X190323974Y-66532536D01*
X190197298Y-66827714D01*
X190077951Y-67101640D01*
X189969994Y-67344656D01*
X189877488Y-67547101D01*
X189804496Y-67699315D01*
X189755077Y-67791638D01*
X189735177Y-67815885D01*
X189674366Y-67797004D01*
X189560582Y-67746364D01*
X189413445Y-67673017D01*
X189332538Y-67630136D01*
X188988935Y-67444353D01*
X188579607Y-67721218D01*
X188370654Y-67863054D01*
X188141887Y-68019141D01*
X187927509Y-68166109D01*
X187820129Y-68240115D01*
X187669102Y-68341531D01*
X187541218Y-68421898D01*
X187453158Y-68471041D01*
X187424555Y-68481429D01*
X187382924Y-68453405D01*
X187290789Y-68375172D01*
X187157082Y-68254852D01*
X186990735Y-68100568D01*
X186800680Y-67920443D01*
X186680479Y-67804790D01*
X186470185Y-67598167D01*
X186288444Y-67413358D01*
X186142603Y-67258270D01*
X186040009Y-67140807D01*
X185988009Y-67068875D01*
X185983020Y-67054278D01*
X186006171Y-66998753D01*
X186070146Y-66886484D01*
X186167847Y-66728837D01*
X186292180Y-66537179D01*
X186436046Y-66322876D01*
X186476959Y-66263130D01*
X186626033Y-66045982D01*
X186759775Y-65850475D01*
X186870709Y-65687599D01*
X186951356Y-65568337D01*
X186994241Y-65503678D01*
X186998383Y-65496992D01*
X186992188Y-65445462D01*
X186959300Y-65332166D01*
X186905455Y-65172042D01*
X186836387Y-64980032D01*
X186757831Y-64771074D01*
X186675520Y-64560109D01*
X186595189Y-64362076D01*
X186522572Y-64191916D01*
X186463405Y-64064567D01*
X186423420Y-63994971D01*
X186420578Y-63991632D01*
X186396127Y-63971742D01*
X186354831Y-63952073D01*
X186287623Y-63930589D01*
X186185441Y-63905253D01*
X186039219Y-63874029D01*
X185839893Y-63834882D01*
X185578397Y-63785775D01*
X185245669Y-63724672D01*
X185173628Y-63711534D01*
X184960115Y-63670282D01*
X184773978Y-63629926D01*
X184631666Y-63594361D01*
X184549629Y-63567480D01*
X184538628Y-63561213D01*
X184520502Y-63505654D01*
X184505767Y-63381495D01*
X184494436Y-63203169D01*
X184486516Y-62985109D01*
X184482019Y-62741746D01*
X184480954Y-62487514D01*
X184483330Y-62236845D01*
X184489159Y-62004171D01*
X184498449Y-61803924D01*
X184511211Y-61650538D01*
X184527454Y-61558444D01*
X184537246Y-61539595D01*
X184591761Y-61520582D01*
X184715896Y-61489650D01*
X184897285Y-61449482D01*
X185123560Y-61402762D01*
X185382353Y-61352173D01*
X185523351Y-61325659D01*
X185790873Y-61275650D01*
X186029438Y-61230346D01*
X186227386Y-61192021D01*
X186373057Y-61162947D01*
X186454791Y-61145397D01*
X186468243Y-61141506D01*
X186490979Y-61097638D01*
X186539040Y-60991976D01*
X186606019Y-60839613D01*
X186685510Y-60655646D01*
X186771108Y-60455170D01*
X186856405Y-60253281D01*
X186934995Y-60065073D01*
X187000473Y-59905642D01*
X187046431Y-59790084D01*
X187066463Y-59733494D01*
X187066836Y-59731021D01*
X187044126Y-59686379D01*
X186980459Y-59583647D01*
X186882525Y-59433037D01*
X186757017Y-59244757D01*
X186610626Y-59029018D01*
X186525525Y-58905098D01*
X186370455Y-58677883D01*
X186232725Y-58471595D01*
X186119053Y-58296671D01*
X186036161Y-58163545D01*
X185990769Y-58082653D01*
X185984213Y-58064520D01*
X186012395Y-58022312D01*
X186090304Y-57932191D01*
X186207990Y-57804254D01*
X186355500Y-57648596D01*
X186522881Y-57475315D01*
X186700181Y-57294507D01*
X186877448Y-57116267D01*
X187044730Y-56950693D01*
X187192075Y-56807880D01*
X187309530Y-56697925D01*
X187387143Y-56630924D01*
X187413108Y-56614935D01*
X187455384Y-56637419D01*
X187556501Y-56700585D01*
X187706627Y-56798003D01*
X187895930Y-56923243D01*
X188114579Y-57069875D01*
X188279511Y-57181586D01*
X189112831Y-57748237D01*
X189807456Y-57461889D01*
X190502082Y-57175542D01*
X190690334Y-56176960D01*
X190878587Y-55178377D01*
X192957052Y-55178377D01*
X193145305Y-56176960D01*
D13*
X146954988Y-125408113D02*
X146557917Y-125408113D01*
X146954988Y-124648113D02*
X146557917Y-124648113D01*
X148938000Y-56008000D02*
X149325071Y-56008000D01*
X148938000Y-56768000D02*
X149325071Y-56768000D01*
X146954988Y-122868113D02*
X146557917Y-122868113D01*
X146954988Y-122108113D02*
X146557917Y-122108113D01*
X148870929Y-58548000D02*
X149325071Y-58548000D01*
X148870929Y-59308000D02*
X149325071Y-59308000D01*
X146954988Y-120328113D02*
X146557917Y-120328113D01*
X146954988Y-119568113D02*
X146557917Y-119568113D01*
X149325071Y-61848000D02*
X148870929Y-61848000D01*
X149325071Y-61088000D02*
X148870929Y-61088000D01*
X146954988Y-117788113D02*
X146557917Y-117788113D01*
X146954988Y-117028113D02*
X146557917Y-117028113D01*
X146954988Y-115248113D02*
X146557917Y-115248113D01*
X146954988Y-114488113D02*
X146557917Y-114488113D01*
X146954988Y-112708113D02*
X146557917Y-112708113D01*
X146954988Y-111948113D02*
X146557917Y-111948113D01*
X146954988Y-110168113D02*
X146557917Y-110168113D01*
X146954988Y-109408113D02*
X146557917Y-109408113D01*
X146954988Y-107628113D02*
X146557917Y-107628113D01*
X146954988Y-106868113D02*
X146557917Y-106868113D01*
X146954988Y-105088113D02*
X146557917Y-105088113D01*
X146954988Y-104328113D02*
X146557917Y-104328113D01*
X146954988Y-102548113D02*
X146557917Y-102548113D01*
X146954988Y-101788113D02*
X146557917Y-101788113D01*
X146954988Y-100008113D02*
X146557917Y-100008113D01*
X146954988Y-99248113D02*
X146557917Y-99248113D01*
X146954988Y-97468113D02*
X146557917Y-97468113D01*
X146954988Y-96708113D02*
X146557917Y-96708113D01*
X146954988Y-94928113D02*
X146557917Y-94928113D01*
X146954988Y-94168113D02*
X146557917Y-94168113D01*
X146954988Y-92388113D02*
X146557917Y-92388113D01*
X146954988Y-91628113D02*
X146557917Y-91628113D01*
X146954988Y-89848113D02*
X146557917Y-89848113D01*
X146954988Y-89088113D02*
X146557917Y-89088113D01*
X146954988Y-87308113D02*
X146557917Y-87308113D01*
X146954988Y-86548113D02*
X146557917Y-86548113D01*
X146954988Y-84768113D02*
X146557917Y-84768113D01*
X146954988Y-84008113D02*
X146557917Y-84008113D01*
X146954988Y-82228113D02*
X146557917Y-82228113D01*
X146954988Y-81468113D02*
X146557917Y-81468113D01*
X146954988Y-79688113D02*
X146557917Y-79688113D01*
X146954988Y-78928113D02*
X146557917Y-78928113D01*
X146954988Y-77148113D02*
X146557917Y-77148113D01*
X146954988Y-76388113D02*
X146557917Y-76388113D01*
X146954988Y-74608113D02*
X146557917Y-74608113D01*
X146954988Y-73848113D02*
X146557917Y-73848113D01*
X146954988Y-72068113D02*
X146557917Y-72068113D01*
X146954988Y-71308113D02*
X146557917Y-71308113D01*
X146954988Y-69528113D02*
X146557917Y-69528113D01*
X146954988Y-68768113D02*
X146557917Y-68768113D01*
X146954988Y-66988113D02*
X146557917Y-66988113D01*
X146954988Y-66228113D02*
X146557917Y-66228113D01*
X146954988Y-64448113D02*
X146557917Y-64448113D01*
X146954988Y-63688113D02*
X146557917Y-63688113D01*
X146954988Y-61908113D02*
X146557917Y-61908113D01*
X146954988Y-61148113D02*
X146557917Y-61148113D01*
X146954988Y-59368113D02*
X146557917Y-59368113D01*
X146954988Y-58608113D02*
X146557917Y-58608113D01*
X146954988Y-56828113D02*
X146557917Y-56828113D01*
X146954988Y-56068113D02*
X146557917Y-56068113D01*
X149325071Y-61848000D02*
X148870929Y-61848000D01*
X149325071Y-61088000D02*
X148870929Y-61088000D01*
D14*
X152360334Y-56967381D02*
X152027000Y-56491190D01*
X151788905Y-56967381D02*
X151788905Y-55967381D01*
X152169858Y-55967381D01*
X152265096Y-56015000D01*
X152312715Y-56062619D01*
X152360334Y-56157857D01*
X152360334Y-56300714D01*
X152312715Y-56395952D01*
X152265096Y-56443571D01*
X152169858Y-56491190D01*
X151788905Y-56491190D01*
X153312715Y-56967381D02*
X152741286Y-56967381D01*
X153027000Y-56967381D02*
X153027000Y-55967381D01*
X152931762Y-56110238D01*
X152836524Y-56205476D01*
X152741286Y-56253095D01*
X152360334Y-59126381D02*
X152027000Y-58650190D01*
X151788905Y-59126381D02*
X151788905Y-58126381D01*
X152169858Y-58126381D01*
X152265096Y-58174000D01*
X152312715Y-58221619D01*
X152360334Y-58316857D01*
X152360334Y-58459714D01*
X152312715Y-58554952D01*
X152265096Y-58602571D01*
X152169858Y-58650190D01*
X151788905Y-58650190D01*
X152741286Y-58221619D02*
X152788905Y-58174000D01*
X152884143Y-58126381D01*
X153122239Y-58126381D01*
X153217477Y-58174000D01*
X153265096Y-58221619D01*
X153312715Y-58316857D01*
X153312715Y-58412095D01*
X153265096Y-58554952D01*
X152693667Y-59126381D01*
X153312715Y-59126381D01*
X152360334Y-61412381D02*
X152027000Y-60936190D01*
X151788905Y-61412381D02*
X151788905Y-60412381D01*
X152169858Y-60412381D01*
X152265096Y-60460000D01*
X152312715Y-60507619D01*
X152360334Y-60602857D01*
X152360334Y-60745714D01*
X152312715Y-60840952D01*
X152265096Y-60888571D01*
X152169858Y-60936190D01*
X151788905Y-60936190D01*
X152693667Y-60412381D02*
X153312715Y-60412381D01*
X152979381Y-60793333D01*
X153122239Y-60793333D01*
X153217477Y-60840952D01*
X153265096Y-60888571D01*
X153312715Y-60983810D01*
X153312715Y-61221905D01*
X153265096Y-61317143D01*
X153217477Y-61364762D01*
X153122239Y-61412381D01*
X152836524Y-61412381D01*
X152741286Y-61364762D01*
X152693667Y-61317143D01*
X152360334Y-63776381D02*
X152027000Y-63300190D01*
X151788905Y-63776381D02*
X151788905Y-62776381D01*
X152169858Y-62776381D01*
X152265096Y-62824000D01*
X152312715Y-62871619D01*
X152360334Y-62966857D01*
X152360334Y-63109714D01*
X152312715Y-63204952D01*
X152265096Y-63252571D01*
X152169858Y-63300190D01*
X151788905Y-63300190D01*
X153217477Y-63109714D02*
X153217477Y-63776381D01*
X152979381Y-62728762D02*
X152741286Y-63443048D01*
X153360334Y-63443048D01*
X152360334Y-65984381D02*
X152027000Y-65508190D01*
X151788905Y-65984381D02*
X151788905Y-64984381D01*
X152169858Y-64984381D01*
X152265096Y-65032000D01*
X152312715Y-65079619D01*
X152360334Y-65174857D01*
X152360334Y-65317714D01*
X152312715Y-65412952D01*
X152265096Y-65460571D01*
X152169858Y-65508190D01*
X151788905Y-65508190D01*
X153265096Y-64984381D02*
X152788905Y-64984381D01*
X152741286Y-65460571D01*
X152788905Y-65412952D01*
X152884143Y-65365333D01*
X153122239Y-65365333D01*
X153217477Y-65412952D01*
X153265096Y-65460571D01*
X153312715Y-65555810D01*
X153312715Y-65793905D01*
X153265096Y-65889143D01*
X153217477Y-65936762D01*
X153122239Y-65984381D01*
X152884143Y-65984381D01*
X152788905Y-65936762D01*
X152741286Y-65889143D01*
X152360334Y-68270381D02*
X152027000Y-67794190D01*
X151788905Y-68270381D02*
X151788905Y-67270381D01*
X152169858Y-67270381D01*
X152265096Y-67318000D01*
X152312715Y-67365619D01*
X152360334Y-67460857D01*
X152360334Y-67603714D01*
X152312715Y-67698952D01*
X152265096Y-67746571D01*
X152169858Y-67794190D01*
X151788905Y-67794190D01*
X153217477Y-67270381D02*
X153027000Y-67270381D01*
X152931762Y-67318000D01*
X152884143Y-67365619D01*
X152788905Y-67508476D01*
X152741286Y-67698952D01*
X152741286Y-68079905D01*
X152788905Y-68175143D01*
X152836524Y-68222762D01*
X152931762Y-68270381D01*
X153122239Y-68270381D01*
X153217477Y-68222762D01*
X153265096Y-68175143D01*
X153312715Y-68079905D01*
X153312715Y-67841810D01*
X153265096Y-67746571D01*
X153217477Y-67698952D01*
X153122239Y-67651333D01*
X152931762Y-67651333D01*
X152836524Y-67698952D01*
X152788905Y-67746571D01*
X152741286Y-67841810D01*
X152360334Y-70556381D02*
X152027000Y-70080190D01*
X151788905Y-70556381D02*
X151788905Y-69556381D01*
X152169858Y-69556381D01*
X152265096Y-69604000D01*
X152312715Y-69651619D01*
X152360334Y-69746857D01*
X152360334Y-69889714D01*
X152312715Y-69984952D01*
X152265096Y-70032571D01*
X152169858Y-70080190D01*
X151788905Y-70080190D01*
X152693667Y-69556381D02*
X153360334Y-69556381D01*
X152931762Y-70556381D01*
X152360334Y-72842381D02*
X152027000Y-72366190D01*
X151788905Y-72842381D02*
X151788905Y-71842381D01*
X152169858Y-71842381D01*
X152265096Y-71890000D01*
X152312715Y-71937619D01*
X152360334Y-72032857D01*
X152360334Y-72175714D01*
X152312715Y-72270952D01*
X152265096Y-72318571D01*
X152169858Y-72366190D01*
X151788905Y-72366190D01*
X152931762Y-72270952D02*
X152836524Y-72223333D01*
X152788905Y-72175714D01*
X152741286Y-72080476D01*
X152741286Y-72032857D01*
X152788905Y-71937619D01*
X152836524Y-71890000D01*
X152931762Y-71842381D01*
X153122239Y-71842381D01*
X153217477Y-71890000D01*
X153265096Y-71937619D01*
X153312715Y-72032857D01*
X153312715Y-72080476D01*
X153265096Y-72175714D01*
X153217477Y-72223333D01*
X153122239Y-72270952D01*
X152931762Y-72270952D01*
X152836524Y-72318571D01*
X152788905Y-72366190D01*
X152741286Y-72461429D01*
X152741286Y-72651905D01*
X152788905Y-72747143D01*
X152836524Y-72794762D01*
X152931762Y-72842381D01*
X153122239Y-72842381D01*
X153217477Y-72794762D01*
X153265096Y-72747143D01*
X153312715Y-72651905D01*
X153312715Y-72461429D01*
X153265096Y-72366190D01*
X153217477Y-72318571D01*
X153122239Y-72270952D01*
X152360334Y-75128381D02*
X152027000Y-74652190D01*
X151788905Y-75128381D02*
X151788905Y-74128381D01*
X152169858Y-74128381D01*
X152265096Y-74176000D01*
X152312715Y-74223619D01*
X152360334Y-74318857D01*
X152360334Y-74461714D01*
X152312715Y-74556952D01*
X152265096Y-74604571D01*
X152169858Y-74652190D01*
X151788905Y-74652190D01*
X152836524Y-75128381D02*
X153027000Y-75128381D01*
X153122239Y-75080762D01*
X153169858Y-75033143D01*
X153265096Y-74890286D01*
X153312715Y-74699810D01*
X153312715Y-74318857D01*
X153265096Y-74223619D01*
X153217477Y-74176000D01*
X153122239Y-74128381D01*
X152931762Y-74128381D01*
X152836524Y-74176000D01*
X152788905Y-74223619D01*
X152741286Y-74318857D01*
X152741286Y-74556952D01*
X152788905Y-74652190D01*
X152836524Y-74699810D01*
X152931762Y-74747429D01*
X153122239Y-74747429D01*
X153217477Y-74699810D01*
X153265096Y-74652190D01*
X153312715Y-74556952D01*
X152392143Y-77414381D02*
X152058809Y-76938190D01*
X151820714Y-77414381D02*
X151820714Y-76414381D01*
X152201667Y-76414381D01*
X152296905Y-76462000D01*
X152344524Y-76509619D01*
X152392143Y-76604857D01*
X152392143Y-76747714D01*
X152344524Y-76842952D01*
X152296905Y-76890571D01*
X152201667Y-76938190D01*
X151820714Y-76938190D01*
X153344524Y-77414381D02*
X152773095Y-77414381D01*
X153058809Y-77414381D02*
X153058809Y-76414381D01*
X152963571Y-76557238D01*
X152868333Y-76652476D01*
X152773095Y-76700095D01*
X153963571Y-76414381D02*
X154058810Y-76414381D01*
X154154048Y-76462000D01*
X154201667Y-76509619D01*
X154249286Y-76604857D01*
X154296905Y-76795333D01*
X154296905Y-77033429D01*
X154249286Y-77223905D01*
X154201667Y-77319143D01*
X154154048Y-77366762D01*
X154058810Y-77414381D01*
X153963571Y-77414381D01*
X153868333Y-77366762D01*
X153820714Y-77319143D01*
X153773095Y-77223905D01*
X153725476Y-77033429D01*
X153725476Y-76795333D01*
X153773095Y-76604857D01*
X153820714Y-76509619D01*
X153868333Y-76462000D01*
X153963571Y-76414381D01*
X152392143Y-79573381D02*
X152058809Y-79097190D01*
X151820714Y-79573381D02*
X151820714Y-78573381D01*
X152201667Y-78573381D01*
X152296905Y-78621000D01*
X152344524Y-78668619D01*
X152392143Y-78763857D01*
X152392143Y-78906714D01*
X152344524Y-79001952D01*
X152296905Y-79049571D01*
X152201667Y-79097190D01*
X151820714Y-79097190D01*
X153344524Y-79573381D02*
X152773095Y-79573381D01*
X153058809Y-79573381D02*
X153058809Y-78573381D01*
X152963571Y-78716238D01*
X152868333Y-78811476D01*
X152773095Y-78859095D01*
X154296905Y-79573381D02*
X153725476Y-79573381D01*
X154011190Y-79573381D02*
X154011190Y-78573381D01*
X153915952Y-78716238D01*
X153820714Y-78811476D01*
X153725476Y-78859095D01*
X152392143Y-81986381D02*
X152058809Y-81510190D01*
X151820714Y-81986381D02*
X151820714Y-80986381D01*
X152201667Y-80986381D01*
X152296905Y-81034000D01*
X152344524Y-81081619D01*
X152392143Y-81176857D01*
X152392143Y-81319714D01*
X152344524Y-81414952D01*
X152296905Y-81462571D01*
X152201667Y-81510190D01*
X151820714Y-81510190D01*
X153344524Y-81986381D02*
X152773095Y-81986381D01*
X153058809Y-81986381D02*
X153058809Y-80986381D01*
X152963571Y-81129238D01*
X152868333Y-81224476D01*
X152773095Y-81272095D01*
X153725476Y-81081619D02*
X153773095Y-81034000D01*
X153868333Y-80986381D01*
X154106429Y-80986381D01*
X154201667Y-81034000D01*
X154249286Y-81081619D01*
X154296905Y-81176857D01*
X154296905Y-81272095D01*
X154249286Y-81414952D01*
X153677857Y-81986381D01*
X154296905Y-81986381D01*
X152392143Y-84227381D02*
X152058809Y-83751190D01*
X151820714Y-84227381D02*
X151820714Y-83227381D01*
X152201667Y-83227381D01*
X152296905Y-83275000D01*
X152344524Y-83322619D01*
X152392143Y-83417857D01*
X152392143Y-83560714D01*
X152344524Y-83655952D01*
X152296905Y-83703571D01*
X152201667Y-83751190D01*
X151820714Y-83751190D01*
X153344524Y-84227381D02*
X152773095Y-84227381D01*
X153058809Y-84227381D02*
X153058809Y-83227381D01*
X152963571Y-83370238D01*
X152868333Y-83465476D01*
X152773095Y-83513095D01*
X153677857Y-83227381D02*
X154296905Y-83227381D01*
X153963571Y-83608333D01*
X154106429Y-83608333D01*
X154201667Y-83655952D01*
X154249286Y-83703571D01*
X154296905Y-83798810D01*
X154296905Y-84036905D01*
X154249286Y-84132143D01*
X154201667Y-84179762D01*
X154106429Y-84227381D01*
X153820714Y-84227381D01*
X153725476Y-84179762D01*
X153677857Y-84132143D01*
X152392143Y-86502381D02*
X152058809Y-86026190D01*
X151820714Y-86502381D02*
X151820714Y-85502381D01*
X152201667Y-85502381D01*
X152296905Y-85550000D01*
X152344524Y-85597619D01*
X152392143Y-85692857D01*
X152392143Y-85835714D01*
X152344524Y-85930952D01*
X152296905Y-85978571D01*
X152201667Y-86026190D01*
X151820714Y-86026190D01*
X153344524Y-86502381D02*
X152773095Y-86502381D01*
X153058809Y-86502381D02*
X153058809Y-85502381D01*
X152963571Y-85645238D01*
X152868333Y-85740476D01*
X152773095Y-85788095D01*
X154201667Y-85835714D02*
X154201667Y-86502381D01*
X153963571Y-85454762D02*
X153725476Y-86169048D01*
X154344524Y-86169048D01*
X152366743Y-88844381D02*
X152033409Y-88368190D01*
X151795314Y-88844381D02*
X151795314Y-87844381D01*
X152176267Y-87844381D01*
X152271505Y-87892000D01*
X152319124Y-87939619D01*
X152366743Y-88034857D01*
X152366743Y-88177714D01*
X152319124Y-88272952D01*
X152271505Y-88320571D01*
X152176267Y-88368190D01*
X151795314Y-88368190D01*
X153319124Y-88844381D02*
X152747695Y-88844381D01*
X153033409Y-88844381D02*
X153033409Y-87844381D01*
X152938171Y-87987238D01*
X152842933Y-88082476D01*
X152747695Y-88130095D01*
X154223886Y-87844381D02*
X153747695Y-87844381D01*
X153700076Y-88320571D01*
X153747695Y-88272952D01*
X153842933Y-88225333D01*
X154081029Y-88225333D01*
X154176267Y-88272952D01*
X154223886Y-88320571D01*
X154271505Y-88415810D01*
X154271505Y-88653905D01*
X154223886Y-88749143D01*
X154176267Y-88796762D01*
X154081029Y-88844381D01*
X153842933Y-88844381D01*
X153747695Y-88796762D01*
X153700076Y-88749143D01*
X152366743Y-91079581D02*
X152033409Y-90603390D01*
X151795314Y-91079581D02*
X151795314Y-90079581D01*
X152176267Y-90079581D01*
X152271505Y-90127200D01*
X152319124Y-90174819D01*
X152366743Y-90270057D01*
X152366743Y-90412914D01*
X152319124Y-90508152D01*
X152271505Y-90555771D01*
X152176267Y-90603390D01*
X151795314Y-90603390D01*
X153319124Y-91079581D02*
X152747695Y-91079581D01*
X153033409Y-91079581D02*
X153033409Y-90079581D01*
X152938171Y-90222438D01*
X152842933Y-90317676D01*
X152747695Y-90365295D01*
X154176267Y-90079581D02*
X153985790Y-90079581D01*
X153890552Y-90127200D01*
X153842933Y-90174819D01*
X153747695Y-90317676D01*
X153700076Y-90508152D01*
X153700076Y-90889105D01*
X153747695Y-90984343D01*
X153795314Y-91031962D01*
X153890552Y-91079581D01*
X154081029Y-91079581D01*
X154176267Y-91031962D01*
X154223886Y-90984343D01*
X154271505Y-90889105D01*
X154271505Y-90651010D01*
X154223886Y-90555771D01*
X154176267Y-90508152D01*
X154081029Y-90460533D01*
X153890552Y-90460533D01*
X153795314Y-90508152D01*
X153747695Y-90555771D01*
X153700076Y-90651010D01*
X152773143Y-97734381D02*
X152439809Y-97258190D01*
X152201714Y-97734381D02*
X152201714Y-96734381D01*
X152582667Y-96734381D01*
X152677905Y-96782000D01*
X152725524Y-96829619D01*
X152773143Y-96924857D01*
X152773143Y-97067714D01*
X152725524Y-97162952D01*
X152677905Y-97210571D01*
X152582667Y-97258190D01*
X152201714Y-97258190D01*
X153725524Y-97734381D02*
X153154095Y-97734381D01*
X153439809Y-97734381D02*
X153439809Y-96734381D01*
X153344571Y-96877238D01*
X153249333Y-96972476D01*
X153154095Y-97020095D01*
X154058857Y-96734381D02*
X154725524Y-96734381D01*
X154296952Y-97734381D01*
X163187143Y-97226381D02*
X162853809Y-96750190D01*
X162615714Y-97226381D02*
X162615714Y-96226381D01*
X162996667Y-96226381D01*
X163091905Y-96274000D01*
X163139524Y-96321619D01*
X163187143Y-96416857D01*
X163187143Y-96559714D01*
X163139524Y-96654952D01*
X163091905Y-96702571D01*
X162996667Y-96750190D01*
X162615714Y-96750190D01*
X164139524Y-97226381D02*
X163568095Y-97226381D01*
X163853809Y-97226381D02*
X163853809Y-96226381D01*
X163758571Y-96369238D01*
X163663333Y-96464476D01*
X163568095Y-96512095D01*
X164710952Y-96654952D02*
X164615714Y-96607333D01*
X164568095Y-96559714D01*
X164520476Y-96464476D01*
X164520476Y-96416857D01*
X164568095Y-96321619D01*
X164615714Y-96274000D01*
X164710952Y-96226381D01*
X164901429Y-96226381D01*
X164996667Y-96274000D01*
X165044286Y-96321619D01*
X165091905Y-96416857D01*
X165091905Y-96464476D01*
X165044286Y-96559714D01*
X164996667Y-96607333D01*
X164901429Y-96654952D01*
X164710952Y-96654952D01*
X164615714Y-96702571D01*
X164568095Y-96750190D01*
X164520476Y-96845429D01*
X164520476Y-97035905D01*
X164568095Y-97131143D01*
X164615714Y-97178762D01*
X164710952Y-97226381D01*
X164901429Y-97226381D01*
X164996667Y-97178762D01*
X165044286Y-97131143D01*
X165091905Y-97035905D01*
X165091905Y-96845429D01*
X165044286Y-96750190D01*
X164996667Y-96702571D01*
X164901429Y-96654952D01*
X152773143Y-100401381D02*
X152439809Y-99925190D01*
X152201714Y-100401381D02*
X152201714Y-99401381D01*
X152582667Y-99401381D01*
X152677905Y-99449000D01*
X152725524Y-99496619D01*
X152773143Y-99591857D01*
X152773143Y-99734714D01*
X152725524Y-99829952D01*
X152677905Y-99877571D01*
X152582667Y-99925190D01*
X152201714Y-99925190D01*
X153725524Y-100401381D02*
X153154095Y-100401381D01*
X153439809Y-100401381D02*
X153439809Y-99401381D01*
X153344571Y-99544238D01*
X153249333Y-99639476D01*
X153154095Y-99687095D01*
X154201714Y-100401381D02*
X154392190Y-100401381D01*
X154487429Y-100353762D01*
X154535048Y-100306143D01*
X154630286Y-100163286D01*
X154677905Y-99972810D01*
X154677905Y-99591857D01*
X154630286Y-99496619D01*
X154582667Y-99449000D01*
X154487429Y-99401381D01*
X154296952Y-99401381D01*
X154201714Y-99449000D01*
X154154095Y-99496619D01*
X154106476Y-99591857D01*
X154106476Y-99829952D01*
X154154095Y-99925190D01*
X154201714Y-99972810D01*
X154296952Y-100020429D01*
X154487429Y-100020429D01*
X154582667Y-99972810D01*
X154630286Y-99925190D01*
X154677905Y-99829952D01*
X163187143Y-103322381D02*
X162853809Y-102846190D01*
X162615714Y-103322381D02*
X162615714Y-102322381D01*
X162996667Y-102322381D01*
X163091905Y-102370000D01*
X163139524Y-102417619D01*
X163187143Y-102512857D01*
X163187143Y-102655714D01*
X163139524Y-102750952D01*
X163091905Y-102798571D01*
X162996667Y-102846190D01*
X162615714Y-102846190D01*
X163568095Y-102417619D02*
X163615714Y-102370000D01*
X163710952Y-102322381D01*
X163949048Y-102322381D01*
X164044286Y-102370000D01*
X164091905Y-102417619D01*
X164139524Y-102512857D01*
X164139524Y-102608095D01*
X164091905Y-102750952D01*
X163520476Y-103322381D01*
X164139524Y-103322381D01*
X164758571Y-102322381D02*
X164853810Y-102322381D01*
X164949048Y-102370000D01*
X164996667Y-102417619D01*
X165044286Y-102512857D01*
X165091905Y-102703333D01*
X165091905Y-102941429D01*
X165044286Y-103131905D01*
X164996667Y-103227143D01*
X164949048Y-103274762D01*
X164853810Y-103322381D01*
X164758571Y-103322381D01*
X164663333Y-103274762D01*
X164615714Y-103227143D01*
X164568095Y-103131905D01*
X164520476Y-102941429D01*
X164520476Y-102703333D01*
X164568095Y-102512857D01*
X164615714Y-102417619D01*
X164663333Y-102370000D01*
X164758571Y-102322381D01*
X186807143Y-100302381D02*
X186473809Y-99826190D01*
X186235714Y-100302381D02*
X186235714Y-99302381D01*
X186616667Y-99302381D01*
X186711905Y-99350000D01*
X186759524Y-99397619D01*
X186807143Y-99492857D01*
X186807143Y-99635714D01*
X186759524Y-99730952D01*
X186711905Y-99778571D01*
X186616667Y-99826190D01*
X186235714Y-99826190D01*
X187188095Y-99397619D02*
X187235714Y-99350000D01*
X187330952Y-99302381D01*
X187569048Y-99302381D01*
X187664286Y-99350000D01*
X187711905Y-99397619D01*
X187759524Y-99492857D01*
X187759524Y-99588095D01*
X187711905Y-99730952D01*
X187140476Y-100302381D01*
X187759524Y-100302381D01*
X188711905Y-100302381D02*
X188140476Y-100302381D01*
X188426190Y-100302381D02*
X188426190Y-99302381D01*
X188330952Y-99445238D01*
X188235714Y-99540476D01*
X188140476Y-99588095D01*
X200607143Y-100274381D02*
X200273809Y-99798190D01*
X200035714Y-100274381D02*
X200035714Y-99274381D01*
X200416667Y-99274381D01*
X200511905Y-99322000D01*
X200559524Y-99369619D01*
X200607143Y-99464857D01*
X200607143Y-99607714D01*
X200559524Y-99702952D01*
X200511905Y-99750571D01*
X200416667Y-99798190D01*
X200035714Y-99798190D01*
X200988095Y-99369619D02*
X201035714Y-99322000D01*
X201130952Y-99274381D01*
X201369048Y-99274381D01*
X201464286Y-99322000D01*
X201511905Y-99369619D01*
X201559524Y-99464857D01*
X201559524Y-99560095D01*
X201511905Y-99702952D01*
X200940476Y-100274381D01*
X201559524Y-100274381D01*
X201940476Y-99369619D02*
X201988095Y-99322000D01*
X202083333Y-99274381D01*
X202321429Y-99274381D01*
X202416667Y-99322000D01*
X202464286Y-99369619D01*
X202511905Y-99464857D01*
X202511905Y-99560095D01*
X202464286Y-99702952D01*
X201892857Y-100274381D01*
X202511905Y-100274381D01*
X186807143Y-97752381D02*
X186473809Y-97276190D01*
X186235714Y-97752381D02*
X186235714Y-96752381D01*
X186616667Y-96752381D01*
X186711905Y-96800000D01*
X186759524Y-96847619D01*
X186807143Y-96942857D01*
X186807143Y-97085714D01*
X186759524Y-97180952D01*
X186711905Y-97228571D01*
X186616667Y-97276190D01*
X186235714Y-97276190D01*
X187188095Y-96847619D02*
X187235714Y-96800000D01*
X187330952Y-96752381D01*
X187569048Y-96752381D01*
X187664286Y-96800000D01*
X187711905Y-96847619D01*
X187759524Y-96942857D01*
X187759524Y-97038095D01*
X187711905Y-97180952D01*
X187140476Y-97752381D01*
X187759524Y-97752381D01*
X188092857Y-96752381D02*
X188711905Y-96752381D01*
X188378571Y-97133333D01*
X188521429Y-97133333D01*
X188616667Y-97180952D01*
X188664286Y-97228571D01*
X188711905Y-97323810D01*
X188711905Y-97561905D01*
X188664286Y-97657143D01*
X188616667Y-97704762D01*
X188521429Y-97752381D01*
X188235714Y-97752381D01*
X188140476Y-97704762D01*
X188092857Y-97657143D01*
X200607143Y-97734381D02*
X200273809Y-97258190D01*
X200035714Y-97734381D02*
X200035714Y-96734381D01*
X200416667Y-96734381D01*
X200511905Y-96782000D01*
X200559524Y-96829619D01*
X200607143Y-96924857D01*
X200607143Y-97067714D01*
X200559524Y-97162952D01*
X200511905Y-97210571D01*
X200416667Y-97258190D01*
X200035714Y-97258190D01*
X200988095Y-96829619D02*
X201035714Y-96782000D01*
X201130952Y-96734381D01*
X201369048Y-96734381D01*
X201464286Y-96782000D01*
X201511905Y-96829619D01*
X201559524Y-96924857D01*
X201559524Y-97020095D01*
X201511905Y-97162952D01*
X200940476Y-97734381D01*
X201559524Y-97734381D01*
X202416667Y-97067714D02*
X202416667Y-97734381D01*
X202178571Y-96686762D02*
X201940476Y-97401048D01*
X202559524Y-97401048D01*
X186807143Y-95202381D02*
X186473809Y-94726190D01*
X186235714Y-95202381D02*
X186235714Y-94202381D01*
X186616667Y-94202381D01*
X186711905Y-94250000D01*
X186759524Y-94297619D01*
X186807143Y-94392857D01*
X186807143Y-94535714D01*
X186759524Y-94630952D01*
X186711905Y-94678571D01*
X186616667Y-94726190D01*
X186235714Y-94726190D01*
X187188095Y-94297619D02*
X187235714Y-94250000D01*
X187330952Y-94202381D01*
X187569048Y-94202381D01*
X187664286Y-94250000D01*
X187711905Y-94297619D01*
X187759524Y-94392857D01*
X187759524Y-94488095D01*
X187711905Y-94630952D01*
X187140476Y-95202381D01*
X187759524Y-95202381D01*
X188664286Y-94202381D02*
X188188095Y-94202381D01*
X188140476Y-94678571D01*
X188188095Y-94630952D01*
X188283333Y-94583333D01*
X188521429Y-94583333D01*
X188616667Y-94630952D01*
X188664286Y-94678571D01*
X188711905Y-94773810D01*
X188711905Y-95011905D01*
X188664286Y-95107143D01*
X188616667Y-95154762D01*
X188521429Y-95202381D01*
X188283333Y-95202381D01*
X188188095Y-95154762D01*
X188140476Y-95107143D01*
X200607143Y-95194381D02*
X200273809Y-94718190D01*
X200035714Y-95194381D02*
X200035714Y-94194381D01*
X200416667Y-94194381D01*
X200511905Y-94242000D01*
X200559524Y-94289619D01*
X200607143Y-94384857D01*
X200607143Y-94527714D01*
X200559524Y-94622952D01*
X200511905Y-94670571D01*
X200416667Y-94718190D01*
X200035714Y-94718190D01*
X200988095Y-94289619D02*
X201035714Y-94242000D01*
X201130952Y-94194381D01*
X201369048Y-94194381D01*
X201464286Y-94242000D01*
X201511905Y-94289619D01*
X201559524Y-94384857D01*
X201559524Y-94480095D01*
X201511905Y-94622952D01*
X200940476Y-95194381D01*
X201559524Y-95194381D01*
X202416667Y-94194381D02*
X202226190Y-94194381D01*
X202130952Y-94242000D01*
X202083333Y-94289619D01*
X201988095Y-94432476D01*
X201940476Y-94622952D01*
X201940476Y-95003905D01*
X201988095Y-95099143D01*
X202035714Y-95146762D01*
X202130952Y-95194381D01*
X202321429Y-95194381D01*
X202416667Y-95146762D01*
X202464286Y-95099143D01*
X202511905Y-95003905D01*
X202511905Y-94765810D01*
X202464286Y-94670571D01*
X202416667Y-94622952D01*
X202321429Y-94575333D01*
X202130952Y-94575333D01*
X202035714Y-94622952D01*
X201988095Y-94670571D01*
X201940476Y-94765810D01*
X200607143Y-92654381D02*
X200273809Y-92178190D01*
X200035714Y-92654381D02*
X200035714Y-91654381D01*
X200416667Y-91654381D01*
X200511905Y-91702000D01*
X200559524Y-91749619D01*
X200607143Y-91844857D01*
X200607143Y-91987714D01*
X200559524Y-92082952D01*
X200511905Y-92130571D01*
X200416667Y-92178190D01*
X200035714Y-92178190D01*
X200988095Y-91749619D02*
X201035714Y-91702000D01*
X201130952Y-91654381D01*
X201369048Y-91654381D01*
X201464286Y-91702000D01*
X201511905Y-91749619D01*
X201559524Y-91844857D01*
X201559524Y-91940095D01*
X201511905Y-92082952D01*
X200940476Y-92654381D01*
X201559524Y-92654381D01*
X201892857Y-91654381D02*
X202559524Y-91654381D01*
X202130952Y-92654381D01*
X186857143Y-92352381D02*
X186523809Y-91876190D01*
X186285714Y-92352381D02*
X186285714Y-91352381D01*
X186666667Y-91352381D01*
X186761905Y-91400000D01*
X186809524Y-91447619D01*
X186857143Y-91542857D01*
X186857143Y-91685714D01*
X186809524Y-91780952D01*
X186761905Y-91828571D01*
X186666667Y-91876190D01*
X186285714Y-91876190D01*
X187238095Y-91447619D02*
X187285714Y-91400000D01*
X187380952Y-91352381D01*
X187619048Y-91352381D01*
X187714286Y-91400000D01*
X187761905Y-91447619D01*
X187809524Y-91542857D01*
X187809524Y-91638095D01*
X187761905Y-91780952D01*
X187190476Y-92352381D01*
X187809524Y-92352381D01*
X188380952Y-91780952D02*
X188285714Y-91733333D01*
X188238095Y-91685714D01*
X188190476Y-91590476D01*
X188190476Y-91542857D01*
X188238095Y-91447619D01*
X188285714Y-91400000D01*
X188380952Y-91352381D01*
X188571429Y-91352381D01*
X188666667Y-91400000D01*
X188714286Y-91447619D01*
X188761905Y-91542857D01*
X188761905Y-91590476D01*
X188714286Y-91685714D01*
X188666667Y-91733333D01*
X188571429Y-91780952D01*
X188380952Y-91780952D01*
X188285714Y-91828571D01*
X188238095Y-91876190D01*
X188190476Y-91971429D01*
X188190476Y-92161905D01*
X188238095Y-92257143D01*
X188285714Y-92304762D01*
X188380952Y-92352381D01*
X188571429Y-92352381D01*
X188666667Y-92304762D01*
X188714286Y-92257143D01*
X188761905Y-92161905D01*
X188761905Y-91971429D01*
X188714286Y-91876190D01*
X188666667Y-91828571D01*
X188571429Y-91780952D01*
X154757381Y-106687857D02*
X154281190Y-107021191D01*
X154757381Y-107259286D02*
X153757381Y-107259286D01*
X153757381Y-106878333D01*
X153805000Y-106783095D01*
X153852619Y-106735476D01*
X153947857Y-106687857D01*
X154090714Y-106687857D01*
X154185952Y-106735476D01*
X154233571Y-106783095D01*
X154281190Y-106878333D01*
X154281190Y-107259286D01*
X153852619Y-106306905D02*
X153805000Y-106259286D01*
X153757381Y-106164048D01*
X153757381Y-105925952D01*
X153805000Y-105830714D01*
X153852619Y-105783095D01*
X153947857Y-105735476D01*
X154043095Y-105735476D01*
X154185952Y-105783095D01*
X154757381Y-106354524D01*
X154757381Y-105735476D01*
X154757381Y-105259286D02*
X154757381Y-105068810D01*
X154709762Y-104973571D01*
X154662143Y-104925952D01*
X154519286Y-104830714D01*
X154328810Y-104783095D01*
X153947857Y-104783095D01*
X153852619Y-104830714D01*
X153805000Y-104878333D01*
X153757381Y-104973571D01*
X153757381Y-105164048D01*
X153805000Y-105259286D01*
X153852619Y-105306905D01*
X153947857Y-105354524D01*
X154185952Y-105354524D01*
X154281190Y-105306905D01*
X154328810Y-105259286D01*
X154376429Y-105164048D01*
X154376429Y-104973571D01*
X154328810Y-104878333D01*
X154281190Y-104830714D01*
X154185952Y-104783095D01*
X161234381Y-106560857D02*
X160758190Y-106894191D01*
X161234381Y-107132286D02*
X160234381Y-107132286D01*
X160234381Y-106751333D01*
X160282000Y-106656095D01*
X160329619Y-106608476D01*
X160424857Y-106560857D01*
X160567714Y-106560857D01*
X160662952Y-106608476D01*
X160710571Y-106656095D01*
X160758190Y-106751333D01*
X160758190Y-107132286D01*
X160234381Y-106227524D02*
X160234381Y-105608476D01*
X160615333Y-105941810D01*
X160615333Y-105798952D01*
X160662952Y-105703714D01*
X160710571Y-105656095D01*
X160805810Y-105608476D01*
X161043905Y-105608476D01*
X161139143Y-105656095D01*
X161186762Y-105703714D01*
X161234381Y-105798952D01*
X161234381Y-106084667D01*
X161186762Y-106179905D01*
X161139143Y-106227524D01*
X160234381Y-104989429D02*
X160234381Y-104894190D01*
X160282000Y-104798952D01*
X160329619Y-104751333D01*
X160424857Y-104703714D01*
X160615333Y-104656095D01*
X160853429Y-104656095D01*
X161043905Y-104703714D01*
X161139143Y-104751333D01*
X161186762Y-104798952D01*
X161234381Y-104894190D01*
X161234381Y-104989429D01*
X161186762Y-105084667D01*
X161139143Y-105132286D01*
X161043905Y-105179905D01*
X160853429Y-105227524D01*
X160615333Y-105227524D01*
X160424857Y-105179905D01*
X160329619Y-105132286D01*
X160282000Y-105084667D01*
X160234381Y-104989429D01*
X163187143Y-95702381D02*
X162853809Y-95226190D01*
X162615714Y-95702381D02*
X162615714Y-94702381D01*
X162996667Y-94702381D01*
X163091905Y-94750000D01*
X163139524Y-94797619D01*
X163187143Y-94892857D01*
X163187143Y-95035714D01*
X163139524Y-95130952D01*
X163091905Y-95178571D01*
X162996667Y-95226190D01*
X162615714Y-95226190D01*
X163520476Y-94702381D02*
X164139524Y-94702381D01*
X163806190Y-95083333D01*
X163949048Y-95083333D01*
X164044286Y-95130952D01*
X164091905Y-95178571D01*
X164139524Y-95273810D01*
X164139524Y-95511905D01*
X164091905Y-95607143D01*
X164044286Y-95654762D01*
X163949048Y-95702381D01*
X163663333Y-95702381D01*
X163568095Y-95654762D01*
X163520476Y-95607143D01*
X165091905Y-95702381D02*
X164520476Y-95702381D01*
X164806190Y-95702381D02*
X164806190Y-94702381D01*
X164710952Y-94845238D01*
X164615714Y-94940476D01*
X164520476Y-94988095D01*
X176633714Y-104244857D02*
X176633714Y-105216286D01*
X176690857Y-105330571D01*
X176748000Y-105387714D01*
X176862286Y-105444857D01*
X177090857Y-105444857D01*
X177205143Y-105387714D01*
X177262286Y-105330571D01*
X177319429Y-105216286D01*
X177319429Y-104244857D01*
X178519429Y-105444857D02*
X177833714Y-105444857D01*
X178176572Y-105444857D02*
X178176572Y-104244857D01*
X178062286Y-104416286D01*
X177948000Y-104530571D01*
X177833714Y-104587714D01*
X152258781Y-95321333D02*
X152973067Y-95321333D01*
X153115924Y-95368953D01*
X153211162Y-95464191D01*
X153258781Y-95607048D01*
X153258781Y-95702286D01*
X153258781Y-94845143D02*
X152258781Y-94845143D01*
X152258781Y-94464190D01*
X152306400Y-94368952D01*
X152354019Y-94321333D01*
X152449257Y-94273714D01*
X152592114Y-94273714D01*
X152687352Y-94321333D01*
X152734971Y-94368952D01*
X152782590Y-94464190D01*
X152782590Y-94845143D01*
X153258781Y-93321333D02*
X153258781Y-93892762D01*
X153258781Y-93607048D02*
X152258781Y-93607048D01*
X152401638Y-93702286D01*
X152496876Y-93797524D01*
X152544495Y-93892762D01*
X155662381Y-116657333D02*
X156376667Y-116657333D01*
X156519524Y-116704953D01*
X156614762Y-116800191D01*
X156662381Y-116943048D01*
X156662381Y-117038286D01*
X156662381Y-116181143D02*
X155662381Y-116181143D01*
X155662381Y-115800190D01*
X155710000Y-115704952D01*
X155757619Y-115657333D01*
X155852857Y-115609714D01*
X155995714Y-115609714D01*
X156090952Y-115657333D01*
X156138571Y-115704952D01*
X156186190Y-115800190D01*
X156186190Y-116181143D01*
X155757619Y-115228762D02*
X155710000Y-115181143D01*
X155662381Y-115085905D01*
X155662381Y-114847809D01*
X155710000Y-114752571D01*
X155757619Y-114704952D01*
X155852857Y-114657333D01*
X155948095Y-114657333D01*
X156090952Y-114704952D01*
X156662381Y-115276381D01*
X156662381Y-114657333D01*
X158202381Y-116657333D02*
X158916667Y-116657333D01*
X159059524Y-116704953D01*
X159154762Y-116800191D01*
X159202381Y-116943048D01*
X159202381Y-117038286D01*
X159202381Y-116181143D02*
X158202381Y-116181143D01*
X158202381Y-115800190D01*
X158250000Y-115704952D01*
X158297619Y-115657333D01*
X158392857Y-115609714D01*
X158535714Y-115609714D01*
X158630952Y-115657333D01*
X158678571Y-115704952D01*
X158726190Y-115800190D01*
X158726190Y-116181143D01*
X158202381Y-115276381D02*
X158202381Y-114657333D01*
X158583333Y-114990667D01*
X158583333Y-114847809D01*
X158630952Y-114752571D01*
X158678571Y-114704952D01*
X158773810Y-114657333D01*
X159011905Y-114657333D01*
X159107143Y-114704952D01*
X159154762Y-114752571D01*
X159202381Y-114847809D01*
X159202381Y-115133524D01*
X159154762Y-115228762D01*
X159107143Y-115276381D01*
X177903143Y-69381666D02*
X177950762Y-69429285D01*
X177998381Y-69572142D01*
X177998381Y-69667380D01*
X177950762Y-69810238D01*
X177855524Y-69905476D01*
X177760286Y-69953095D01*
X177569810Y-70000714D01*
X177426952Y-70000714D01*
X177236476Y-69953095D01*
X177141238Y-69905476D01*
X177046000Y-69810238D01*
X176998381Y-69667380D01*
X176998381Y-69572142D01*
X177046000Y-69429285D01*
X177093619Y-69381666D01*
X177998381Y-68429285D02*
X177998381Y-69000714D01*
X177998381Y-68715000D02*
X176998381Y-68715000D01*
X177141238Y-68810238D01*
X177236476Y-68905476D01*
X177284095Y-69000714D01*
X173204143Y-69381666D02*
X173251762Y-69429285D01*
X173299381Y-69572142D01*
X173299381Y-69667380D01*
X173251762Y-69810238D01*
X173156524Y-69905476D01*
X173061286Y-69953095D01*
X172870810Y-70000714D01*
X172727952Y-70000714D01*
X172537476Y-69953095D01*
X172442238Y-69905476D01*
X172347000Y-69810238D01*
X172299381Y-69667380D01*
X172299381Y-69572142D01*
X172347000Y-69429285D01*
X172394619Y-69381666D01*
X172299381Y-69048333D02*
X172299381Y-68429285D01*
X172680333Y-68762619D01*
X172680333Y-68619761D01*
X172727952Y-68524523D01*
X172775571Y-68476904D01*
X172870810Y-68429285D01*
X173108905Y-68429285D01*
X173204143Y-68476904D01*
X173251762Y-68524523D01*
X173299381Y-68619761D01*
X173299381Y-68905476D01*
X173251762Y-69000714D01*
X173204143Y-69048333D01*
%LPC*%
D16*
X155622000Y-56388000D03*
X158322000Y-56388000D03*
X155622000Y-58674000D03*
X158322000Y-58674000D03*
X155622000Y-60960000D03*
X158322000Y-60960000D03*
X155636000Y-63246000D03*
X158336000Y-63246000D03*
X155636000Y-65532000D03*
X158336000Y-65532000D03*
X155636000Y-67818000D03*
X158336000Y-67818000D03*
X155636000Y-70104000D03*
X158336000Y-70104000D03*
X155636000Y-72390000D03*
X158336000Y-72390000D03*
X155636000Y-74676000D03*
X158336000Y-74676000D03*
X155636000Y-76962000D03*
X158336000Y-76962000D03*
X155636000Y-79248000D03*
X158336000Y-79248000D03*
X155636000Y-81534000D03*
X158336000Y-81534000D03*
X155636000Y-83820000D03*
X158336000Y-83820000D03*
X155636000Y-86106000D03*
X158336000Y-86106000D03*
X155636000Y-88392000D03*
X158336000Y-88392000D03*
X155636000Y-90678000D03*
X158336000Y-90678000D03*
X158750000Y-97282000D03*
X156050000Y-97282000D03*
X161638000Y-98552000D03*
X164338000Y-98552000D03*
X158750000Y-99949000D03*
X156050000Y-99949000D03*
X161638000Y-101092000D03*
X164338000Y-101092000D03*
X189992000Y-101092000D03*
X192692000Y-101092000D03*
X198708000Y-99822000D03*
X196008000Y-99822000D03*
X189992000Y-98552000D03*
X192692000Y-98552000D03*
X198708000Y-97282000D03*
X196008000Y-97282000D03*
X189912000Y-96012000D03*
X192612000Y-96012000D03*
X198708000Y-94742000D03*
X196008000Y-94742000D03*
X196008000Y-92202000D03*
X198708000Y-92202000D03*
X192612000Y-93472000D03*
X189912000Y-93472000D03*
D17*
X156210000Y-105490000D03*
X156210000Y-102790000D03*
X158750000Y-102790000D03*
X158750000Y-105490000D03*
D16*
X164338000Y-93472000D03*
X161638000Y-93472000D03*
D18*
X182120000Y-78232000D03*
X172720000Y-78232000D03*
X182120000Y-79502000D03*
X172720000Y-79502000D03*
X182120000Y-80772000D03*
X172720000Y-80772000D03*
X182120000Y-82042000D03*
X172720000Y-82042000D03*
X182120000Y-83312000D03*
X172720000Y-83312000D03*
X182120000Y-84582000D03*
X172720000Y-84582000D03*
X182120000Y-85852000D03*
X172720000Y-85852000D03*
X182120000Y-87122000D03*
X172720000Y-87122000D03*
X182120000Y-88392000D03*
X172720000Y-88392000D03*
X182120000Y-89662000D03*
X172720000Y-89662000D03*
X182120000Y-90932000D03*
X172720000Y-90932000D03*
X182120000Y-92202000D03*
X172720000Y-92202000D03*
X182120000Y-93472000D03*
X172720000Y-93472000D03*
X182120000Y-94742000D03*
X172720000Y-94742000D03*
X182120000Y-96012000D03*
X172720000Y-96012000D03*
X182120000Y-97282000D03*
X172720000Y-97282000D03*
X182120000Y-98552000D03*
X172720000Y-98552000D03*
X182120000Y-99822000D03*
X172720000Y-99822000D03*
X182120000Y-101092000D03*
X172720000Y-101092000D03*
X182120000Y-102362000D03*
X172720000Y-102362000D03*
D19*
X155194000Y-94488000D03*
D20*
X157734000Y-94488000D03*
D19*
X156210000Y-109960000D03*
D20*
X156210000Y-112500000D03*
D19*
X158750000Y-112522000D03*
D20*
X158750000Y-109982000D03*
D21*
X177546000Y-73894000D03*
X177546000Y-71394000D03*
X172847000Y-73894000D03*
X172847000Y-71394000D03*
D22*
X147828000Y-56388000D03*
D19*
X150368000Y-56388000D03*
D22*
X150368000Y-58928000D03*
X147828000Y-58928000D03*
X150368000Y-61468000D03*
X147828000Y-61468000D03*
X150368000Y-64008000D03*
X147828000Y-64008000D03*
X150368000Y-66548000D03*
X147828000Y-66548000D03*
X150368000Y-69088000D03*
X147828000Y-69088000D03*
X150368000Y-71628000D03*
X147828000Y-71628000D03*
X150368000Y-74168000D03*
X147828000Y-74168000D03*
X150368000Y-76708000D03*
X147828000Y-76708000D03*
X150368000Y-79248000D03*
X147828000Y-79248000D03*
X150368000Y-81788000D03*
X147828000Y-81788000D03*
X150368000Y-84328000D03*
X147828000Y-84328000D03*
X150368000Y-86868000D03*
X147828000Y-86868000D03*
X150368000Y-89408000D03*
X147828000Y-89408000D03*
X150368000Y-91948000D03*
X147828000Y-91948000D03*
X150368000Y-94488000D03*
X147828000Y-94488000D03*
X150368000Y-97028000D03*
X147828000Y-97028000D03*
X150368000Y-99568000D03*
X147828000Y-99568000D03*
X150368000Y-102108000D03*
X147828000Y-102108000D03*
X150368000Y-104648000D03*
X147828000Y-104648000D03*
X150368000Y-107188000D03*
X147828000Y-107188000D03*
X150368000Y-109728000D03*
X147828000Y-109728000D03*
X150368000Y-112268000D03*
X147828000Y-112268000D03*
X150368000Y-114808000D03*
X147828000Y-114808000D03*
X150368000Y-117348000D03*
X147828000Y-117348000D03*
X150368000Y-119888000D03*
X147828000Y-119888000D03*
X150368000Y-122428000D03*
X147828000Y-122428000D03*
X150368000Y-124968000D03*
X147828000Y-124968000D03*
M02*
