M48
;DRILL file {KiCad 5.0.1} date Sun 27 Jan 2019 10:15:23 AEDT
;FORMAT={2:4/ absolute / inch / suppress trailing zeros}
FMAT,2
INCH,LZ
T1C0.0118
T2C0.0394
%
G90
G05
M72
T1
X059646Y-027264
X059843Y-037244
X059843Y-039272
X059941Y-026969
X060236Y-026673
X060236Y-035728
X060236Y-036811
X060236Y-039665
X060531Y-026378
X060531Y-035236
X060827Y-03451
X060827Y-026083
X061122Y-025787
X061122Y-033268
X061417Y-025197
X061417Y-032874
X061713Y-024902
X061713Y-03248
X0625Y-025512
X062598Y-036614
X063976Y-036811
X064272Y-029626
X064272Y-035295
X064272Y-043785
X064567Y-034803
X064567Y-04425
X064862Y-034311
X064862Y-044715
X065157Y-033819
X065157Y-04525
X065453Y-032776
X065453Y-045768
X065748Y-032283
X065748Y-04626
X066043Y-031791
X066043Y-046785
X066333Y-031305
X066333Y-04725
X068602Y-028543
X069117Y-031538
X069117Y-032038
X069117Y-032538
X069117Y-033038
X069117Y-034038
X069117Y-034538
X069117Y-035038
X069117Y-035538
X069117Y-036538
X069117Y-037038
X069117Y-037538
X069117Y-038038
X069117Y-038538
X069117Y-039038
X069117Y-039538
X069117Y-040038
X069396Y-030604
X069488Y-033465
X069783Y-027618
X069882Y-040354
X069882Y-042815
X070315Y-0313
X070315Y-0318
X070315Y-0323
X070315Y-0328
X070315Y-0338
X070315Y-0343
X070315Y-0348
X070315Y-0353
X070315Y-0368
X070315Y-0383
X070315Y-0388
X070315Y-0393
X070315Y-0398
X070965Y-028543
X072835Y-037008
X073187Y-035313
X073189Y-047244
X073622Y-034803
X073622Y-04685
X074016Y-034291
X074016Y-046457
X074409Y-033819
X074409Y-046063
X074803Y-032776
X074803Y-045669
X075197Y-032283
X075197Y-045276
X075591Y-031791
X075591Y-044882
X075984Y-031299
X075984Y-044488
X076378Y-027264
X076378Y-039764
X077067Y-025197
X077067Y-03563
X077559Y-024902
X077559Y-03563
X078248Y-026969
X078248Y-039272
X078543Y-026673
X078543Y-038287
X078839Y-026378
X078839Y-03878
X079134Y-026083
X079134Y-037795
X079429Y-025335
X079429Y-025787
X079429Y-037303
X079687Y-036811
T2
X06249Y-031617
X06349Y-031617
X058Y-02225
X058Y-02325
X058Y-02425
X058Y-02525
X058Y-02625
X058Y-02725
X058Y-02825
X058Y-02925
X058Y-03025
X058Y-03125
X058Y-03225
X058Y-03325
X058Y-03425
X058Y-03525
X058Y-03625
X058Y-03725
X058Y-03825
X058Y-03925
X058Y-04025
X058Y-04125
X058Y-04225
X058Y-04325
X058Y-04425
X058Y-04525
X058Y-04625
X058Y-04725
X058Y-04825
X058Y-04925
X059Y-02225
X059Y-02325
X059Y-02425
X059Y-02525
X059Y-02625
X059Y-02725
X059Y-02825
X059Y-02925
X059Y-03025
X059Y-03125
X059Y-03225
X059Y-03325
X059Y-03425
X059Y-03525
X059Y-03625
X059Y-03725
X059Y-03825
X059Y-03925
X059Y-04025
X059Y-04125
X059Y-04225
X059Y-04325
X059Y-04425
X059Y-04525
X059Y-04625
X059Y-04725
X059Y-04825
X059Y-04925
X06249Y-030617
X06349Y-030617
X0625Y-034252
X0635Y-034252
T0
M30
