G04 #@! TF.GenerationSoftware,KiCad,Pcbnew,5.0.1*
G04 #@! TF.CreationDate,2019-01-27T10:15:17+11:00*
G04 #@! TF.ProjectId,a501 dram based design,61353031206472616D20626173656420,1.0*
G04 #@! TF.SameCoordinates,Original*
G04 #@! TF.FileFunction,Legend,Top*
G04 #@! TF.FilePolarity,Positive*
%FSLAX46Y46*%
G04 Gerber Fmt 4.6, Leading zero omitted, Abs format (unit mm)*
G04 Created by KiCad (PCBNEW 5.0.1) date Sun 27 Jan 2019 10:15:17 AEDT*
%MOMM*%
%LPD*%
G01*
G04 APERTURE LIST*
%ADD10C,0.300000*%
%ADD11C,0.250000*%
%ADD12C,0.120000*%
%ADD13C,0.150000*%
%ADD14C,0.010000*%
%ADD15R,1.903200X1.903200*%
%ADD16O,1.903200X1.903200*%
%ADD17R,4.203200X0.838200*%
%ADD18C,1.903200*%
%ADD19C,0.100000*%
%ADD20C,1.353200*%
G04 APERTURE END LIST*
D10*
X171071428Y-110200000D02*
X171785714Y-110200000D01*
X170928571Y-110628571D02*
X171428571Y-109128571D01*
X171928571Y-110628571D01*
X172428571Y-110628571D02*
X172428571Y-109628571D01*
X172428571Y-109771428D02*
X172500000Y-109700000D01*
X172642857Y-109628571D01*
X172857142Y-109628571D01*
X173000000Y-109700000D01*
X173071428Y-109842857D01*
X173071428Y-110628571D01*
X173071428Y-109842857D02*
X173142857Y-109700000D01*
X173285714Y-109628571D01*
X173500000Y-109628571D01*
X173642857Y-109700000D01*
X173714285Y-109842857D01*
X173714285Y-110628571D01*
X174428571Y-110628571D02*
X174428571Y-109628571D01*
X174428571Y-109128571D02*
X174357142Y-109200000D01*
X174428571Y-109271428D01*
X174500000Y-109200000D01*
X174428571Y-109128571D01*
X174428571Y-109271428D01*
X175785714Y-109628571D02*
X175785714Y-110842857D01*
X175714285Y-110985714D01*
X175642857Y-111057142D01*
X175500000Y-111128571D01*
X175285714Y-111128571D01*
X175142857Y-111057142D01*
X175785714Y-110557142D02*
X175642857Y-110628571D01*
X175357142Y-110628571D01*
X175214285Y-110557142D01*
X175142857Y-110485714D01*
X175071428Y-110342857D01*
X175071428Y-109914285D01*
X175142857Y-109771428D01*
X175214285Y-109700000D01*
X175357142Y-109628571D01*
X175642857Y-109628571D01*
X175785714Y-109700000D01*
X177142857Y-110628571D02*
X177142857Y-109842857D01*
X177071428Y-109700000D01*
X176928571Y-109628571D01*
X176642857Y-109628571D01*
X176500000Y-109700000D01*
X177142857Y-110557142D02*
X177000000Y-110628571D01*
X176642857Y-110628571D01*
X176500000Y-110557142D01*
X176428571Y-110414285D01*
X176428571Y-110271428D01*
X176500000Y-110128571D01*
X176642857Y-110057142D01*
X177000000Y-110057142D01*
X177142857Y-109985714D01*
X178928571Y-110200000D02*
X179642857Y-110200000D01*
X178785714Y-110628571D02*
X179285714Y-109128571D01*
X179785714Y-110628571D01*
X181000000Y-109128571D02*
X180285714Y-109128571D01*
X180214285Y-109842857D01*
X180285714Y-109771428D01*
X180428571Y-109700000D01*
X180785714Y-109700000D01*
X180928571Y-109771428D01*
X181000000Y-109842857D01*
X181071428Y-109985714D01*
X181071428Y-110342857D01*
X181000000Y-110485714D01*
X180928571Y-110557142D01*
X180785714Y-110628571D01*
X180428571Y-110628571D01*
X180285714Y-110557142D01*
X180214285Y-110485714D01*
X182000000Y-109128571D02*
X182142857Y-109128571D01*
X182285714Y-109200000D01*
X182357142Y-109271428D01*
X182428571Y-109414285D01*
X182500000Y-109700000D01*
X182500000Y-110057142D01*
X182428571Y-110342857D01*
X182357142Y-110485714D01*
X182285714Y-110557142D01*
X182142857Y-110628571D01*
X182000000Y-110628571D01*
X181857142Y-110557142D01*
X181785714Y-110485714D01*
X181714285Y-110342857D01*
X181642857Y-110057142D01*
X181642857Y-109700000D01*
X181714285Y-109414285D01*
X181785714Y-109271428D01*
X181857142Y-109200000D01*
X182000000Y-109128571D01*
X183428571Y-109128571D02*
X183571428Y-109128571D01*
X183714285Y-109200000D01*
X183785714Y-109271428D01*
X183857142Y-109414285D01*
X183928571Y-109700000D01*
X183928571Y-110057142D01*
X183857142Y-110342857D01*
X183785714Y-110485714D01*
X183714285Y-110557142D01*
X183571428Y-110628571D01*
X183428571Y-110628571D01*
X183285714Y-110557142D01*
X183214285Y-110485714D01*
X183142857Y-110342857D01*
X183071428Y-110057142D01*
X183071428Y-109700000D01*
X183142857Y-109414285D01*
X183214285Y-109271428D01*
X183285714Y-109200000D01*
X183428571Y-109128571D01*
X167285714Y-113178571D02*
X166428571Y-113178571D01*
X166857142Y-113178571D02*
X166857142Y-111678571D01*
X166714285Y-111892857D01*
X166571428Y-112035714D01*
X166428571Y-112107142D01*
X167928571Y-113178571D02*
X167928571Y-111678571D01*
X168428571Y-112750000D01*
X168928571Y-111678571D01*
X168928571Y-113178571D01*
X170142857Y-112392857D02*
X170357142Y-112464285D01*
X170428571Y-112535714D01*
X170500000Y-112678571D01*
X170500000Y-112892857D01*
X170428571Y-113035714D01*
X170357142Y-113107142D01*
X170214285Y-113178571D01*
X169642857Y-113178571D01*
X169642857Y-111678571D01*
X170142857Y-111678571D01*
X170285714Y-111750000D01*
X170357142Y-111821428D01*
X170428571Y-111964285D01*
X170428571Y-112107142D01*
X170357142Y-112250000D01*
X170285714Y-112321428D01*
X170142857Y-112392857D01*
X169642857Y-112392857D01*
X173142857Y-113178571D02*
X172642857Y-112464285D01*
X172285714Y-113178571D02*
X172285714Y-111678571D01*
X172857142Y-111678571D01*
X173000000Y-111750000D01*
X173071428Y-111821428D01*
X173142857Y-111964285D01*
X173142857Y-112178571D01*
X173071428Y-112321428D01*
X173000000Y-112392857D01*
X172857142Y-112464285D01*
X172285714Y-112464285D01*
X173714285Y-112750000D02*
X174428571Y-112750000D01*
X173571428Y-113178571D02*
X174071428Y-111678571D01*
X174571428Y-113178571D01*
X175071428Y-113178571D02*
X175071428Y-111678571D01*
X175571428Y-112750000D01*
X176071428Y-111678571D01*
X176071428Y-113178571D01*
X177928571Y-112392857D02*
X178428571Y-112392857D01*
X178642857Y-113178571D02*
X177928571Y-113178571D01*
X177928571Y-111678571D01*
X178642857Y-111678571D01*
X179142857Y-113178571D02*
X179928571Y-112178571D01*
X179142857Y-112178571D02*
X179928571Y-113178571D01*
X180500000Y-112178571D02*
X180500000Y-113678571D01*
X180500000Y-112250000D02*
X180642857Y-112178571D01*
X180928571Y-112178571D01*
X181071428Y-112250000D01*
X181142857Y-112321428D01*
X181214285Y-112464285D01*
X181214285Y-112892857D01*
X181142857Y-113035714D01*
X181071428Y-113107142D01*
X180928571Y-113178571D01*
X180642857Y-113178571D01*
X180500000Y-113107142D01*
X182500000Y-113178571D02*
X182500000Y-112392857D01*
X182428571Y-112250000D01*
X182285714Y-112178571D01*
X182000000Y-112178571D01*
X181857142Y-112250000D01*
X182500000Y-113107142D02*
X182357142Y-113178571D01*
X182000000Y-113178571D01*
X181857142Y-113107142D01*
X181785714Y-112964285D01*
X181785714Y-112821428D01*
X181857142Y-112678571D01*
X182000000Y-112607142D01*
X182357142Y-112607142D01*
X182500000Y-112535714D01*
X183214285Y-112178571D02*
X183214285Y-113178571D01*
X183214285Y-112321428D02*
X183285714Y-112250000D01*
X183428571Y-112178571D01*
X183642857Y-112178571D01*
X183785714Y-112250000D01*
X183857142Y-112392857D01*
X183857142Y-113178571D01*
X184500000Y-113107142D02*
X184642857Y-113178571D01*
X184928571Y-113178571D01*
X185071428Y-113107142D01*
X185142857Y-112964285D01*
X185142857Y-112892857D01*
X185071428Y-112750000D01*
X184928571Y-112678571D01*
X184714285Y-112678571D01*
X184571428Y-112607142D01*
X184500000Y-112464285D01*
X184500000Y-112392857D01*
X184571428Y-112250000D01*
X184714285Y-112178571D01*
X184928571Y-112178571D01*
X185071428Y-112250000D01*
X185785714Y-113178571D02*
X185785714Y-112178571D01*
X185785714Y-111678571D02*
X185714285Y-111750000D01*
X185785714Y-111821428D01*
X185857142Y-111750000D01*
X185785714Y-111678571D01*
X185785714Y-111821428D01*
X186714285Y-113178571D02*
X186571428Y-113107142D01*
X186500000Y-113035714D01*
X186428571Y-112892857D01*
X186428571Y-112464285D01*
X186500000Y-112321428D01*
X186571428Y-112250000D01*
X186714285Y-112178571D01*
X186928571Y-112178571D01*
X187071428Y-112250000D01*
X187142857Y-112321428D01*
X187214285Y-112464285D01*
X187214285Y-112892857D01*
X187142857Y-113035714D01*
X187071428Y-113107142D01*
X186928571Y-113178571D01*
X186714285Y-113178571D01*
X187857142Y-112178571D02*
X187857142Y-113178571D01*
X187857142Y-112321428D02*
X187928571Y-112250000D01*
X188071428Y-112178571D01*
X188285714Y-112178571D01*
X188428571Y-112250000D01*
X188500000Y-112392857D01*
X188500000Y-113178571D01*
X170892857Y-114228571D02*
X171750000Y-114228571D01*
X171321428Y-115728571D02*
X171321428Y-114228571D01*
X172250000Y-115728571D02*
X172250000Y-114228571D01*
X172892857Y-115728571D02*
X172892857Y-114942857D01*
X172821428Y-114800000D01*
X172678571Y-114728571D01*
X172464285Y-114728571D01*
X172321428Y-114800000D01*
X172250000Y-114871428D01*
X173607142Y-115728571D02*
X173607142Y-114728571D01*
X173607142Y-114228571D02*
X173535714Y-114300000D01*
X173607142Y-114371428D01*
X173678571Y-114300000D01*
X173607142Y-114228571D01*
X173607142Y-114371428D01*
X174250000Y-115657142D02*
X174392857Y-115728571D01*
X174678571Y-115728571D01*
X174821428Y-115657142D01*
X174892857Y-115514285D01*
X174892857Y-115442857D01*
X174821428Y-115300000D01*
X174678571Y-115228571D01*
X174464285Y-115228571D01*
X174321428Y-115157142D01*
X174250000Y-115014285D01*
X174250000Y-114942857D01*
X174321428Y-114800000D01*
X174464285Y-114728571D01*
X174678571Y-114728571D01*
X174821428Y-114800000D01*
X176535714Y-114728571D02*
X176821428Y-115728571D01*
X177107142Y-115014285D01*
X177392857Y-115728571D01*
X177678571Y-114728571D01*
X178892857Y-115728571D02*
X178892857Y-114942857D01*
X178821428Y-114800000D01*
X178678571Y-114728571D01*
X178392857Y-114728571D01*
X178250000Y-114800000D01*
X178892857Y-115657142D02*
X178750000Y-115728571D01*
X178392857Y-115728571D01*
X178250000Y-115657142D01*
X178178571Y-115514285D01*
X178178571Y-115371428D01*
X178250000Y-115228571D01*
X178392857Y-115157142D01*
X178750000Y-115157142D01*
X178892857Y-115085714D01*
X179464285Y-114728571D02*
X179821428Y-115728571D01*
X180178571Y-114728571D02*
X179821428Y-115728571D01*
X179678571Y-116085714D01*
X179607142Y-116157142D01*
X179464285Y-116228571D01*
X182535714Y-114728571D02*
X182535714Y-115728571D01*
X181892857Y-114728571D02*
X181892857Y-115514285D01*
X181964285Y-115657142D01*
X182107142Y-115728571D01*
X182321428Y-115728571D01*
X182464285Y-115657142D01*
X182535714Y-115585714D01*
X183250000Y-114728571D02*
X183250000Y-116228571D01*
X183250000Y-114800000D02*
X183392857Y-114728571D01*
X183678571Y-114728571D01*
X183821428Y-114800000D01*
X183892857Y-114871428D01*
X183964285Y-115014285D01*
X183964285Y-115442857D01*
X183892857Y-115585714D01*
X183821428Y-115657142D01*
X183678571Y-115728571D01*
X183392857Y-115728571D01*
X183250000Y-115657142D01*
D11*
X169297619Y-125588095D02*
X169297619Y-124288095D01*
X169792857Y-124288095D01*
X169916666Y-124350000D01*
X169978571Y-124411904D01*
X170040476Y-124535714D01*
X170040476Y-124721428D01*
X169978571Y-124845238D01*
X169916666Y-124907142D01*
X169792857Y-124969047D01*
X169297619Y-124969047D01*
X171340476Y-125464285D02*
X171278571Y-125526190D01*
X171092857Y-125588095D01*
X170969047Y-125588095D01*
X170783333Y-125526190D01*
X170659523Y-125402380D01*
X170597619Y-125278571D01*
X170535714Y-125030952D01*
X170535714Y-124845238D01*
X170597619Y-124597619D01*
X170659523Y-124473809D01*
X170783333Y-124350000D01*
X170969047Y-124288095D01*
X171092857Y-124288095D01*
X171278571Y-124350000D01*
X171340476Y-124411904D01*
X172330952Y-124907142D02*
X172516666Y-124969047D01*
X172578571Y-125030952D01*
X172640476Y-125154761D01*
X172640476Y-125340476D01*
X172578571Y-125464285D01*
X172516666Y-125526190D01*
X172392857Y-125588095D01*
X171897619Y-125588095D01*
X171897619Y-124288095D01*
X172330952Y-124288095D01*
X172454761Y-124350000D01*
X172516666Y-124411904D01*
X172578571Y-124535714D01*
X172578571Y-124659523D01*
X172516666Y-124783333D01*
X172454761Y-124845238D01*
X172330952Y-124907142D01*
X171897619Y-124907142D01*
X174930952Y-125588095D02*
X174497619Y-124969047D01*
X174188095Y-125588095D02*
X174188095Y-124288095D01*
X174683333Y-124288095D01*
X174807142Y-124350000D01*
X174869047Y-124411904D01*
X174930952Y-124535714D01*
X174930952Y-124721428D01*
X174869047Y-124845238D01*
X174807142Y-124907142D01*
X174683333Y-124969047D01*
X174188095Y-124969047D01*
X175983333Y-125526190D02*
X175859523Y-125588095D01*
X175611904Y-125588095D01*
X175488095Y-125526190D01*
X175426190Y-125402380D01*
X175426190Y-124907142D01*
X175488095Y-124783333D01*
X175611904Y-124721428D01*
X175859523Y-124721428D01*
X175983333Y-124783333D01*
X176045238Y-124907142D01*
X176045238Y-125030952D01*
X175426190Y-125154761D01*
X176478571Y-124721428D02*
X176788095Y-125588095D01*
X177097619Y-124721428D01*
X177592857Y-125588095D02*
X177592857Y-124721428D01*
X177592857Y-124288095D02*
X177530952Y-124350000D01*
X177592857Y-124411904D01*
X177654761Y-124350000D01*
X177592857Y-124288095D01*
X177592857Y-124411904D01*
X178150000Y-125526190D02*
X178273809Y-125588095D01*
X178521428Y-125588095D01*
X178645238Y-125526190D01*
X178707142Y-125402380D01*
X178707142Y-125340476D01*
X178645238Y-125216666D01*
X178521428Y-125154761D01*
X178335714Y-125154761D01*
X178211904Y-125092857D01*
X178150000Y-124969047D01*
X178150000Y-124907142D01*
X178211904Y-124783333D01*
X178335714Y-124721428D01*
X178521428Y-124721428D01*
X178645238Y-124783333D01*
X179264285Y-125588095D02*
X179264285Y-124721428D01*
X179264285Y-124288095D02*
X179202380Y-124350000D01*
X179264285Y-124411904D01*
X179326190Y-124350000D01*
X179264285Y-124288095D01*
X179264285Y-124411904D01*
X180069047Y-125588095D02*
X179945238Y-125526190D01*
X179883333Y-125464285D01*
X179821428Y-125340476D01*
X179821428Y-124969047D01*
X179883333Y-124845238D01*
X179945238Y-124783333D01*
X180069047Y-124721428D01*
X180254761Y-124721428D01*
X180378571Y-124783333D01*
X180440476Y-124845238D01*
X180502380Y-124969047D01*
X180502380Y-125340476D01*
X180440476Y-125464285D01*
X180378571Y-125526190D01*
X180254761Y-125588095D01*
X180069047Y-125588095D01*
X181059523Y-124721428D02*
X181059523Y-125588095D01*
X181059523Y-124845238D02*
X181121428Y-124783333D01*
X181245238Y-124721428D01*
X181430952Y-124721428D01*
X181554761Y-124783333D01*
X181616666Y-124907142D01*
X181616666Y-125588095D01*
X183907142Y-125588095D02*
X183164285Y-125588095D01*
X183535714Y-125588095D02*
X183535714Y-124288095D01*
X183411904Y-124473809D01*
X183288095Y-124597619D01*
X183164285Y-124659523D01*
X184464285Y-125464285D02*
X184526190Y-125526190D01*
X184464285Y-125588095D01*
X184402380Y-125526190D01*
X184464285Y-125464285D01*
X184464285Y-125588095D01*
X185764285Y-125588095D02*
X185021428Y-125588095D01*
X185392857Y-125588095D02*
X185392857Y-124288095D01*
X185269047Y-124473809D01*
X185145238Y-124597619D01*
X185021428Y-124659523D01*
D12*
G04 #@! TO.C,JP1*
X162620000Y-88330000D02*
X162620000Y-85670000D01*
X160020000Y-88330000D02*
X162620000Y-88330000D01*
X160020000Y-85670000D02*
X162620000Y-85670000D01*
X160020000Y-88330000D02*
X160020000Y-85670000D01*
X158750000Y-88330000D02*
X157420000Y-88330000D01*
X157420000Y-88330000D02*
X157420000Y-87000000D01*
D13*
G04 #@! TO.C,U1*
X185120000Y-77914500D02*
X184120000Y-76914500D01*
X184120000Y-76914500D02*
X169720000Y-76914500D01*
X169720000Y-76914500D02*
X169720000Y-103679500D01*
X169720000Y-103679500D02*
X185120000Y-103679500D01*
X185120000Y-103679500D02*
X185120000Y-77914500D01*
D12*
G04 #@! TO.C,JP2*
X162594000Y-81636000D02*
X162594000Y-78976000D01*
X159994000Y-81636000D02*
X162594000Y-81636000D01*
X159994000Y-78976000D02*
X162594000Y-78976000D01*
X159994000Y-81636000D02*
X159994000Y-78976000D01*
X158724000Y-81636000D02*
X157394000Y-81636000D01*
X157394000Y-81636000D02*
X157394000Y-80306000D01*
G04 #@! TO.C,JP3*
X162594000Y-79096000D02*
X162594000Y-76436000D01*
X159994000Y-79096000D02*
X162594000Y-79096000D01*
X159994000Y-76436000D02*
X162594000Y-76436000D01*
X159994000Y-79096000D02*
X159994000Y-76436000D01*
X158724000Y-79096000D02*
X157394000Y-79096000D01*
X157394000Y-79096000D02*
X157394000Y-77766000D01*
D14*
G04 #@! TO.C,REF\002A\002A\002A*
G36*
X185576192Y-70016166D02*
X185663985Y-70059540D01*
X185772249Y-70135122D01*
X185851155Y-70217542D01*
X185905195Y-70321037D01*
X185938859Y-70459843D01*
X185956637Y-70648194D01*
X185963020Y-70900328D01*
X185963393Y-71008724D01*
X185962304Y-71246287D01*
X185957778Y-71416068D01*
X185947932Y-71533550D01*
X185930882Y-71614215D01*
X185904741Y-71673545D01*
X185877542Y-71714020D01*
X185703920Y-71886225D01*
X185499462Y-71989806D01*
X185278896Y-72020960D01*
X185056954Y-71975885D01*
X184986640Y-71944009D01*
X184818311Y-71856271D01*
X184818311Y-73231172D01*
X184941162Y-73167643D01*
X185103033Y-73118491D01*
X185301995Y-73105900D01*
X185500672Y-73129147D01*
X185650710Y-73181370D01*
X185775159Y-73280826D01*
X185881492Y-73423143D01*
X185889487Y-73437755D01*
X185923207Y-73506582D01*
X185947834Y-73575956D01*
X185964786Y-73659996D01*
X185975481Y-73772816D01*
X185981338Y-73928533D01*
X185983773Y-74141265D01*
X185984213Y-74380664D01*
X185984213Y-75144443D01*
X185526180Y-75144443D01*
X185526180Y-73736108D01*
X185398067Y-73628308D01*
X185264982Y-73542079D01*
X185138952Y-73526401D01*
X185012222Y-73566747D01*
X184944683Y-73606254D01*
X184894414Y-73662527D01*
X184858662Y-73747572D01*
X184834672Y-73873394D01*
X184819689Y-74051998D01*
X184810960Y-74295391D01*
X184807886Y-74457394D01*
X184797492Y-75123623D01*
X184578885Y-75136209D01*
X184360279Y-75148795D01*
X184360279Y-71014464D01*
X184818311Y-71014464D01*
X184829989Y-71244953D01*
X184869338Y-71404950D01*
X184942834Y-71504497D01*
X185056951Y-71553639D01*
X185172246Y-71563459D01*
X185302762Y-71552175D01*
X185389383Y-71507764D01*
X185443549Y-71449081D01*
X185486190Y-71385962D01*
X185511574Y-71315645D01*
X185522869Y-71217123D01*
X185523240Y-71069387D01*
X185519440Y-70945683D01*
X185510712Y-70759328D01*
X185497720Y-70636982D01*
X185475841Y-70559377D01*
X185440454Y-70507245D01*
X185407059Y-70477111D01*
X185267525Y-70411399D01*
X185102381Y-70400787D01*
X185007554Y-70423423D01*
X184913666Y-70503881D01*
X184851474Y-70660392D01*
X184821331Y-70891852D01*
X184818311Y-71014464D01*
X184360279Y-71014464D01*
X184360279Y-69981164D01*
X184589295Y-69981164D01*
X184726794Y-69986602D01*
X184797733Y-70005909D01*
X184818303Y-70043576D01*
X184818311Y-70044692D01*
X184827855Y-70081581D01*
X184869949Y-70077393D01*
X184953639Y-70036859D01*
X185148646Y-69974850D01*
X185368046Y-69968332D01*
X185576192Y-70016166D01*
X185576192Y-70016166D01*
G37*
X185576192Y-70016166D02*
X185663985Y-70059540D01*
X185772249Y-70135122D01*
X185851155Y-70217542D01*
X185905195Y-70321037D01*
X185938859Y-70459843D01*
X185956637Y-70648194D01*
X185963020Y-70900328D01*
X185963393Y-71008724D01*
X185962304Y-71246287D01*
X185957778Y-71416068D01*
X185947932Y-71533550D01*
X185930882Y-71614215D01*
X185904741Y-71673545D01*
X185877542Y-71714020D01*
X185703920Y-71886225D01*
X185499462Y-71989806D01*
X185278896Y-72020960D01*
X185056954Y-71975885D01*
X184986640Y-71944009D01*
X184818311Y-71856271D01*
X184818311Y-73231172D01*
X184941162Y-73167643D01*
X185103033Y-73118491D01*
X185301995Y-73105900D01*
X185500672Y-73129147D01*
X185650710Y-73181370D01*
X185775159Y-73280826D01*
X185881492Y-73423143D01*
X185889487Y-73437755D01*
X185923207Y-73506582D01*
X185947834Y-73575956D01*
X185964786Y-73659996D01*
X185975481Y-73772816D01*
X185981338Y-73928533D01*
X185983773Y-74141265D01*
X185984213Y-74380664D01*
X185984213Y-75144443D01*
X185526180Y-75144443D01*
X185526180Y-73736108D01*
X185398067Y-73628308D01*
X185264982Y-73542079D01*
X185138952Y-73526401D01*
X185012222Y-73566747D01*
X184944683Y-73606254D01*
X184894414Y-73662527D01*
X184858662Y-73747572D01*
X184834672Y-73873394D01*
X184819689Y-74051998D01*
X184810960Y-74295391D01*
X184807886Y-74457394D01*
X184797492Y-75123623D01*
X184578885Y-75136209D01*
X184360279Y-75148795D01*
X184360279Y-71014464D01*
X184818311Y-71014464D01*
X184829989Y-71244953D01*
X184869338Y-71404950D01*
X184942834Y-71504497D01*
X185056951Y-71553639D01*
X185172246Y-71563459D01*
X185302762Y-71552175D01*
X185389383Y-71507764D01*
X185443549Y-71449081D01*
X185486190Y-71385962D01*
X185511574Y-71315645D01*
X185522869Y-71217123D01*
X185523240Y-71069387D01*
X185519440Y-70945683D01*
X185510712Y-70759328D01*
X185497720Y-70636982D01*
X185475841Y-70559377D01*
X185440454Y-70507245D01*
X185407059Y-70477111D01*
X185267525Y-70411399D01*
X185102381Y-70400787D01*
X185007554Y-70423423D01*
X184913666Y-70503881D01*
X184851474Y-70660392D01*
X184821331Y-70891852D01*
X184818311Y-71014464D01*
X184360279Y-71014464D01*
X184360279Y-69981164D01*
X184589295Y-69981164D01*
X184726794Y-69986602D01*
X184797733Y-70005909D01*
X184818303Y-70043576D01*
X184818311Y-70044692D01*
X184827855Y-70081581D01*
X184869949Y-70077393D01*
X184953639Y-70036859D01*
X185148646Y-69974850D01*
X185368046Y-69968332D01*
X185576192Y-70016166D01*
G36*
X187313221Y-73120247D02*
X187509111Y-73172514D01*
X187658233Y-73267253D01*
X187763465Y-73391338D01*
X187796179Y-73444296D01*
X187820331Y-73499768D01*
X187837216Y-73570730D01*
X187848127Y-73670154D01*
X187854360Y-73811016D01*
X187857209Y-74006289D01*
X187857968Y-74268948D01*
X187857984Y-74338633D01*
X187857984Y-75144443D01*
X187658115Y-75144443D01*
X187530630Y-75135515D01*
X187436366Y-75112896D01*
X187412749Y-75098946D01*
X187348185Y-75074870D01*
X187282241Y-75098946D01*
X187173668Y-75129003D01*
X187015958Y-75141100D01*
X186841156Y-75135851D01*
X186681307Y-75113869D01*
X186587984Y-75085663D01*
X186407391Y-74969731D01*
X186294530Y-74808847D01*
X186243791Y-74594936D01*
X186243320Y-74589443D01*
X186247773Y-74494547D01*
X186650443Y-74494547D01*
X186685646Y-74602484D01*
X186742986Y-74663229D01*
X186858087Y-74709172D01*
X187010014Y-74727512D01*
X187164939Y-74718485D01*
X187289036Y-74682332D01*
X187323803Y-74659137D01*
X187384556Y-74551960D01*
X187399951Y-74430120D01*
X187399951Y-74270017D01*
X187169597Y-74270017D01*
X186950759Y-74286863D01*
X186784863Y-74334593D01*
X186681662Y-74408986D01*
X186650443Y-74494547D01*
X186247773Y-74494547D01*
X186254287Y-74355731D01*
X186331369Y-74170946D01*
X186476286Y-74031206D01*
X186496317Y-74018495D01*
X186582390Y-73977105D01*
X186688927Y-73952041D01*
X186837859Y-73939858D01*
X187014787Y-73937057D01*
X187399951Y-73936902D01*
X187399951Y-73775443D01*
X187383613Y-73650168D01*
X187341922Y-73566241D01*
X187337041Y-73561773D01*
X187244264Y-73525059D01*
X187104216Y-73510828D01*
X186949445Y-73517821D01*
X186812501Y-73544780D01*
X186731241Y-73585212D01*
X186687210Y-73617601D01*
X186640715Y-73623784D01*
X186576549Y-73597248D01*
X186479505Y-73531479D01*
X186334374Y-73419963D01*
X186321053Y-73409516D01*
X186327879Y-73370862D01*
X186384822Y-73306572D01*
X186471370Y-73235131D01*
X186567008Y-73175021D01*
X186597056Y-73160827D01*
X186706659Y-73132503D01*
X186867265Y-73112300D01*
X187046698Y-73104196D01*
X187055089Y-73104180D01*
X187313221Y-73120247D01*
X187313221Y-73120247D01*
G37*
X187313221Y-73120247D02*
X187509111Y-73172514D01*
X187658233Y-73267253D01*
X187763465Y-73391338D01*
X187796179Y-73444296D01*
X187820331Y-73499768D01*
X187837216Y-73570730D01*
X187848127Y-73670154D01*
X187854360Y-73811016D01*
X187857209Y-74006289D01*
X187857968Y-74268948D01*
X187857984Y-74338633D01*
X187857984Y-75144443D01*
X187658115Y-75144443D01*
X187530630Y-75135515D01*
X187436366Y-75112896D01*
X187412749Y-75098946D01*
X187348185Y-75074870D01*
X187282241Y-75098946D01*
X187173668Y-75129003D01*
X187015958Y-75141100D01*
X186841156Y-75135851D01*
X186681307Y-75113869D01*
X186587984Y-75085663D01*
X186407391Y-74969731D01*
X186294530Y-74808847D01*
X186243791Y-74594936D01*
X186243320Y-74589443D01*
X186247773Y-74494547D01*
X186650443Y-74494547D01*
X186685646Y-74602484D01*
X186742986Y-74663229D01*
X186858087Y-74709172D01*
X187010014Y-74727512D01*
X187164939Y-74718485D01*
X187289036Y-74682332D01*
X187323803Y-74659137D01*
X187384556Y-74551960D01*
X187399951Y-74430120D01*
X187399951Y-74270017D01*
X187169597Y-74270017D01*
X186950759Y-74286863D01*
X186784863Y-74334593D01*
X186681662Y-74408986D01*
X186650443Y-74494547D01*
X186247773Y-74494547D01*
X186254287Y-74355731D01*
X186331369Y-74170946D01*
X186476286Y-74031206D01*
X186496317Y-74018495D01*
X186582390Y-73977105D01*
X186688927Y-73952041D01*
X186837859Y-73939858D01*
X187014787Y-73937057D01*
X187399951Y-73936902D01*
X187399951Y-73775443D01*
X187383613Y-73650168D01*
X187341922Y-73566241D01*
X187337041Y-73561773D01*
X187244264Y-73525059D01*
X187104216Y-73510828D01*
X186949445Y-73517821D01*
X186812501Y-73544780D01*
X186731241Y-73585212D01*
X186687210Y-73617601D01*
X186640715Y-73623784D01*
X186576549Y-73597248D01*
X186479505Y-73531479D01*
X186334374Y-73419963D01*
X186321053Y-73409516D01*
X186327879Y-73370862D01*
X186384822Y-73306572D01*
X186471370Y-73235131D01*
X186567008Y-73175021D01*
X186597056Y-73160827D01*
X186706659Y-73132503D01*
X186867265Y-73112300D01*
X187046698Y-73104196D01*
X187055089Y-73104180D01*
X187313221Y-73120247D01*
G36*
X188607525Y-73108540D02*
X188669837Y-73127218D01*
X188689925Y-73168255D01*
X188690770Y-73186782D01*
X188694375Y-73238383D01*
X188719200Y-73246484D01*
X188786263Y-73211108D01*
X188826098Y-73186937D01*
X188951773Y-73135175D01*
X189101877Y-73109581D01*
X189259263Y-73107613D01*
X189406786Y-73126729D01*
X189527300Y-73164387D01*
X189603660Y-73218044D01*
X189618719Y-73285158D01*
X189611119Y-73303333D01*
X189555718Y-73378777D01*
X189469810Y-73471568D01*
X189454272Y-73486568D01*
X189372388Y-73555540D01*
X189301737Y-73577825D01*
X189202932Y-73562272D01*
X189163348Y-73551938D01*
X189040172Y-73527116D01*
X188953564Y-73538278D01*
X188880424Y-73577646D01*
X188813426Y-73630479D01*
X188764082Y-73696924D01*
X188729791Y-73789652D01*
X188707952Y-73921334D01*
X188695966Y-74104641D01*
X188691231Y-74352246D01*
X188690770Y-74501744D01*
X188690770Y-75144443D01*
X188274377Y-75144443D01*
X188274377Y-73104115D01*
X188482574Y-73104115D01*
X188607525Y-73108540D01*
X188607525Y-73108540D01*
G37*
X188607525Y-73108540D02*
X188669837Y-73127218D01*
X188689925Y-73168255D01*
X188690770Y-73186782D01*
X188694375Y-73238383D01*
X188719200Y-73246484D01*
X188786263Y-73211108D01*
X188826098Y-73186937D01*
X188951773Y-73135175D01*
X189101877Y-73109581D01*
X189259263Y-73107613D01*
X189406786Y-73126729D01*
X189527300Y-73164387D01*
X189603660Y-73218044D01*
X189618719Y-73285158D01*
X189611119Y-73303333D01*
X189555718Y-73378777D01*
X189469810Y-73471568D01*
X189454272Y-73486568D01*
X189372388Y-73555540D01*
X189301737Y-73577825D01*
X189202932Y-73562272D01*
X189163348Y-73551938D01*
X189040172Y-73527116D01*
X188953564Y-73538278D01*
X188880424Y-73577646D01*
X188813426Y-73630479D01*
X188764082Y-73696924D01*
X188729791Y-73789652D01*
X188707952Y-73921334D01*
X188695966Y-74104641D01*
X188691231Y-74352246D01*
X188690770Y-74501744D01*
X188690770Y-75144443D01*
X188274377Y-75144443D01*
X188274377Y-73104115D01*
X188482574Y-73104115D01*
X188607525Y-73108540D01*
G36*
X191230770Y-75144443D02*
X191001754Y-75144443D01*
X190868825Y-75140546D01*
X190799595Y-75124407D01*
X190774668Y-75089354D01*
X190772738Y-75065653D01*
X190768534Y-75018123D01*
X190742026Y-75009008D01*
X190672367Y-75038308D01*
X190618196Y-75065653D01*
X190410223Y-75130451D01*
X190184147Y-75134201D01*
X190000345Y-75085873D01*
X189829187Y-74969118D01*
X189698716Y-74796781D01*
X189627273Y-74593506D01*
X189625454Y-74582141D01*
X189614839Y-74458136D01*
X189609560Y-74280117D01*
X189609984Y-74145480D01*
X190064828Y-74145480D01*
X190075365Y-74324428D01*
X190099334Y-74471924D01*
X190131783Y-74555217D01*
X190254544Y-74669041D01*
X190400299Y-74709845D01*
X190550607Y-74676848D01*
X190679049Y-74578422D01*
X190727692Y-74512224D01*
X190756134Y-74433231D01*
X190769456Y-74317926D01*
X190772738Y-74144736D01*
X190766865Y-73973229D01*
X190751353Y-73822540D01*
X190729362Y-73721698D01*
X190725697Y-73712659D01*
X190637012Y-73605195D01*
X190507572Y-73546195D01*
X190362743Y-73536669D01*
X190227891Y-73577626D01*
X190128383Y-73670076D01*
X190118060Y-73688473D01*
X190085750Y-73800646D01*
X190068148Y-73961934D01*
X190064828Y-74145480D01*
X189609984Y-74145480D01*
X189610200Y-74077212D01*
X189613194Y-73968010D01*
X189633558Y-73697856D01*
X189675883Y-73495024D01*
X189746294Y-73345077D01*
X189850912Y-73233579D01*
X189952479Y-73168127D01*
X190094384Y-73122117D01*
X190270879Y-73106336D01*
X190451607Y-73119190D01*
X190606213Y-73159081D01*
X190687899Y-73206801D01*
X190772738Y-73283579D01*
X190772738Y-72312967D01*
X191230770Y-72312967D01*
X191230770Y-75144443D01*
X191230770Y-75144443D01*
G37*
X191230770Y-75144443D02*
X191001754Y-75144443D01*
X190868825Y-75140546D01*
X190799595Y-75124407D01*
X190774668Y-75089354D01*
X190772738Y-75065653D01*
X190768534Y-75018123D01*
X190742026Y-75009008D01*
X190672367Y-75038308D01*
X190618196Y-75065653D01*
X190410223Y-75130451D01*
X190184147Y-75134201D01*
X190000345Y-75085873D01*
X189829187Y-74969118D01*
X189698716Y-74796781D01*
X189627273Y-74593506D01*
X189625454Y-74582141D01*
X189614839Y-74458136D01*
X189609560Y-74280117D01*
X189609984Y-74145480D01*
X190064828Y-74145480D01*
X190075365Y-74324428D01*
X190099334Y-74471924D01*
X190131783Y-74555217D01*
X190254544Y-74669041D01*
X190400299Y-74709845D01*
X190550607Y-74676848D01*
X190679049Y-74578422D01*
X190727692Y-74512224D01*
X190756134Y-74433231D01*
X190769456Y-74317926D01*
X190772738Y-74144736D01*
X190766865Y-73973229D01*
X190751353Y-73822540D01*
X190729362Y-73721698D01*
X190725697Y-73712659D01*
X190637012Y-73605195D01*
X190507572Y-73546195D01*
X190362743Y-73536669D01*
X190227891Y-73577626D01*
X190128383Y-73670076D01*
X190118060Y-73688473D01*
X190085750Y-73800646D01*
X190068148Y-73961934D01*
X190064828Y-74145480D01*
X189609984Y-74145480D01*
X189610200Y-74077212D01*
X189613194Y-73968010D01*
X189633558Y-73697856D01*
X189675883Y-73495024D01*
X189746294Y-73345077D01*
X189850912Y-73233579D01*
X189952479Y-73168127D01*
X190094384Y-73122117D01*
X190270879Y-73106336D01*
X190451607Y-73119190D01*
X190606213Y-73159081D01*
X190687899Y-73206801D01*
X190772738Y-73283579D01*
X190772738Y-72312967D01*
X191230770Y-72312967D01*
X191230770Y-75144443D01*
G36*
X192993942Y-73124935D02*
X193209248Y-73770344D01*
X193424555Y-74415754D01*
X193492064Y-74186738D01*
X193532691Y-74045204D01*
X193586133Y-73853936D01*
X193643842Y-73643693D01*
X193674355Y-73530918D01*
X193789136Y-73104115D01*
X194262687Y-73104115D01*
X194121139Y-73551738D01*
X194051433Y-73771903D01*
X193967223Y-74037471D01*
X193879281Y-74314492D01*
X193800772Y-74561492D01*
X193621952Y-75123623D01*
X193428882Y-75136185D01*
X193235811Y-75148746D01*
X193131118Y-74803070D01*
X193066553Y-74588335D01*
X192996092Y-74351604D01*
X192934511Y-74142526D01*
X192932081Y-74134205D01*
X192886085Y-73992537D01*
X192845503Y-73895874D01*
X192817080Y-73859321D01*
X192811239Y-73863549D01*
X192790738Y-73920217D01*
X192751785Y-74041605D01*
X192699122Y-74212448D01*
X192637491Y-74417482D01*
X192604143Y-74530262D01*
X192423546Y-75144443D01*
X192040267Y-75144443D01*
X191733867Y-74176328D01*
X191647791Y-73904759D01*
X191569380Y-73658138D01*
X191502339Y-73448048D01*
X191450369Y-73286076D01*
X191417174Y-73183808D01*
X191407084Y-73153928D01*
X191415072Y-73123334D01*
X191477792Y-73109935D01*
X191608315Y-73111275D01*
X191628747Y-73112288D01*
X191870792Y-73124935D01*
X192029317Y-73707885D01*
X192087585Y-73920486D01*
X192139655Y-74107377D01*
X192180944Y-74252331D01*
X192206866Y-74339120D01*
X192211656Y-74353269D01*
X192231504Y-74336998D01*
X192271530Y-74252697D01*
X192327138Y-74111842D01*
X192393731Y-73925911D01*
X192450024Y-73757956D01*
X192664578Y-73100209D01*
X192993942Y-73124935D01*
X192993942Y-73124935D01*
G37*
X192993942Y-73124935D02*
X193209248Y-73770344D01*
X193424555Y-74415754D01*
X193492064Y-74186738D01*
X193532691Y-74045204D01*
X193586133Y-73853936D01*
X193643842Y-73643693D01*
X193674355Y-73530918D01*
X193789136Y-73104115D01*
X194262687Y-73104115D01*
X194121139Y-73551738D01*
X194051433Y-73771903D01*
X193967223Y-74037471D01*
X193879281Y-74314492D01*
X193800772Y-74561492D01*
X193621952Y-75123623D01*
X193428882Y-75136185D01*
X193235811Y-75148746D01*
X193131118Y-74803070D01*
X193066553Y-74588335D01*
X192996092Y-74351604D01*
X192934511Y-74142526D01*
X192932081Y-74134205D01*
X192886085Y-73992537D01*
X192845503Y-73895874D01*
X192817080Y-73859321D01*
X192811239Y-73863549D01*
X192790738Y-73920217D01*
X192751785Y-74041605D01*
X192699122Y-74212448D01*
X192637491Y-74417482D01*
X192604143Y-74530262D01*
X192423546Y-75144443D01*
X192040267Y-75144443D01*
X191733867Y-74176328D01*
X191647791Y-73904759D01*
X191569380Y-73658138D01*
X191502339Y-73448048D01*
X191450369Y-73286076D01*
X191417174Y-73183808D01*
X191407084Y-73153928D01*
X191415072Y-73123334D01*
X191477792Y-73109935D01*
X191608315Y-73111275D01*
X191628747Y-73112288D01*
X191870792Y-73124935D01*
X192029317Y-73707885D01*
X192087585Y-73920486D01*
X192139655Y-74107377D01*
X192180944Y-74252331D01*
X192206866Y-74339120D01*
X192211656Y-74353269D01*
X192231504Y-74336998D01*
X192271530Y-74252697D01*
X192327138Y-74111842D01*
X192393731Y-73925911D01*
X192450024Y-73757956D01*
X192664578Y-73100209D01*
X192993942Y-73124935D01*
G36*
X195335670Y-73116480D02*
X195511179Y-73159109D01*
X195561912Y-73181693D01*
X195660254Y-73240847D01*
X195735727Y-73307472D01*
X195791571Y-73393135D01*
X195831026Y-73509405D01*
X195857332Y-73667848D01*
X195873729Y-73880034D01*
X195883457Y-74157529D01*
X195887151Y-74342885D01*
X195900745Y-75144443D01*
X195668544Y-75144443D01*
X195527677Y-75138536D01*
X195455102Y-75118350D01*
X195436344Y-75084453D01*
X195426441Y-75047799D01*
X195382166Y-75054807D01*
X195321836Y-75084197D01*
X195170803Y-75129246D01*
X194976693Y-75141385D01*
X194772531Y-75121529D01*
X194591340Y-75070592D01*
X194575089Y-75063522D01*
X194409491Y-74947188D01*
X194300324Y-74785467D01*
X194250091Y-74596430D01*
X194253928Y-74528515D01*
X194663763Y-74528515D01*
X194699875Y-74619914D01*
X194806942Y-74685411D01*
X194979684Y-74720563D01*
X195072000Y-74725231D01*
X195225850Y-74713282D01*
X195328115Y-74666844D01*
X195353066Y-74644771D01*
X195420661Y-74524681D01*
X195436344Y-74415754D01*
X195436344Y-74270017D01*
X195233352Y-74270017D01*
X194997387Y-74282043D01*
X194831881Y-74319871D01*
X194727305Y-74386121D01*
X194703891Y-74415656D01*
X194663763Y-74528515D01*
X194253928Y-74528515D01*
X194261295Y-74398148D01*
X194336440Y-74208692D01*
X194438968Y-74080656D01*
X194501065Y-74025302D01*
X194561855Y-73988924D01*
X194640952Y-73966744D01*
X194757971Y-73953982D01*
X194932527Y-73945857D01*
X195001763Y-73943521D01*
X195436344Y-73929321D01*
X195435707Y-73797784D01*
X195418876Y-73659519D01*
X195358026Y-73575917D01*
X195235095Y-73522507D01*
X195231797Y-73521555D01*
X195057504Y-73500555D01*
X194886952Y-73527985D01*
X194760200Y-73594689D01*
X194709342Y-73627625D01*
X194654565Y-73623068D01*
X194570272Y-73575349D01*
X194520773Y-73541671D01*
X194423955Y-73469716D01*
X194363982Y-73415779D01*
X194354359Y-73400337D01*
X194393985Y-73320424D01*
X194511064Y-73224989D01*
X194561918Y-73192789D01*
X194708113Y-73137332D01*
X194905137Y-73105913D01*
X195123989Y-73098855D01*
X195335670Y-73116480D01*
X195335670Y-73116480D01*
G37*
X195335670Y-73116480D02*
X195511179Y-73159109D01*
X195561912Y-73181693D01*
X195660254Y-73240847D01*
X195735727Y-73307472D01*
X195791571Y-73393135D01*
X195831026Y-73509405D01*
X195857332Y-73667848D01*
X195873729Y-73880034D01*
X195883457Y-74157529D01*
X195887151Y-74342885D01*
X195900745Y-75144443D01*
X195668544Y-75144443D01*
X195527677Y-75138536D01*
X195455102Y-75118350D01*
X195436344Y-75084453D01*
X195426441Y-75047799D01*
X195382166Y-75054807D01*
X195321836Y-75084197D01*
X195170803Y-75129246D01*
X194976693Y-75141385D01*
X194772531Y-75121529D01*
X194591340Y-75070592D01*
X194575089Y-75063522D01*
X194409491Y-74947188D01*
X194300324Y-74785467D01*
X194250091Y-74596430D01*
X194253928Y-74528515D01*
X194663763Y-74528515D01*
X194699875Y-74619914D01*
X194806942Y-74685411D01*
X194979684Y-74720563D01*
X195072000Y-74725231D01*
X195225850Y-74713282D01*
X195328115Y-74666844D01*
X195353066Y-74644771D01*
X195420661Y-74524681D01*
X195436344Y-74415754D01*
X195436344Y-74270017D01*
X195233352Y-74270017D01*
X194997387Y-74282043D01*
X194831881Y-74319871D01*
X194727305Y-74386121D01*
X194703891Y-74415656D01*
X194663763Y-74528515D01*
X194253928Y-74528515D01*
X194261295Y-74398148D01*
X194336440Y-74208692D01*
X194438968Y-74080656D01*
X194501065Y-74025302D01*
X194561855Y-73988924D01*
X194640952Y-73966744D01*
X194757971Y-73953982D01*
X194932527Y-73945857D01*
X195001763Y-73943521D01*
X195436344Y-73929321D01*
X195435707Y-73797784D01*
X195418876Y-73659519D01*
X195358026Y-73575917D01*
X195235095Y-73522507D01*
X195231797Y-73521555D01*
X195057504Y-73500555D01*
X194886952Y-73527985D01*
X194760200Y-73594689D01*
X194709342Y-73627625D01*
X194654565Y-73623068D01*
X194570272Y-73575349D01*
X194520773Y-73541671D01*
X194423955Y-73469716D01*
X194363982Y-73415779D01*
X194354359Y-73400337D01*
X194393985Y-73320424D01*
X194511064Y-73224989D01*
X194561918Y-73192789D01*
X194708113Y-73137332D01*
X194905137Y-73105913D01*
X195123989Y-73098855D01*
X195335670Y-73116480D01*
G36*
X197312107Y-73103460D02*
X197472182Y-73135017D01*
X197563312Y-73181743D01*
X197659179Y-73259370D01*
X197522787Y-73431579D01*
X197438694Y-73535867D01*
X197381592Y-73586746D01*
X197324844Y-73594519D01*
X197241811Y-73569488D01*
X197202833Y-73555327D01*
X197043926Y-73534433D01*
X196898399Y-73579220D01*
X196791560Y-73680399D01*
X196774205Y-73712659D01*
X196755303Y-73798115D01*
X196740716Y-73955606D01*
X196731126Y-74173969D01*
X196727219Y-74442038D01*
X196727164Y-74480172D01*
X196727164Y-75144443D01*
X196269131Y-75144443D01*
X196269131Y-73104115D01*
X196498148Y-73104115D01*
X196630199Y-73107563D01*
X196698992Y-73122907D01*
X196724430Y-73157648D01*
X196727164Y-73190416D01*
X196727164Y-73276717D01*
X196836878Y-73190416D01*
X196962680Y-73131538D01*
X197131681Y-73102426D01*
X197312107Y-73103460D01*
X197312107Y-73103460D01*
G37*
X197312107Y-73103460D02*
X197472182Y-73135017D01*
X197563312Y-73181743D01*
X197659179Y-73259370D01*
X197522787Y-73431579D01*
X197438694Y-73535867D01*
X197381592Y-73586746D01*
X197324844Y-73594519D01*
X197241811Y-73569488D01*
X197202833Y-73555327D01*
X197043926Y-73534433D01*
X196898399Y-73579220D01*
X196791560Y-73680399D01*
X196774205Y-73712659D01*
X196755303Y-73798115D01*
X196740716Y-73955606D01*
X196731126Y-74173969D01*
X196727219Y-74442038D01*
X196727164Y-74480172D01*
X196727164Y-75144443D01*
X196269131Y-75144443D01*
X196269131Y-73104115D01*
X196498148Y-73104115D01*
X196630199Y-73107563D01*
X196698992Y-73122907D01*
X196724430Y-73157648D01*
X196727164Y-73190416D01*
X196727164Y-73276717D01*
X196836878Y-73190416D01*
X196962680Y-73131538D01*
X197131681Y-73102426D01*
X197312107Y-73103460D01*
G36*
X198627842Y-73114999D02*
X198826876Y-73166746D01*
X198993561Y-73273544D01*
X199074269Y-73353326D01*
X199206568Y-73541931D01*
X199282390Y-73760720D01*
X199308438Y-74029668D01*
X199308571Y-74051410D01*
X199308803Y-74270017D01*
X198050595Y-74270017D01*
X198077415Y-74384525D01*
X198125841Y-74488232D01*
X198210596Y-74596290D01*
X198228323Y-74613541D01*
X198380680Y-74706904D01*
X198554424Y-74722738D01*
X198754411Y-74661313D01*
X198788311Y-74644771D01*
X198892288Y-74594484D01*
X198961931Y-74565834D01*
X198974083Y-74563184D01*
X199016501Y-74588913D01*
X199097399Y-74651861D01*
X199138465Y-74686259D01*
X199223560Y-74765276D01*
X199251503Y-74817451D01*
X199232110Y-74865446D01*
X199221743Y-74878570D01*
X199151531Y-74936008D01*
X199035674Y-75005813D01*
X198954869Y-75046564D01*
X198725501Y-75118362D01*
X198471564Y-75141625D01*
X198231074Y-75114059D01*
X198163721Y-75094321D01*
X197955262Y-74982612D01*
X197800746Y-74810721D01*
X197699278Y-74576979D01*
X197649965Y-74279716D01*
X197644551Y-74124279D01*
X197660359Y-73897973D01*
X198059623Y-73897973D01*
X198098240Y-73914702D01*
X198202042Y-73927829D01*
X198352956Y-73935575D01*
X198455197Y-73936902D01*
X198639101Y-73935623D01*
X198755174Y-73929638D01*
X198818852Y-73915724D01*
X198845567Y-73890655D01*
X198850770Y-73854280D01*
X198815073Y-73742229D01*
X198725196Y-73631488D01*
X198606966Y-73546489D01*
X198488690Y-73511718D01*
X198328044Y-73542563D01*
X198188978Y-73631732D01*
X198092557Y-73760263D01*
X198059623Y-73897973D01*
X197660359Y-73897973D01*
X197667572Y-73794733D01*
X197738624Y-73532175D01*
X197859210Y-73334525D01*
X198030834Y-73199702D01*
X198254998Y-73125626D01*
X198376438Y-73111360D01*
X198627842Y-73114999D01*
X198627842Y-73114999D01*
G37*
X198627842Y-73114999D02*
X198826876Y-73166746D01*
X198993561Y-73273544D01*
X199074269Y-73353326D01*
X199206568Y-73541931D01*
X199282390Y-73760720D01*
X199308438Y-74029668D01*
X199308571Y-74051410D01*
X199308803Y-74270017D01*
X198050595Y-74270017D01*
X198077415Y-74384525D01*
X198125841Y-74488232D01*
X198210596Y-74596290D01*
X198228323Y-74613541D01*
X198380680Y-74706904D01*
X198554424Y-74722738D01*
X198754411Y-74661313D01*
X198788311Y-74644771D01*
X198892288Y-74594484D01*
X198961931Y-74565834D01*
X198974083Y-74563184D01*
X199016501Y-74588913D01*
X199097399Y-74651861D01*
X199138465Y-74686259D01*
X199223560Y-74765276D01*
X199251503Y-74817451D01*
X199232110Y-74865446D01*
X199221743Y-74878570D01*
X199151531Y-74936008D01*
X199035674Y-75005813D01*
X198954869Y-75046564D01*
X198725501Y-75118362D01*
X198471564Y-75141625D01*
X198231074Y-75114059D01*
X198163721Y-75094321D01*
X197955262Y-74982612D01*
X197800746Y-74810721D01*
X197699278Y-74576979D01*
X197649965Y-74279716D01*
X197644551Y-74124279D01*
X197660359Y-73897973D01*
X198059623Y-73897973D01*
X198098240Y-73914702D01*
X198202042Y-73927829D01*
X198352956Y-73935575D01*
X198455197Y-73936902D01*
X198639101Y-73935623D01*
X198755174Y-73929638D01*
X198818852Y-73915724D01*
X198845567Y-73890655D01*
X198850770Y-73854280D01*
X198815073Y-73742229D01*
X198725196Y-73631488D01*
X198606966Y-73546489D01*
X198488690Y-73511718D01*
X198328044Y-73542563D01*
X198188978Y-73631732D01*
X198092557Y-73760263D01*
X198059623Y-73897973D01*
X197660359Y-73897973D01*
X197667572Y-73794733D01*
X197738624Y-73532175D01*
X197859210Y-73334525D01*
X198030834Y-73199702D01*
X198254998Y-73125626D01*
X198376438Y-73111360D01*
X198627842Y-73114999D01*
G36*
X183491610Y-70002802D02*
X183709447Y-70099108D01*
X183874816Y-70259919D01*
X183987957Y-70485482D01*
X184049112Y-70776042D01*
X184053495Y-70821408D01*
X184056930Y-71141256D01*
X184012398Y-71421614D01*
X183922609Y-71648847D01*
X183874529Y-71721941D01*
X183707055Y-71876643D01*
X183493768Y-71976838D01*
X183255154Y-72018418D01*
X183011697Y-71997272D01*
X182826630Y-71932145D01*
X182667479Y-71822393D01*
X182537404Y-71678496D01*
X182535154Y-71675130D01*
X182482330Y-71586314D01*
X182448001Y-71497005D01*
X182427212Y-71384294D01*
X182415009Y-71225273D01*
X182409633Y-71094868D01*
X182407395Y-70976611D01*
X182823706Y-70976611D01*
X182827775Y-71094335D01*
X182842545Y-71251049D01*
X182868602Y-71351621D01*
X182915593Y-71423173D01*
X182959603Y-71464971D01*
X183115623Y-71552484D01*
X183278869Y-71564179D01*
X183430904Y-71501212D01*
X183506920Y-71430653D01*
X183561697Y-71359550D01*
X183593737Y-71291512D01*
X183607800Y-71202967D01*
X183608642Y-71070339D01*
X183604309Y-70948195D01*
X183594989Y-70773710D01*
X183580212Y-70660538D01*
X183553580Y-70586721D01*
X183508691Y-70530298D01*
X183473120Y-70498050D01*
X183324329Y-70413340D01*
X183163813Y-70409117D01*
X183029220Y-70459292D01*
X182914400Y-70564075D01*
X182845996Y-70736198D01*
X182823706Y-70976611D01*
X182407395Y-70976611D01*
X182404724Y-70835548D01*
X182413107Y-70641610D01*
X182438228Y-70495745D01*
X182483532Y-70380641D01*
X182552464Y-70278986D01*
X182578022Y-70248802D01*
X182737825Y-70098412D01*
X182909231Y-70010566D01*
X183118849Y-69973762D01*
X183221064Y-69970754D01*
X183491610Y-70002802D01*
X183491610Y-70002802D01*
G37*
X183491610Y-70002802D02*
X183709447Y-70099108D01*
X183874816Y-70259919D01*
X183987957Y-70485482D01*
X184049112Y-70776042D01*
X184053495Y-70821408D01*
X184056930Y-71141256D01*
X184012398Y-71421614D01*
X183922609Y-71648847D01*
X183874529Y-71721941D01*
X183707055Y-71876643D01*
X183493768Y-71976838D01*
X183255154Y-72018418D01*
X183011697Y-71997272D01*
X182826630Y-71932145D01*
X182667479Y-71822393D01*
X182537404Y-71678496D01*
X182535154Y-71675130D01*
X182482330Y-71586314D01*
X182448001Y-71497005D01*
X182427212Y-71384294D01*
X182415009Y-71225273D01*
X182409633Y-71094868D01*
X182407395Y-70976611D01*
X182823706Y-70976611D01*
X182827775Y-71094335D01*
X182842545Y-71251049D01*
X182868602Y-71351621D01*
X182915593Y-71423173D01*
X182959603Y-71464971D01*
X183115623Y-71552484D01*
X183278869Y-71564179D01*
X183430904Y-71501212D01*
X183506920Y-71430653D01*
X183561697Y-71359550D01*
X183593737Y-71291512D01*
X183607800Y-71202967D01*
X183608642Y-71070339D01*
X183604309Y-70948195D01*
X183594989Y-70773710D01*
X183580212Y-70660538D01*
X183553580Y-70586721D01*
X183508691Y-70530298D01*
X183473120Y-70498050D01*
X183324329Y-70413340D01*
X183163813Y-70409117D01*
X183029220Y-70459292D01*
X182914400Y-70564075D01*
X182845996Y-70736198D01*
X182823706Y-70976611D01*
X182407395Y-70976611D01*
X182404724Y-70835548D01*
X182413107Y-70641610D01*
X182438228Y-70495745D01*
X182483532Y-70380641D01*
X182552464Y-70278986D01*
X182578022Y-70248802D01*
X182737825Y-70098412D01*
X182909231Y-70010566D01*
X183118849Y-69973762D01*
X183221064Y-69970754D01*
X183491610Y-70002802D01*
G36*
X187404325Y-70027526D02*
X187445819Y-70047061D01*
X187589434Y-70152263D01*
X187725236Y-70305793D01*
X187826638Y-70474845D01*
X187855480Y-70552567D01*
X187881794Y-70691398D01*
X187897485Y-70859177D01*
X187899391Y-70928459D01*
X187899623Y-71147066D01*
X186641415Y-71147066D01*
X186668234Y-71261574D01*
X186734066Y-71397004D01*
X186849161Y-71514046D01*
X186986087Y-71589442D01*
X187073342Y-71605098D01*
X187191672Y-71586099D01*
X187332851Y-71538446D01*
X187380811Y-71516521D01*
X187558171Y-71427944D01*
X187709530Y-71543391D01*
X187796869Y-71621474D01*
X187843342Y-71685922D01*
X187845695Y-71704837D01*
X187804178Y-71750681D01*
X187713190Y-71820349D01*
X187630605Y-71874700D01*
X187407751Y-71972405D01*
X187157913Y-72016628D01*
X186910290Y-72005130D01*
X186712902Y-71945029D01*
X186509424Y-71816284D01*
X186364821Y-71646774D01*
X186274361Y-71427462D01*
X186233311Y-71149309D01*
X186229671Y-71022034D01*
X186244239Y-70730375D01*
X186246028Y-70721891D01*
X186662941Y-70721891D01*
X186674423Y-70749242D01*
X186721616Y-70764324D01*
X186818951Y-70770788D01*
X186980864Y-70772285D01*
X187043210Y-70772312D01*
X187232897Y-70770052D01*
X187353189Y-70761844D01*
X187417884Y-70745550D01*
X187440780Y-70719027D01*
X187441590Y-70710510D01*
X187415460Y-70642825D01*
X187350063Y-70548005D01*
X187321948Y-70514805D01*
X187217574Y-70420906D01*
X187108775Y-70383988D01*
X187050157Y-70380902D01*
X186891574Y-70419493D01*
X186758587Y-70523155D01*
X186674228Y-70673717D01*
X186672733Y-70678623D01*
X186662941Y-70721891D01*
X186246028Y-70721891D01*
X186292684Y-70500722D01*
X186379955Y-70316983D01*
X186486689Y-70186557D01*
X186684020Y-70045131D01*
X186915985Y-69969556D01*
X187162712Y-69962724D01*
X187404325Y-70027526D01*
X187404325Y-70027526D01*
G37*
X187404325Y-70027526D02*
X187445819Y-70047061D01*
X187589434Y-70152263D01*
X187725236Y-70305793D01*
X187826638Y-70474845D01*
X187855480Y-70552567D01*
X187881794Y-70691398D01*
X187897485Y-70859177D01*
X187899391Y-70928459D01*
X187899623Y-71147066D01*
X186641415Y-71147066D01*
X186668234Y-71261574D01*
X186734066Y-71397004D01*
X186849161Y-71514046D01*
X186986087Y-71589442D01*
X187073342Y-71605098D01*
X187191672Y-71586099D01*
X187332851Y-71538446D01*
X187380811Y-71516521D01*
X187558171Y-71427944D01*
X187709530Y-71543391D01*
X187796869Y-71621474D01*
X187843342Y-71685922D01*
X187845695Y-71704837D01*
X187804178Y-71750681D01*
X187713190Y-71820349D01*
X187630605Y-71874700D01*
X187407751Y-71972405D01*
X187157913Y-72016628D01*
X186910290Y-72005130D01*
X186712902Y-71945029D01*
X186509424Y-71816284D01*
X186364821Y-71646774D01*
X186274361Y-71427462D01*
X186233311Y-71149309D01*
X186229671Y-71022034D01*
X186244239Y-70730375D01*
X186246028Y-70721891D01*
X186662941Y-70721891D01*
X186674423Y-70749242D01*
X186721616Y-70764324D01*
X186818951Y-70770788D01*
X186980864Y-70772285D01*
X187043210Y-70772312D01*
X187232897Y-70770052D01*
X187353189Y-70761844D01*
X187417884Y-70745550D01*
X187440780Y-70719027D01*
X187441590Y-70710510D01*
X187415460Y-70642825D01*
X187350063Y-70548005D01*
X187321948Y-70514805D01*
X187217574Y-70420906D01*
X187108775Y-70383988D01*
X187050157Y-70380902D01*
X186891574Y-70419493D01*
X186758587Y-70523155D01*
X186674228Y-70673717D01*
X186672733Y-70678623D01*
X186662941Y-70721891D01*
X186246028Y-70721891D01*
X186292684Y-70500722D01*
X186379955Y-70316983D01*
X186486689Y-70186557D01*
X186684020Y-70045131D01*
X186915985Y-69969556D01*
X187162712Y-69962724D01*
X187404325Y-70027526D01*
G36*
X191943418Y-69974003D02*
X192101100Y-70003907D01*
X192264685Y-70066452D01*
X192282164Y-70074426D01*
X192406217Y-70139656D01*
X192492129Y-70200274D01*
X192519898Y-70239106D01*
X192493453Y-70302437D01*
X192429220Y-70395881D01*
X192400708Y-70430762D01*
X192283211Y-70568066D01*
X192131732Y-70478691D01*
X191987570Y-70419152D01*
X191821000Y-70387326D01*
X191661262Y-70385316D01*
X191537594Y-70415221D01*
X191507916Y-70433886D01*
X191451398Y-70519466D01*
X191444529Y-70618049D01*
X191486820Y-70695062D01*
X191511836Y-70709998D01*
X191586796Y-70728547D01*
X191718561Y-70750348D01*
X191880991Y-70771180D01*
X191910956Y-70774447D01*
X192171840Y-70819575D01*
X192361055Y-70896230D01*
X192486543Y-71011491D01*
X192556243Y-71172435D01*
X192577956Y-71369015D01*
X192547961Y-71592473D01*
X192450559Y-71767949D01*
X192285361Y-71895758D01*
X192051977Y-71976218D01*
X191792902Y-72007962D01*
X191581633Y-72007580D01*
X191410265Y-71978749D01*
X191293230Y-71938944D01*
X191145350Y-71869587D01*
X191008687Y-71789097D01*
X190960115Y-71753670D01*
X190835197Y-71651705D01*
X191136509Y-71346813D01*
X191307796Y-71460165D01*
X191479594Y-71545300D01*
X191663048Y-71589830D01*
X191839397Y-71594528D01*
X191989881Y-71560170D01*
X192095740Y-71487529D01*
X192129921Y-71426238D01*
X192124794Y-71327941D01*
X192039857Y-71252773D01*
X191875343Y-71200866D01*
X191695101Y-71176875D01*
X191417709Y-71131104D01*
X191211635Y-71044748D01*
X191074122Y-70915280D01*
X191002413Y-70740172D01*
X190992479Y-70532565D01*
X191041548Y-70315714D01*
X191153420Y-70151805D01*
X191329097Y-70040088D01*
X191569581Y-69979814D01*
X191747743Y-69967999D01*
X191943418Y-69974003D01*
X191943418Y-69974003D01*
G37*
X191943418Y-69974003D02*
X192101100Y-70003907D01*
X192264685Y-70066452D01*
X192282164Y-70074426D01*
X192406217Y-70139656D01*
X192492129Y-70200274D01*
X192519898Y-70239106D01*
X192493453Y-70302437D01*
X192429220Y-70395881D01*
X192400708Y-70430762D01*
X192283211Y-70568066D01*
X192131732Y-70478691D01*
X191987570Y-70419152D01*
X191821000Y-70387326D01*
X191661262Y-70385316D01*
X191537594Y-70415221D01*
X191507916Y-70433886D01*
X191451398Y-70519466D01*
X191444529Y-70618049D01*
X191486820Y-70695062D01*
X191511836Y-70709998D01*
X191586796Y-70728547D01*
X191718561Y-70750348D01*
X191880991Y-70771180D01*
X191910956Y-70774447D01*
X192171840Y-70819575D01*
X192361055Y-70896230D01*
X192486543Y-71011491D01*
X192556243Y-71172435D01*
X192577956Y-71369015D01*
X192547961Y-71592473D01*
X192450559Y-71767949D01*
X192285361Y-71895758D01*
X192051977Y-71976218D01*
X191792902Y-72007962D01*
X191581633Y-72007580D01*
X191410265Y-71978749D01*
X191293230Y-71938944D01*
X191145350Y-71869587D01*
X191008687Y-71789097D01*
X190960115Y-71753670D01*
X190835197Y-71651705D01*
X191136509Y-71346813D01*
X191307796Y-71460165D01*
X191479594Y-71545300D01*
X191663048Y-71589830D01*
X191839397Y-71594528D01*
X191989881Y-71560170D01*
X192095740Y-71487529D01*
X192129921Y-71426238D01*
X192124794Y-71327941D01*
X192039857Y-71252773D01*
X191875343Y-71200866D01*
X191695101Y-71176875D01*
X191417709Y-71131104D01*
X191211635Y-71044748D01*
X191074122Y-70915280D01*
X191002413Y-70740172D01*
X190992479Y-70532565D01*
X191041548Y-70315714D01*
X191153420Y-70151805D01*
X191329097Y-70040088D01*
X191569581Y-69979814D01*
X191747743Y-69967999D01*
X191943418Y-69974003D01*
G36*
X193919521Y-70005805D02*
X194130136Y-70120505D01*
X194294915Y-70301574D01*
X194372554Y-70448838D01*
X194405886Y-70578907D01*
X194427483Y-70764333D01*
X194436739Y-70977939D01*
X194433045Y-71192550D01*
X194415794Y-71380991D01*
X194395643Y-71481637D01*
X194327667Y-71619323D01*
X194209942Y-71765566D01*
X194068065Y-71893452D01*
X193927632Y-71976063D01*
X193924207Y-71977373D01*
X193749945Y-72013472D01*
X193543427Y-72014365D01*
X193347174Y-71981501D01*
X193271396Y-71955161D01*
X193076221Y-71844484D01*
X192936438Y-71699478D01*
X192844599Y-71507503D01*
X192793254Y-71255920D01*
X192781637Y-71124142D01*
X192783119Y-70958553D01*
X193229459Y-70958553D01*
X193244494Y-71200177D01*
X193287772Y-71384303D01*
X193356551Y-71501949D01*
X193405550Y-71535590D01*
X193531093Y-71559050D01*
X193680318Y-71552104D01*
X193809333Y-71518345D01*
X193843166Y-71499772D01*
X193932428Y-71391599D01*
X193991345Y-71226051D01*
X194016424Y-71024581D01*
X194004174Y-70808646D01*
X193976796Y-70678690D01*
X193898191Y-70528191D01*
X193774104Y-70434114D01*
X193624661Y-70401587D01*
X193469987Y-70435738D01*
X193351174Y-70519273D01*
X193288735Y-70588193D01*
X193252293Y-70656126D01*
X193234923Y-70748064D01*
X193229699Y-70888999D01*
X193229459Y-70958553D01*
X192783119Y-70958553D01*
X192784785Y-70772495D01*
X192842056Y-70484134D01*
X192953457Y-70259049D01*
X193118993Y-70097230D01*
X193338670Y-69998666D01*
X193385842Y-69987236D01*
X193669336Y-69960406D01*
X193919521Y-70005805D01*
X193919521Y-70005805D01*
G37*
X193919521Y-70005805D02*
X194130136Y-70120505D01*
X194294915Y-70301574D01*
X194372554Y-70448838D01*
X194405886Y-70578907D01*
X194427483Y-70764333D01*
X194436739Y-70977939D01*
X194433045Y-71192550D01*
X194415794Y-71380991D01*
X194395643Y-71481637D01*
X194327667Y-71619323D01*
X194209942Y-71765566D01*
X194068065Y-71893452D01*
X193927632Y-71976063D01*
X193924207Y-71977373D01*
X193749945Y-72013472D01*
X193543427Y-72014365D01*
X193347174Y-71981501D01*
X193271396Y-71955161D01*
X193076221Y-71844484D01*
X192936438Y-71699478D01*
X192844599Y-71507503D01*
X192793254Y-71255920D01*
X192781637Y-71124142D01*
X192783119Y-70958553D01*
X193229459Y-70958553D01*
X193244494Y-71200177D01*
X193287772Y-71384303D01*
X193356551Y-71501949D01*
X193405550Y-71535590D01*
X193531093Y-71559050D01*
X193680318Y-71552104D01*
X193809333Y-71518345D01*
X193843166Y-71499772D01*
X193932428Y-71391599D01*
X193991345Y-71226051D01*
X194016424Y-71024581D01*
X194004174Y-70808646D01*
X193976796Y-70678690D01*
X193898191Y-70528191D01*
X193774104Y-70434114D01*
X193624661Y-70401587D01*
X193469987Y-70435738D01*
X193351174Y-70519273D01*
X193288735Y-70588193D01*
X193252293Y-70656126D01*
X193234923Y-70748064D01*
X193229699Y-70888999D01*
X193229459Y-70958553D01*
X192783119Y-70958553D01*
X192784785Y-70772495D01*
X192842056Y-70484134D01*
X192953457Y-70259049D01*
X193118993Y-70097230D01*
X193338670Y-69998666D01*
X193385842Y-69987236D01*
X193669336Y-69960406D01*
X193919521Y-70005805D01*
G36*
X195186508Y-70629311D02*
X195190444Y-70934698D01*
X195204823Y-71166660D01*
X195233504Y-71334786D01*
X195280348Y-71448671D01*
X195349211Y-71517905D01*
X195443954Y-71552080D01*
X195561262Y-71560811D01*
X195684123Y-71551028D01*
X195777444Y-71515287D01*
X195845084Y-71443995D01*
X195890901Y-71327561D01*
X195918755Y-71156391D01*
X195932504Y-70920896D01*
X195936016Y-70629311D01*
X195936016Y-69981164D01*
X196394049Y-69981164D01*
X196394049Y-71979853D01*
X196165033Y-71979853D01*
X196026971Y-71974258D01*
X195955878Y-71954611D01*
X195936016Y-71917313D01*
X195924054Y-71884094D01*
X195876447Y-71891121D01*
X195780485Y-71938132D01*
X195560548Y-72010654D01*
X195327274Y-72005516D01*
X195103755Y-71926766D01*
X194997313Y-71864558D01*
X194916122Y-71797204D01*
X194856808Y-71712928D01*
X194815996Y-71599957D01*
X194790312Y-71446515D01*
X194776381Y-71240827D01*
X194770829Y-70971118D01*
X194770115Y-70762551D01*
X194770115Y-69981164D01*
X195186508Y-69981164D01*
X195186508Y-70629311D01*
X195186508Y-70629311D01*
G37*
X195186508Y-70629311D02*
X195190444Y-70934698D01*
X195204823Y-71166660D01*
X195233504Y-71334786D01*
X195280348Y-71448671D01*
X195349211Y-71517905D01*
X195443954Y-71552080D01*
X195561262Y-71560811D01*
X195684123Y-71551028D01*
X195777444Y-71515287D01*
X195845084Y-71443995D01*
X195890901Y-71327561D01*
X195918755Y-71156391D01*
X195932504Y-70920896D01*
X195936016Y-70629311D01*
X195936016Y-69981164D01*
X196394049Y-69981164D01*
X196394049Y-71979853D01*
X196165033Y-71979853D01*
X196026971Y-71974258D01*
X195955878Y-71954611D01*
X195936016Y-71917313D01*
X195924054Y-71884094D01*
X195876447Y-71891121D01*
X195780485Y-71938132D01*
X195560548Y-72010654D01*
X195327274Y-72005516D01*
X195103755Y-71926766D01*
X194997313Y-71864558D01*
X194916122Y-71797204D01*
X194856808Y-71712928D01*
X194815996Y-71599957D01*
X194790312Y-71446515D01*
X194776381Y-71240827D01*
X194770829Y-70971118D01*
X194770115Y-70762551D01*
X194770115Y-69981164D01*
X195186508Y-69981164D01*
X195186508Y-70629311D01*
G36*
X199239288Y-69998602D02*
X199480543Y-70101090D01*
X199556531Y-70150981D01*
X199653648Y-70227651D01*
X199714612Y-70287936D01*
X199725197Y-70307571D01*
X199695308Y-70351142D01*
X199618819Y-70425077D01*
X199557582Y-70476679D01*
X199389967Y-70611378D01*
X199257614Y-70500010D01*
X199155336Y-70428113D01*
X199055610Y-70403296D01*
X198941475Y-70409357D01*
X198760234Y-70454418D01*
X198635475Y-70547949D01*
X198559658Y-70699154D01*
X198525240Y-70917236D01*
X198525231Y-70917373D01*
X198528208Y-71161124D01*
X198574467Y-71339966D01*
X198666742Y-71461730D01*
X198729650Y-71502964D01*
X198896717Y-71554311D01*
X199075162Y-71554342D01*
X199230415Y-71504522D01*
X199267164Y-71480180D01*
X199359330Y-71418004D01*
X199431387Y-71407813D01*
X199509102Y-71454092D01*
X199595018Y-71537212D01*
X199731011Y-71677521D01*
X199580023Y-71801978D01*
X199346740Y-71942443D01*
X199083673Y-72011666D01*
X198808760Y-72006653D01*
X198628216Y-71960755D01*
X198417194Y-71847249D01*
X198248426Y-71668685D01*
X198171753Y-71542639D01*
X198109654Y-71361791D01*
X198078581Y-71132745D01*
X198078342Y-70884510D01*
X198108743Y-70646093D01*
X198169592Y-70446503D01*
X198179176Y-70426039D01*
X198321102Y-70225341D01*
X198513259Y-70079217D01*
X198740464Y-69990698D01*
X198987535Y-69962815D01*
X199239288Y-69998602D01*
X199239288Y-69998602D01*
G37*
X199239288Y-69998602D02*
X199480543Y-70101090D01*
X199556531Y-70150981D01*
X199653648Y-70227651D01*
X199714612Y-70287936D01*
X199725197Y-70307571D01*
X199695308Y-70351142D01*
X199618819Y-70425077D01*
X199557582Y-70476679D01*
X199389967Y-70611378D01*
X199257614Y-70500010D01*
X199155336Y-70428113D01*
X199055610Y-70403296D01*
X198941475Y-70409357D01*
X198760234Y-70454418D01*
X198635475Y-70547949D01*
X198559658Y-70699154D01*
X198525240Y-70917236D01*
X198525231Y-70917373D01*
X198528208Y-71161124D01*
X198574467Y-71339966D01*
X198666742Y-71461730D01*
X198729650Y-71502964D01*
X198896717Y-71554311D01*
X199075162Y-71554342D01*
X199230415Y-71504522D01*
X199267164Y-71480180D01*
X199359330Y-71418004D01*
X199431387Y-71407813D01*
X199509102Y-71454092D01*
X199595018Y-71537212D01*
X199731011Y-71677521D01*
X199580023Y-71801978D01*
X199346740Y-71942443D01*
X199083673Y-72011666D01*
X198808760Y-72006653D01*
X198628216Y-71960755D01*
X198417194Y-71847249D01*
X198248426Y-71668685D01*
X198171753Y-71542639D01*
X198109654Y-71361791D01*
X198078581Y-71132745D01*
X198078342Y-70884510D01*
X198108743Y-70646093D01*
X198169592Y-70446503D01*
X198179176Y-70426039D01*
X198321102Y-70225341D01*
X198513259Y-70079217D01*
X198740464Y-69990698D01*
X198987535Y-69962815D01*
X199239288Y-69998602D01*
G36*
X200764792Y-69974019D02*
X200871414Y-69999922D01*
X201075830Y-70094772D01*
X201250625Y-70239633D01*
X201371597Y-70413320D01*
X201388217Y-70452317D01*
X201411016Y-70554465D01*
X201426975Y-70705573D01*
X201432410Y-70858301D01*
X201432410Y-71147066D01*
X200828639Y-71147066D01*
X200579619Y-71148007D01*
X200404189Y-71153723D01*
X200292665Y-71168550D01*
X200235360Y-71196827D01*
X200222588Y-71242890D01*
X200244662Y-71311077D01*
X200284205Y-71390863D01*
X200394509Y-71524017D01*
X200547792Y-71590355D01*
X200735141Y-71588194D01*
X200947363Y-71515991D01*
X201130773Y-71426883D01*
X201282962Y-71547220D01*
X201435151Y-71667558D01*
X201291974Y-71799843D01*
X201100828Y-71924832D01*
X200865753Y-72000189D01*
X200612898Y-72021278D01*
X200368413Y-71983460D01*
X200328967Y-71970628D01*
X200114090Y-71858414D01*
X199954250Y-71691118D01*
X199846080Y-71463748D01*
X199786210Y-71171308D01*
X199785513Y-71165040D01*
X199780152Y-70846332D01*
X199801823Y-70732632D01*
X200224869Y-70732632D01*
X200263722Y-70750116D01*
X200369205Y-70763508D01*
X200524707Y-70771155D01*
X200623249Y-70772312D01*
X200807013Y-70771588D01*
X200921914Y-70766983D01*
X200982366Y-70754848D01*
X201002783Y-70731530D01*
X200997581Y-70693382D01*
X200993217Y-70678623D01*
X200918724Y-70539944D01*
X200801566Y-70428179D01*
X200698173Y-70379066D01*
X200560816Y-70382032D01*
X200421629Y-70443278D01*
X200304874Y-70544683D01*
X200234810Y-70668122D01*
X200224869Y-70732632D01*
X199801823Y-70732632D01*
X199833579Y-70566020D01*
X199939572Y-70330780D01*
X200091911Y-70147284D01*
X200284374Y-70022209D01*
X200510742Y-69962229D01*
X200764792Y-69974019D01*
X200764792Y-69974019D01*
G37*
X200764792Y-69974019D02*
X200871414Y-69999922D01*
X201075830Y-70094772D01*
X201250625Y-70239633D01*
X201371597Y-70413320D01*
X201388217Y-70452317D01*
X201411016Y-70554465D01*
X201426975Y-70705573D01*
X201432410Y-70858301D01*
X201432410Y-71147066D01*
X200828639Y-71147066D01*
X200579619Y-71148007D01*
X200404189Y-71153723D01*
X200292665Y-71168550D01*
X200235360Y-71196827D01*
X200222588Y-71242890D01*
X200244662Y-71311077D01*
X200284205Y-71390863D01*
X200394509Y-71524017D01*
X200547792Y-71590355D01*
X200735141Y-71588194D01*
X200947363Y-71515991D01*
X201130773Y-71426883D01*
X201282962Y-71547220D01*
X201435151Y-71667558D01*
X201291974Y-71799843D01*
X201100828Y-71924832D01*
X200865753Y-72000189D01*
X200612898Y-72021278D01*
X200368413Y-71983460D01*
X200328967Y-71970628D01*
X200114090Y-71858414D01*
X199954250Y-71691118D01*
X199846080Y-71463748D01*
X199786210Y-71171308D01*
X199785513Y-71165040D01*
X199780152Y-70846332D01*
X199801823Y-70732632D01*
X200224869Y-70732632D01*
X200263722Y-70750116D01*
X200369205Y-70763508D01*
X200524707Y-70771155D01*
X200623249Y-70772312D01*
X200807013Y-70771588D01*
X200921914Y-70766983D01*
X200982366Y-70754848D01*
X201002783Y-70731530D01*
X200997581Y-70693382D01*
X200993217Y-70678623D01*
X200918724Y-70539944D01*
X200801566Y-70428179D01*
X200698173Y-70379066D01*
X200560816Y-70382032D01*
X200421629Y-70443278D01*
X200304874Y-70544683D01*
X200234810Y-70668122D01*
X200224869Y-70732632D01*
X199801823Y-70732632D01*
X199833579Y-70566020D01*
X199939572Y-70330780D01*
X200091911Y-70147284D01*
X200284374Y-70022209D01*
X200510742Y-69962229D01*
X200764792Y-69974019D01*
G36*
X189400108Y-70015563D02*
X189503740Y-70065062D01*
X189604106Y-70136561D01*
X189680568Y-70218853D01*
X189736262Y-70323811D01*
X189774323Y-70463313D01*
X189797885Y-70649233D01*
X189810085Y-70893448D01*
X189814056Y-71207833D01*
X189814118Y-71240754D01*
X189815033Y-71979853D01*
X189357000Y-71979853D01*
X189357000Y-71298481D01*
X189356674Y-71046050D01*
X189354419Y-70863093D01*
X189348319Y-70735807D01*
X189336459Y-70650386D01*
X189316924Y-70593026D01*
X189287797Y-70549924D01*
X189247224Y-70507334D01*
X189105269Y-70415824D01*
X188950306Y-70398843D01*
X188802677Y-70456701D01*
X188751337Y-70499763D01*
X188713647Y-70540249D01*
X188686587Y-70583607D01*
X188668397Y-70643463D01*
X188657316Y-70733441D01*
X188651586Y-70867168D01*
X188649444Y-71058270D01*
X188649131Y-71290911D01*
X188649131Y-71979853D01*
X188191098Y-71979853D01*
X188191098Y-69981164D01*
X188420115Y-69981164D01*
X188557614Y-69986602D01*
X188628553Y-70005909D01*
X188649122Y-70043576D01*
X188649131Y-70044692D01*
X188658675Y-70081581D01*
X188700767Y-70077395D01*
X188784459Y-70036861D01*
X188974273Y-69977224D01*
X189191401Y-69970591D01*
X189400108Y-70015563D01*
X189400108Y-70015563D01*
G37*
X189400108Y-70015563D02*
X189503740Y-70065062D01*
X189604106Y-70136561D01*
X189680568Y-70218853D01*
X189736262Y-70323811D01*
X189774323Y-70463313D01*
X189797885Y-70649233D01*
X189810085Y-70893448D01*
X189814056Y-71207833D01*
X189814118Y-71240754D01*
X189815033Y-71979853D01*
X189357000Y-71979853D01*
X189357000Y-71298481D01*
X189356674Y-71046050D01*
X189354419Y-70863093D01*
X189348319Y-70735807D01*
X189336459Y-70650386D01*
X189316924Y-70593026D01*
X189287797Y-70549924D01*
X189247224Y-70507334D01*
X189105269Y-70415824D01*
X188950306Y-70398843D01*
X188802677Y-70456701D01*
X188751337Y-70499763D01*
X188713647Y-70540249D01*
X188686587Y-70583607D01*
X188668397Y-70643463D01*
X188657316Y-70733441D01*
X188651586Y-70867168D01*
X188649444Y-71058270D01*
X188649131Y-71290911D01*
X188649131Y-71979853D01*
X188191098Y-71979853D01*
X188191098Y-69981164D01*
X188420115Y-69981164D01*
X188557614Y-69986602D01*
X188628553Y-70005909D01*
X188649122Y-70043576D01*
X188649131Y-70044692D01*
X188658675Y-70081581D01*
X188700767Y-70077395D01*
X188784459Y-70036861D01*
X188974273Y-69977224D01*
X189191401Y-69970591D01*
X189400108Y-70015563D01*
G36*
X197855869Y-69979231D02*
X197999092Y-70022989D01*
X198091306Y-70078280D01*
X198121344Y-70122004D01*
X198113076Y-70173834D01*
X198059427Y-70255259D01*
X198014063Y-70312927D01*
X197920546Y-70417182D01*
X197850287Y-70461045D01*
X197790393Y-70458182D01*
X197612720Y-70412967D01*
X197482234Y-70415020D01*
X197376273Y-70466261D01*
X197340700Y-70496252D01*
X197226836Y-70601778D01*
X197226836Y-71979853D01*
X196768803Y-71979853D01*
X196768803Y-69981164D01*
X196997820Y-69981164D01*
X197135318Y-69986602D01*
X197206258Y-70005909D01*
X197226827Y-70043576D01*
X197226836Y-70044692D01*
X197236550Y-70084146D01*
X197280478Y-70079000D01*
X197341344Y-70050536D01*
X197467054Y-69997569D01*
X197569134Y-69965703D01*
X197700480Y-69957533D01*
X197855869Y-69979231D01*
X197855869Y-69979231D01*
G37*
X197855869Y-69979231D02*
X197999092Y-70022989D01*
X198091306Y-70078280D01*
X198121344Y-70122004D01*
X198113076Y-70173834D01*
X198059427Y-70255259D01*
X198014063Y-70312927D01*
X197920546Y-70417182D01*
X197850287Y-70461045D01*
X197790393Y-70458182D01*
X197612720Y-70412967D01*
X197482234Y-70415020D01*
X197376273Y-70466261D01*
X197340700Y-70496252D01*
X197226836Y-70601778D01*
X197226836Y-71979853D01*
X196768803Y-71979853D01*
X196768803Y-69981164D01*
X196997820Y-69981164D01*
X197135318Y-69986602D01*
X197206258Y-70005909D01*
X197226827Y-70043576D01*
X197226836Y-70044692D01*
X197236550Y-70084146D01*
X197280478Y-70079000D01*
X197341344Y-70050536D01*
X197467054Y-69997569D01*
X197569134Y-69965703D01*
X197700480Y-69957533D01*
X197855869Y-69979231D01*
G36*
X193145305Y-56176960D02*
X193333557Y-57175542D01*
X194028183Y-57461889D01*
X194722808Y-57748237D01*
X195556128Y-57181586D01*
X195789501Y-57023811D01*
X196000457Y-56882939D01*
X196179153Y-56765401D01*
X196315744Y-56677629D01*
X196400386Y-56626055D01*
X196423437Y-56614935D01*
X196464963Y-56643535D01*
X196553698Y-56722604D01*
X196679697Y-56842041D01*
X196833014Y-56991744D01*
X197003702Y-57161615D01*
X197181814Y-57341551D01*
X197357406Y-57521454D01*
X197520530Y-57691222D01*
X197661241Y-57840754D01*
X197769592Y-57959952D01*
X197835637Y-58038713D01*
X197851426Y-58065072D01*
X197828703Y-58113666D01*
X197764999Y-58220126D01*
X197667013Y-58374039D01*
X197541441Y-58564991D01*
X197394982Y-58782569D01*
X197310115Y-58906671D01*
X197155426Y-59133279D01*
X197017970Y-59337770D01*
X196904414Y-59509965D01*
X196821428Y-59639685D01*
X196775678Y-59716751D01*
X196768803Y-59732947D01*
X196784388Y-59778975D01*
X196826868Y-59886250D01*
X196889835Y-60039687D01*
X196966879Y-60224206D01*
X197051590Y-60424721D01*
X197137558Y-60626152D01*
X197218373Y-60813415D01*
X197287627Y-60971428D01*
X197338908Y-61085107D01*
X197365809Y-61139370D01*
X197367396Y-61141506D01*
X197409635Y-61151867D01*
X197522126Y-61174982D01*
X197693209Y-61208579D01*
X197911223Y-61250385D01*
X198164509Y-61298127D01*
X198312288Y-61325659D01*
X198582938Y-61377190D01*
X198827397Y-61426225D01*
X199033300Y-61470081D01*
X199188277Y-61506074D01*
X199279962Y-61531521D01*
X199298393Y-61539595D01*
X199316445Y-61594242D01*
X199331010Y-61717662D01*
X199342098Y-61895423D01*
X199349719Y-62113091D01*
X199353884Y-62356235D01*
X199354602Y-62610423D01*
X199351882Y-62861220D01*
X199345735Y-63094196D01*
X199336171Y-63294918D01*
X199323199Y-63448954D01*
X199306829Y-63541870D01*
X199297011Y-63561213D01*
X199238323Y-63584398D01*
X199113966Y-63617544D01*
X198940390Y-63656758D01*
X198734042Y-63698145D01*
X198662011Y-63711534D01*
X198314719Y-63775147D01*
X198040383Y-63826378D01*
X197829939Y-63867261D01*
X197674322Y-63899834D01*
X197564467Y-63926132D01*
X197491311Y-63948192D01*
X197445787Y-63968049D01*
X197418833Y-63987741D01*
X197415061Y-63991632D01*
X197377415Y-64054324D01*
X197319986Y-64176331D01*
X197248508Y-64342712D01*
X197168715Y-64538529D01*
X197086343Y-64748840D01*
X197007125Y-64958708D01*
X196936796Y-65153191D01*
X196881089Y-65317350D01*
X196845741Y-65436245D01*
X196836484Y-65494936D01*
X196837256Y-65496992D01*
X196868620Y-65544964D01*
X196939774Y-65650516D01*
X197043240Y-65802660D01*
X197171540Y-65990410D01*
X197317199Y-66202780D01*
X197358680Y-66263130D01*
X197506587Y-66481929D01*
X197636739Y-66681562D01*
X197742045Y-66850565D01*
X197815416Y-66977475D01*
X197849763Y-67050829D01*
X197851426Y-67059841D01*
X197822569Y-67107207D01*
X197742831Y-67201042D01*
X197622462Y-67331261D01*
X197471713Y-67487779D01*
X197300836Y-67660510D01*
X197120079Y-67839371D01*
X196939694Y-68014276D01*
X196769932Y-68175140D01*
X196621042Y-68311878D01*
X196503276Y-68414407D01*
X196426883Y-68472640D01*
X196405750Y-68482148D01*
X196356560Y-68459754D01*
X196255847Y-68399356D01*
X196120017Y-68311129D01*
X196015510Y-68240115D01*
X195826149Y-68109811D01*
X195601899Y-67956384D01*
X195376964Y-67803201D01*
X195256032Y-67721218D01*
X194846704Y-67444353D01*
X194503102Y-67630136D01*
X194346565Y-67711523D01*
X194213454Y-67774784D01*
X194123389Y-67810865D01*
X194100463Y-67815885D01*
X194072895Y-67778817D01*
X194018508Y-67674069D01*
X193941363Y-67511303D01*
X193845518Y-67300181D01*
X193735034Y-67050365D01*
X193613971Y-66771517D01*
X193486389Y-66473299D01*
X193356347Y-66165374D01*
X193227906Y-65857404D01*
X193105126Y-65559050D01*
X192992067Y-65279975D01*
X192892788Y-65029841D01*
X192811349Y-64818310D01*
X192751811Y-64655043D01*
X192718234Y-64549705D01*
X192712834Y-64513527D01*
X192755634Y-64467381D01*
X192849344Y-64392472D01*
X192974373Y-64304364D01*
X192984867Y-64297394D01*
X193308020Y-64038721D01*
X193568587Y-63736938D01*
X193764310Y-63401695D01*
X193892932Y-63042642D01*
X193952195Y-62669426D01*
X193939839Y-62291700D01*
X193853607Y-61919111D01*
X193691241Y-61561310D01*
X193643472Y-61483027D01*
X193395009Y-61166919D01*
X193101481Y-60913079D01*
X192773047Y-60722827D01*
X192419865Y-60597485D01*
X192052095Y-60538372D01*
X191679897Y-60546807D01*
X191313429Y-60624112D01*
X190962851Y-60771606D01*
X190638323Y-60990610D01*
X190537936Y-61079498D01*
X190282449Y-61357744D01*
X190096278Y-61650656D01*
X189968570Y-61978986D01*
X189897444Y-62304133D01*
X189879886Y-62669702D01*
X189938434Y-63037086D01*
X190067142Y-63393866D01*
X190260062Y-63727626D01*
X190511248Y-64025947D01*
X190814752Y-64276411D01*
X190854640Y-64302813D01*
X190981009Y-64389272D01*
X191077073Y-64464184D01*
X191123000Y-64512015D01*
X191123668Y-64513527D01*
X191113808Y-64565267D01*
X191074722Y-64682696D01*
X191010472Y-64856154D01*
X190925120Y-65075979D01*
X190822727Y-65332513D01*
X190707354Y-65616096D01*
X190583063Y-65917067D01*
X190453916Y-66225767D01*
X190323974Y-66532536D01*
X190197298Y-66827714D01*
X190077951Y-67101640D01*
X189969994Y-67344656D01*
X189877488Y-67547101D01*
X189804496Y-67699315D01*
X189755077Y-67791638D01*
X189735177Y-67815885D01*
X189674366Y-67797004D01*
X189560582Y-67746364D01*
X189413445Y-67673017D01*
X189332538Y-67630136D01*
X188988935Y-67444353D01*
X188579607Y-67721218D01*
X188370654Y-67863054D01*
X188141887Y-68019141D01*
X187927509Y-68166109D01*
X187820129Y-68240115D01*
X187669102Y-68341531D01*
X187541218Y-68421898D01*
X187453158Y-68471041D01*
X187424555Y-68481429D01*
X187382924Y-68453405D01*
X187290789Y-68375172D01*
X187157082Y-68254852D01*
X186990735Y-68100568D01*
X186800680Y-67920443D01*
X186680479Y-67804790D01*
X186470185Y-67598167D01*
X186288444Y-67413358D01*
X186142603Y-67258270D01*
X186040009Y-67140807D01*
X185988009Y-67068875D01*
X185983020Y-67054278D01*
X186006171Y-66998753D01*
X186070146Y-66886484D01*
X186167847Y-66728837D01*
X186292180Y-66537179D01*
X186436046Y-66322876D01*
X186476959Y-66263130D01*
X186626033Y-66045982D01*
X186759775Y-65850475D01*
X186870709Y-65687599D01*
X186951356Y-65568337D01*
X186994241Y-65503678D01*
X186998383Y-65496992D01*
X186992188Y-65445462D01*
X186959300Y-65332166D01*
X186905455Y-65172042D01*
X186836387Y-64980032D01*
X186757831Y-64771074D01*
X186675520Y-64560109D01*
X186595189Y-64362076D01*
X186522572Y-64191916D01*
X186463405Y-64064567D01*
X186423420Y-63994971D01*
X186420578Y-63991632D01*
X186396127Y-63971742D01*
X186354831Y-63952073D01*
X186287623Y-63930589D01*
X186185441Y-63905253D01*
X186039219Y-63874029D01*
X185839893Y-63834882D01*
X185578397Y-63785775D01*
X185245669Y-63724672D01*
X185173628Y-63711534D01*
X184960115Y-63670282D01*
X184773978Y-63629926D01*
X184631666Y-63594361D01*
X184549629Y-63567480D01*
X184538628Y-63561213D01*
X184520502Y-63505654D01*
X184505767Y-63381495D01*
X184494436Y-63203169D01*
X184486516Y-62985109D01*
X184482019Y-62741746D01*
X184480954Y-62487514D01*
X184483330Y-62236845D01*
X184489159Y-62004171D01*
X184498449Y-61803924D01*
X184511211Y-61650538D01*
X184527454Y-61558444D01*
X184537246Y-61539595D01*
X184591761Y-61520582D01*
X184715896Y-61489650D01*
X184897285Y-61449482D01*
X185123560Y-61402762D01*
X185382353Y-61352173D01*
X185523351Y-61325659D01*
X185790873Y-61275650D01*
X186029438Y-61230346D01*
X186227386Y-61192021D01*
X186373057Y-61162947D01*
X186454791Y-61145397D01*
X186468243Y-61141506D01*
X186490979Y-61097638D01*
X186539040Y-60991976D01*
X186606019Y-60839613D01*
X186685510Y-60655646D01*
X186771108Y-60455170D01*
X186856405Y-60253281D01*
X186934995Y-60065073D01*
X187000473Y-59905642D01*
X187046431Y-59790084D01*
X187066463Y-59733494D01*
X187066836Y-59731021D01*
X187044126Y-59686379D01*
X186980459Y-59583647D01*
X186882525Y-59433037D01*
X186757017Y-59244757D01*
X186610626Y-59029018D01*
X186525525Y-58905098D01*
X186370455Y-58677883D01*
X186232725Y-58471595D01*
X186119053Y-58296671D01*
X186036161Y-58163545D01*
X185990769Y-58082653D01*
X185984213Y-58064520D01*
X186012395Y-58022312D01*
X186090304Y-57932191D01*
X186207990Y-57804254D01*
X186355500Y-57648596D01*
X186522881Y-57475315D01*
X186700181Y-57294507D01*
X186877448Y-57116267D01*
X187044730Y-56950693D01*
X187192075Y-56807880D01*
X187309530Y-56697925D01*
X187387143Y-56630924D01*
X187413108Y-56614935D01*
X187455384Y-56637419D01*
X187556501Y-56700585D01*
X187706627Y-56798003D01*
X187895930Y-56923243D01*
X188114579Y-57069875D01*
X188279511Y-57181586D01*
X189112831Y-57748237D01*
X189807456Y-57461889D01*
X190502082Y-57175542D01*
X190690334Y-56176960D01*
X190878587Y-55178377D01*
X192957052Y-55178377D01*
X193145305Y-56176960D01*
X193145305Y-56176960D01*
G37*
X193145305Y-56176960D02*
X193333557Y-57175542D01*
X194028183Y-57461889D01*
X194722808Y-57748237D01*
X195556128Y-57181586D01*
X195789501Y-57023811D01*
X196000457Y-56882939D01*
X196179153Y-56765401D01*
X196315744Y-56677629D01*
X196400386Y-56626055D01*
X196423437Y-56614935D01*
X196464963Y-56643535D01*
X196553698Y-56722604D01*
X196679697Y-56842041D01*
X196833014Y-56991744D01*
X197003702Y-57161615D01*
X197181814Y-57341551D01*
X197357406Y-57521454D01*
X197520530Y-57691222D01*
X197661241Y-57840754D01*
X197769592Y-57959952D01*
X197835637Y-58038713D01*
X197851426Y-58065072D01*
X197828703Y-58113666D01*
X197764999Y-58220126D01*
X197667013Y-58374039D01*
X197541441Y-58564991D01*
X197394982Y-58782569D01*
X197310115Y-58906671D01*
X197155426Y-59133279D01*
X197017970Y-59337770D01*
X196904414Y-59509965D01*
X196821428Y-59639685D01*
X196775678Y-59716751D01*
X196768803Y-59732947D01*
X196784388Y-59778975D01*
X196826868Y-59886250D01*
X196889835Y-60039687D01*
X196966879Y-60224206D01*
X197051590Y-60424721D01*
X197137558Y-60626152D01*
X197218373Y-60813415D01*
X197287627Y-60971428D01*
X197338908Y-61085107D01*
X197365809Y-61139370D01*
X197367396Y-61141506D01*
X197409635Y-61151867D01*
X197522126Y-61174982D01*
X197693209Y-61208579D01*
X197911223Y-61250385D01*
X198164509Y-61298127D01*
X198312288Y-61325659D01*
X198582938Y-61377190D01*
X198827397Y-61426225D01*
X199033300Y-61470081D01*
X199188277Y-61506074D01*
X199279962Y-61531521D01*
X199298393Y-61539595D01*
X199316445Y-61594242D01*
X199331010Y-61717662D01*
X199342098Y-61895423D01*
X199349719Y-62113091D01*
X199353884Y-62356235D01*
X199354602Y-62610423D01*
X199351882Y-62861220D01*
X199345735Y-63094196D01*
X199336171Y-63294918D01*
X199323199Y-63448954D01*
X199306829Y-63541870D01*
X199297011Y-63561213D01*
X199238323Y-63584398D01*
X199113966Y-63617544D01*
X198940390Y-63656758D01*
X198734042Y-63698145D01*
X198662011Y-63711534D01*
X198314719Y-63775147D01*
X198040383Y-63826378D01*
X197829939Y-63867261D01*
X197674322Y-63899834D01*
X197564467Y-63926132D01*
X197491311Y-63948192D01*
X197445787Y-63968049D01*
X197418833Y-63987741D01*
X197415061Y-63991632D01*
X197377415Y-64054324D01*
X197319986Y-64176331D01*
X197248508Y-64342712D01*
X197168715Y-64538529D01*
X197086343Y-64748840D01*
X197007125Y-64958708D01*
X196936796Y-65153191D01*
X196881089Y-65317350D01*
X196845741Y-65436245D01*
X196836484Y-65494936D01*
X196837256Y-65496992D01*
X196868620Y-65544964D01*
X196939774Y-65650516D01*
X197043240Y-65802660D01*
X197171540Y-65990410D01*
X197317199Y-66202780D01*
X197358680Y-66263130D01*
X197506587Y-66481929D01*
X197636739Y-66681562D01*
X197742045Y-66850565D01*
X197815416Y-66977475D01*
X197849763Y-67050829D01*
X197851426Y-67059841D01*
X197822569Y-67107207D01*
X197742831Y-67201042D01*
X197622462Y-67331261D01*
X197471713Y-67487779D01*
X197300836Y-67660510D01*
X197120079Y-67839371D01*
X196939694Y-68014276D01*
X196769932Y-68175140D01*
X196621042Y-68311878D01*
X196503276Y-68414407D01*
X196426883Y-68472640D01*
X196405750Y-68482148D01*
X196356560Y-68459754D01*
X196255847Y-68399356D01*
X196120017Y-68311129D01*
X196015510Y-68240115D01*
X195826149Y-68109811D01*
X195601899Y-67956384D01*
X195376964Y-67803201D01*
X195256032Y-67721218D01*
X194846704Y-67444353D01*
X194503102Y-67630136D01*
X194346565Y-67711523D01*
X194213454Y-67774784D01*
X194123389Y-67810865D01*
X194100463Y-67815885D01*
X194072895Y-67778817D01*
X194018508Y-67674069D01*
X193941363Y-67511303D01*
X193845518Y-67300181D01*
X193735034Y-67050365D01*
X193613971Y-66771517D01*
X193486389Y-66473299D01*
X193356347Y-66165374D01*
X193227906Y-65857404D01*
X193105126Y-65559050D01*
X192992067Y-65279975D01*
X192892788Y-65029841D01*
X192811349Y-64818310D01*
X192751811Y-64655043D01*
X192718234Y-64549705D01*
X192712834Y-64513527D01*
X192755634Y-64467381D01*
X192849344Y-64392472D01*
X192974373Y-64304364D01*
X192984867Y-64297394D01*
X193308020Y-64038721D01*
X193568587Y-63736938D01*
X193764310Y-63401695D01*
X193892932Y-63042642D01*
X193952195Y-62669426D01*
X193939839Y-62291700D01*
X193853607Y-61919111D01*
X193691241Y-61561310D01*
X193643472Y-61483027D01*
X193395009Y-61166919D01*
X193101481Y-60913079D01*
X192773047Y-60722827D01*
X192419865Y-60597485D01*
X192052095Y-60538372D01*
X191679897Y-60546807D01*
X191313429Y-60624112D01*
X190962851Y-60771606D01*
X190638323Y-60990610D01*
X190537936Y-61079498D01*
X190282449Y-61357744D01*
X190096278Y-61650656D01*
X189968570Y-61978986D01*
X189897444Y-62304133D01*
X189879886Y-62669702D01*
X189938434Y-63037086D01*
X190067142Y-63393866D01*
X190260062Y-63727626D01*
X190511248Y-64025947D01*
X190814752Y-64276411D01*
X190854640Y-64302813D01*
X190981009Y-64389272D01*
X191077073Y-64464184D01*
X191123000Y-64512015D01*
X191123668Y-64513527D01*
X191113808Y-64565267D01*
X191074722Y-64682696D01*
X191010472Y-64856154D01*
X190925120Y-65075979D01*
X190822727Y-65332513D01*
X190707354Y-65616096D01*
X190583063Y-65917067D01*
X190453916Y-66225767D01*
X190323974Y-66532536D01*
X190197298Y-66827714D01*
X190077951Y-67101640D01*
X189969994Y-67344656D01*
X189877488Y-67547101D01*
X189804496Y-67699315D01*
X189755077Y-67791638D01*
X189735177Y-67815885D01*
X189674366Y-67797004D01*
X189560582Y-67746364D01*
X189413445Y-67673017D01*
X189332538Y-67630136D01*
X188988935Y-67444353D01*
X188579607Y-67721218D01*
X188370654Y-67863054D01*
X188141887Y-68019141D01*
X187927509Y-68166109D01*
X187820129Y-68240115D01*
X187669102Y-68341531D01*
X187541218Y-68421898D01*
X187453158Y-68471041D01*
X187424555Y-68481429D01*
X187382924Y-68453405D01*
X187290789Y-68375172D01*
X187157082Y-68254852D01*
X186990735Y-68100568D01*
X186800680Y-67920443D01*
X186680479Y-67804790D01*
X186470185Y-67598167D01*
X186288444Y-67413358D01*
X186142603Y-67258270D01*
X186040009Y-67140807D01*
X185988009Y-67068875D01*
X185983020Y-67054278D01*
X186006171Y-66998753D01*
X186070146Y-66886484D01*
X186167847Y-66728837D01*
X186292180Y-66537179D01*
X186436046Y-66322876D01*
X186476959Y-66263130D01*
X186626033Y-66045982D01*
X186759775Y-65850475D01*
X186870709Y-65687599D01*
X186951356Y-65568337D01*
X186994241Y-65503678D01*
X186998383Y-65496992D01*
X186992188Y-65445462D01*
X186959300Y-65332166D01*
X186905455Y-65172042D01*
X186836387Y-64980032D01*
X186757831Y-64771074D01*
X186675520Y-64560109D01*
X186595189Y-64362076D01*
X186522572Y-64191916D01*
X186463405Y-64064567D01*
X186423420Y-63994971D01*
X186420578Y-63991632D01*
X186396127Y-63971742D01*
X186354831Y-63952073D01*
X186287623Y-63930589D01*
X186185441Y-63905253D01*
X186039219Y-63874029D01*
X185839893Y-63834882D01*
X185578397Y-63785775D01*
X185245669Y-63724672D01*
X185173628Y-63711534D01*
X184960115Y-63670282D01*
X184773978Y-63629926D01*
X184631666Y-63594361D01*
X184549629Y-63567480D01*
X184538628Y-63561213D01*
X184520502Y-63505654D01*
X184505767Y-63381495D01*
X184494436Y-63203169D01*
X184486516Y-62985109D01*
X184482019Y-62741746D01*
X184480954Y-62487514D01*
X184483330Y-62236845D01*
X184489159Y-62004171D01*
X184498449Y-61803924D01*
X184511211Y-61650538D01*
X184527454Y-61558444D01*
X184537246Y-61539595D01*
X184591761Y-61520582D01*
X184715896Y-61489650D01*
X184897285Y-61449482D01*
X185123560Y-61402762D01*
X185382353Y-61352173D01*
X185523351Y-61325659D01*
X185790873Y-61275650D01*
X186029438Y-61230346D01*
X186227386Y-61192021D01*
X186373057Y-61162947D01*
X186454791Y-61145397D01*
X186468243Y-61141506D01*
X186490979Y-61097638D01*
X186539040Y-60991976D01*
X186606019Y-60839613D01*
X186685510Y-60655646D01*
X186771108Y-60455170D01*
X186856405Y-60253281D01*
X186934995Y-60065073D01*
X187000473Y-59905642D01*
X187046431Y-59790084D01*
X187066463Y-59733494D01*
X187066836Y-59731021D01*
X187044126Y-59686379D01*
X186980459Y-59583647D01*
X186882525Y-59433037D01*
X186757017Y-59244757D01*
X186610626Y-59029018D01*
X186525525Y-58905098D01*
X186370455Y-58677883D01*
X186232725Y-58471595D01*
X186119053Y-58296671D01*
X186036161Y-58163545D01*
X185990769Y-58082653D01*
X185984213Y-58064520D01*
X186012395Y-58022312D01*
X186090304Y-57932191D01*
X186207990Y-57804254D01*
X186355500Y-57648596D01*
X186522881Y-57475315D01*
X186700181Y-57294507D01*
X186877448Y-57116267D01*
X187044730Y-56950693D01*
X187192075Y-56807880D01*
X187309530Y-56697925D01*
X187387143Y-56630924D01*
X187413108Y-56614935D01*
X187455384Y-56637419D01*
X187556501Y-56700585D01*
X187706627Y-56798003D01*
X187895930Y-56923243D01*
X188114579Y-57069875D01*
X188279511Y-57181586D01*
X189112831Y-57748237D01*
X189807456Y-57461889D01*
X190502082Y-57175542D01*
X190690334Y-56176960D01*
X190878587Y-55178377D01*
X192957052Y-55178377D01*
X193145305Y-56176960D01*
D12*
G04 #@! TO.C,C1*
X177030748Y-71790000D02*
X177553252Y-71790000D01*
X177030748Y-73210000D02*
X177553252Y-73210000D01*
G04 #@! TO.C,C2*
X177030748Y-74290000D02*
X177553252Y-74290000D01*
X177030748Y-75710000D02*
X177553252Y-75710000D01*
G04 #@! TO.C,C3*
X177263748Y-106710000D02*
X177786252Y-106710000D01*
X177263748Y-105290000D02*
X177786252Y-105290000D01*
G04 #@! TO.C,R1*
X160261252Y-96540000D02*
X159738748Y-96540000D01*
X160261252Y-97960000D02*
X159738748Y-97960000D01*
G04 #@! TO.C,R2*
X160261252Y-99040000D02*
X159738748Y-99040000D01*
X160261252Y-100460000D02*
X159738748Y-100460000D01*
G04 #@! TO.C,R3*
X188238748Y-100290000D02*
X188761252Y-100290000D01*
X188238748Y-101710000D02*
X188761252Y-101710000D01*
G04 #@! TO.C,R4*
X188238748Y-99210000D02*
X188761252Y-99210000D01*
X188238748Y-97790000D02*
X188761252Y-97790000D01*
G04 #@! TO.C,R5*
X188238748Y-95290000D02*
X188761252Y-95290000D01*
X188238748Y-96710000D02*
X188761252Y-96710000D01*
G04 #@! TO.C,R6*
X188238748Y-90290000D02*
X188761252Y-90290000D01*
X188238748Y-91710000D02*
X188761252Y-91710000D01*
G04 #@! TO.C,R7*
X159738748Y-94040000D02*
X160261252Y-94040000D01*
X159738748Y-95460000D02*
X160261252Y-95460000D01*
G04 #@! TO.C,R8*
X166511252Y-92790000D02*
X165988748Y-92790000D01*
X166511252Y-94210000D02*
X165988748Y-94210000D01*
G04 #@! TO.C,R9*
X165988748Y-99210000D02*
X166511252Y-99210000D01*
X165988748Y-97790000D02*
X166511252Y-97790000D01*
G04 #@! TO.C,R10*
X165988748Y-100290000D02*
X166511252Y-100290000D01*
X165988748Y-101710000D02*
X166511252Y-101710000D01*
G04 #@! TO.C,R11*
X196261252Y-99040000D02*
X195738748Y-99040000D01*
X196261252Y-100460000D02*
X195738748Y-100460000D01*
G04 #@! TO.C,R12*
X196261252Y-97960000D02*
X195738748Y-97960000D01*
X196261252Y-96540000D02*
X195738748Y-96540000D01*
G04 #@! TO.C,R13*
X196261252Y-95460000D02*
X195738748Y-95460000D01*
X196261252Y-94040000D02*
X195738748Y-94040000D01*
G04 #@! TO.C,R14*
X196261252Y-91540000D02*
X195738748Y-91540000D01*
X196261252Y-92960000D02*
X195738748Y-92960000D01*
G04 #@! TO.C,R15*
X188761252Y-94210000D02*
X188238748Y-94210000D01*
X188761252Y-92790000D02*
X188238748Y-92790000D01*
G04 #@! TO.C,JP1*
D13*
X164012666Y-86452380D02*
X164012666Y-87166666D01*
X163965047Y-87309523D01*
X163869809Y-87404761D01*
X163726952Y-87452380D01*
X163631714Y-87452380D01*
X164488857Y-87452380D02*
X164488857Y-86452380D01*
X164869809Y-86452380D01*
X164965047Y-86500000D01*
X165012666Y-86547619D01*
X165060285Y-86642857D01*
X165060285Y-86785714D01*
X165012666Y-86880952D01*
X164965047Y-86928571D01*
X164869809Y-86976190D01*
X164488857Y-86976190D01*
X166012666Y-87452380D02*
X165441238Y-87452380D01*
X165726952Y-87452380D02*
X165726952Y-86452380D01*
X165631714Y-86595238D01*
X165536476Y-86690476D01*
X165441238Y-86738095D01*
G04 #@! TO.C,U1*
X170085714Y-74842857D02*
X170085714Y-75814285D01*
X170142857Y-75928571D01*
X170200000Y-75985714D01*
X170314285Y-76042857D01*
X170542857Y-76042857D01*
X170657142Y-75985714D01*
X170714285Y-75928571D01*
X170771428Y-75814285D01*
X170771428Y-74842857D01*
X171971428Y-76042857D02*
X171285714Y-76042857D01*
X171628571Y-76042857D02*
X171628571Y-74842857D01*
X171514285Y-75014285D01*
X171400000Y-75128571D01*
X171285714Y-75185714D01*
G04 #@! TO.C,JP2*
X163930666Y-79758380D02*
X163930666Y-80472666D01*
X163883047Y-80615523D01*
X163787809Y-80710761D01*
X163644952Y-80758380D01*
X163549714Y-80758380D01*
X164406857Y-80758380D02*
X164406857Y-79758380D01*
X164787809Y-79758380D01*
X164883047Y-79806000D01*
X164930666Y-79853619D01*
X164978285Y-79948857D01*
X164978285Y-80091714D01*
X164930666Y-80186952D01*
X164883047Y-80234571D01*
X164787809Y-80282190D01*
X164406857Y-80282190D01*
X165359238Y-79853619D02*
X165406857Y-79806000D01*
X165502095Y-79758380D01*
X165740190Y-79758380D01*
X165835428Y-79806000D01*
X165883047Y-79853619D01*
X165930666Y-79948857D01*
X165930666Y-80044095D01*
X165883047Y-80186952D01*
X165311619Y-80758380D01*
X165930666Y-80758380D01*
G04 #@! TO.C,JP3*
X163890666Y-77218380D02*
X163890666Y-77932666D01*
X163843047Y-78075523D01*
X163747809Y-78170761D01*
X163604952Y-78218380D01*
X163509714Y-78218380D01*
X164366857Y-78218380D02*
X164366857Y-77218380D01*
X164747809Y-77218380D01*
X164843047Y-77266000D01*
X164890666Y-77313619D01*
X164938285Y-77408857D01*
X164938285Y-77551714D01*
X164890666Y-77646952D01*
X164843047Y-77694571D01*
X164747809Y-77742190D01*
X164366857Y-77742190D01*
X165271619Y-77218380D02*
X165890666Y-77218380D01*
X165557333Y-77599333D01*
X165700190Y-77599333D01*
X165795428Y-77646952D01*
X165843047Y-77694571D01*
X165890666Y-77789809D01*
X165890666Y-78027904D01*
X165843047Y-78123142D01*
X165795428Y-78170761D01*
X165700190Y-78218380D01*
X165414476Y-78218380D01*
X165319238Y-78170761D01*
X165271619Y-78123142D01*
G04 #@! TO.C,C1*
X173833333Y-72857142D02*
X173785714Y-72904761D01*
X173642857Y-72952380D01*
X173547619Y-72952380D01*
X173404761Y-72904761D01*
X173309523Y-72809523D01*
X173261904Y-72714285D01*
X173214285Y-72523809D01*
X173214285Y-72380952D01*
X173261904Y-72190476D01*
X173309523Y-72095238D01*
X173404761Y-72000000D01*
X173547619Y-71952380D01*
X173642857Y-71952380D01*
X173785714Y-72000000D01*
X173833333Y-72047619D01*
X174785714Y-72952380D02*
X174214285Y-72952380D01*
X174500000Y-72952380D02*
X174500000Y-71952380D01*
X174404761Y-72095238D01*
X174309523Y-72190476D01*
X174214285Y-72238095D01*
G04 #@! TO.C,C2*
X173833333Y-75357142D02*
X173785714Y-75404761D01*
X173642857Y-75452380D01*
X173547619Y-75452380D01*
X173404761Y-75404761D01*
X173309523Y-75309523D01*
X173261904Y-75214285D01*
X173214285Y-75023809D01*
X173214285Y-74880952D01*
X173261904Y-74690476D01*
X173309523Y-74595238D01*
X173404761Y-74500000D01*
X173547619Y-74452380D01*
X173642857Y-74452380D01*
X173785714Y-74500000D01*
X173833333Y-74547619D01*
X174214285Y-74547619D02*
X174261904Y-74500000D01*
X174357142Y-74452380D01*
X174595238Y-74452380D01*
X174690476Y-74500000D01*
X174738095Y-74547619D01*
X174785714Y-74642857D01*
X174785714Y-74738095D01*
X174738095Y-74880952D01*
X174166666Y-75452380D01*
X174785714Y-75452380D01*
G04 #@! TO.C,C3*
X173833333Y-106357142D02*
X173785714Y-106404761D01*
X173642857Y-106452380D01*
X173547619Y-106452380D01*
X173404761Y-106404761D01*
X173309523Y-106309523D01*
X173261904Y-106214285D01*
X173214285Y-106023809D01*
X173214285Y-105880952D01*
X173261904Y-105690476D01*
X173309523Y-105595238D01*
X173404761Y-105500000D01*
X173547619Y-105452380D01*
X173642857Y-105452380D01*
X173785714Y-105500000D01*
X173833333Y-105547619D01*
X174166666Y-105452380D02*
X174785714Y-105452380D01*
X174452380Y-105833333D01*
X174595238Y-105833333D01*
X174690476Y-105880952D01*
X174738095Y-105928571D01*
X174785714Y-106023809D01*
X174785714Y-106261904D01*
X174738095Y-106357142D01*
X174690476Y-106404761D01*
X174595238Y-106452380D01*
X174309523Y-106452380D01*
X174214285Y-106404761D01*
X174166666Y-106357142D01*
G04 #@! TO.C,R1*
X156583333Y-97702380D02*
X156250000Y-97226190D01*
X156011904Y-97702380D02*
X156011904Y-96702380D01*
X156392857Y-96702380D01*
X156488095Y-96750000D01*
X156535714Y-96797619D01*
X156583333Y-96892857D01*
X156583333Y-97035714D01*
X156535714Y-97130952D01*
X156488095Y-97178571D01*
X156392857Y-97226190D01*
X156011904Y-97226190D01*
X157535714Y-97702380D02*
X156964285Y-97702380D01*
X157250000Y-97702380D02*
X157250000Y-96702380D01*
X157154761Y-96845238D01*
X157059523Y-96940476D01*
X156964285Y-96988095D01*
G04 #@! TO.C,R2*
X156583333Y-100202380D02*
X156250000Y-99726190D01*
X156011904Y-100202380D02*
X156011904Y-99202380D01*
X156392857Y-99202380D01*
X156488095Y-99250000D01*
X156535714Y-99297619D01*
X156583333Y-99392857D01*
X156583333Y-99535714D01*
X156535714Y-99630952D01*
X156488095Y-99678571D01*
X156392857Y-99726190D01*
X156011904Y-99726190D01*
X156964285Y-99297619D02*
X157011904Y-99250000D01*
X157107142Y-99202380D01*
X157345238Y-99202380D01*
X157440476Y-99250000D01*
X157488095Y-99297619D01*
X157535714Y-99392857D01*
X157535714Y-99488095D01*
X157488095Y-99630952D01*
X156916666Y-100202380D01*
X157535714Y-100202380D01*
G04 #@! TO.C,R3*
X191583333Y-101452380D02*
X191250000Y-100976190D01*
X191011904Y-101452380D02*
X191011904Y-100452380D01*
X191392857Y-100452380D01*
X191488095Y-100500000D01*
X191535714Y-100547619D01*
X191583333Y-100642857D01*
X191583333Y-100785714D01*
X191535714Y-100880952D01*
X191488095Y-100928571D01*
X191392857Y-100976190D01*
X191011904Y-100976190D01*
X191916666Y-100452380D02*
X192535714Y-100452380D01*
X192202380Y-100833333D01*
X192345238Y-100833333D01*
X192440476Y-100880952D01*
X192488095Y-100928571D01*
X192535714Y-101023809D01*
X192535714Y-101261904D01*
X192488095Y-101357142D01*
X192440476Y-101404761D01*
X192345238Y-101452380D01*
X192059523Y-101452380D01*
X191964285Y-101404761D01*
X191916666Y-101357142D01*
G04 #@! TO.C,R4*
X191583333Y-98952380D02*
X191250000Y-98476190D01*
X191011904Y-98952380D02*
X191011904Y-97952380D01*
X191392857Y-97952380D01*
X191488095Y-98000000D01*
X191535714Y-98047619D01*
X191583333Y-98142857D01*
X191583333Y-98285714D01*
X191535714Y-98380952D01*
X191488095Y-98428571D01*
X191392857Y-98476190D01*
X191011904Y-98476190D01*
X192440476Y-98285714D02*
X192440476Y-98952380D01*
X192202380Y-97904761D02*
X191964285Y-98619047D01*
X192583333Y-98619047D01*
G04 #@! TO.C,R5*
X191583333Y-96452380D02*
X191250000Y-95976190D01*
X191011904Y-96452380D02*
X191011904Y-95452380D01*
X191392857Y-95452380D01*
X191488095Y-95500000D01*
X191535714Y-95547619D01*
X191583333Y-95642857D01*
X191583333Y-95785714D01*
X191535714Y-95880952D01*
X191488095Y-95928571D01*
X191392857Y-95976190D01*
X191011904Y-95976190D01*
X192488095Y-95452380D02*
X192011904Y-95452380D01*
X191964285Y-95928571D01*
X192011904Y-95880952D01*
X192107142Y-95833333D01*
X192345238Y-95833333D01*
X192440476Y-95880952D01*
X192488095Y-95928571D01*
X192535714Y-96023809D01*
X192535714Y-96261904D01*
X192488095Y-96357142D01*
X192440476Y-96404761D01*
X192345238Y-96452380D01*
X192107142Y-96452380D01*
X192011904Y-96404761D01*
X191964285Y-96357142D01*
G04 #@! TO.C,R6*
X191583333Y-91452380D02*
X191250000Y-90976190D01*
X191011904Y-91452380D02*
X191011904Y-90452380D01*
X191392857Y-90452380D01*
X191488095Y-90500000D01*
X191535714Y-90547619D01*
X191583333Y-90642857D01*
X191583333Y-90785714D01*
X191535714Y-90880952D01*
X191488095Y-90928571D01*
X191392857Y-90976190D01*
X191011904Y-90976190D01*
X192440476Y-90452380D02*
X192250000Y-90452380D01*
X192154761Y-90500000D01*
X192107142Y-90547619D01*
X192011904Y-90690476D01*
X191964285Y-90880952D01*
X191964285Y-91261904D01*
X192011904Y-91357142D01*
X192059523Y-91404761D01*
X192154761Y-91452380D01*
X192345238Y-91452380D01*
X192440476Y-91404761D01*
X192488095Y-91357142D01*
X192535714Y-91261904D01*
X192535714Y-91023809D01*
X192488095Y-90928571D01*
X192440476Y-90880952D01*
X192345238Y-90833333D01*
X192154761Y-90833333D01*
X192059523Y-90880952D01*
X192011904Y-90928571D01*
X191964285Y-91023809D01*
G04 #@! TO.C,R7*
X156583333Y-95202380D02*
X156250000Y-94726190D01*
X156011904Y-95202380D02*
X156011904Y-94202380D01*
X156392857Y-94202380D01*
X156488095Y-94250000D01*
X156535714Y-94297619D01*
X156583333Y-94392857D01*
X156583333Y-94535714D01*
X156535714Y-94630952D01*
X156488095Y-94678571D01*
X156392857Y-94726190D01*
X156011904Y-94726190D01*
X156916666Y-94202380D02*
X157583333Y-94202380D01*
X157154761Y-95202380D01*
G04 #@! TO.C,R8*
X162833333Y-93952380D02*
X162500000Y-93476190D01*
X162261904Y-93952380D02*
X162261904Y-92952380D01*
X162642857Y-92952380D01*
X162738095Y-93000000D01*
X162785714Y-93047619D01*
X162833333Y-93142857D01*
X162833333Y-93285714D01*
X162785714Y-93380952D01*
X162738095Y-93428571D01*
X162642857Y-93476190D01*
X162261904Y-93476190D01*
X163404761Y-93380952D02*
X163309523Y-93333333D01*
X163261904Y-93285714D01*
X163214285Y-93190476D01*
X163214285Y-93142857D01*
X163261904Y-93047619D01*
X163309523Y-93000000D01*
X163404761Y-92952380D01*
X163595238Y-92952380D01*
X163690476Y-93000000D01*
X163738095Y-93047619D01*
X163785714Y-93142857D01*
X163785714Y-93190476D01*
X163738095Y-93285714D01*
X163690476Y-93333333D01*
X163595238Y-93380952D01*
X163404761Y-93380952D01*
X163309523Y-93428571D01*
X163261904Y-93476190D01*
X163214285Y-93571428D01*
X163214285Y-93761904D01*
X163261904Y-93857142D01*
X163309523Y-93904761D01*
X163404761Y-93952380D01*
X163595238Y-93952380D01*
X163690476Y-93904761D01*
X163738095Y-93857142D01*
X163785714Y-93761904D01*
X163785714Y-93571428D01*
X163738095Y-93476190D01*
X163690476Y-93428571D01*
X163595238Y-93380952D01*
G04 #@! TO.C,R9*
X163083333Y-98952380D02*
X162750000Y-98476190D01*
X162511904Y-98952380D02*
X162511904Y-97952380D01*
X162892857Y-97952380D01*
X162988095Y-98000000D01*
X163035714Y-98047619D01*
X163083333Y-98142857D01*
X163083333Y-98285714D01*
X163035714Y-98380952D01*
X162988095Y-98428571D01*
X162892857Y-98476190D01*
X162511904Y-98476190D01*
X163559523Y-98952380D02*
X163750000Y-98952380D01*
X163845238Y-98904761D01*
X163892857Y-98857142D01*
X163988095Y-98714285D01*
X164035714Y-98523809D01*
X164035714Y-98142857D01*
X163988095Y-98047619D01*
X163940476Y-98000000D01*
X163845238Y-97952380D01*
X163654761Y-97952380D01*
X163559523Y-98000000D01*
X163511904Y-98047619D01*
X163464285Y-98142857D01*
X163464285Y-98380952D01*
X163511904Y-98476190D01*
X163559523Y-98523809D01*
X163654761Y-98571428D01*
X163845238Y-98571428D01*
X163940476Y-98523809D01*
X163988095Y-98476190D01*
X164035714Y-98380952D01*
G04 #@! TO.C,R10*
X162107142Y-101952380D02*
X161773809Y-101476190D01*
X161535714Y-101952380D02*
X161535714Y-100952380D01*
X161916666Y-100952380D01*
X162011904Y-101000000D01*
X162059523Y-101047619D01*
X162107142Y-101142857D01*
X162107142Y-101285714D01*
X162059523Y-101380952D01*
X162011904Y-101428571D01*
X161916666Y-101476190D01*
X161535714Y-101476190D01*
X163059523Y-101952380D02*
X162488095Y-101952380D01*
X162773809Y-101952380D02*
X162773809Y-100952380D01*
X162678571Y-101095238D01*
X162583333Y-101190476D01*
X162488095Y-101238095D01*
X163678571Y-100952380D02*
X163773809Y-100952380D01*
X163869047Y-101000000D01*
X163916666Y-101047619D01*
X163964285Y-101142857D01*
X164011904Y-101333333D01*
X164011904Y-101571428D01*
X163964285Y-101761904D01*
X163916666Y-101857142D01*
X163869047Y-101904761D01*
X163773809Y-101952380D01*
X163678571Y-101952380D01*
X163583333Y-101904761D01*
X163535714Y-101857142D01*
X163488095Y-101761904D01*
X163440476Y-101571428D01*
X163440476Y-101333333D01*
X163488095Y-101142857D01*
X163535714Y-101047619D01*
X163583333Y-101000000D01*
X163678571Y-100952380D01*
G04 #@! TO.C,R11*
X199107142Y-100202380D02*
X198773809Y-99726190D01*
X198535714Y-100202380D02*
X198535714Y-99202380D01*
X198916666Y-99202380D01*
X199011904Y-99250000D01*
X199059523Y-99297619D01*
X199107142Y-99392857D01*
X199107142Y-99535714D01*
X199059523Y-99630952D01*
X199011904Y-99678571D01*
X198916666Y-99726190D01*
X198535714Y-99726190D01*
X200059523Y-100202380D02*
X199488095Y-100202380D01*
X199773809Y-100202380D02*
X199773809Y-99202380D01*
X199678571Y-99345238D01*
X199583333Y-99440476D01*
X199488095Y-99488095D01*
X201011904Y-100202380D02*
X200440476Y-100202380D01*
X200726190Y-100202380D02*
X200726190Y-99202380D01*
X200630952Y-99345238D01*
X200535714Y-99440476D01*
X200440476Y-99488095D01*
G04 #@! TO.C,R12*
X199107142Y-97702380D02*
X198773809Y-97226190D01*
X198535714Y-97702380D02*
X198535714Y-96702380D01*
X198916666Y-96702380D01*
X199011904Y-96750000D01*
X199059523Y-96797619D01*
X199107142Y-96892857D01*
X199107142Y-97035714D01*
X199059523Y-97130952D01*
X199011904Y-97178571D01*
X198916666Y-97226190D01*
X198535714Y-97226190D01*
X200059523Y-97702380D02*
X199488095Y-97702380D01*
X199773809Y-97702380D02*
X199773809Y-96702380D01*
X199678571Y-96845238D01*
X199583333Y-96940476D01*
X199488095Y-96988095D01*
X200440476Y-96797619D02*
X200488095Y-96750000D01*
X200583333Y-96702380D01*
X200821428Y-96702380D01*
X200916666Y-96750000D01*
X200964285Y-96797619D01*
X201011904Y-96892857D01*
X201011904Y-96988095D01*
X200964285Y-97130952D01*
X200392857Y-97702380D01*
X201011904Y-97702380D01*
G04 #@! TO.C,R13*
X199107142Y-95202380D02*
X198773809Y-94726190D01*
X198535714Y-95202380D02*
X198535714Y-94202380D01*
X198916666Y-94202380D01*
X199011904Y-94250000D01*
X199059523Y-94297619D01*
X199107142Y-94392857D01*
X199107142Y-94535714D01*
X199059523Y-94630952D01*
X199011904Y-94678571D01*
X198916666Y-94726190D01*
X198535714Y-94726190D01*
X200059523Y-95202380D02*
X199488095Y-95202380D01*
X199773809Y-95202380D02*
X199773809Y-94202380D01*
X199678571Y-94345238D01*
X199583333Y-94440476D01*
X199488095Y-94488095D01*
X200392857Y-94202380D02*
X201011904Y-94202380D01*
X200678571Y-94583333D01*
X200821428Y-94583333D01*
X200916666Y-94630952D01*
X200964285Y-94678571D01*
X201011904Y-94773809D01*
X201011904Y-95011904D01*
X200964285Y-95107142D01*
X200916666Y-95154761D01*
X200821428Y-95202380D01*
X200535714Y-95202380D01*
X200440476Y-95154761D01*
X200392857Y-95107142D01*
G04 #@! TO.C,R14*
X199107142Y-92702380D02*
X198773809Y-92226190D01*
X198535714Y-92702380D02*
X198535714Y-91702380D01*
X198916666Y-91702380D01*
X199011904Y-91750000D01*
X199059523Y-91797619D01*
X199107142Y-91892857D01*
X199107142Y-92035714D01*
X199059523Y-92130952D01*
X199011904Y-92178571D01*
X198916666Y-92226190D01*
X198535714Y-92226190D01*
X200059523Y-92702380D02*
X199488095Y-92702380D01*
X199773809Y-92702380D02*
X199773809Y-91702380D01*
X199678571Y-91845238D01*
X199583333Y-91940476D01*
X199488095Y-91988095D01*
X200916666Y-92035714D02*
X200916666Y-92702380D01*
X200678571Y-91654761D02*
X200440476Y-92369047D01*
X201059523Y-92369047D01*
G04 #@! TO.C,R15*
X191607142Y-93952380D02*
X191273809Y-93476190D01*
X191035714Y-93952380D02*
X191035714Y-92952380D01*
X191416666Y-92952380D01*
X191511904Y-93000000D01*
X191559523Y-93047619D01*
X191607142Y-93142857D01*
X191607142Y-93285714D01*
X191559523Y-93380952D01*
X191511904Y-93428571D01*
X191416666Y-93476190D01*
X191035714Y-93476190D01*
X192559523Y-93952380D02*
X191988095Y-93952380D01*
X192273809Y-93952380D02*
X192273809Y-92952380D01*
X192178571Y-93095238D01*
X192083333Y-93190476D01*
X191988095Y-93238095D01*
X193464285Y-92952380D02*
X192988095Y-92952380D01*
X192940476Y-93428571D01*
X192988095Y-93380952D01*
X193083333Y-93333333D01*
X193321428Y-93333333D01*
X193416666Y-93380952D01*
X193464285Y-93428571D01*
X193511904Y-93523809D01*
X193511904Y-93761904D01*
X193464285Y-93857142D01*
X193416666Y-93904761D01*
X193321428Y-93952380D01*
X193083333Y-93952380D01*
X192988095Y-93904761D01*
X192940476Y-93857142D01*
G04 #@! TD*
%LPC*%
D15*
G04 #@! TO.C,JP1*
X158750000Y-87000000D03*
D16*
X161290000Y-87000000D03*
G04 #@! TD*
D17*
G04 #@! TO.C,U1*
X182120000Y-78232000D03*
X172720000Y-78232000D03*
X182120000Y-79502000D03*
X172720000Y-79502000D03*
X182120000Y-80772000D03*
X172720000Y-80772000D03*
X182120000Y-82042000D03*
X172720000Y-82042000D03*
X182120000Y-83312000D03*
X172720000Y-83312000D03*
X182120000Y-84582000D03*
X172720000Y-84582000D03*
X182120000Y-85852000D03*
X172720000Y-85852000D03*
X182120000Y-87122000D03*
X172720000Y-87122000D03*
X182120000Y-88392000D03*
X172720000Y-88392000D03*
X182120000Y-89662000D03*
X172720000Y-89662000D03*
X182120000Y-90932000D03*
X172720000Y-90932000D03*
X182120000Y-92202000D03*
X172720000Y-92202000D03*
X182120000Y-93472000D03*
X172720000Y-93472000D03*
X182120000Y-94742000D03*
X172720000Y-94742000D03*
X182120000Y-96012000D03*
X172720000Y-96012000D03*
X182120000Y-97282000D03*
X172720000Y-97282000D03*
X182120000Y-98552000D03*
X172720000Y-98552000D03*
X182120000Y-99822000D03*
X172720000Y-99822000D03*
X182120000Y-101092000D03*
X172720000Y-101092000D03*
X182120000Y-102362000D03*
X172720000Y-102362000D03*
G04 #@! TD*
D15*
G04 #@! TO.C,JP2*
X158724000Y-80306000D03*
D16*
X161264000Y-80306000D03*
G04 #@! TD*
D15*
G04 #@! TO.C,JP3*
X158724000Y-77766000D03*
D16*
X161264000Y-77766000D03*
G04 #@! TD*
D18*
G04 #@! TO.C,J1*
X147320000Y-125095000D03*
D15*
X149860000Y-125095000D03*
D18*
X149860000Y-122555000D03*
X147320000Y-122555000D03*
X149860000Y-120015000D03*
X147320000Y-120015000D03*
X149860000Y-117475000D03*
X147320000Y-117475000D03*
X149860000Y-114935000D03*
X147320000Y-114935000D03*
X149860000Y-112395000D03*
X147320000Y-112395000D03*
X149860000Y-109855000D03*
X147320000Y-109855000D03*
X149860000Y-107315000D03*
X147320000Y-107315000D03*
X149860000Y-104775000D03*
X147320000Y-104775000D03*
X149860000Y-102235000D03*
X147320000Y-102235000D03*
X149860000Y-99695000D03*
X147320000Y-99695000D03*
X149860000Y-97155000D03*
X147320000Y-97155000D03*
X149860000Y-94615000D03*
X147320000Y-94615000D03*
X149860000Y-92075000D03*
X147320000Y-92075000D03*
X149860000Y-89535000D03*
X147320000Y-89535000D03*
X149860000Y-86995000D03*
X147320000Y-86995000D03*
X149860000Y-84455000D03*
X147320000Y-84455000D03*
X149860000Y-81915000D03*
X147320000Y-81915000D03*
X149860000Y-79375000D03*
X147320000Y-79375000D03*
X149860000Y-76835000D03*
X147320000Y-76835000D03*
X149860000Y-74295000D03*
X147320000Y-74295000D03*
X149860000Y-71755000D03*
X147320000Y-71755000D03*
X149860000Y-69215000D03*
X147320000Y-69215000D03*
X149860000Y-66675000D03*
X147320000Y-66675000D03*
X149860000Y-64135000D03*
X147320000Y-64135000D03*
X149860000Y-61595000D03*
X147320000Y-61595000D03*
X149860000Y-59055000D03*
X147320000Y-59055000D03*
X149860000Y-56515000D03*
X147320000Y-56515000D03*
G04 #@! TD*
D19*
G04 #@! TO.C,C1*
G36*
X176678261Y-71699817D02*
X176706817Y-71704052D01*
X176734821Y-71711067D01*
X176762002Y-71720793D01*
X176788099Y-71733136D01*
X176812861Y-71747977D01*
X176836048Y-71765174D01*
X176857439Y-71784561D01*
X176876826Y-71805952D01*
X176894023Y-71829139D01*
X176908864Y-71853901D01*
X176921207Y-71879998D01*
X176930933Y-71907179D01*
X176937948Y-71935183D01*
X176942183Y-71963739D01*
X176943600Y-71992573D01*
X176943600Y-73007427D01*
X176942183Y-73036261D01*
X176937948Y-73064817D01*
X176930933Y-73092821D01*
X176921207Y-73120002D01*
X176908864Y-73146099D01*
X176894023Y-73170861D01*
X176876826Y-73194048D01*
X176857439Y-73215439D01*
X176836048Y-73234826D01*
X176812861Y-73252023D01*
X176788099Y-73266864D01*
X176762002Y-73279207D01*
X176734821Y-73288933D01*
X176706817Y-73295948D01*
X176678261Y-73300183D01*
X176649427Y-73301600D01*
X175884573Y-73301600D01*
X175855739Y-73300183D01*
X175827183Y-73295948D01*
X175799179Y-73288933D01*
X175771998Y-73279207D01*
X175745901Y-73266864D01*
X175721139Y-73252023D01*
X175697952Y-73234826D01*
X175676561Y-73215439D01*
X175657174Y-73194048D01*
X175639977Y-73170861D01*
X175625136Y-73146099D01*
X175612793Y-73120002D01*
X175603067Y-73092821D01*
X175596052Y-73064817D01*
X175591817Y-73036261D01*
X175590400Y-73007427D01*
X175590400Y-71992573D01*
X175591817Y-71963739D01*
X175596052Y-71935183D01*
X175603067Y-71907179D01*
X175612793Y-71879998D01*
X175625136Y-71853901D01*
X175639977Y-71829139D01*
X175657174Y-71805952D01*
X175676561Y-71784561D01*
X175697952Y-71765174D01*
X175721139Y-71747977D01*
X175745901Y-71733136D01*
X175771998Y-71720793D01*
X175799179Y-71711067D01*
X175827183Y-71704052D01*
X175855739Y-71699817D01*
X175884573Y-71698400D01*
X176649427Y-71698400D01*
X176678261Y-71699817D01*
X176678261Y-71699817D01*
G37*
D20*
X176267000Y-72500000D03*
D19*
G36*
X178728261Y-71699817D02*
X178756817Y-71704052D01*
X178784821Y-71711067D01*
X178812002Y-71720793D01*
X178838099Y-71733136D01*
X178862861Y-71747977D01*
X178886048Y-71765174D01*
X178907439Y-71784561D01*
X178926826Y-71805952D01*
X178944023Y-71829139D01*
X178958864Y-71853901D01*
X178971207Y-71879998D01*
X178980933Y-71907179D01*
X178987948Y-71935183D01*
X178992183Y-71963739D01*
X178993600Y-71992573D01*
X178993600Y-73007427D01*
X178992183Y-73036261D01*
X178987948Y-73064817D01*
X178980933Y-73092821D01*
X178971207Y-73120002D01*
X178958864Y-73146099D01*
X178944023Y-73170861D01*
X178926826Y-73194048D01*
X178907439Y-73215439D01*
X178886048Y-73234826D01*
X178862861Y-73252023D01*
X178838099Y-73266864D01*
X178812002Y-73279207D01*
X178784821Y-73288933D01*
X178756817Y-73295948D01*
X178728261Y-73300183D01*
X178699427Y-73301600D01*
X177934573Y-73301600D01*
X177905739Y-73300183D01*
X177877183Y-73295948D01*
X177849179Y-73288933D01*
X177821998Y-73279207D01*
X177795901Y-73266864D01*
X177771139Y-73252023D01*
X177747952Y-73234826D01*
X177726561Y-73215439D01*
X177707174Y-73194048D01*
X177689977Y-73170861D01*
X177675136Y-73146099D01*
X177662793Y-73120002D01*
X177653067Y-73092821D01*
X177646052Y-73064817D01*
X177641817Y-73036261D01*
X177640400Y-73007427D01*
X177640400Y-71992573D01*
X177641817Y-71963739D01*
X177646052Y-71935183D01*
X177653067Y-71907179D01*
X177662793Y-71879998D01*
X177675136Y-71853901D01*
X177689977Y-71829139D01*
X177707174Y-71805952D01*
X177726561Y-71784561D01*
X177747952Y-71765174D01*
X177771139Y-71747977D01*
X177795901Y-71733136D01*
X177821998Y-71720793D01*
X177849179Y-71711067D01*
X177877183Y-71704052D01*
X177905739Y-71699817D01*
X177934573Y-71698400D01*
X178699427Y-71698400D01*
X178728261Y-71699817D01*
X178728261Y-71699817D01*
G37*
D20*
X178317000Y-72500000D03*
G04 #@! TD*
D19*
G04 #@! TO.C,C2*
G36*
X176678261Y-74199817D02*
X176706817Y-74204052D01*
X176734821Y-74211067D01*
X176762002Y-74220793D01*
X176788099Y-74233136D01*
X176812861Y-74247977D01*
X176836048Y-74265174D01*
X176857439Y-74284561D01*
X176876826Y-74305952D01*
X176894023Y-74329139D01*
X176908864Y-74353901D01*
X176921207Y-74379998D01*
X176930933Y-74407179D01*
X176937948Y-74435183D01*
X176942183Y-74463739D01*
X176943600Y-74492573D01*
X176943600Y-75507427D01*
X176942183Y-75536261D01*
X176937948Y-75564817D01*
X176930933Y-75592821D01*
X176921207Y-75620002D01*
X176908864Y-75646099D01*
X176894023Y-75670861D01*
X176876826Y-75694048D01*
X176857439Y-75715439D01*
X176836048Y-75734826D01*
X176812861Y-75752023D01*
X176788099Y-75766864D01*
X176762002Y-75779207D01*
X176734821Y-75788933D01*
X176706817Y-75795948D01*
X176678261Y-75800183D01*
X176649427Y-75801600D01*
X175884573Y-75801600D01*
X175855739Y-75800183D01*
X175827183Y-75795948D01*
X175799179Y-75788933D01*
X175771998Y-75779207D01*
X175745901Y-75766864D01*
X175721139Y-75752023D01*
X175697952Y-75734826D01*
X175676561Y-75715439D01*
X175657174Y-75694048D01*
X175639977Y-75670861D01*
X175625136Y-75646099D01*
X175612793Y-75620002D01*
X175603067Y-75592821D01*
X175596052Y-75564817D01*
X175591817Y-75536261D01*
X175590400Y-75507427D01*
X175590400Y-74492573D01*
X175591817Y-74463739D01*
X175596052Y-74435183D01*
X175603067Y-74407179D01*
X175612793Y-74379998D01*
X175625136Y-74353901D01*
X175639977Y-74329139D01*
X175657174Y-74305952D01*
X175676561Y-74284561D01*
X175697952Y-74265174D01*
X175721139Y-74247977D01*
X175745901Y-74233136D01*
X175771998Y-74220793D01*
X175799179Y-74211067D01*
X175827183Y-74204052D01*
X175855739Y-74199817D01*
X175884573Y-74198400D01*
X176649427Y-74198400D01*
X176678261Y-74199817D01*
X176678261Y-74199817D01*
G37*
D20*
X176267000Y-75000000D03*
D19*
G36*
X178728261Y-74199817D02*
X178756817Y-74204052D01*
X178784821Y-74211067D01*
X178812002Y-74220793D01*
X178838099Y-74233136D01*
X178862861Y-74247977D01*
X178886048Y-74265174D01*
X178907439Y-74284561D01*
X178926826Y-74305952D01*
X178944023Y-74329139D01*
X178958864Y-74353901D01*
X178971207Y-74379998D01*
X178980933Y-74407179D01*
X178987948Y-74435183D01*
X178992183Y-74463739D01*
X178993600Y-74492573D01*
X178993600Y-75507427D01*
X178992183Y-75536261D01*
X178987948Y-75564817D01*
X178980933Y-75592821D01*
X178971207Y-75620002D01*
X178958864Y-75646099D01*
X178944023Y-75670861D01*
X178926826Y-75694048D01*
X178907439Y-75715439D01*
X178886048Y-75734826D01*
X178862861Y-75752023D01*
X178838099Y-75766864D01*
X178812002Y-75779207D01*
X178784821Y-75788933D01*
X178756817Y-75795948D01*
X178728261Y-75800183D01*
X178699427Y-75801600D01*
X177934573Y-75801600D01*
X177905739Y-75800183D01*
X177877183Y-75795948D01*
X177849179Y-75788933D01*
X177821998Y-75779207D01*
X177795901Y-75766864D01*
X177771139Y-75752023D01*
X177747952Y-75734826D01*
X177726561Y-75715439D01*
X177707174Y-75694048D01*
X177689977Y-75670861D01*
X177675136Y-75646099D01*
X177662793Y-75620002D01*
X177653067Y-75592821D01*
X177646052Y-75564817D01*
X177641817Y-75536261D01*
X177640400Y-75507427D01*
X177640400Y-74492573D01*
X177641817Y-74463739D01*
X177646052Y-74435183D01*
X177653067Y-74407179D01*
X177662793Y-74379998D01*
X177675136Y-74353901D01*
X177689977Y-74329139D01*
X177707174Y-74305952D01*
X177726561Y-74284561D01*
X177747952Y-74265174D01*
X177771139Y-74247977D01*
X177795901Y-74233136D01*
X177821998Y-74220793D01*
X177849179Y-74211067D01*
X177877183Y-74204052D01*
X177905739Y-74199817D01*
X177934573Y-74198400D01*
X178699427Y-74198400D01*
X178728261Y-74199817D01*
X178728261Y-74199817D01*
G37*
D20*
X178317000Y-75000000D03*
G04 #@! TD*
D19*
G04 #@! TO.C,C3*
G36*
X178961261Y-105199817D02*
X178989817Y-105204052D01*
X179017821Y-105211067D01*
X179045002Y-105220793D01*
X179071099Y-105233136D01*
X179095861Y-105247977D01*
X179119048Y-105265174D01*
X179140439Y-105284561D01*
X179159826Y-105305952D01*
X179177023Y-105329139D01*
X179191864Y-105353901D01*
X179204207Y-105379998D01*
X179213933Y-105407179D01*
X179220948Y-105435183D01*
X179225183Y-105463739D01*
X179226600Y-105492573D01*
X179226600Y-106507427D01*
X179225183Y-106536261D01*
X179220948Y-106564817D01*
X179213933Y-106592821D01*
X179204207Y-106620002D01*
X179191864Y-106646099D01*
X179177023Y-106670861D01*
X179159826Y-106694048D01*
X179140439Y-106715439D01*
X179119048Y-106734826D01*
X179095861Y-106752023D01*
X179071099Y-106766864D01*
X179045002Y-106779207D01*
X179017821Y-106788933D01*
X178989817Y-106795948D01*
X178961261Y-106800183D01*
X178932427Y-106801600D01*
X178167573Y-106801600D01*
X178138739Y-106800183D01*
X178110183Y-106795948D01*
X178082179Y-106788933D01*
X178054998Y-106779207D01*
X178028901Y-106766864D01*
X178004139Y-106752023D01*
X177980952Y-106734826D01*
X177959561Y-106715439D01*
X177940174Y-106694048D01*
X177922977Y-106670861D01*
X177908136Y-106646099D01*
X177895793Y-106620002D01*
X177886067Y-106592821D01*
X177879052Y-106564817D01*
X177874817Y-106536261D01*
X177873400Y-106507427D01*
X177873400Y-105492573D01*
X177874817Y-105463739D01*
X177879052Y-105435183D01*
X177886067Y-105407179D01*
X177895793Y-105379998D01*
X177908136Y-105353901D01*
X177922977Y-105329139D01*
X177940174Y-105305952D01*
X177959561Y-105284561D01*
X177980952Y-105265174D01*
X178004139Y-105247977D01*
X178028901Y-105233136D01*
X178054998Y-105220793D01*
X178082179Y-105211067D01*
X178110183Y-105204052D01*
X178138739Y-105199817D01*
X178167573Y-105198400D01*
X178932427Y-105198400D01*
X178961261Y-105199817D01*
X178961261Y-105199817D01*
G37*
D20*
X178550000Y-106000000D03*
D19*
G36*
X176911261Y-105199817D02*
X176939817Y-105204052D01*
X176967821Y-105211067D01*
X176995002Y-105220793D01*
X177021099Y-105233136D01*
X177045861Y-105247977D01*
X177069048Y-105265174D01*
X177090439Y-105284561D01*
X177109826Y-105305952D01*
X177127023Y-105329139D01*
X177141864Y-105353901D01*
X177154207Y-105379998D01*
X177163933Y-105407179D01*
X177170948Y-105435183D01*
X177175183Y-105463739D01*
X177176600Y-105492573D01*
X177176600Y-106507427D01*
X177175183Y-106536261D01*
X177170948Y-106564817D01*
X177163933Y-106592821D01*
X177154207Y-106620002D01*
X177141864Y-106646099D01*
X177127023Y-106670861D01*
X177109826Y-106694048D01*
X177090439Y-106715439D01*
X177069048Y-106734826D01*
X177045861Y-106752023D01*
X177021099Y-106766864D01*
X176995002Y-106779207D01*
X176967821Y-106788933D01*
X176939817Y-106795948D01*
X176911261Y-106800183D01*
X176882427Y-106801600D01*
X176117573Y-106801600D01*
X176088739Y-106800183D01*
X176060183Y-106795948D01*
X176032179Y-106788933D01*
X176004998Y-106779207D01*
X175978901Y-106766864D01*
X175954139Y-106752023D01*
X175930952Y-106734826D01*
X175909561Y-106715439D01*
X175890174Y-106694048D01*
X175872977Y-106670861D01*
X175858136Y-106646099D01*
X175845793Y-106620002D01*
X175836067Y-106592821D01*
X175829052Y-106564817D01*
X175824817Y-106536261D01*
X175823400Y-106507427D01*
X175823400Y-105492573D01*
X175824817Y-105463739D01*
X175829052Y-105435183D01*
X175836067Y-105407179D01*
X175845793Y-105379998D01*
X175858136Y-105353901D01*
X175872977Y-105329139D01*
X175890174Y-105305952D01*
X175909561Y-105284561D01*
X175930952Y-105265174D01*
X175954139Y-105247977D01*
X175978901Y-105233136D01*
X176004998Y-105220793D01*
X176032179Y-105211067D01*
X176060183Y-105204052D01*
X176088739Y-105199817D01*
X176117573Y-105198400D01*
X176882427Y-105198400D01*
X176911261Y-105199817D01*
X176911261Y-105199817D01*
G37*
D20*
X176500000Y-106000000D03*
G04 #@! TD*
D19*
G04 #@! TO.C,R1*
G36*
X159386261Y-96449817D02*
X159414817Y-96454052D01*
X159442821Y-96461067D01*
X159470002Y-96470793D01*
X159496099Y-96483136D01*
X159520861Y-96497977D01*
X159544048Y-96515174D01*
X159565439Y-96534561D01*
X159584826Y-96555952D01*
X159602023Y-96579139D01*
X159616864Y-96603901D01*
X159629207Y-96629998D01*
X159638933Y-96657179D01*
X159645948Y-96685183D01*
X159650183Y-96713739D01*
X159651600Y-96742573D01*
X159651600Y-97757427D01*
X159650183Y-97786261D01*
X159645948Y-97814817D01*
X159638933Y-97842821D01*
X159629207Y-97870002D01*
X159616864Y-97896099D01*
X159602023Y-97920861D01*
X159584826Y-97944048D01*
X159565439Y-97965439D01*
X159544048Y-97984826D01*
X159520861Y-98002023D01*
X159496099Y-98016864D01*
X159470002Y-98029207D01*
X159442821Y-98038933D01*
X159414817Y-98045948D01*
X159386261Y-98050183D01*
X159357427Y-98051600D01*
X158592573Y-98051600D01*
X158563739Y-98050183D01*
X158535183Y-98045948D01*
X158507179Y-98038933D01*
X158479998Y-98029207D01*
X158453901Y-98016864D01*
X158429139Y-98002023D01*
X158405952Y-97984826D01*
X158384561Y-97965439D01*
X158365174Y-97944048D01*
X158347977Y-97920861D01*
X158333136Y-97896099D01*
X158320793Y-97870002D01*
X158311067Y-97842821D01*
X158304052Y-97814817D01*
X158299817Y-97786261D01*
X158298400Y-97757427D01*
X158298400Y-96742573D01*
X158299817Y-96713739D01*
X158304052Y-96685183D01*
X158311067Y-96657179D01*
X158320793Y-96629998D01*
X158333136Y-96603901D01*
X158347977Y-96579139D01*
X158365174Y-96555952D01*
X158384561Y-96534561D01*
X158405952Y-96515174D01*
X158429139Y-96497977D01*
X158453901Y-96483136D01*
X158479998Y-96470793D01*
X158507179Y-96461067D01*
X158535183Y-96454052D01*
X158563739Y-96449817D01*
X158592573Y-96448400D01*
X159357427Y-96448400D01*
X159386261Y-96449817D01*
X159386261Y-96449817D01*
G37*
D20*
X158975000Y-97250000D03*
D19*
G36*
X161436261Y-96449817D02*
X161464817Y-96454052D01*
X161492821Y-96461067D01*
X161520002Y-96470793D01*
X161546099Y-96483136D01*
X161570861Y-96497977D01*
X161594048Y-96515174D01*
X161615439Y-96534561D01*
X161634826Y-96555952D01*
X161652023Y-96579139D01*
X161666864Y-96603901D01*
X161679207Y-96629998D01*
X161688933Y-96657179D01*
X161695948Y-96685183D01*
X161700183Y-96713739D01*
X161701600Y-96742573D01*
X161701600Y-97757427D01*
X161700183Y-97786261D01*
X161695948Y-97814817D01*
X161688933Y-97842821D01*
X161679207Y-97870002D01*
X161666864Y-97896099D01*
X161652023Y-97920861D01*
X161634826Y-97944048D01*
X161615439Y-97965439D01*
X161594048Y-97984826D01*
X161570861Y-98002023D01*
X161546099Y-98016864D01*
X161520002Y-98029207D01*
X161492821Y-98038933D01*
X161464817Y-98045948D01*
X161436261Y-98050183D01*
X161407427Y-98051600D01*
X160642573Y-98051600D01*
X160613739Y-98050183D01*
X160585183Y-98045948D01*
X160557179Y-98038933D01*
X160529998Y-98029207D01*
X160503901Y-98016864D01*
X160479139Y-98002023D01*
X160455952Y-97984826D01*
X160434561Y-97965439D01*
X160415174Y-97944048D01*
X160397977Y-97920861D01*
X160383136Y-97896099D01*
X160370793Y-97870002D01*
X160361067Y-97842821D01*
X160354052Y-97814817D01*
X160349817Y-97786261D01*
X160348400Y-97757427D01*
X160348400Y-96742573D01*
X160349817Y-96713739D01*
X160354052Y-96685183D01*
X160361067Y-96657179D01*
X160370793Y-96629998D01*
X160383136Y-96603901D01*
X160397977Y-96579139D01*
X160415174Y-96555952D01*
X160434561Y-96534561D01*
X160455952Y-96515174D01*
X160479139Y-96497977D01*
X160503901Y-96483136D01*
X160529998Y-96470793D01*
X160557179Y-96461067D01*
X160585183Y-96454052D01*
X160613739Y-96449817D01*
X160642573Y-96448400D01*
X161407427Y-96448400D01*
X161436261Y-96449817D01*
X161436261Y-96449817D01*
G37*
D20*
X161025000Y-97250000D03*
G04 #@! TD*
D19*
G04 #@! TO.C,R2*
G36*
X159386261Y-98949817D02*
X159414817Y-98954052D01*
X159442821Y-98961067D01*
X159470002Y-98970793D01*
X159496099Y-98983136D01*
X159520861Y-98997977D01*
X159544048Y-99015174D01*
X159565439Y-99034561D01*
X159584826Y-99055952D01*
X159602023Y-99079139D01*
X159616864Y-99103901D01*
X159629207Y-99129998D01*
X159638933Y-99157179D01*
X159645948Y-99185183D01*
X159650183Y-99213739D01*
X159651600Y-99242573D01*
X159651600Y-100257427D01*
X159650183Y-100286261D01*
X159645948Y-100314817D01*
X159638933Y-100342821D01*
X159629207Y-100370002D01*
X159616864Y-100396099D01*
X159602023Y-100420861D01*
X159584826Y-100444048D01*
X159565439Y-100465439D01*
X159544048Y-100484826D01*
X159520861Y-100502023D01*
X159496099Y-100516864D01*
X159470002Y-100529207D01*
X159442821Y-100538933D01*
X159414817Y-100545948D01*
X159386261Y-100550183D01*
X159357427Y-100551600D01*
X158592573Y-100551600D01*
X158563739Y-100550183D01*
X158535183Y-100545948D01*
X158507179Y-100538933D01*
X158479998Y-100529207D01*
X158453901Y-100516864D01*
X158429139Y-100502023D01*
X158405952Y-100484826D01*
X158384561Y-100465439D01*
X158365174Y-100444048D01*
X158347977Y-100420861D01*
X158333136Y-100396099D01*
X158320793Y-100370002D01*
X158311067Y-100342821D01*
X158304052Y-100314817D01*
X158299817Y-100286261D01*
X158298400Y-100257427D01*
X158298400Y-99242573D01*
X158299817Y-99213739D01*
X158304052Y-99185183D01*
X158311067Y-99157179D01*
X158320793Y-99129998D01*
X158333136Y-99103901D01*
X158347977Y-99079139D01*
X158365174Y-99055952D01*
X158384561Y-99034561D01*
X158405952Y-99015174D01*
X158429139Y-98997977D01*
X158453901Y-98983136D01*
X158479998Y-98970793D01*
X158507179Y-98961067D01*
X158535183Y-98954052D01*
X158563739Y-98949817D01*
X158592573Y-98948400D01*
X159357427Y-98948400D01*
X159386261Y-98949817D01*
X159386261Y-98949817D01*
G37*
D20*
X158975000Y-99750000D03*
D19*
G36*
X161436261Y-98949817D02*
X161464817Y-98954052D01*
X161492821Y-98961067D01*
X161520002Y-98970793D01*
X161546099Y-98983136D01*
X161570861Y-98997977D01*
X161594048Y-99015174D01*
X161615439Y-99034561D01*
X161634826Y-99055952D01*
X161652023Y-99079139D01*
X161666864Y-99103901D01*
X161679207Y-99129998D01*
X161688933Y-99157179D01*
X161695948Y-99185183D01*
X161700183Y-99213739D01*
X161701600Y-99242573D01*
X161701600Y-100257427D01*
X161700183Y-100286261D01*
X161695948Y-100314817D01*
X161688933Y-100342821D01*
X161679207Y-100370002D01*
X161666864Y-100396099D01*
X161652023Y-100420861D01*
X161634826Y-100444048D01*
X161615439Y-100465439D01*
X161594048Y-100484826D01*
X161570861Y-100502023D01*
X161546099Y-100516864D01*
X161520002Y-100529207D01*
X161492821Y-100538933D01*
X161464817Y-100545948D01*
X161436261Y-100550183D01*
X161407427Y-100551600D01*
X160642573Y-100551600D01*
X160613739Y-100550183D01*
X160585183Y-100545948D01*
X160557179Y-100538933D01*
X160529998Y-100529207D01*
X160503901Y-100516864D01*
X160479139Y-100502023D01*
X160455952Y-100484826D01*
X160434561Y-100465439D01*
X160415174Y-100444048D01*
X160397977Y-100420861D01*
X160383136Y-100396099D01*
X160370793Y-100370002D01*
X160361067Y-100342821D01*
X160354052Y-100314817D01*
X160349817Y-100286261D01*
X160348400Y-100257427D01*
X160348400Y-99242573D01*
X160349817Y-99213739D01*
X160354052Y-99185183D01*
X160361067Y-99157179D01*
X160370793Y-99129998D01*
X160383136Y-99103901D01*
X160397977Y-99079139D01*
X160415174Y-99055952D01*
X160434561Y-99034561D01*
X160455952Y-99015174D01*
X160479139Y-98997977D01*
X160503901Y-98983136D01*
X160529998Y-98970793D01*
X160557179Y-98961067D01*
X160585183Y-98954052D01*
X160613739Y-98949817D01*
X160642573Y-98948400D01*
X161407427Y-98948400D01*
X161436261Y-98949817D01*
X161436261Y-98949817D01*
G37*
D20*
X161025000Y-99750000D03*
G04 #@! TD*
D19*
G04 #@! TO.C,R3*
G36*
X187886261Y-100199817D02*
X187914817Y-100204052D01*
X187942821Y-100211067D01*
X187970002Y-100220793D01*
X187996099Y-100233136D01*
X188020861Y-100247977D01*
X188044048Y-100265174D01*
X188065439Y-100284561D01*
X188084826Y-100305952D01*
X188102023Y-100329139D01*
X188116864Y-100353901D01*
X188129207Y-100379998D01*
X188138933Y-100407179D01*
X188145948Y-100435183D01*
X188150183Y-100463739D01*
X188151600Y-100492573D01*
X188151600Y-101507427D01*
X188150183Y-101536261D01*
X188145948Y-101564817D01*
X188138933Y-101592821D01*
X188129207Y-101620002D01*
X188116864Y-101646099D01*
X188102023Y-101670861D01*
X188084826Y-101694048D01*
X188065439Y-101715439D01*
X188044048Y-101734826D01*
X188020861Y-101752023D01*
X187996099Y-101766864D01*
X187970002Y-101779207D01*
X187942821Y-101788933D01*
X187914817Y-101795948D01*
X187886261Y-101800183D01*
X187857427Y-101801600D01*
X187092573Y-101801600D01*
X187063739Y-101800183D01*
X187035183Y-101795948D01*
X187007179Y-101788933D01*
X186979998Y-101779207D01*
X186953901Y-101766864D01*
X186929139Y-101752023D01*
X186905952Y-101734826D01*
X186884561Y-101715439D01*
X186865174Y-101694048D01*
X186847977Y-101670861D01*
X186833136Y-101646099D01*
X186820793Y-101620002D01*
X186811067Y-101592821D01*
X186804052Y-101564817D01*
X186799817Y-101536261D01*
X186798400Y-101507427D01*
X186798400Y-100492573D01*
X186799817Y-100463739D01*
X186804052Y-100435183D01*
X186811067Y-100407179D01*
X186820793Y-100379998D01*
X186833136Y-100353901D01*
X186847977Y-100329139D01*
X186865174Y-100305952D01*
X186884561Y-100284561D01*
X186905952Y-100265174D01*
X186929139Y-100247977D01*
X186953901Y-100233136D01*
X186979998Y-100220793D01*
X187007179Y-100211067D01*
X187035183Y-100204052D01*
X187063739Y-100199817D01*
X187092573Y-100198400D01*
X187857427Y-100198400D01*
X187886261Y-100199817D01*
X187886261Y-100199817D01*
G37*
D20*
X187475000Y-101000000D03*
D19*
G36*
X189936261Y-100199817D02*
X189964817Y-100204052D01*
X189992821Y-100211067D01*
X190020002Y-100220793D01*
X190046099Y-100233136D01*
X190070861Y-100247977D01*
X190094048Y-100265174D01*
X190115439Y-100284561D01*
X190134826Y-100305952D01*
X190152023Y-100329139D01*
X190166864Y-100353901D01*
X190179207Y-100379998D01*
X190188933Y-100407179D01*
X190195948Y-100435183D01*
X190200183Y-100463739D01*
X190201600Y-100492573D01*
X190201600Y-101507427D01*
X190200183Y-101536261D01*
X190195948Y-101564817D01*
X190188933Y-101592821D01*
X190179207Y-101620002D01*
X190166864Y-101646099D01*
X190152023Y-101670861D01*
X190134826Y-101694048D01*
X190115439Y-101715439D01*
X190094048Y-101734826D01*
X190070861Y-101752023D01*
X190046099Y-101766864D01*
X190020002Y-101779207D01*
X189992821Y-101788933D01*
X189964817Y-101795948D01*
X189936261Y-101800183D01*
X189907427Y-101801600D01*
X189142573Y-101801600D01*
X189113739Y-101800183D01*
X189085183Y-101795948D01*
X189057179Y-101788933D01*
X189029998Y-101779207D01*
X189003901Y-101766864D01*
X188979139Y-101752023D01*
X188955952Y-101734826D01*
X188934561Y-101715439D01*
X188915174Y-101694048D01*
X188897977Y-101670861D01*
X188883136Y-101646099D01*
X188870793Y-101620002D01*
X188861067Y-101592821D01*
X188854052Y-101564817D01*
X188849817Y-101536261D01*
X188848400Y-101507427D01*
X188848400Y-100492573D01*
X188849817Y-100463739D01*
X188854052Y-100435183D01*
X188861067Y-100407179D01*
X188870793Y-100379998D01*
X188883136Y-100353901D01*
X188897977Y-100329139D01*
X188915174Y-100305952D01*
X188934561Y-100284561D01*
X188955952Y-100265174D01*
X188979139Y-100247977D01*
X189003901Y-100233136D01*
X189029998Y-100220793D01*
X189057179Y-100211067D01*
X189085183Y-100204052D01*
X189113739Y-100199817D01*
X189142573Y-100198400D01*
X189907427Y-100198400D01*
X189936261Y-100199817D01*
X189936261Y-100199817D01*
G37*
D20*
X189525000Y-101000000D03*
G04 #@! TD*
D19*
G04 #@! TO.C,R4*
G36*
X189936261Y-97699817D02*
X189964817Y-97704052D01*
X189992821Y-97711067D01*
X190020002Y-97720793D01*
X190046099Y-97733136D01*
X190070861Y-97747977D01*
X190094048Y-97765174D01*
X190115439Y-97784561D01*
X190134826Y-97805952D01*
X190152023Y-97829139D01*
X190166864Y-97853901D01*
X190179207Y-97879998D01*
X190188933Y-97907179D01*
X190195948Y-97935183D01*
X190200183Y-97963739D01*
X190201600Y-97992573D01*
X190201600Y-99007427D01*
X190200183Y-99036261D01*
X190195948Y-99064817D01*
X190188933Y-99092821D01*
X190179207Y-99120002D01*
X190166864Y-99146099D01*
X190152023Y-99170861D01*
X190134826Y-99194048D01*
X190115439Y-99215439D01*
X190094048Y-99234826D01*
X190070861Y-99252023D01*
X190046099Y-99266864D01*
X190020002Y-99279207D01*
X189992821Y-99288933D01*
X189964817Y-99295948D01*
X189936261Y-99300183D01*
X189907427Y-99301600D01*
X189142573Y-99301600D01*
X189113739Y-99300183D01*
X189085183Y-99295948D01*
X189057179Y-99288933D01*
X189029998Y-99279207D01*
X189003901Y-99266864D01*
X188979139Y-99252023D01*
X188955952Y-99234826D01*
X188934561Y-99215439D01*
X188915174Y-99194048D01*
X188897977Y-99170861D01*
X188883136Y-99146099D01*
X188870793Y-99120002D01*
X188861067Y-99092821D01*
X188854052Y-99064817D01*
X188849817Y-99036261D01*
X188848400Y-99007427D01*
X188848400Y-97992573D01*
X188849817Y-97963739D01*
X188854052Y-97935183D01*
X188861067Y-97907179D01*
X188870793Y-97879998D01*
X188883136Y-97853901D01*
X188897977Y-97829139D01*
X188915174Y-97805952D01*
X188934561Y-97784561D01*
X188955952Y-97765174D01*
X188979139Y-97747977D01*
X189003901Y-97733136D01*
X189029998Y-97720793D01*
X189057179Y-97711067D01*
X189085183Y-97704052D01*
X189113739Y-97699817D01*
X189142573Y-97698400D01*
X189907427Y-97698400D01*
X189936261Y-97699817D01*
X189936261Y-97699817D01*
G37*
D20*
X189525000Y-98500000D03*
D19*
G36*
X187886261Y-97699817D02*
X187914817Y-97704052D01*
X187942821Y-97711067D01*
X187970002Y-97720793D01*
X187996099Y-97733136D01*
X188020861Y-97747977D01*
X188044048Y-97765174D01*
X188065439Y-97784561D01*
X188084826Y-97805952D01*
X188102023Y-97829139D01*
X188116864Y-97853901D01*
X188129207Y-97879998D01*
X188138933Y-97907179D01*
X188145948Y-97935183D01*
X188150183Y-97963739D01*
X188151600Y-97992573D01*
X188151600Y-99007427D01*
X188150183Y-99036261D01*
X188145948Y-99064817D01*
X188138933Y-99092821D01*
X188129207Y-99120002D01*
X188116864Y-99146099D01*
X188102023Y-99170861D01*
X188084826Y-99194048D01*
X188065439Y-99215439D01*
X188044048Y-99234826D01*
X188020861Y-99252023D01*
X187996099Y-99266864D01*
X187970002Y-99279207D01*
X187942821Y-99288933D01*
X187914817Y-99295948D01*
X187886261Y-99300183D01*
X187857427Y-99301600D01*
X187092573Y-99301600D01*
X187063739Y-99300183D01*
X187035183Y-99295948D01*
X187007179Y-99288933D01*
X186979998Y-99279207D01*
X186953901Y-99266864D01*
X186929139Y-99252023D01*
X186905952Y-99234826D01*
X186884561Y-99215439D01*
X186865174Y-99194048D01*
X186847977Y-99170861D01*
X186833136Y-99146099D01*
X186820793Y-99120002D01*
X186811067Y-99092821D01*
X186804052Y-99064817D01*
X186799817Y-99036261D01*
X186798400Y-99007427D01*
X186798400Y-97992573D01*
X186799817Y-97963739D01*
X186804052Y-97935183D01*
X186811067Y-97907179D01*
X186820793Y-97879998D01*
X186833136Y-97853901D01*
X186847977Y-97829139D01*
X186865174Y-97805952D01*
X186884561Y-97784561D01*
X186905952Y-97765174D01*
X186929139Y-97747977D01*
X186953901Y-97733136D01*
X186979998Y-97720793D01*
X187007179Y-97711067D01*
X187035183Y-97704052D01*
X187063739Y-97699817D01*
X187092573Y-97698400D01*
X187857427Y-97698400D01*
X187886261Y-97699817D01*
X187886261Y-97699817D01*
G37*
D20*
X187475000Y-98500000D03*
G04 #@! TD*
D19*
G04 #@! TO.C,R5*
G36*
X187886261Y-95199817D02*
X187914817Y-95204052D01*
X187942821Y-95211067D01*
X187970002Y-95220793D01*
X187996099Y-95233136D01*
X188020861Y-95247977D01*
X188044048Y-95265174D01*
X188065439Y-95284561D01*
X188084826Y-95305952D01*
X188102023Y-95329139D01*
X188116864Y-95353901D01*
X188129207Y-95379998D01*
X188138933Y-95407179D01*
X188145948Y-95435183D01*
X188150183Y-95463739D01*
X188151600Y-95492573D01*
X188151600Y-96507427D01*
X188150183Y-96536261D01*
X188145948Y-96564817D01*
X188138933Y-96592821D01*
X188129207Y-96620002D01*
X188116864Y-96646099D01*
X188102023Y-96670861D01*
X188084826Y-96694048D01*
X188065439Y-96715439D01*
X188044048Y-96734826D01*
X188020861Y-96752023D01*
X187996099Y-96766864D01*
X187970002Y-96779207D01*
X187942821Y-96788933D01*
X187914817Y-96795948D01*
X187886261Y-96800183D01*
X187857427Y-96801600D01*
X187092573Y-96801600D01*
X187063739Y-96800183D01*
X187035183Y-96795948D01*
X187007179Y-96788933D01*
X186979998Y-96779207D01*
X186953901Y-96766864D01*
X186929139Y-96752023D01*
X186905952Y-96734826D01*
X186884561Y-96715439D01*
X186865174Y-96694048D01*
X186847977Y-96670861D01*
X186833136Y-96646099D01*
X186820793Y-96620002D01*
X186811067Y-96592821D01*
X186804052Y-96564817D01*
X186799817Y-96536261D01*
X186798400Y-96507427D01*
X186798400Y-95492573D01*
X186799817Y-95463739D01*
X186804052Y-95435183D01*
X186811067Y-95407179D01*
X186820793Y-95379998D01*
X186833136Y-95353901D01*
X186847977Y-95329139D01*
X186865174Y-95305952D01*
X186884561Y-95284561D01*
X186905952Y-95265174D01*
X186929139Y-95247977D01*
X186953901Y-95233136D01*
X186979998Y-95220793D01*
X187007179Y-95211067D01*
X187035183Y-95204052D01*
X187063739Y-95199817D01*
X187092573Y-95198400D01*
X187857427Y-95198400D01*
X187886261Y-95199817D01*
X187886261Y-95199817D01*
G37*
D20*
X187475000Y-96000000D03*
D19*
G36*
X189936261Y-95199817D02*
X189964817Y-95204052D01*
X189992821Y-95211067D01*
X190020002Y-95220793D01*
X190046099Y-95233136D01*
X190070861Y-95247977D01*
X190094048Y-95265174D01*
X190115439Y-95284561D01*
X190134826Y-95305952D01*
X190152023Y-95329139D01*
X190166864Y-95353901D01*
X190179207Y-95379998D01*
X190188933Y-95407179D01*
X190195948Y-95435183D01*
X190200183Y-95463739D01*
X190201600Y-95492573D01*
X190201600Y-96507427D01*
X190200183Y-96536261D01*
X190195948Y-96564817D01*
X190188933Y-96592821D01*
X190179207Y-96620002D01*
X190166864Y-96646099D01*
X190152023Y-96670861D01*
X190134826Y-96694048D01*
X190115439Y-96715439D01*
X190094048Y-96734826D01*
X190070861Y-96752023D01*
X190046099Y-96766864D01*
X190020002Y-96779207D01*
X189992821Y-96788933D01*
X189964817Y-96795948D01*
X189936261Y-96800183D01*
X189907427Y-96801600D01*
X189142573Y-96801600D01*
X189113739Y-96800183D01*
X189085183Y-96795948D01*
X189057179Y-96788933D01*
X189029998Y-96779207D01*
X189003901Y-96766864D01*
X188979139Y-96752023D01*
X188955952Y-96734826D01*
X188934561Y-96715439D01*
X188915174Y-96694048D01*
X188897977Y-96670861D01*
X188883136Y-96646099D01*
X188870793Y-96620002D01*
X188861067Y-96592821D01*
X188854052Y-96564817D01*
X188849817Y-96536261D01*
X188848400Y-96507427D01*
X188848400Y-95492573D01*
X188849817Y-95463739D01*
X188854052Y-95435183D01*
X188861067Y-95407179D01*
X188870793Y-95379998D01*
X188883136Y-95353901D01*
X188897977Y-95329139D01*
X188915174Y-95305952D01*
X188934561Y-95284561D01*
X188955952Y-95265174D01*
X188979139Y-95247977D01*
X189003901Y-95233136D01*
X189029998Y-95220793D01*
X189057179Y-95211067D01*
X189085183Y-95204052D01*
X189113739Y-95199817D01*
X189142573Y-95198400D01*
X189907427Y-95198400D01*
X189936261Y-95199817D01*
X189936261Y-95199817D01*
G37*
D20*
X189525000Y-96000000D03*
G04 #@! TD*
D19*
G04 #@! TO.C,R6*
G36*
X187886261Y-90199817D02*
X187914817Y-90204052D01*
X187942821Y-90211067D01*
X187970002Y-90220793D01*
X187996099Y-90233136D01*
X188020861Y-90247977D01*
X188044048Y-90265174D01*
X188065439Y-90284561D01*
X188084826Y-90305952D01*
X188102023Y-90329139D01*
X188116864Y-90353901D01*
X188129207Y-90379998D01*
X188138933Y-90407179D01*
X188145948Y-90435183D01*
X188150183Y-90463739D01*
X188151600Y-90492573D01*
X188151600Y-91507427D01*
X188150183Y-91536261D01*
X188145948Y-91564817D01*
X188138933Y-91592821D01*
X188129207Y-91620002D01*
X188116864Y-91646099D01*
X188102023Y-91670861D01*
X188084826Y-91694048D01*
X188065439Y-91715439D01*
X188044048Y-91734826D01*
X188020861Y-91752023D01*
X187996099Y-91766864D01*
X187970002Y-91779207D01*
X187942821Y-91788933D01*
X187914817Y-91795948D01*
X187886261Y-91800183D01*
X187857427Y-91801600D01*
X187092573Y-91801600D01*
X187063739Y-91800183D01*
X187035183Y-91795948D01*
X187007179Y-91788933D01*
X186979998Y-91779207D01*
X186953901Y-91766864D01*
X186929139Y-91752023D01*
X186905952Y-91734826D01*
X186884561Y-91715439D01*
X186865174Y-91694048D01*
X186847977Y-91670861D01*
X186833136Y-91646099D01*
X186820793Y-91620002D01*
X186811067Y-91592821D01*
X186804052Y-91564817D01*
X186799817Y-91536261D01*
X186798400Y-91507427D01*
X186798400Y-90492573D01*
X186799817Y-90463739D01*
X186804052Y-90435183D01*
X186811067Y-90407179D01*
X186820793Y-90379998D01*
X186833136Y-90353901D01*
X186847977Y-90329139D01*
X186865174Y-90305952D01*
X186884561Y-90284561D01*
X186905952Y-90265174D01*
X186929139Y-90247977D01*
X186953901Y-90233136D01*
X186979998Y-90220793D01*
X187007179Y-90211067D01*
X187035183Y-90204052D01*
X187063739Y-90199817D01*
X187092573Y-90198400D01*
X187857427Y-90198400D01*
X187886261Y-90199817D01*
X187886261Y-90199817D01*
G37*
D20*
X187475000Y-91000000D03*
D19*
G36*
X189936261Y-90199817D02*
X189964817Y-90204052D01*
X189992821Y-90211067D01*
X190020002Y-90220793D01*
X190046099Y-90233136D01*
X190070861Y-90247977D01*
X190094048Y-90265174D01*
X190115439Y-90284561D01*
X190134826Y-90305952D01*
X190152023Y-90329139D01*
X190166864Y-90353901D01*
X190179207Y-90379998D01*
X190188933Y-90407179D01*
X190195948Y-90435183D01*
X190200183Y-90463739D01*
X190201600Y-90492573D01*
X190201600Y-91507427D01*
X190200183Y-91536261D01*
X190195948Y-91564817D01*
X190188933Y-91592821D01*
X190179207Y-91620002D01*
X190166864Y-91646099D01*
X190152023Y-91670861D01*
X190134826Y-91694048D01*
X190115439Y-91715439D01*
X190094048Y-91734826D01*
X190070861Y-91752023D01*
X190046099Y-91766864D01*
X190020002Y-91779207D01*
X189992821Y-91788933D01*
X189964817Y-91795948D01*
X189936261Y-91800183D01*
X189907427Y-91801600D01*
X189142573Y-91801600D01*
X189113739Y-91800183D01*
X189085183Y-91795948D01*
X189057179Y-91788933D01*
X189029998Y-91779207D01*
X189003901Y-91766864D01*
X188979139Y-91752023D01*
X188955952Y-91734826D01*
X188934561Y-91715439D01*
X188915174Y-91694048D01*
X188897977Y-91670861D01*
X188883136Y-91646099D01*
X188870793Y-91620002D01*
X188861067Y-91592821D01*
X188854052Y-91564817D01*
X188849817Y-91536261D01*
X188848400Y-91507427D01*
X188848400Y-90492573D01*
X188849817Y-90463739D01*
X188854052Y-90435183D01*
X188861067Y-90407179D01*
X188870793Y-90379998D01*
X188883136Y-90353901D01*
X188897977Y-90329139D01*
X188915174Y-90305952D01*
X188934561Y-90284561D01*
X188955952Y-90265174D01*
X188979139Y-90247977D01*
X189003901Y-90233136D01*
X189029998Y-90220793D01*
X189057179Y-90211067D01*
X189085183Y-90204052D01*
X189113739Y-90199817D01*
X189142573Y-90198400D01*
X189907427Y-90198400D01*
X189936261Y-90199817D01*
X189936261Y-90199817D01*
G37*
D20*
X189525000Y-91000000D03*
G04 #@! TD*
D19*
G04 #@! TO.C,R7*
G36*
X159386261Y-93949817D02*
X159414817Y-93954052D01*
X159442821Y-93961067D01*
X159470002Y-93970793D01*
X159496099Y-93983136D01*
X159520861Y-93997977D01*
X159544048Y-94015174D01*
X159565439Y-94034561D01*
X159584826Y-94055952D01*
X159602023Y-94079139D01*
X159616864Y-94103901D01*
X159629207Y-94129998D01*
X159638933Y-94157179D01*
X159645948Y-94185183D01*
X159650183Y-94213739D01*
X159651600Y-94242573D01*
X159651600Y-95257427D01*
X159650183Y-95286261D01*
X159645948Y-95314817D01*
X159638933Y-95342821D01*
X159629207Y-95370002D01*
X159616864Y-95396099D01*
X159602023Y-95420861D01*
X159584826Y-95444048D01*
X159565439Y-95465439D01*
X159544048Y-95484826D01*
X159520861Y-95502023D01*
X159496099Y-95516864D01*
X159470002Y-95529207D01*
X159442821Y-95538933D01*
X159414817Y-95545948D01*
X159386261Y-95550183D01*
X159357427Y-95551600D01*
X158592573Y-95551600D01*
X158563739Y-95550183D01*
X158535183Y-95545948D01*
X158507179Y-95538933D01*
X158479998Y-95529207D01*
X158453901Y-95516864D01*
X158429139Y-95502023D01*
X158405952Y-95484826D01*
X158384561Y-95465439D01*
X158365174Y-95444048D01*
X158347977Y-95420861D01*
X158333136Y-95396099D01*
X158320793Y-95370002D01*
X158311067Y-95342821D01*
X158304052Y-95314817D01*
X158299817Y-95286261D01*
X158298400Y-95257427D01*
X158298400Y-94242573D01*
X158299817Y-94213739D01*
X158304052Y-94185183D01*
X158311067Y-94157179D01*
X158320793Y-94129998D01*
X158333136Y-94103901D01*
X158347977Y-94079139D01*
X158365174Y-94055952D01*
X158384561Y-94034561D01*
X158405952Y-94015174D01*
X158429139Y-93997977D01*
X158453901Y-93983136D01*
X158479998Y-93970793D01*
X158507179Y-93961067D01*
X158535183Y-93954052D01*
X158563739Y-93949817D01*
X158592573Y-93948400D01*
X159357427Y-93948400D01*
X159386261Y-93949817D01*
X159386261Y-93949817D01*
G37*
D20*
X158975000Y-94750000D03*
D19*
G36*
X161436261Y-93949817D02*
X161464817Y-93954052D01*
X161492821Y-93961067D01*
X161520002Y-93970793D01*
X161546099Y-93983136D01*
X161570861Y-93997977D01*
X161594048Y-94015174D01*
X161615439Y-94034561D01*
X161634826Y-94055952D01*
X161652023Y-94079139D01*
X161666864Y-94103901D01*
X161679207Y-94129998D01*
X161688933Y-94157179D01*
X161695948Y-94185183D01*
X161700183Y-94213739D01*
X161701600Y-94242573D01*
X161701600Y-95257427D01*
X161700183Y-95286261D01*
X161695948Y-95314817D01*
X161688933Y-95342821D01*
X161679207Y-95370002D01*
X161666864Y-95396099D01*
X161652023Y-95420861D01*
X161634826Y-95444048D01*
X161615439Y-95465439D01*
X161594048Y-95484826D01*
X161570861Y-95502023D01*
X161546099Y-95516864D01*
X161520002Y-95529207D01*
X161492821Y-95538933D01*
X161464817Y-95545948D01*
X161436261Y-95550183D01*
X161407427Y-95551600D01*
X160642573Y-95551600D01*
X160613739Y-95550183D01*
X160585183Y-95545948D01*
X160557179Y-95538933D01*
X160529998Y-95529207D01*
X160503901Y-95516864D01*
X160479139Y-95502023D01*
X160455952Y-95484826D01*
X160434561Y-95465439D01*
X160415174Y-95444048D01*
X160397977Y-95420861D01*
X160383136Y-95396099D01*
X160370793Y-95370002D01*
X160361067Y-95342821D01*
X160354052Y-95314817D01*
X160349817Y-95286261D01*
X160348400Y-95257427D01*
X160348400Y-94242573D01*
X160349817Y-94213739D01*
X160354052Y-94185183D01*
X160361067Y-94157179D01*
X160370793Y-94129998D01*
X160383136Y-94103901D01*
X160397977Y-94079139D01*
X160415174Y-94055952D01*
X160434561Y-94034561D01*
X160455952Y-94015174D01*
X160479139Y-93997977D01*
X160503901Y-93983136D01*
X160529998Y-93970793D01*
X160557179Y-93961067D01*
X160585183Y-93954052D01*
X160613739Y-93949817D01*
X160642573Y-93948400D01*
X161407427Y-93948400D01*
X161436261Y-93949817D01*
X161436261Y-93949817D01*
G37*
D20*
X161025000Y-94750000D03*
G04 #@! TD*
D19*
G04 #@! TO.C,R8*
G36*
X165636261Y-92699817D02*
X165664817Y-92704052D01*
X165692821Y-92711067D01*
X165720002Y-92720793D01*
X165746099Y-92733136D01*
X165770861Y-92747977D01*
X165794048Y-92765174D01*
X165815439Y-92784561D01*
X165834826Y-92805952D01*
X165852023Y-92829139D01*
X165866864Y-92853901D01*
X165879207Y-92879998D01*
X165888933Y-92907179D01*
X165895948Y-92935183D01*
X165900183Y-92963739D01*
X165901600Y-92992573D01*
X165901600Y-94007427D01*
X165900183Y-94036261D01*
X165895948Y-94064817D01*
X165888933Y-94092821D01*
X165879207Y-94120002D01*
X165866864Y-94146099D01*
X165852023Y-94170861D01*
X165834826Y-94194048D01*
X165815439Y-94215439D01*
X165794048Y-94234826D01*
X165770861Y-94252023D01*
X165746099Y-94266864D01*
X165720002Y-94279207D01*
X165692821Y-94288933D01*
X165664817Y-94295948D01*
X165636261Y-94300183D01*
X165607427Y-94301600D01*
X164842573Y-94301600D01*
X164813739Y-94300183D01*
X164785183Y-94295948D01*
X164757179Y-94288933D01*
X164729998Y-94279207D01*
X164703901Y-94266864D01*
X164679139Y-94252023D01*
X164655952Y-94234826D01*
X164634561Y-94215439D01*
X164615174Y-94194048D01*
X164597977Y-94170861D01*
X164583136Y-94146099D01*
X164570793Y-94120002D01*
X164561067Y-94092821D01*
X164554052Y-94064817D01*
X164549817Y-94036261D01*
X164548400Y-94007427D01*
X164548400Y-92992573D01*
X164549817Y-92963739D01*
X164554052Y-92935183D01*
X164561067Y-92907179D01*
X164570793Y-92879998D01*
X164583136Y-92853901D01*
X164597977Y-92829139D01*
X164615174Y-92805952D01*
X164634561Y-92784561D01*
X164655952Y-92765174D01*
X164679139Y-92747977D01*
X164703901Y-92733136D01*
X164729998Y-92720793D01*
X164757179Y-92711067D01*
X164785183Y-92704052D01*
X164813739Y-92699817D01*
X164842573Y-92698400D01*
X165607427Y-92698400D01*
X165636261Y-92699817D01*
X165636261Y-92699817D01*
G37*
D20*
X165225000Y-93500000D03*
D19*
G36*
X167686261Y-92699817D02*
X167714817Y-92704052D01*
X167742821Y-92711067D01*
X167770002Y-92720793D01*
X167796099Y-92733136D01*
X167820861Y-92747977D01*
X167844048Y-92765174D01*
X167865439Y-92784561D01*
X167884826Y-92805952D01*
X167902023Y-92829139D01*
X167916864Y-92853901D01*
X167929207Y-92879998D01*
X167938933Y-92907179D01*
X167945948Y-92935183D01*
X167950183Y-92963739D01*
X167951600Y-92992573D01*
X167951600Y-94007427D01*
X167950183Y-94036261D01*
X167945948Y-94064817D01*
X167938933Y-94092821D01*
X167929207Y-94120002D01*
X167916864Y-94146099D01*
X167902023Y-94170861D01*
X167884826Y-94194048D01*
X167865439Y-94215439D01*
X167844048Y-94234826D01*
X167820861Y-94252023D01*
X167796099Y-94266864D01*
X167770002Y-94279207D01*
X167742821Y-94288933D01*
X167714817Y-94295948D01*
X167686261Y-94300183D01*
X167657427Y-94301600D01*
X166892573Y-94301600D01*
X166863739Y-94300183D01*
X166835183Y-94295948D01*
X166807179Y-94288933D01*
X166779998Y-94279207D01*
X166753901Y-94266864D01*
X166729139Y-94252023D01*
X166705952Y-94234826D01*
X166684561Y-94215439D01*
X166665174Y-94194048D01*
X166647977Y-94170861D01*
X166633136Y-94146099D01*
X166620793Y-94120002D01*
X166611067Y-94092821D01*
X166604052Y-94064817D01*
X166599817Y-94036261D01*
X166598400Y-94007427D01*
X166598400Y-92992573D01*
X166599817Y-92963739D01*
X166604052Y-92935183D01*
X166611067Y-92907179D01*
X166620793Y-92879998D01*
X166633136Y-92853901D01*
X166647977Y-92829139D01*
X166665174Y-92805952D01*
X166684561Y-92784561D01*
X166705952Y-92765174D01*
X166729139Y-92747977D01*
X166753901Y-92733136D01*
X166779998Y-92720793D01*
X166807179Y-92711067D01*
X166835183Y-92704052D01*
X166863739Y-92699817D01*
X166892573Y-92698400D01*
X167657427Y-92698400D01*
X167686261Y-92699817D01*
X167686261Y-92699817D01*
G37*
D20*
X167275000Y-93500000D03*
G04 #@! TD*
D19*
G04 #@! TO.C,R9*
G36*
X167686261Y-97699817D02*
X167714817Y-97704052D01*
X167742821Y-97711067D01*
X167770002Y-97720793D01*
X167796099Y-97733136D01*
X167820861Y-97747977D01*
X167844048Y-97765174D01*
X167865439Y-97784561D01*
X167884826Y-97805952D01*
X167902023Y-97829139D01*
X167916864Y-97853901D01*
X167929207Y-97879998D01*
X167938933Y-97907179D01*
X167945948Y-97935183D01*
X167950183Y-97963739D01*
X167951600Y-97992573D01*
X167951600Y-99007427D01*
X167950183Y-99036261D01*
X167945948Y-99064817D01*
X167938933Y-99092821D01*
X167929207Y-99120002D01*
X167916864Y-99146099D01*
X167902023Y-99170861D01*
X167884826Y-99194048D01*
X167865439Y-99215439D01*
X167844048Y-99234826D01*
X167820861Y-99252023D01*
X167796099Y-99266864D01*
X167770002Y-99279207D01*
X167742821Y-99288933D01*
X167714817Y-99295948D01*
X167686261Y-99300183D01*
X167657427Y-99301600D01*
X166892573Y-99301600D01*
X166863739Y-99300183D01*
X166835183Y-99295948D01*
X166807179Y-99288933D01*
X166779998Y-99279207D01*
X166753901Y-99266864D01*
X166729139Y-99252023D01*
X166705952Y-99234826D01*
X166684561Y-99215439D01*
X166665174Y-99194048D01*
X166647977Y-99170861D01*
X166633136Y-99146099D01*
X166620793Y-99120002D01*
X166611067Y-99092821D01*
X166604052Y-99064817D01*
X166599817Y-99036261D01*
X166598400Y-99007427D01*
X166598400Y-97992573D01*
X166599817Y-97963739D01*
X166604052Y-97935183D01*
X166611067Y-97907179D01*
X166620793Y-97879998D01*
X166633136Y-97853901D01*
X166647977Y-97829139D01*
X166665174Y-97805952D01*
X166684561Y-97784561D01*
X166705952Y-97765174D01*
X166729139Y-97747977D01*
X166753901Y-97733136D01*
X166779998Y-97720793D01*
X166807179Y-97711067D01*
X166835183Y-97704052D01*
X166863739Y-97699817D01*
X166892573Y-97698400D01*
X167657427Y-97698400D01*
X167686261Y-97699817D01*
X167686261Y-97699817D01*
G37*
D20*
X167275000Y-98500000D03*
D19*
G36*
X165636261Y-97699817D02*
X165664817Y-97704052D01*
X165692821Y-97711067D01*
X165720002Y-97720793D01*
X165746099Y-97733136D01*
X165770861Y-97747977D01*
X165794048Y-97765174D01*
X165815439Y-97784561D01*
X165834826Y-97805952D01*
X165852023Y-97829139D01*
X165866864Y-97853901D01*
X165879207Y-97879998D01*
X165888933Y-97907179D01*
X165895948Y-97935183D01*
X165900183Y-97963739D01*
X165901600Y-97992573D01*
X165901600Y-99007427D01*
X165900183Y-99036261D01*
X165895948Y-99064817D01*
X165888933Y-99092821D01*
X165879207Y-99120002D01*
X165866864Y-99146099D01*
X165852023Y-99170861D01*
X165834826Y-99194048D01*
X165815439Y-99215439D01*
X165794048Y-99234826D01*
X165770861Y-99252023D01*
X165746099Y-99266864D01*
X165720002Y-99279207D01*
X165692821Y-99288933D01*
X165664817Y-99295948D01*
X165636261Y-99300183D01*
X165607427Y-99301600D01*
X164842573Y-99301600D01*
X164813739Y-99300183D01*
X164785183Y-99295948D01*
X164757179Y-99288933D01*
X164729998Y-99279207D01*
X164703901Y-99266864D01*
X164679139Y-99252023D01*
X164655952Y-99234826D01*
X164634561Y-99215439D01*
X164615174Y-99194048D01*
X164597977Y-99170861D01*
X164583136Y-99146099D01*
X164570793Y-99120002D01*
X164561067Y-99092821D01*
X164554052Y-99064817D01*
X164549817Y-99036261D01*
X164548400Y-99007427D01*
X164548400Y-97992573D01*
X164549817Y-97963739D01*
X164554052Y-97935183D01*
X164561067Y-97907179D01*
X164570793Y-97879998D01*
X164583136Y-97853901D01*
X164597977Y-97829139D01*
X164615174Y-97805952D01*
X164634561Y-97784561D01*
X164655952Y-97765174D01*
X164679139Y-97747977D01*
X164703901Y-97733136D01*
X164729998Y-97720793D01*
X164757179Y-97711067D01*
X164785183Y-97704052D01*
X164813739Y-97699817D01*
X164842573Y-97698400D01*
X165607427Y-97698400D01*
X165636261Y-97699817D01*
X165636261Y-97699817D01*
G37*
D20*
X165225000Y-98500000D03*
G04 #@! TD*
D19*
G04 #@! TO.C,R10*
G36*
X165636261Y-100199817D02*
X165664817Y-100204052D01*
X165692821Y-100211067D01*
X165720002Y-100220793D01*
X165746099Y-100233136D01*
X165770861Y-100247977D01*
X165794048Y-100265174D01*
X165815439Y-100284561D01*
X165834826Y-100305952D01*
X165852023Y-100329139D01*
X165866864Y-100353901D01*
X165879207Y-100379998D01*
X165888933Y-100407179D01*
X165895948Y-100435183D01*
X165900183Y-100463739D01*
X165901600Y-100492573D01*
X165901600Y-101507427D01*
X165900183Y-101536261D01*
X165895948Y-101564817D01*
X165888933Y-101592821D01*
X165879207Y-101620002D01*
X165866864Y-101646099D01*
X165852023Y-101670861D01*
X165834826Y-101694048D01*
X165815439Y-101715439D01*
X165794048Y-101734826D01*
X165770861Y-101752023D01*
X165746099Y-101766864D01*
X165720002Y-101779207D01*
X165692821Y-101788933D01*
X165664817Y-101795948D01*
X165636261Y-101800183D01*
X165607427Y-101801600D01*
X164842573Y-101801600D01*
X164813739Y-101800183D01*
X164785183Y-101795948D01*
X164757179Y-101788933D01*
X164729998Y-101779207D01*
X164703901Y-101766864D01*
X164679139Y-101752023D01*
X164655952Y-101734826D01*
X164634561Y-101715439D01*
X164615174Y-101694048D01*
X164597977Y-101670861D01*
X164583136Y-101646099D01*
X164570793Y-101620002D01*
X164561067Y-101592821D01*
X164554052Y-101564817D01*
X164549817Y-101536261D01*
X164548400Y-101507427D01*
X164548400Y-100492573D01*
X164549817Y-100463739D01*
X164554052Y-100435183D01*
X164561067Y-100407179D01*
X164570793Y-100379998D01*
X164583136Y-100353901D01*
X164597977Y-100329139D01*
X164615174Y-100305952D01*
X164634561Y-100284561D01*
X164655952Y-100265174D01*
X164679139Y-100247977D01*
X164703901Y-100233136D01*
X164729998Y-100220793D01*
X164757179Y-100211067D01*
X164785183Y-100204052D01*
X164813739Y-100199817D01*
X164842573Y-100198400D01*
X165607427Y-100198400D01*
X165636261Y-100199817D01*
X165636261Y-100199817D01*
G37*
D20*
X165225000Y-101000000D03*
D19*
G36*
X167686261Y-100199817D02*
X167714817Y-100204052D01*
X167742821Y-100211067D01*
X167770002Y-100220793D01*
X167796099Y-100233136D01*
X167820861Y-100247977D01*
X167844048Y-100265174D01*
X167865439Y-100284561D01*
X167884826Y-100305952D01*
X167902023Y-100329139D01*
X167916864Y-100353901D01*
X167929207Y-100379998D01*
X167938933Y-100407179D01*
X167945948Y-100435183D01*
X167950183Y-100463739D01*
X167951600Y-100492573D01*
X167951600Y-101507427D01*
X167950183Y-101536261D01*
X167945948Y-101564817D01*
X167938933Y-101592821D01*
X167929207Y-101620002D01*
X167916864Y-101646099D01*
X167902023Y-101670861D01*
X167884826Y-101694048D01*
X167865439Y-101715439D01*
X167844048Y-101734826D01*
X167820861Y-101752023D01*
X167796099Y-101766864D01*
X167770002Y-101779207D01*
X167742821Y-101788933D01*
X167714817Y-101795948D01*
X167686261Y-101800183D01*
X167657427Y-101801600D01*
X166892573Y-101801600D01*
X166863739Y-101800183D01*
X166835183Y-101795948D01*
X166807179Y-101788933D01*
X166779998Y-101779207D01*
X166753901Y-101766864D01*
X166729139Y-101752023D01*
X166705952Y-101734826D01*
X166684561Y-101715439D01*
X166665174Y-101694048D01*
X166647977Y-101670861D01*
X166633136Y-101646099D01*
X166620793Y-101620002D01*
X166611067Y-101592821D01*
X166604052Y-101564817D01*
X166599817Y-101536261D01*
X166598400Y-101507427D01*
X166598400Y-100492573D01*
X166599817Y-100463739D01*
X166604052Y-100435183D01*
X166611067Y-100407179D01*
X166620793Y-100379998D01*
X166633136Y-100353901D01*
X166647977Y-100329139D01*
X166665174Y-100305952D01*
X166684561Y-100284561D01*
X166705952Y-100265174D01*
X166729139Y-100247977D01*
X166753901Y-100233136D01*
X166779998Y-100220793D01*
X166807179Y-100211067D01*
X166835183Y-100204052D01*
X166863739Y-100199817D01*
X166892573Y-100198400D01*
X167657427Y-100198400D01*
X167686261Y-100199817D01*
X167686261Y-100199817D01*
G37*
D20*
X167275000Y-101000000D03*
G04 #@! TD*
D19*
G04 #@! TO.C,R11*
G36*
X195386261Y-98949817D02*
X195414817Y-98954052D01*
X195442821Y-98961067D01*
X195470002Y-98970793D01*
X195496099Y-98983136D01*
X195520861Y-98997977D01*
X195544048Y-99015174D01*
X195565439Y-99034561D01*
X195584826Y-99055952D01*
X195602023Y-99079139D01*
X195616864Y-99103901D01*
X195629207Y-99129998D01*
X195638933Y-99157179D01*
X195645948Y-99185183D01*
X195650183Y-99213739D01*
X195651600Y-99242573D01*
X195651600Y-100257427D01*
X195650183Y-100286261D01*
X195645948Y-100314817D01*
X195638933Y-100342821D01*
X195629207Y-100370002D01*
X195616864Y-100396099D01*
X195602023Y-100420861D01*
X195584826Y-100444048D01*
X195565439Y-100465439D01*
X195544048Y-100484826D01*
X195520861Y-100502023D01*
X195496099Y-100516864D01*
X195470002Y-100529207D01*
X195442821Y-100538933D01*
X195414817Y-100545948D01*
X195386261Y-100550183D01*
X195357427Y-100551600D01*
X194592573Y-100551600D01*
X194563739Y-100550183D01*
X194535183Y-100545948D01*
X194507179Y-100538933D01*
X194479998Y-100529207D01*
X194453901Y-100516864D01*
X194429139Y-100502023D01*
X194405952Y-100484826D01*
X194384561Y-100465439D01*
X194365174Y-100444048D01*
X194347977Y-100420861D01*
X194333136Y-100396099D01*
X194320793Y-100370002D01*
X194311067Y-100342821D01*
X194304052Y-100314817D01*
X194299817Y-100286261D01*
X194298400Y-100257427D01*
X194298400Y-99242573D01*
X194299817Y-99213739D01*
X194304052Y-99185183D01*
X194311067Y-99157179D01*
X194320793Y-99129998D01*
X194333136Y-99103901D01*
X194347977Y-99079139D01*
X194365174Y-99055952D01*
X194384561Y-99034561D01*
X194405952Y-99015174D01*
X194429139Y-98997977D01*
X194453901Y-98983136D01*
X194479998Y-98970793D01*
X194507179Y-98961067D01*
X194535183Y-98954052D01*
X194563739Y-98949817D01*
X194592573Y-98948400D01*
X195357427Y-98948400D01*
X195386261Y-98949817D01*
X195386261Y-98949817D01*
G37*
D20*
X194975000Y-99750000D03*
D19*
G36*
X197436261Y-98949817D02*
X197464817Y-98954052D01*
X197492821Y-98961067D01*
X197520002Y-98970793D01*
X197546099Y-98983136D01*
X197570861Y-98997977D01*
X197594048Y-99015174D01*
X197615439Y-99034561D01*
X197634826Y-99055952D01*
X197652023Y-99079139D01*
X197666864Y-99103901D01*
X197679207Y-99129998D01*
X197688933Y-99157179D01*
X197695948Y-99185183D01*
X197700183Y-99213739D01*
X197701600Y-99242573D01*
X197701600Y-100257427D01*
X197700183Y-100286261D01*
X197695948Y-100314817D01*
X197688933Y-100342821D01*
X197679207Y-100370002D01*
X197666864Y-100396099D01*
X197652023Y-100420861D01*
X197634826Y-100444048D01*
X197615439Y-100465439D01*
X197594048Y-100484826D01*
X197570861Y-100502023D01*
X197546099Y-100516864D01*
X197520002Y-100529207D01*
X197492821Y-100538933D01*
X197464817Y-100545948D01*
X197436261Y-100550183D01*
X197407427Y-100551600D01*
X196642573Y-100551600D01*
X196613739Y-100550183D01*
X196585183Y-100545948D01*
X196557179Y-100538933D01*
X196529998Y-100529207D01*
X196503901Y-100516864D01*
X196479139Y-100502023D01*
X196455952Y-100484826D01*
X196434561Y-100465439D01*
X196415174Y-100444048D01*
X196397977Y-100420861D01*
X196383136Y-100396099D01*
X196370793Y-100370002D01*
X196361067Y-100342821D01*
X196354052Y-100314817D01*
X196349817Y-100286261D01*
X196348400Y-100257427D01*
X196348400Y-99242573D01*
X196349817Y-99213739D01*
X196354052Y-99185183D01*
X196361067Y-99157179D01*
X196370793Y-99129998D01*
X196383136Y-99103901D01*
X196397977Y-99079139D01*
X196415174Y-99055952D01*
X196434561Y-99034561D01*
X196455952Y-99015174D01*
X196479139Y-98997977D01*
X196503901Y-98983136D01*
X196529998Y-98970793D01*
X196557179Y-98961067D01*
X196585183Y-98954052D01*
X196613739Y-98949817D01*
X196642573Y-98948400D01*
X197407427Y-98948400D01*
X197436261Y-98949817D01*
X197436261Y-98949817D01*
G37*
D20*
X197025000Y-99750000D03*
G04 #@! TD*
D19*
G04 #@! TO.C,R12*
G36*
X197436261Y-96449817D02*
X197464817Y-96454052D01*
X197492821Y-96461067D01*
X197520002Y-96470793D01*
X197546099Y-96483136D01*
X197570861Y-96497977D01*
X197594048Y-96515174D01*
X197615439Y-96534561D01*
X197634826Y-96555952D01*
X197652023Y-96579139D01*
X197666864Y-96603901D01*
X197679207Y-96629998D01*
X197688933Y-96657179D01*
X197695948Y-96685183D01*
X197700183Y-96713739D01*
X197701600Y-96742573D01*
X197701600Y-97757427D01*
X197700183Y-97786261D01*
X197695948Y-97814817D01*
X197688933Y-97842821D01*
X197679207Y-97870002D01*
X197666864Y-97896099D01*
X197652023Y-97920861D01*
X197634826Y-97944048D01*
X197615439Y-97965439D01*
X197594048Y-97984826D01*
X197570861Y-98002023D01*
X197546099Y-98016864D01*
X197520002Y-98029207D01*
X197492821Y-98038933D01*
X197464817Y-98045948D01*
X197436261Y-98050183D01*
X197407427Y-98051600D01*
X196642573Y-98051600D01*
X196613739Y-98050183D01*
X196585183Y-98045948D01*
X196557179Y-98038933D01*
X196529998Y-98029207D01*
X196503901Y-98016864D01*
X196479139Y-98002023D01*
X196455952Y-97984826D01*
X196434561Y-97965439D01*
X196415174Y-97944048D01*
X196397977Y-97920861D01*
X196383136Y-97896099D01*
X196370793Y-97870002D01*
X196361067Y-97842821D01*
X196354052Y-97814817D01*
X196349817Y-97786261D01*
X196348400Y-97757427D01*
X196348400Y-96742573D01*
X196349817Y-96713739D01*
X196354052Y-96685183D01*
X196361067Y-96657179D01*
X196370793Y-96629998D01*
X196383136Y-96603901D01*
X196397977Y-96579139D01*
X196415174Y-96555952D01*
X196434561Y-96534561D01*
X196455952Y-96515174D01*
X196479139Y-96497977D01*
X196503901Y-96483136D01*
X196529998Y-96470793D01*
X196557179Y-96461067D01*
X196585183Y-96454052D01*
X196613739Y-96449817D01*
X196642573Y-96448400D01*
X197407427Y-96448400D01*
X197436261Y-96449817D01*
X197436261Y-96449817D01*
G37*
D20*
X197025000Y-97250000D03*
D19*
G36*
X195386261Y-96449817D02*
X195414817Y-96454052D01*
X195442821Y-96461067D01*
X195470002Y-96470793D01*
X195496099Y-96483136D01*
X195520861Y-96497977D01*
X195544048Y-96515174D01*
X195565439Y-96534561D01*
X195584826Y-96555952D01*
X195602023Y-96579139D01*
X195616864Y-96603901D01*
X195629207Y-96629998D01*
X195638933Y-96657179D01*
X195645948Y-96685183D01*
X195650183Y-96713739D01*
X195651600Y-96742573D01*
X195651600Y-97757427D01*
X195650183Y-97786261D01*
X195645948Y-97814817D01*
X195638933Y-97842821D01*
X195629207Y-97870002D01*
X195616864Y-97896099D01*
X195602023Y-97920861D01*
X195584826Y-97944048D01*
X195565439Y-97965439D01*
X195544048Y-97984826D01*
X195520861Y-98002023D01*
X195496099Y-98016864D01*
X195470002Y-98029207D01*
X195442821Y-98038933D01*
X195414817Y-98045948D01*
X195386261Y-98050183D01*
X195357427Y-98051600D01*
X194592573Y-98051600D01*
X194563739Y-98050183D01*
X194535183Y-98045948D01*
X194507179Y-98038933D01*
X194479998Y-98029207D01*
X194453901Y-98016864D01*
X194429139Y-98002023D01*
X194405952Y-97984826D01*
X194384561Y-97965439D01*
X194365174Y-97944048D01*
X194347977Y-97920861D01*
X194333136Y-97896099D01*
X194320793Y-97870002D01*
X194311067Y-97842821D01*
X194304052Y-97814817D01*
X194299817Y-97786261D01*
X194298400Y-97757427D01*
X194298400Y-96742573D01*
X194299817Y-96713739D01*
X194304052Y-96685183D01*
X194311067Y-96657179D01*
X194320793Y-96629998D01*
X194333136Y-96603901D01*
X194347977Y-96579139D01*
X194365174Y-96555952D01*
X194384561Y-96534561D01*
X194405952Y-96515174D01*
X194429139Y-96497977D01*
X194453901Y-96483136D01*
X194479998Y-96470793D01*
X194507179Y-96461067D01*
X194535183Y-96454052D01*
X194563739Y-96449817D01*
X194592573Y-96448400D01*
X195357427Y-96448400D01*
X195386261Y-96449817D01*
X195386261Y-96449817D01*
G37*
D20*
X194975000Y-97250000D03*
G04 #@! TD*
D19*
G04 #@! TO.C,R13*
G36*
X197436261Y-93949817D02*
X197464817Y-93954052D01*
X197492821Y-93961067D01*
X197520002Y-93970793D01*
X197546099Y-93983136D01*
X197570861Y-93997977D01*
X197594048Y-94015174D01*
X197615439Y-94034561D01*
X197634826Y-94055952D01*
X197652023Y-94079139D01*
X197666864Y-94103901D01*
X197679207Y-94129998D01*
X197688933Y-94157179D01*
X197695948Y-94185183D01*
X197700183Y-94213739D01*
X197701600Y-94242573D01*
X197701600Y-95257427D01*
X197700183Y-95286261D01*
X197695948Y-95314817D01*
X197688933Y-95342821D01*
X197679207Y-95370002D01*
X197666864Y-95396099D01*
X197652023Y-95420861D01*
X197634826Y-95444048D01*
X197615439Y-95465439D01*
X197594048Y-95484826D01*
X197570861Y-95502023D01*
X197546099Y-95516864D01*
X197520002Y-95529207D01*
X197492821Y-95538933D01*
X197464817Y-95545948D01*
X197436261Y-95550183D01*
X197407427Y-95551600D01*
X196642573Y-95551600D01*
X196613739Y-95550183D01*
X196585183Y-95545948D01*
X196557179Y-95538933D01*
X196529998Y-95529207D01*
X196503901Y-95516864D01*
X196479139Y-95502023D01*
X196455952Y-95484826D01*
X196434561Y-95465439D01*
X196415174Y-95444048D01*
X196397977Y-95420861D01*
X196383136Y-95396099D01*
X196370793Y-95370002D01*
X196361067Y-95342821D01*
X196354052Y-95314817D01*
X196349817Y-95286261D01*
X196348400Y-95257427D01*
X196348400Y-94242573D01*
X196349817Y-94213739D01*
X196354052Y-94185183D01*
X196361067Y-94157179D01*
X196370793Y-94129998D01*
X196383136Y-94103901D01*
X196397977Y-94079139D01*
X196415174Y-94055952D01*
X196434561Y-94034561D01*
X196455952Y-94015174D01*
X196479139Y-93997977D01*
X196503901Y-93983136D01*
X196529998Y-93970793D01*
X196557179Y-93961067D01*
X196585183Y-93954052D01*
X196613739Y-93949817D01*
X196642573Y-93948400D01*
X197407427Y-93948400D01*
X197436261Y-93949817D01*
X197436261Y-93949817D01*
G37*
D20*
X197025000Y-94750000D03*
D19*
G36*
X195386261Y-93949817D02*
X195414817Y-93954052D01*
X195442821Y-93961067D01*
X195470002Y-93970793D01*
X195496099Y-93983136D01*
X195520861Y-93997977D01*
X195544048Y-94015174D01*
X195565439Y-94034561D01*
X195584826Y-94055952D01*
X195602023Y-94079139D01*
X195616864Y-94103901D01*
X195629207Y-94129998D01*
X195638933Y-94157179D01*
X195645948Y-94185183D01*
X195650183Y-94213739D01*
X195651600Y-94242573D01*
X195651600Y-95257427D01*
X195650183Y-95286261D01*
X195645948Y-95314817D01*
X195638933Y-95342821D01*
X195629207Y-95370002D01*
X195616864Y-95396099D01*
X195602023Y-95420861D01*
X195584826Y-95444048D01*
X195565439Y-95465439D01*
X195544048Y-95484826D01*
X195520861Y-95502023D01*
X195496099Y-95516864D01*
X195470002Y-95529207D01*
X195442821Y-95538933D01*
X195414817Y-95545948D01*
X195386261Y-95550183D01*
X195357427Y-95551600D01*
X194592573Y-95551600D01*
X194563739Y-95550183D01*
X194535183Y-95545948D01*
X194507179Y-95538933D01*
X194479998Y-95529207D01*
X194453901Y-95516864D01*
X194429139Y-95502023D01*
X194405952Y-95484826D01*
X194384561Y-95465439D01*
X194365174Y-95444048D01*
X194347977Y-95420861D01*
X194333136Y-95396099D01*
X194320793Y-95370002D01*
X194311067Y-95342821D01*
X194304052Y-95314817D01*
X194299817Y-95286261D01*
X194298400Y-95257427D01*
X194298400Y-94242573D01*
X194299817Y-94213739D01*
X194304052Y-94185183D01*
X194311067Y-94157179D01*
X194320793Y-94129998D01*
X194333136Y-94103901D01*
X194347977Y-94079139D01*
X194365174Y-94055952D01*
X194384561Y-94034561D01*
X194405952Y-94015174D01*
X194429139Y-93997977D01*
X194453901Y-93983136D01*
X194479998Y-93970793D01*
X194507179Y-93961067D01*
X194535183Y-93954052D01*
X194563739Y-93949817D01*
X194592573Y-93948400D01*
X195357427Y-93948400D01*
X195386261Y-93949817D01*
X195386261Y-93949817D01*
G37*
D20*
X194975000Y-94750000D03*
G04 #@! TD*
D19*
G04 #@! TO.C,R14*
G36*
X195386261Y-91449817D02*
X195414817Y-91454052D01*
X195442821Y-91461067D01*
X195470002Y-91470793D01*
X195496099Y-91483136D01*
X195520861Y-91497977D01*
X195544048Y-91515174D01*
X195565439Y-91534561D01*
X195584826Y-91555952D01*
X195602023Y-91579139D01*
X195616864Y-91603901D01*
X195629207Y-91629998D01*
X195638933Y-91657179D01*
X195645948Y-91685183D01*
X195650183Y-91713739D01*
X195651600Y-91742573D01*
X195651600Y-92757427D01*
X195650183Y-92786261D01*
X195645948Y-92814817D01*
X195638933Y-92842821D01*
X195629207Y-92870002D01*
X195616864Y-92896099D01*
X195602023Y-92920861D01*
X195584826Y-92944048D01*
X195565439Y-92965439D01*
X195544048Y-92984826D01*
X195520861Y-93002023D01*
X195496099Y-93016864D01*
X195470002Y-93029207D01*
X195442821Y-93038933D01*
X195414817Y-93045948D01*
X195386261Y-93050183D01*
X195357427Y-93051600D01*
X194592573Y-93051600D01*
X194563739Y-93050183D01*
X194535183Y-93045948D01*
X194507179Y-93038933D01*
X194479998Y-93029207D01*
X194453901Y-93016864D01*
X194429139Y-93002023D01*
X194405952Y-92984826D01*
X194384561Y-92965439D01*
X194365174Y-92944048D01*
X194347977Y-92920861D01*
X194333136Y-92896099D01*
X194320793Y-92870002D01*
X194311067Y-92842821D01*
X194304052Y-92814817D01*
X194299817Y-92786261D01*
X194298400Y-92757427D01*
X194298400Y-91742573D01*
X194299817Y-91713739D01*
X194304052Y-91685183D01*
X194311067Y-91657179D01*
X194320793Y-91629998D01*
X194333136Y-91603901D01*
X194347977Y-91579139D01*
X194365174Y-91555952D01*
X194384561Y-91534561D01*
X194405952Y-91515174D01*
X194429139Y-91497977D01*
X194453901Y-91483136D01*
X194479998Y-91470793D01*
X194507179Y-91461067D01*
X194535183Y-91454052D01*
X194563739Y-91449817D01*
X194592573Y-91448400D01*
X195357427Y-91448400D01*
X195386261Y-91449817D01*
X195386261Y-91449817D01*
G37*
D20*
X194975000Y-92250000D03*
D19*
G36*
X197436261Y-91449817D02*
X197464817Y-91454052D01*
X197492821Y-91461067D01*
X197520002Y-91470793D01*
X197546099Y-91483136D01*
X197570861Y-91497977D01*
X197594048Y-91515174D01*
X197615439Y-91534561D01*
X197634826Y-91555952D01*
X197652023Y-91579139D01*
X197666864Y-91603901D01*
X197679207Y-91629998D01*
X197688933Y-91657179D01*
X197695948Y-91685183D01*
X197700183Y-91713739D01*
X197701600Y-91742573D01*
X197701600Y-92757427D01*
X197700183Y-92786261D01*
X197695948Y-92814817D01*
X197688933Y-92842821D01*
X197679207Y-92870002D01*
X197666864Y-92896099D01*
X197652023Y-92920861D01*
X197634826Y-92944048D01*
X197615439Y-92965439D01*
X197594048Y-92984826D01*
X197570861Y-93002023D01*
X197546099Y-93016864D01*
X197520002Y-93029207D01*
X197492821Y-93038933D01*
X197464817Y-93045948D01*
X197436261Y-93050183D01*
X197407427Y-93051600D01*
X196642573Y-93051600D01*
X196613739Y-93050183D01*
X196585183Y-93045948D01*
X196557179Y-93038933D01*
X196529998Y-93029207D01*
X196503901Y-93016864D01*
X196479139Y-93002023D01*
X196455952Y-92984826D01*
X196434561Y-92965439D01*
X196415174Y-92944048D01*
X196397977Y-92920861D01*
X196383136Y-92896099D01*
X196370793Y-92870002D01*
X196361067Y-92842821D01*
X196354052Y-92814817D01*
X196349817Y-92786261D01*
X196348400Y-92757427D01*
X196348400Y-91742573D01*
X196349817Y-91713739D01*
X196354052Y-91685183D01*
X196361067Y-91657179D01*
X196370793Y-91629998D01*
X196383136Y-91603901D01*
X196397977Y-91579139D01*
X196415174Y-91555952D01*
X196434561Y-91534561D01*
X196455952Y-91515174D01*
X196479139Y-91497977D01*
X196503901Y-91483136D01*
X196529998Y-91470793D01*
X196557179Y-91461067D01*
X196585183Y-91454052D01*
X196613739Y-91449817D01*
X196642573Y-91448400D01*
X197407427Y-91448400D01*
X197436261Y-91449817D01*
X197436261Y-91449817D01*
G37*
D20*
X197025000Y-92250000D03*
G04 #@! TD*
D19*
G04 #@! TO.C,R15*
G36*
X189936261Y-92699817D02*
X189964817Y-92704052D01*
X189992821Y-92711067D01*
X190020002Y-92720793D01*
X190046099Y-92733136D01*
X190070861Y-92747977D01*
X190094048Y-92765174D01*
X190115439Y-92784561D01*
X190134826Y-92805952D01*
X190152023Y-92829139D01*
X190166864Y-92853901D01*
X190179207Y-92879998D01*
X190188933Y-92907179D01*
X190195948Y-92935183D01*
X190200183Y-92963739D01*
X190201600Y-92992573D01*
X190201600Y-94007427D01*
X190200183Y-94036261D01*
X190195948Y-94064817D01*
X190188933Y-94092821D01*
X190179207Y-94120002D01*
X190166864Y-94146099D01*
X190152023Y-94170861D01*
X190134826Y-94194048D01*
X190115439Y-94215439D01*
X190094048Y-94234826D01*
X190070861Y-94252023D01*
X190046099Y-94266864D01*
X190020002Y-94279207D01*
X189992821Y-94288933D01*
X189964817Y-94295948D01*
X189936261Y-94300183D01*
X189907427Y-94301600D01*
X189142573Y-94301600D01*
X189113739Y-94300183D01*
X189085183Y-94295948D01*
X189057179Y-94288933D01*
X189029998Y-94279207D01*
X189003901Y-94266864D01*
X188979139Y-94252023D01*
X188955952Y-94234826D01*
X188934561Y-94215439D01*
X188915174Y-94194048D01*
X188897977Y-94170861D01*
X188883136Y-94146099D01*
X188870793Y-94120002D01*
X188861067Y-94092821D01*
X188854052Y-94064817D01*
X188849817Y-94036261D01*
X188848400Y-94007427D01*
X188848400Y-92992573D01*
X188849817Y-92963739D01*
X188854052Y-92935183D01*
X188861067Y-92907179D01*
X188870793Y-92879998D01*
X188883136Y-92853901D01*
X188897977Y-92829139D01*
X188915174Y-92805952D01*
X188934561Y-92784561D01*
X188955952Y-92765174D01*
X188979139Y-92747977D01*
X189003901Y-92733136D01*
X189029998Y-92720793D01*
X189057179Y-92711067D01*
X189085183Y-92704052D01*
X189113739Y-92699817D01*
X189142573Y-92698400D01*
X189907427Y-92698400D01*
X189936261Y-92699817D01*
X189936261Y-92699817D01*
G37*
D20*
X189525000Y-93500000D03*
D19*
G36*
X187886261Y-92699817D02*
X187914817Y-92704052D01*
X187942821Y-92711067D01*
X187970002Y-92720793D01*
X187996099Y-92733136D01*
X188020861Y-92747977D01*
X188044048Y-92765174D01*
X188065439Y-92784561D01*
X188084826Y-92805952D01*
X188102023Y-92829139D01*
X188116864Y-92853901D01*
X188129207Y-92879998D01*
X188138933Y-92907179D01*
X188145948Y-92935183D01*
X188150183Y-92963739D01*
X188151600Y-92992573D01*
X188151600Y-94007427D01*
X188150183Y-94036261D01*
X188145948Y-94064817D01*
X188138933Y-94092821D01*
X188129207Y-94120002D01*
X188116864Y-94146099D01*
X188102023Y-94170861D01*
X188084826Y-94194048D01*
X188065439Y-94215439D01*
X188044048Y-94234826D01*
X188020861Y-94252023D01*
X187996099Y-94266864D01*
X187970002Y-94279207D01*
X187942821Y-94288933D01*
X187914817Y-94295948D01*
X187886261Y-94300183D01*
X187857427Y-94301600D01*
X187092573Y-94301600D01*
X187063739Y-94300183D01*
X187035183Y-94295948D01*
X187007179Y-94288933D01*
X186979998Y-94279207D01*
X186953901Y-94266864D01*
X186929139Y-94252023D01*
X186905952Y-94234826D01*
X186884561Y-94215439D01*
X186865174Y-94194048D01*
X186847977Y-94170861D01*
X186833136Y-94146099D01*
X186820793Y-94120002D01*
X186811067Y-94092821D01*
X186804052Y-94064817D01*
X186799817Y-94036261D01*
X186798400Y-94007427D01*
X186798400Y-92992573D01*
X186799817Y-92963739D01*
X186804052Y-92935183D01*
X186811067Y-92907179D01*
X186820793Y-92879998D01*
X186833136Y-92853901D01*
X186847977Y-92829139D01*
X186865174Y-92805952D01*
X186884561Y-92784561D01*
X186905952Y-92765174D01*
X186929139Y-92747977D01*
X186953901Y-92733136D01*
X186979998Y-92720793D01*
X187007179Y-92711067D01*
X187035183Y-92704052D01*
X187063739Y-92699817D01*
X187092573Y-92698400D01*
X187857427Y-92698400D01*
X187886261Y-92699817D01*
X187886261Y-92699817D01*
G37*
D20*
X187475000Y-93500000D03*
G04 #@! TD*
M02*
