G04 #@! TF.GenerationSoftware,KiCad,Pcbnew,5.0.1*
G04 #@! TF.CreationDate,2019-01-27T10:15:17+11:00*
G04 #@! TF.ProjectId,a501 dram based design,61353031206472616D20626173656420,1.0*
G04 #@! TF.SameCoordinates,Original*
G04 #@! TF.FileFunction,Soldermask,Top*
G04 #@! TF.FilePolarity,Negative*
%FSLAX46Y46*%
G04 Gerber Fmt 4.6, Leading zero omitted, Abs format (unit mm)*
G04 Created by KiCad (PCBNEW 5.0.1) date Sun 27 Jan 2019 10:15:17 AEDT*
%MOMM*%
%LPD*%
G01*
G04 APERTURE LIST*
%ADD10C,0.100000*%
G04 APERTURE END LIST*
D10*
G36*
X150811600Y-126046600D02*
X148908400Y-126046600D01*
X148908400Y-124143400D01*
X150811600Y-124143400D01*
X150811600Y-126046600D01*
X150811600Y-126046600D01*
G37*
G36*
X147597571Y-124179969D02*
X147770754Y-124251704D01*
X147925905Y-124355374D01*
X147926609Y-124355844D01*
X148059156Y-124488391D01*
X148059158Y-124488394D01*
X148163296Y-124644246D01*
X148235031Y-124817429D01*
X148271600Y-125001276D01*
X148271600Y-125188724D01*
X148235031Y-125372571D01*
X148163296Y-125545754D01*
X148059626Y-125700905D01*
X148059156Y-125701609D01*
X147926609Y-125834156D01*
X147926606Y-125834158D01*
X147770754Y-125938296D01*
X147597571Y-126010031D01*
X147413724Y-126046600D01*
X147226276Y-126046600D01*
X147042429Y-126010031D01*
X146869246Y-125938296D01*
X146713394Y-125834158D01*
X146713391Y-125834156D01*
X146580844Y-125701609D01*
X146580374Y-125700905D01*
X146476704Y-125545754D01*
X146404969Y-125372571D01*
X146368400Y-125188724D01*
X146368400Y-125001276D01*
X146404969Y-124817429D01*
X146476704Y-124644246D01*
X146580842Y-124488394D01*
X146580844Y-124488391D01*
X146713391Y-124355844D01*
X146714095Y-124355374D01*
X146869246Y-124251704D01*
X147042429Y-124179969D01*
X147226276Y-124143400D01*
X147413724Y-124143400D01*
X147597571Y-124179969D01*
X147597571Y-124179969D01*
G37*
G36*
X147597571Y-121639969D02*
X147770754Y-121711704D01*
X147925905Y-121815374D01*
X147926609Y-121815844D01*
X148059156Y-121948391D01*
X148059158Y-121948394D01*
X148163296Y-122104246D01*
X148235031Y-122277429D01*
X148271600Y-122461276D01*
X148271600Y-122648724D01*
X148235031Y-122832571D01*
X148163296Y-123005754D01*
X148059626Y-123160905D01*
X148059156Y-123161609D01*
X147926609Y-123294156D01*
X147926606Y-123294158D01*
X147770754Y-123398296D01*
X147597571Y-123470031D01*
X147413724Y-123506600D01*
X147226276Y-123506600D01*
X147042429Y-123470031D01*
X146869246Y-123398296D01*
X146713394Y-123294158D01*
X146713391Y-123294156D01*
X146580844Y-123161609D01*
X146580374Y-123160905D01*
X146476704Y-123005754D01*
X146404969Y-122832571D01*
X146368400Y-122648724D01*
X146368400Y-122461276D01*
X146404969Y-122277429D01*
X146476704Y-122104246D01*
X146580842Y-121948394D01*
X146580844Y-121948391D01*
X146713391Y-121815844D01*
X146714095Y-121815374D01*
X146869246Y-121711704D01*
X147042429Y-121639969D01*
X147226276Y-121603400D01*
X147413724Y-121603400D01*
X147597571Y-121639969D01*
X147597571Y-121639969D01*
G37*
G36*
X150137571Y-121639969D02*
X150310754Y-121711704D01*
X150465905Y-121815374D01*
X150466609Y-121815844D01*
X150599156Y-121948391D01*
X150599158Y-121948394D01*
X150703296Y-122104246D01*
X150775031Y-122277429D01*
X150811600Y-122461276D01*
X150811600Y-122648724D01*
X150775031Y-122832571D01*
X150703296Y-123005754D01*
X150599626Y-123160905D01*
X150599156Y-123161609D01*
X150466609Y-123294156D01*
X150466606Y-123294158D01*
X150310754Y-123398296D01*
X150137571Y-123470031D01*
X149953724Y-123506600D01*
X149766276Y-123506600D01*
X149582429Y-123470031D01*
X149409246Y-123398296D01*
X149253394Y-123294158D01*
X149253391Y-123294156D01*
X149120844Y-123161609D01*
X149120374Y-123160905D01*
X149016704Y-123005754D01*
X148944969Y-122832571D01*
X148908400Y-122648724D01*
X148908400Y-122461276D01*
X148944969Y-122277429D01*
X149016704Y-122104246D01*
X149120842Y-121948394D01*
X149120844Y-121948391D01*
X149253391Y-121815844D01*
X149254095Y-121815374D01*
X149409246Y-121711704D01*
X149582429Y-121639969D01*
X149766276Y-121603400D01*
X149953724Y-121603400D01*
X150137571Y-121639969D01*
X150137571Y-121639969D01*
G37*
G36*
X147597571Y-119099969D02*
X147770754Y-119171704D01*
X147925905Y-119275374D01*
X147926609Y-119275844D01*
X148059156Y-119408391D01*
X148059158Y-119408394D01*
X148163296Y-119564246D01*
X148235031Y-119737429D01*
X148271600Y-119921276D01*
X148271600Y-120108724D01*
X148235031Y-120292571D01*
X148163296Y-120465754D01*
X148059626Y-120620905D01*
X148059156Y-120621609D01*
X147926609Y-120754156D01*
X147926606Y-120754158D01*
X147770754Y-120858296D01*
X147597571Y-120930031D01*
X147413724Y-120966600D01*
X147226276Y-120966600D01*
X147042429Y-120930031D01*
X146869246Y-120858296D01*
X146713394Y-120754158D01*
X146713391Y-120754156D01*
X146580844Y-120621609D01*
X146580374Y-120620905D01*
X146476704Y-120465754D01*
X146404969Y-120292571D01*
X146368400Y-120108724D01*
X146368400Y-119921276D01*
X146404969Y-119737429D01*
X146476704Y-119564246D01*
X146580842Y-119408394D01*
X146580844Y-119408391D01*
X146713391Y-119275844D01*
X146714095Y-119275374D01*
X146869246Y-119171704D01*
X147042429Y-119099969D01*
X147226276Y-119063400D01*
X147413724Y-119063400D01*
X147597571Y-119099969D01*
X147597571Y-119099969D01*
G37*
G36*
X150137571Y-119099969D02*
X150310754Y-119171704D01*
X150465905Y-119275374D01*
X150466609Y-119275844D01*
X150599156Y-119408391D01*
X150599158Y-119408394D01*
X150703296Y-119564246D01*
X150775031Y-119737429D01*
X150811600Y-119921276D01*
X150811600Y-120108724D01*
X150775031Y-120292571D01*
X150703296Y-120465754D01*
X150599626Y-120620905D01*
X150599156Y-120621609D01*
X150466609Y-120754156D01*
X150466606Y-120754158D01*
X150310754Y-120858296D01*
X150137571Y-120930031D01*
X149953724Y-120966600D01*
X149766276Y-120966600D01*
X149582429Y-120930031D01*
X149409246Y-120858296D01*
X149253394Y-120754158D01*
X149253391Y-120754156D01*
X149120844Y-120621609D01*
X149120374Y-120620905D01*
X149016704Y-120465754D01*
X148944969Y-120292571D01*
X148908400Y-120108724D01*
X148908400Y-119921276D01*
X148944969Y-119737429D01*
X149016704Y-119564246D01*
X149120842Y-119408394D01*
X149120844Y-119408391D01*
X149253391Y-119275844D01*
X149254095Y-119275374D01*
X149409246Y-119171704D01*
X149582429Y-119099969D01*
X149766276Y-119063400D01*
X149953724Y-119063400D01*
X150137571Y-119099969D01*
X150137571Y-119099969D01*
G37*
G36*
X150137571Y-116559969D02*
X150310754Y-116631704D01*
X150465905Y-116735374D01*
X150466609Y-116735844D01*
X150599156Y-116868391D01*
X150599158Y-116868394D01*
X150703296Y-117024246D01*
X150775031Y-117197429D01*
X150811600Y-117381276D01*
X150811600Y-117568724D01*
X150775031Y-117752571D01*
X150703296Y-117925754D01*
X150599626Y-118080905D01*
X150599156Y-118081609D01*
X150466609Y-118214156D01*
X150466606Y-118214158D01*
X150310754Y-118318296D01*
X150137571Y-118390031D01*
X149953724Y-118426600D01*
X149766276Y-118426600D01*
X149582429Y-118390031D01*
X149409246Y-118318296D01*
X149253394Y-118214158D01*
X149253391Y-118214156D01*
X149120844Y-118081609D01*
X149120374Y-118080905D01*
X149016704Y-117925754D01*
X148944969Y-117752571D01*
X148908400Y-117568724D01*
X148908400Y-117381276D01*
X148944969Y-117197429D01*
X149016704Y-117024246D01*
X149120842Y-116868394D01*
X149120844Y-116868391D01*
X149253391Y-116735844D01*
X149254095Y-116735374D01*
X149409246Y-116631704D01*
X149582429Y-116559969D01*
X149766276Y-116523400D01*
X149953724Y-116523400D01*
X150137571Y-116559969D01*
X150137571Y-116559969D01*
G37*
G36*
X147597571Y-116559969D02*
X147770754Y-116631704D01*
X147925905Y-116735374D01*
X147926609Y-116735844D01*
X148059156Y-116868391D01*
X148059158Y-116868394D01*
X148163296Y-117024246D01*
X148235031Y-117197429D01*
X148271600Y-117381276D01*
X148271600Y-117568724D01*
X148235031Y-117752571D01*
X148163296Y-117925754D01*
X148059626Y-118080905D01*
X148059156Y-118081609D01*
X147926609Y-118214156D01*
X147926606Y-118214158D01*
X147770754Y-118318296D01*
X147597571Y-118390031D01*
X147413724Y-118426600D01*
X147226276Y-118426600D01*
X147042429Y-118390031D01*
X146869246Y-118318296D01*
X146713394Y-118214158D01*
X146713391Y-118214156D01*
X146580844Y-118081609D01*
X146580374Y-118080905D01*
X146476704Y-117925754D01*
X146404969Y-117752571D01*
X146368400Y-117568724D01*
X146368400Y-117381276D01*
X146404969Y-117197429D01*
X146476704Y-117024246D01*
X146580842Y-116868394D01*
X146580844Y-116868391D01*
X146713391Y-116735844D01*
X146714095Y-116735374D01*
X146869246Y-116631704D01*
X147042429Y-116559969D01*
X147226276Y-116523400D01*
X147413724Y-116523400D01*
X147597571Y-116559969D01*
X147597571Y-116559969D01*
G37*
G36*
X147597571Y-114019969D02*
X147770754Y-114091704D01*
X147925905Y-114195374D01*
X147926609Y-114195844D01*
X148059156Y-114328391D01*
X148059158Y-114328394D01*
X148163296Y-114484246D01*
X148235031Y-114657429D01*
X148271600Y-114841276D01*
X148271600Y-115028724D01*
X148235031Y-115212571D01*
X148163296Y-115385754D01*
X148059626Y-115540905D01*
X148059156Y-115541609D01*
X147926609Y-115674156D01*
X147926606Y-115674158D01*
X147770754Y-115778296D01*
X147597571Y-115850031D01*
X147413724Y-115886600D01*
X147226276Y-115886600D01*
X147042429Y-115850031D01*
X146869246Y-115778296D01*
X146713394Y-115674158D01*
X146713391Y-115674156D01*
X146580844Y-115541609D01*
X146580374Y-115540905D01*
X146476704Y-115385754D01*
X146404969Y-115212571D01*
X146368400Y-115028724D01*
X146368400Y-114841276D01*
X146404969Y-114657429D01*
X146476704Y-114484246D01*
X146580842Y-114328394D01*
X146580844Y-114328391D01*
X146713391Y-114195844D01*
X146714095Y-114195374D01*
X146869246Y-114091704D01*
X147042429Y-114019969D01*
X147226276Y-113983400D01*
X147413724Y-113983400D01*
X147597571Y-114019969D01*
X147597571Y-114019969D01*
G37*
G36*
X150137571Y-114019969D02*
X150310754Y-114091704D01*
X150465905Y-114195374D01*
X150466609Y-114195844D01*
X150599156Y-114328391D01*
X150599158Y-114328394D01*
X150703296Y-114484246D01*
X150775031Y-114657429D01*
X150811600Y-114841276D01*
X150811600Y-115028724D01*
X150775031Y-115212571D01*
X150703296Y-115385754D01*
X150599626Y-115540905D01*
X150599156Y-115541609D01*
X150466609Y-115674156D01*
X150466606Y-115674158D01*
X150310754Y-115778296D01*
X150137571Y-115850031D01*
X149953724Y-115886600D01*
X149766276Y-115886600D01*
X149582429Y-115850031D01*
X149409246Y-115778296D01*
X149253394Y-115674158D01*
X149253391Y-115674156D01*
X149120844Y-115541609D01*
X149120374Y-115540905D01*
X149016704Y-115385754D01*
X148944969Y-115212571D01*
X148908400Y-115028724D01*
X148908400Y-114841276D01*
X148944969Y-114657429D01*
X149016704Y-114484246D01*
X149120842Y-114328394D01*
X149120844Y-114328391D01*
X149253391Y-114195844D01*
X149254095Y-114195374D01*
X149409246Y-114091704D01*
X149582429Y-114019969D01*
X149766276Y-113983400D01*
X149953724Y-113983400D01*
X150137571Y-114019969D01*
X150137571Y-114019969D01*
G37*
G36*
X147597571Y-111479969D02*
X147770754Y-111551704D01*
X147925905Y-111655374D01*
X147926609Y-111655844D01*
X148059156Y-111788391D01*
X148059158Y-111788394D01*
X148163296Y-111944246D01*
X148235031Y-112117429D01*
X148271600Y-112301276D01*
X148271600Y-112488724D01*
X148235031Y-112672571D01*
X148163296Y-112845754D01*
X148059626Y-113000905D01*
X148059156Y-113001609D01*
X147926609Y-113134156D01*
X147926606Y-113134158D01*
X147770754Y-113238296D01*
X147597571Y-113310031D01*
X147413724Y-113346600D01*
X147226276Y-113346600D01*
X147042429Y-113310031D01*
X146869246Y-113238296D01*
X146713394Y-113134158D01*
X146713391Y-113134156D01*
X146580844Y-113001609D01*
X146580374Y-113000905D01*
X146476704Y-112845754D01*
X146404969Y-112672571D01*
X146368400Y-112488724D01*
X146368400Y-112301276D01*
X146404969Y-112117429D01*
X146476704Y-111944246D01*
X146580842Y-111788394D01*
X146580844Y-111788391D01*
X146713391Y-111655844D01*
X146714095Y-111655374D01*
X146869246Y-111551704D01*
X147042429Y-111479969D01*
X147226276Y-111443400D01*
X147413724Y-111443400D01*
X147597571Y-111479969D01*
X147597571Y-111479969D01*
G37*
G36*
X150137571Y-111479969D02*
X150310754Y-111551704D01*
X150465905Y-111655374D01*
X150466609Y-111655844D01*
X150599156Y-111788391D01*
X150599158Y-111788394D01*
X150703296Y-111944246D01*
X150775031Y-112117429D01*
X150811600Y-112301276D01*
X150811600Y-112488724D01*
X150775031Y-112672571D01*
X150703296Y-112845754D01*
X150599626Y-113000905D01*
X150599156Y-113001609D01*
X150466609Y-113134156D01*
X150466606Y-113134158D01*
X150310754Y-113238296D01*
X150137571Y-113310031D01*
X149953724Y-113346600D01*
X149766276Y-113346600D01*
X149582429Y-113310031D01*
X149409246Y-113238296D01*
X149253394Y-113134158D01*
X149253391Y-113134156D01*
X149120844Y-113001609D01*
X149120374Y-113000905D01*
X149016704Y-112845754D01*
X148944969Y-112672571D01*
X148908400Y-112488724D01*
X148908400Y-112301276D01*
X148944969Y-112117429D01*
X149016704Y-111944246D01*
X149120842Y-111788394D01*
X149120844Y-111788391D01*
X149253391Y-111655844D01*
X149254095Y-111655374D01*
X149409246Y-111551704D01*
X149582429Y-111479969D01*
X149766276Y-111443400D01*
X149953724Y-111443400D01*
X150137571Y-111479969D01*
X150137571Y-111479969D01*
G37*
G36*
X147597571Y-108939969D02*
X147770754Y-109011704D01*
X147925905Y-109115374D01*
X147926609Y-109115844D01*
X148059156Y-109248391D01*
X148059158Y-109248394D01*
X148163296Y-109404246D01*
X148235031Y-109577429D01*
X148271600Y-109761276D01*
X148271600Y-109948724D01*
X148235031Y-110132571D01*
X148163296Y-110305754D01*
X148059626Y-110460905D01*
X148059156Y-110461609D01*
X147926609Y-110594156D01*
X147926606Y-110594158D01*
X147770754Y-110698296D01*
X147597571Y-110770031D01*
X147413724Y-110806600D01*
X147226276Y-110806600D01*
X147042429Y-110770031D01*
X146869246Y-110698296D01*
X146713394Y-110594158D01*
X146713391Y-110594156D01*
X146580844Y-110461609D01*
X146580374Y-110460905D01*
X146476704Y-110305754D01*
X146404969Y-110132571D01*
X146368400Y-109948724D01*
X146368400Y-109761276D01*
X146404969Y-109577429D01*
X146476704Y-109404246D01*
X146580842Y-109248394D01*
X146580844Y-109248391D01*
X146713391Y-109115844D01*
X146714095Y-109115374D01*
X146869246Y-109011704D01*
X147042429Y-108939969D01*
X147226276Y-108903400D01*
X147413724Y-108903400D01*
X147597571Y-108939969D01*
X147597571Y-108939969D01*
G37*
G36*
X150137571Y-108939969D02*
X150310754Y-109011704D01*
X150465905Y-109115374D01*
X150466609Y-109115844D01*
X150599156Y-109248391D01*
X150599158Y-109248394D01*
X150703296Y-109404246D01*
X150775031Y-109577429D01*
X150811600Y-109761276D01*
X150811600Y-109948724D01*
X150775031Y-110132571D01*
X150703296Y-110305754D01*
X150599626Y-110460905D01*
X150599156Y-110461609D01*
X150466609Y-110594156D01*
X150466606Y-110594158D01*
X150310754Y-110698296D01*
X150137571Y-110770031D01*
X149953724Y-110806600D01*
X149766276Y-110806600D01*
X149582429Y-110770031D01*
X149409246Y-110698296D01*
X149253394Y-110594158D01*
X149253391Y-110594156D01*
X149120844Y-110461609D01*
X149120374Y-110460905D01*
X149016704Y-110305754D01*
X148944969Y-110132571D01*
X148908400Y-109948724D01*
X148908400Y-109761276D01*
X148944969Y-109577429D01*
X149016704Y-109404246D01*
X149120842Y-109248394D01*
X149120844Y-109248391D01*
X149253391Y-109115844D01*
X149254095Y-109115374D01*
X149409246Y-109011704D01*
X149582429Y-108939969D01*
X149766276Y-108903400D01*
X149953724Y-108903400D01*
X150137571Y-108939969D01*
X150137571Y-108939969D01*
G37*
G36*
X147597571Y-106399969D02*
X147770754Y-106471704D01*
X147910106Y-106564817D01*
X147926609Y-106575844D01*
X148059156Y-106708391D01*
X148059158Y-106708394D01*
X148163296Y-106864246D01*
X148235031Y-107037429D01*
X148271600Y-107221276D01*
X148271600Y-107408724D01*
X148235031Y-107592571D01*
X148163296Y-107765754D01*
X148059626Y-107920905D01*
X148059156Y-107921609D01*
X147926609Y-108054156D01*
X147926606Y-108054158D01*
X147770754Y-108158296D01*
X147597571Y-108230031D01*
X147413724Y-108266600D01*
X147226276Y-108266600D01*
X147042429Y-108230031D01*
X146869246Y-108158296D01*
X146713394Y-108054158D01*
X146713391Y-108054156D01*
X146580844Y-107921609D01*
X146580374Y-107920905D01*
X146476704Y-107765754D01*
X146404969Y-107592571D01*
X146368400Y-107408724D01*
X146368400Y-107221276D01*
X146404969Y-107037429D01*
X146476704Y-106864246D01*
X146580842Y-106708394D01*
X146580844Y-106708391D01*
X146713391Y-106575844D01*
X146729894Y-106564817D01*
X146869246Y-106471704D01*
X147042429Y-106399969D01*
X147226276Y-106363400D01*
X147413724Y-106363400D01*
X147597571Y-106399969D01*
X147597571Y-106399969D01*
G37*
G36*
X150137571Y-106399969D02*
X150310754Y-106471704D01*
X150450106Y-106564817D01*
X150466609Y-106575844D01*
X150599156Y-106708391D01*
X150599158Y-106708394D01*
X150703296Y-106864246D01*
X150775031Y-107037429D01*
X150811600Y-107221276D01*
X150811600Y-107408724D01*
X150775031Y-107592571D01*
X150703296Y-107765754D01*
X150599626Y-107920905D01*
X150599156Y-107921609D01*
X150466609Y-108054156D01*
X150466606Y-108054158D01*
X150310754Y-108158296D01*
X150137571Y-108230031D01*
X149953724Y-108266600D01*
X149766276Y-108266600D01*
X149582429Y-108230031D01*
X149409246Y-108158296D01*
X149253394Y-108054158D01*
X149253391Y-108054156D01*
X149120844Y-107921609D01*
X149120374Y-107920905D01*
X149016704Y-107765754D01*
X148944969Y-107592571D01*
X148908400Y-107408724D01*
X148908400Y-107221276D01*
X148944969Y-107037429D01*
X149016704Y-106864246D01*
X149120842Y-106708394D01*
X149120844Y-106708391D01*
X149253391Y-106575844D01*
X149269894Y-106564817D01*
X149409246Y-106471704D01*
X149582429Y-106399969D01*
X149766276Y-106363400D01*
X149953724Y-106363400D01*
X150137571Y-106399969D01*
X150137571Y-106399969D01*
G37*
G36*
X179047479Y-105203276D02*
X179089080Y-105215896D01*
X179127422Y-105236391D01*
X179161029Y-105263971D01*
X179188609Y-105297578D01*
X179209104Y-105335920D01*
X179221724Y-105377521D01*
X179226600Y-105427033D01*
X179226600Y-106572967D01*
X179221724Y-106622479D01*
X179209104Y-106664080D01*
X179188609Y-106702422D01*
X179161029Y-106736029D01*
X179127422Y-106763609D01*
X179089080Y-106784104D01*
X179047479Y-106796724D01*
X178997967Y-106801600D01*
X178102033Y-106801600D01*
X178052521Y-106796724D01*
X178010920Y-106784104D01*
X177972578Y-106763609D01*
X177938971Y-106736029D01*
X177911391Y-106702422D01*
X177890896Y-106664080D01*
X177878276Y-106622479D01*
X177873400Y-106572967D01*
X177873400Y-105427033D01*
X177878276Y-105377521D01*
X177890896Y-105335920D01*
X177911391Y-105297578D01*
X177938971Y-105263971D01*
X177972578Y-105236391D01*
X178010920Y-105215896D01*
X178052521Y-105203276D01*
X178102033Y-105198400D01*
X178997967Y-105198400D01*
X179047479Y-105203276D01*
X179047479Y-105203276D01*
G37*
G36*
X176997479Y-105203276D02*
X177039080Y-105215896D01*
X177077422Y-105236391D01*
X177111029Y-105263971D01*
X177138609Y-105297578D01*
X177159104Y-105335920D01*
X177171724Y-105377521D01*
X177176600Y-105427033D01*
X177176600Y-106572967D01*
X177171724Y-106622479D01*
X177159104Y-106664080D01*
X177138609Y-106702422D01*
X177111029Y-106736029D01*
X177077422Y-106763609D01*
X177039080Y-106784104D01*
X176997479Y-106796724D01*
X176947967Y-106801600D01*
X176052033Y-106801600D01*
X176002521Y-106796724D01*
X175960920Y-106784104D01*
X175922578Y-106763609D01*
X175888971Y-106736029D01*
X175861391Y-106702422D01*
X175840896Y-106664080D01*
X175828276Y-106622479D01*
X175823400Y-106572967D01*
X175823400Y-105427033D01*
X175828276Y-105377521D01*
X175840896Y-105335920D01*
X175861391Y-105297578D01*
X175888971Y-105263971D01*
X175922578Y-105236391D01*
X175960920Y-105215896D01*
X176002521Y-105203276D01*
X176052033Y-105198400D01*
X176947967Y-105198400D01*
X176997479Y-105203276D01*
X176997479Y-105203276D01*
G37*
G36*
X147597571Y-103859969D02*
X147770754Y-103931704D01*
X147925905Y-104035374D01*
X147926609Y-104035844D01*
X148059156Y-104168391D01*
X148059158Y-104168394D01*
X148163296Y-104324246D01*
X148235031Y-104497429D01*
X148271600Y-104681276D01*
X148271600Y-104868724D01*
X148235031Y-105052571D01*
X148163296Y-105225754D01*
X148061888Y-105377521D01*
X148059156Y-105381609D01*
X147926609Y-105514156D01*
X147926606Y-105514158D01*
X147770754Y-105618296D01*
X147597571Y-105690031D01*
X147413724Y-105726600D01*
X147226276Y-105726600D01*
X147042429Y-105690031D01*
X146869246Y-105618296D01*
X146713394Y-105514158D01*
X146713391Y-105514156D01*
X146580844Y-105381609D01*
X146578112Y-105377521D01*
X146476704Y-105225754D01*
X146404969Y-105052571D01*
X146368400Y-104868724D01*
X146368400Y-104681276D01*
X146404969Y-104497429D01*
X146476704Y-104324246D01*
X146580842Y-104168394D01*
X146580844Y-104168391D01*
X146713391Y-104035844D01*
X146714095Y-104035374D01*
X146869246Y-103931704D01*
X147042429Y-103859969D01*
X147226276Y-103823400D01*
X147413724Y-103823400D01*
X147597571Y-103859969D01*
X147597571Y-103859969D01*
G37*
G36*
X150137571Y-103859969D02*
X150310754Y-103931704D01*
X150465905Y-104035374D01*
X150466609Y-104035844D01*
X150599156Y-104168391D01*
X150599158Y-104168394D01*
X150703296Y-104324246D01*
X150775031Y-104497429D01*
X150811600Y-104681276D01*
X150811600Y-104868724D01*
X150775031Y-105052571D01*
X150703296Y-105225754D01*
X150601888Y-105377521D01*
X150599156Y-105381609D01*
X150466609Y-105514156D01*
X150466606Y-105514158D01*
X150310754Y-105618296D01*
X150137571Y-105690031D01*
X149953724Y-105726600D01*
X149766276Y-105726600D01*
X149582429Y-105690031D01*
X149409246Y-105618296D01*
X149253394Y-105514158D01*
X149253391Y-105514156D01*
X149120844Y-105381609D01*
X149118112Y-105377521D01*
X149016704Y-105225754D01*
X148944969Y-105052571D01*
X148908400Y-104868724D01*
X148908400Y-104681276D01*
X148944969Y-104497429D01*
X149016704Y-104324246D01*
X149120842Y-104168394D01*
X149120844Y-104168391D01*
X149253391Y-104035844D01*
X149254095Y-104035374D01*
X149409246Y-103931704D01*
X149582429Y-103859969D01*
X149766276Y-103823400D01*
X149953724Y-103823400D01*
X150137571Y-103859969D01*
X150137571Y-103859969D01*
G37*
G36*
X150137571Y-101319969D02*
X150310754Y-101391704D01*
X150465905Y-101495374D01*
X150466609Y-101495844D01*
X150599156Y-101628391D01*
X150599158Y-101628394D01*
X150703296Y-101784246D01*
X150775031Y-101957429D01*
X150811600Y-102141276D01*
X150811600Y-102328724D01*
X150775031Y-102512571D01*
X150703296Y-102685754D01*
X150639587Y-102781100D01*
X150599156Y-102841609D01*
X150466609Y-102974156D01*
X150466606Y-102974158D01*
X150310754Y-103078296D01*
X150137571Y-103150031D01*
X149953724Y-103186600D01*
X149766276Y-103186600D01*
X149582429Y-103150031D01*
X149409246Y-103078296D01*
X149253394Y-102974158D01*
X149253391Y-102974156D01*
X149120844Y-102841609D01*
X149080413Y-102781100D01*
X149016704Y-102685754D01*
X148944969Y-102512571D01*
X148908400Y-102328724D01*
X148908400Y-102141276D01*
X148944969Y-101957429D01*
X149016704Y-101784246D01*
X149120842Y-101628394D01*
X149120844Y-101628391D01*
X149253391Y-101495844D01*
X149254095Y-101495374D01*
X149409246Y-101391704D01*
X149582429Y-101319969D01*
X149766276Y-101283400D01*
X149953724Y-101283400D01*
X150137571Y-101319969D01*
X150137571Y-101319969D01*
G37*
G36*
X147597571Y-101319969D02*
X147770754Y-101391704D01*
X147925905Y-101495374D01*
X147926609Y-101495844D01*
X148059156Y-101628391D01*
X148059158Y-101628394D01*
X148163296Y-101784246D01*
X148235031Y-101957429D01*
X148271600Y-102141276D01*
X148271600Y-102328724D01*
X148235031Y-102512571D01*
X148163296Y-102685754D01*
X148099587Y-102781100D01*
X148059156Y-102841609D01*
X147926609Y-102974156D01*
X147926606Y-102974158D01*
X147770754Y-103078296D01*
X147597571Y-103150031D01*
X147413724Y-103186600D01*
X147226276Y-103186600D01*
X147042429Y-103150031D01*
X146869246Y-103078296D01*
X146713394Y-102974158D01*
X146713391Y-102974156D01*
X146580844Y-102841609D01*
X146540413Y-102781100D01*
X146476704Y-102685754D01*
X146404969Y-102512571D01*
X146368400Y-102328724D01*
X146368400Y-102141276D01*
X146404969Y-101957429D01*
X146476704Y-101784246D01*
X146580842Y-101628394D01*
X146580844Y-101628391D01*
X146713391Y-101495844D01*
X146714095Y-101495374D01*
X146869246Y-101391704D01*
X147042429Y-101319969D01*
X147226276Y-101283400D01*
X147413724Y-101283400D01*
X147597571Y-101319969D01*
X147597571Y-101319969D01*
G37*
G36*
X184221600Y-102781100D02*
X180018400Y-102781100D01*
X180018400Y-101942900D01*
X184221600Y-101942900D01*
X184221600Y-102781100D01*
X184221600Y-102781100D01*
G37*
G36*
X174821600Y-102781100D02*
X170618400Y-102781100D01*
X170618400Y-101942900D01*
X174821600Y-101942900D01*
X174821600Y-102781100D01*
X174821600Y-102781100D01*
G37*
G36*
X165722479Y-100203276D02*
X165764080Y-100215896D01*
X165802422Y-100236391D01*
X165836029Y-100263971D01*
X165863609Y-100297578D01*
X165884104Y-100335920D01*
X165896724Y-100377521D01*
X165901600Y-100427033D01*
X165901600Y-101572967D01*
X165896724Y-101622479D01*
X165884104Y-101664080D01*
X165863609Y-101702422D01*
X165836029Y-101736029D01*
X165802422Y-101763609D01*
X165764080Y-101784104D01*
X165722479Y-101796724D01*
X165672967Y-101801600D01*
X164777033Y-101801600D01*
X164727521Y-101796724D01*
X164685920Y-101784104D01*
X164647578Y-101763609D01*
X164613971Y-101736029D01*
X164586391Y-101702422D01*
X164565896Y-101664080D01*
X164553276Y-101622479D01*
X164548400Y-101572967D01*
X164548400Y-100427033D01*
X164553276Y-100377521D01*
X164565896Y-100335920D01*
X164586391Y-100297578D01*
X164613971Y-100263971D01*
X164647578Y-100236391D01*
X164685920Y-100215896D01*
X164727521Y-100203276D01*
X164777033Y-100198400D01*
X165672967Y-100198400D01*
X165722479Y-100203276D01*
X165722479Y-100203276D01*
G37*
G36*
X167772479Y-100203276D02*
X167814080Y-100215896D01*
X167852422Y-100236391D01*
X167886029Y-100263971D01*
X167913609Y-100297578D01*
X167934104Y-100335920D01*
X167946724Y-100377521D01*
X167951600Y-100427033D01*
X167951600Y-101572967D01*
X167946724Y-101622479D01*
X167934104Y-101664080D01*
X167913609Y-101702422D01*
X167886029Y-101736029D01*
X167852422Y-101763609D01*
X167814080Y-101784104D01*
X167772479Y-101796724D01*
X167722967Y-101801600D01*
X166827033Y-101801600D01*
X166777521Y-101796724D01*
X166735920Y-101784104D01*
X166697578Y-101763609D01*
X166663971Y-101736029D01*
X166636391Y-101702422D01*
X166615896Y-101664080D01*
X166603276Y-101622479D01*
X166598400Y-101572967D01*
X166598400Y-100427033D01*
X166603276Y-100377521D01*
X166615896Y-100335920D01*
X166636391Y-100297578D01*
X166663971Y-100263971D01*
X166697578Y-100236391D01*
X166735920Y-100215896D01*
X166777521Y-100203276D01*
X166827033Y-100198400D01*
X167722967Y-100198400D01*
X167772479Y-100203276D01*
X167772479Y-100203276D01*
G37*
G36*
X190022479Y-100203276D02*
X190064080Y-100215896D01*
X190102422Y-100236391D01*
X190136029Y-100263971D01*
X190163609Y-100297578D01*
X190184104Y-100335920D01*
X190196724Y-100377521D01*
X190201600Y-100427033D01*
X190201600Y-101572967D01*
X190196724Y-101622479D01*
X190184104Y-101664080D01*
X190163609Y-101702422D01*
X190136029Y-101736029D01*
X190102422Y-101763609D01*
X190064080Y-101784104D01*
X190022479Y-101796724D01*
X189972967Y-101801600D01*
X189077033Y-101801600D01*
X189027521Y-101796724D01*
X188985920Y-101784104D01*
X188947578Y-101763609D01*
X188913971Y-101736029D01*
X188886391Y-101702422D01*
X188865896Y-101664080D01*
X188853276Y-101622479D01*
X188848400Y-101572967D01*
X188848400Y-100427033D01*
X188853276Y-100377521D01*
X188865896Y-100335920D01*
X188886391Y-100297578D01*
X188913971Y-100263971D01*
X188947578Y-100236391D01*
X188985920Y-100215896D01*
X189027521Y-100203276D01*
X189077033Y-100198400D01*
X189972967Y-100198400D01*
X190022479Y-100203276D01*
X190022479Y-100203276D01*
G37*
G36*
X187972479Y-100203276D02*
X188014080Y-100215896D01*
X188052422Y-100236391D01*
X188086029Y-100263971D01*
X188113609Y-100297578D01*
X188134104Y-100335920D01*
X188146724Y-100377521D01*
X188151600Y-100427033D01*
X188151600Y-101572967D01*
X188146724Y-101622479D01*
X188134104Y-101664080D01*
X188113609Y-101702422D01*
X188086029Y-101736029D01*
X188052422Y-101763609D01*
X188014080Y-101784104D01*
X187972479Y-101796724D01*
X187922967Y-101801600D01*
X187027033Y-101801600D01*
X186977521Y-101796724D01*
X186935920Y-101784104D01*
X186897578Y-101763609D01*
X186863971Y-101736029D01*
X186836391Y-101702422D01*
X186815896Y-101664080D01*
X186803276Y-101622479D01*
X186798400Y-101572967D01*
X186798400Y-100427033D01*
X186803276Y-100377521D01*
X186815896Y-100335920D01*
X186836391Y-100297578D01*
X186863971Y-100263971D01*
X186897578Y-100236391D01*
X186935920Y-100215896D01*
X186977521Y-100203276D01*
X187027033Y-100198400D01*
X187922967Y-100198400D01*
X187972479Y-100203276D01*
X187972479Y-100203276D01*
G37*
G36*
X174821600Y-101511100D02*
X170618400Y-101511100D01*
X170618400Y-100672900D01*
X174821600Y-100672900D01*
X174821600Y-101511100D01*
X174821600Y-101511100D01*
G37*
G36*
X184221600Y-101511100D02*
X180018400Y-101511100D01*
X180018400Y-100672900D01*
X184221600Y-100672900D01*
X184221600Y-101511100D01*
X184221600Y-101511100D01*
G37*
G36*
X147597571Y-98779969D02*
X147770754Y-98851704D01*
X147915468Y-98948400D01*
X147926609Y-98955844D01*
X148059156Y-99088391D01*
X148059158Y-99088394D01*
X148163296Y-99244246D01*
X148235031Y-99417429D01*
X148271600Y-99601276D01*
X148271600Y-99788724D01*
X148235031Y-99972571D01*
X148163296Y-100145754D01*
X148084305Y-100263971D01*
X148059156Y-100301609D01*
X147926609Y-100434156D01*
X147926606Y-100434158D01*
X147770754Y-100538296D01*
X147597571Y-100610031D01*
X147413724Y-100646600D01*
X147226276Y-100646600D01*
X147042429Y-100610031D01*
X146869246Y-100538296D01*
X146713394Y-100434158D01*
X146713391Y-100434156D01*
X146580844Y-100301609D01*
X146555695Y-100263971D01*
X146476704Y-100145754D01*
X146404969Y-99972571D01*
X146368400Y-99788724D01*
X146368400Y-99601276D01*
X146404969Y-99417429D01*
X146476704Y-99244246D01*
X146580842Y-99088394D01*
X146580844Y-99088391D01*
X146713391Y-98955844D01*
X146724532Y-98948400D01*
X146869246Y-98851704D01*
X147042429Y-98779969D01*
X147226276Y-98743400D01*
X147413724Y-98743400D01*
X147597571Y-98779969D01*
X147597571Y-98779969D01*
G37*
G36*
X150137571Y-98779969D02*
X150310754Y-98851704D01*
X150455468Y-98948400D01*
X150466609Y-98955844D01*
X150599156Y-99088391D01*
X150599158Y-99088394D01*
X150703296Y-99244246D01*
X150775031Y-99417429D01*
X150811600Y-99601276D01*
X150811600Y-99788724D01*
X150775031Y-99972571D01*
X150703296Y-100145754D01*
X150624305Y-100263971D01*
X150599156Y-100301609D01*
X150466609Y-100434156D01*
X150466606Y-100434158D01*
X150310754Y-100538296D01*
X150137571Y-100610031D01*
X149953724Y-100646600D01*
X149766276Y-100646600D01*
X149582429Y-100610031D01*
X149409246Y-100538296D01*
X149253394Y-100434158D01*
X149253391Y-100434156D01*
X149120844Y-100301609D01*
X149095695Y-100263971D01*
X149016704Y-100145754D01*
X148944969Y-99972571D01*
X148908400Y-99788724D01*
X148908400Y-99601276D01*
X148944969Y-99417429D01*
X149016704Y-99244246D01*
X149120842Y-99088394D01*
X149120844Y-99088391D01*
X149253391Y-98955844D01*
X149264532Y-98948400D01*
X149409246Y-98851704D01*
X149582429Y-98779969D01*
X149766276Y-98743400D01*
X149953724Y-98743400D01*
X150137571Y-98779969D01*
X150137571Y-98779969D01*
G37*
G36*
X159472479Y-98953276D02*
X159514080Y-98965896D01*
X159552422Y-98986391D01*
X159586029Y-99013971D01*
X159613609Y-99047578D01*
X159634104Y-99085920D01*
X159646724Y-99127521D01*
X159651600Y-99177033D01*
X159651600Y-100322967D01*
X159646724Y-100372479D01*
X159634104Y-100414080D01*
X159613609Y-100452422D01*
X159586029Y-100486029D01*
X159552422Y-100513609D01*
X159514080Y-100534104D01*
X159472479Y-100546724D01*
X159422967Y-100551600D01*
X158527033Y-100551600D01*
X158477521Y-100546724D01*
X158435920Y-100534104D01*
X158397578Y-100513609D01*
X158363971Y-100486029D01*
X158336391Y-100452422D01*
X158315896Y-100414080D01*
X158303276Y-100372479D01*
X158298400Y-100322967D01*
X158298400Y-99177033D01*
X158303276Y-99127521D01*
X158315896Y-99085920D01*
X158336391Y-99047578D01*
X158363971Y-99013971D01*
X158397578Y-98986391D01*
X158435920Y-98965896D01*
X158477521Y-98953276D01*
X158527033Y-98948400D01*
X159422967Y-98948400D01*
X159472479Y-98953276D01*
X159472479Y-98953276D01*
G37*
G36*
X161522479Y-98953276D02*
X161564080Y-98965896D01*
X161602422Y-98986391D01*
X161636029Y-99013971D01*
X161663609Y-99047578D01*
X161684104Y-99085920D01*
X161696724Y-99127521D01*
X161701600Y-99177033D01*
X161701600Y-100322967D01*
X161696724Y-100372479D01*
X161684104Y-100414080D01*
X161663609Y-100452422D01*
X161636029Y-100486029D01*
X161602422Y-100513609D01*
X161564080Y-100534104D01*
X161522479Y-100546724D01*
X161472967Y-100551600D01*
X160577033Y-100551600D01*
X160527521Y-100546724D01*
X160485920Y-100534104D01*
X160447578Y-100513609D01*
X160413971Y-100486029D01*
X160386391Y-100452422D01*
X160365896Y-100414080D01*
X160353276Y-100372479D01*
X160348400Y-100322967D01*
X160348400Y-99177033D01*
X160353276Y-99127521D01*
X160365896Y-99085920D01*
X160386391Y-99047578D01*
X160413971Y-99013971D01*
X160447578Y-98986391D01*
X160485920Y-98965896D01*
X160527521Y-98953276D01*
X160577033Y-98948400D01*
X161472967Y-98948400D01*
X161522479Y-98953276D01*
X161522479Y-98953276D01*
G37*
G36*
X195472479Y-98953276D02*
X195514080Y-98965896D01*
X195552422Y-98986391D01*
X195586029Y-99013971D01*
X195613609Y-99047578D01*
X195634104Y-99085920D01*
X195646724Y-99127521D01*
X195651600Y-99177033D01*
X195651600Y-100322967D01*
X195646724Y-100372479D01*
X195634104Y-100414080D01*
X195613609Y-100452422D01*
X195586029Y-100486029D01*
X195552422Y-100513609D01*
X195514080Y-100534104D01*
X195472479Y-100546724D01*
X195422967Y-100551600D01*
X194527033Y-100551600D01*
X194477521Y-100546724D01*
X194435920Y-100534104D01*
X194397578Y-100513609D01*
X194363971Y-100486029D01*
X194336391Y-100452422D01*
X194315896Y-100414080D01*
X194303276Y-100372479D01*
X194298400Y-100322967D01*
X194298400Y-99177033D01*
X194303276Y-99127521D01*
X194315896Y-99085920D01*
X194336391Y-99047578D01*
X194363971Y-99013971D01*
X194397578Y-98986391D01*
X194435920Y-98965896D01*
X194477521Y-98953276D01*
X194527033Y-98948400D01*
X195422967Y-98948400D01*
X195472479Y-98953276D01*
X195472479Y-98953276D01*
G37*
G36*
X197522479Y-98953276D02*
X197564080Y-98965896D01*
X197602422Y-98986391D01*
X197636029Y-99013971D01*
X197663609Y-99047578D01*
X197684104Y-99085920D01*
X197696724Y-99127521D01*
X197701600Y-99177033D01*
X197701600Y-100322967D01*
X197696724Y-100372479D01*
X197684104Y-100414080D01*
X197663609Y-100452422D01*
X197636029Y-100486029D01*
X197602422Y-100513609D01*
X197564080Y-100534104D01*
X197522479Y-100546724D01*
X197472967Y-100551600D01*
X196577033Y-100551600D01*
X196527521Y-100546724D01*
X196485920Y-100534104D01*
X196447578Y-100513609D01*
X196413971Y-100486029D01*
X196386391Y-100452422D01*
X196365896Y-100414080D01*
X196353276Y-100372479D01*
X196348400Y-100322967D01*
X196348400Y-99177033D01*
X196353276Y-99127521D01*
X196365896Y-99085920D01*
X196386391Y-99047578D01*
X196413971Y-99013971D01*
X196447578Y-98986391D01*
X196485920Y-98965896D01*
X196527521Y-98953276D01*
X196577033Y-98948400D01*
X197472967Y-98948400D01*
X197522479Y-98953276D01*
X197522479Y-98953276D01*
G37*
G36*
X174821600Y-100241100D02*
X170618400Y-100241100D01*
X170618400Y-99402900D01*
X174821600Y-99402900D01*
X174821600Y-100241100D01*
X174821600Y-100241100D01*
G37*
G36*
X184221600Y-100241100D02*
X180018400Y-100241100D01*
X180018400Y-99402900D01*
X184221600Y-99402900D01*
X184221600Y-100241100D01*
X184221600Y-100241100D01*
G37*
G36*
X165722479Y-97703276D02*
X165764080Y-97715896D01*
X165802422Y-97736391D01*
X165836029Y-97763971D01*
X165863609Y-97797578D01*
X165884104Y-97835920D01*
X165896724Y-97877521D01*
X165901600Y-97927033D01*
X165901600Y-99072967D01*
X165896724Y-99122479D01*
X165884104Y-99164080D01*
X165863609Y-99202422D01*
X165836029Y-99236029D01*
X165802422Y-99263609D01*
X165764080Y-99284104D01*
X165722479Y-99296724D01*
X165672967Y-99301600D01*
X164777033Y-99301600D01*
X164727521Y-99296724D01*
X164685920Y-99284104D01*
X164647578Y-99263609D01*
X164613971Y-99236029D01*
X164586391Y-99202422D01*
X164565896Y-99164080D01*
X164553276Y-99122479D01*
X164548400Y-99072967D01*
X164548400Y-97927033D01*
X164553276Y-97877521D01*
X164565896Y-97835920D01*
X164586391Y-97797578D01*
X164613971Y-97763971D01*
X164647578Y-97736391D01*
X164685920Y-97715896D01*
X164727521Y-97703276D01*
X164777033Y-97698400D01*
X165672967Y-97698400D01*
X165722479Y-97703276D01*
X165722479Y-97703276D01*
G37*
G36*
X167772479Y-97703276D02*
X167814080Y-97715896D01*
X167852422Y-97736391D01*
X167886029Y-97763971D01*
X167913609Y-97797578D01*
X167934104Y-97835920D01*
X167946724Y-97877521D01*
X167951600Y-97927033D01*
X167951600Y-99072967D01*
X167946724Y-99122479D01*
X167934104Y-99164080D01*
X167913609Y-99202422D01*
X167886029Y-99236029D01*
X167852422Y-99263609D01*
X167814080Y-99284104D01*
X167772479Y-99296724D01*
X167722967Y-99301600D01*
X166827033Y-99301600D01*
X166777521Y-99296724D01*
X166735920Y-99284104D01*
X166697578Y-99263609D01*
X166663971Y-99236029D01*
X166636391Y-99202422D01*
X166615896Y-99164080D01*
X166603276Y-99122479D01*
X166598400Y-99072967D01*
X166598400Y-97927033D01*
X166603276Y-97877521D01*
X166615896Y-97835920D01*
X166636391Y-97797578D01*
X166663971Y-97763971D01*
X166697578Y-97736391D01*
X166735920Y-97715896D01*
X166777521Y-97703276D01*
X166827033Y-97698400D01*
X167722967Y-97698400D01*
X167772479Y-97703276D01*
X167772479Y-97703276D01*
G37*
G36*
X187972479Y-97703276D02*
X188014080Y-97715896D01*
X188052422Y-97736391D01*
X188086029Y-97763971D01*
X188113609Y-97797578D01*
X188134104Y-97835920D01*
X188146724Y-97877521D01*
X188151600Y-97927033D01*
X188151600Y-99072967D01*
X188146724Y-99122479D01*
X188134104Y-99164080D01*
X188113609Y-99202422D01*
X188086029Y-99236029D01*
X188052422Y-99263609D01*
X188014080Y-99284104D01*
X187972479Y-99296724D01*
X187922967Y-99301600D01*
X187027033Y-99301600D01*
X186977521Y-99296724D01*
X186935920Y-99284104D01*
X186897578Y-99263609D01*
X186863971Y-99236029D01*
X186836391Y-99202422D01*
X186815896Y-99164080D01*
X186803276Y-99122479D01*
X186798400Y-99072967D01*
X186798400Y-97927033D01*
X186803276Y-97877521D01*
X186815896Y-97835920D01*
X186836391Y-97797578D01*
X186863971Y-97763971D01*
X186897578Y-97736391D01*
X186935920Y-97715896D01*
X186977521Y-97703276D01*
X187027033Y-97698400D01*
X187922967Y-97698400D01*
X187972479Y-97703276D01*
X187972479Y-97703276D01*
G37*
G36*
X190022479Y-97703276D02*
X190064080Y-97715896D01*
X190102422Y-97736391D01*
X190136029Y-97763971D01*
X190163609Y-97797578D01*
X190184104Y-97835920D01*
X190196724Y-97877521D01*
X190201600Y-97927033D01*
X190201600Y-99072967D01*
X190196724Y-99122479D01*
X190184104Y-99164080D01*
X190163609Y-99202422D01*
X190136029Y-99236029D01*
X190102422Y-99263609D01*
X190064080Y-99284104D01*
X190022479Y-99296724D01*
X189972967Y-99301600D01*
X189077033Y-99301600D01*
X189027521Y-99296724D01*
X188985920Y-99284104D01*
X188947578Y-99263609D01*
X188913971Y-99236029D01*
X188886391Y-99202422D01*
X188865896Y-99164080D01*
X188853276Y-99122479D01*
X188848400Y-99072967D01*
X188848400Y-97927033D01*
X188853276Y-97877521D01*
X188865896Y-97835920D01*
X188886391Y-97797578D01*
X188913971Y-97763971D01*
X188947578Y-97736391D01*
X188985920Y-97715896D01*
X189027521Y-97703276D01*
X189077033Y-97698400D01*
X189972967Y-97698400D01*
X190022479Y-97703276D01*
X190022479Y-97703276D01*
G37*
G36*
X174821600Y-98971100D02*
X170618400Y-98971100D01*
X170618400Y-98132900D01*
X174821600Y-98132900D01*
X174821600Y-98971100D01*
X174821600Y-98971100D01*
G37*
G36*
X184221600Y-98971100D02*
X180018400Y-98971100D01*
X180018400Y-98132900D01*
X184221600Y-98132900D01*
X184221600Y-98971100D01*
X184221600Y-98971100D01*
G37*
G36*
X150137571Y-96239969D02*
X150310754Y-96311704D01*
X150465905Y-96415374D01*
X150466609Y-96415844D01*
X150599156Y-96548391D01*
X150599158Y-96548394D01*
X150703296Y-96704246D01*
X150775031Y-96877429D01*
X150811600Y-97061276D01*
X150811600Y-97248724D01*
X150775031Y-97432571D01*
X150703296Y-97605754D01*
X150616006Y-97736391D01*
X150599156Y-97761609D01*
X150466609Y-97894156D01*
X150466606Y-97894158D01*
X150310754Y-97998296D01*
X150137571Y-98070031D01*
X149953724Y-98106600D01*
X149766276Y-98106600D01*
X149582429Y-98070031D01*
X149409246Y-97998296D01*
X149253394Y-97894158D01*
X149253391Y-97894156D01*
X149120844Y-97761609D01*
X149103994Y-97736391D01*
X149016704Y-97605754D01*
X148944969Y-97432571D01*
X148908400Y-97248724D01*
X148908400Y-97061276D01*
X148944969Y-96877429D01*
X149016704Y-96704246D01*
X149120842Y-96548394D01*
X149120844Y-96548391D01*
X149253391Y-96415844D01*
X149254095Y-96415374D01*
X149409246Y-96311704D01*
X149582429Y-96239969D01*
X149766276Y-96203400D01*
X149953724Y-96203400D01*
X150137571Y-96239969D01*
X150137571Y-96239969D01*
G37*
G36*
X147597571Y-96239969D02*
X147770754Y-96311704D01*
X147925905Y-96415374D01*
X147926609Y-96415844D01*
X148059156Y-96548391D01*
X148059158Y-96548394D01*
X148163296Y-96704246D01*
X148235031Y-96877429D01*
X148271600Y-97061276D01*
X148271600Y-97248724D01*
X148235031Y-97432571D01*
X148163296Y-97605754D01*
X148076006Y-97736391D01*
X148059156Y-97761609D01*
X147926609Y-97894156D01*
X147926606Y-97894158D01*
X147770754Y-97998296D01*
X147597571Y-98070031D01*
X147413724Y-98106600D01*
X147226276Y-98106600D01*
X147042429Y-98070031D01*
X146869246Y-97998296D01*
X146713394Y-97894158D01*
X146713391Y-97894156D01*
X146580844Y-97761609D01*
X146563994Y-97736391D01*
X146476704Y-97605754D01*
X146404969Y-97432571D01*
X146368400Y-97248724D01*
X146368400Y-97061276D01*
X146404969Y-96877429D01*
X146476704Y-96704246D01*
X146580842Y-96548394D01*
X146580844Y-96548391D01*
X146713391Y-96415844D01*
X146714095Y-96415374D01*
X146869246Y-96311704D01*
X147042429Y-96239969D01*
X147226276Y-96203400D01*
X147413724Y-96203400D01*
X147597571Y-96239969D01*
X147597571Y-96239969D01*
G37*
G36*
X161522479Y-96453276D02*
X161564080Y-96465896D01*
X161602422Y-96486391D01*
X161636029Y-96513971D01*
X161663609Y-96547578D01*
X161684104Y-96585920D01*
X161696724Y-96627521D01*
X161701600Y-96677033D01*
X161701600Y-97822967D01*
X161696724Y-97872479D01*
X161684104Y-97914080D01*
X161663609Y-97952422D01*
X161636029Y-97986029D01*
X161602422Y-98013609D01*
X161564080Y-98034104D01*
X161522479Y-98046724D01*
X161472967Y-98051600D01*
X160577033Y-98051600D01*
X160527521Y-98046724D01*
X160485920Y-98034104D01*
X160447578Y-98013609D01*
X160413971Y-97986029D01*
X160386391Y-97952422D01*
X160365896Y-97914080D01*
X160353276Y-97872479D01*
X160348400Y-97822967D01*
X160348400Y-96677033D01*
X160353276Y-96627521D01*
X160365896Y-96585920D01*
X160386391Y-96547578D01*
X160413971Y-96513971D01*
X160447578Y-96486391D01*
X160485920Y-96465896D01*
X160527521Y-96453276D01*
X160577033Y-96448400D01*
X161472967Y-96448400D01*
X161522479Y-96453276D01*
X161522479Y-96453276D01*
G37*
G36*
X197522479Y-96453276D02*
X197564080Y-96465896D01*
X197602422Y-96486391D01*
X197636029Y-96513971D01*
X197663609Y-96547578D01*
X197684104Y-96585920D01*
X197696724Y-96627521D01*
X197701600Y-96677033D01*
X197701600Y-97822967D01*
X197696724Y-97872479D01*
X197684104Y-97914080D01*
X197663609Y-97952422D01*
X197636029Y-97986029D01*
X197602422Y-98013609D01*
X197564080Y-98034104D01*
X197522479Y-98046724D01*
X197472967Y-98051600D01*
X196577033Y-98051600D01*
X196527521Y-98046724D01*
X196485920Y-98034104D01*
X196447578Y-98013609D01*
X196413971Y-97986029D01*
X196386391Y-97952422D01*
X196365896Y-97914080D01*
X196353276Y-97872479D01*
X196348400Y-97822967D01*
X196348400Y-96677033D01*
X196353276Y-96627521D01*
X196365896Y-96585920D01*
X196386391Y-96547578D01*
X196413971Y-96513971D01*
X196447578Y-96486391D01*
X196485920Y-96465896D01*
X196527521Y-96453276D01*
X196577033Y-96448400D01*
X197472967Y-96448400D01*
X197522479Y-96453276D01*
X197522479Y-96453276D01*
G37*
G36*
X195472479Y-96453276D02*
X195514080Y-96465896D01*
X195552422Y-96486391D01*
X195586029Y-96513971D01*
X195613609Y-96547578D01*
X195634104Y-96585920D01*
X195646724Y-96627521D01*
X195651600Y-96677033D01*
X195651600Y-97822967D01*
X195646724Y-97872479D01*
X195634104Y-97914080D01*
X195613609Y-97952422D01*
X195586029Y-97986029D01*
X195552422Y-98013609D01*
X195514080Y-98034104D01*
X195472479Y-98046724D01*
X195422967Y-98051600D01*
X194527033Y-98051600D01*
X194477521Y-98046724D01*
X194435920Y-98034104D01*
X194397578Y-98013609D01*
X194363971Y-97986029D01*
X194336391Y-97952422D01*
X194315896Y-97914080D01*
X194303276Y-97872479D01*
X194298400Y-97822967D01*
X194298400Y-96677033D01*
X194303276Y-96627521D01*
X194315896Y-96585920D01*
X194336391Y-96547578D01*
X194363971Y-96513971D01*
X194397578Y-96486391D01*
X194435920Y-96465896D01*
X194477521Y-96453276D01*
X194527033Y-96448400D01*
X195422967Y-96448400D01*
X195472479Y-96453276D01*
X195472479Y-96453276D01*
G37*
G36*
X159472479Y-96453276D02*
X159514080Y-96465896D01*
X159552422Y-96486391D01*
X159586029Y-96513971D01*
X159613609Y-96547578D01*
X159634104Y-96585920D01*
X159646724Y-96627521D01*
X159651600Y-96677033D01*
X159651600Y-97822967D01*
X159646724Y-97872479D01*
X159634104Y-97914080D01*
X159613609Y-97952422D01*
X159586029Y-97986029D01*
X159552422Y-98013609D01*
X159514080Y-98034104D01*
X159472479Y-98046724D01*
X159422967Y-98051600D01*
X158527033Y-98051600D01*
X158477521Y-98046724D01*
X158435920Y-98034104D01*
X158397578Y-98013609D01*
X158363971Y-97986029D01*
X158336391Y-97952422D01*
X158315896Y-97914080D01*
X158303276Y-97872479D01*
X158298400Y-97822967D01*
X158298400Y-96677033D01*
X158303276Y-96627521D01*
X158315896Y-96585920D01*
X158336391Y-96547578D01*
X158363971Y-96513971D01*
X158397578Y-96486391D01*
X158435920Y-96465896D01*
X158477521Y-96453276D01*
X158527033Y-96448400D01*
X159422967Y-96448400D01*
X159472479Y-96453276D01*
X159472479Y-96453276D01*
G37*
G36*
X174821600Y-97701100D02*
X170618400Y-97701100D01*
X170618400Y-96862900D01*
X174821600Y-96862900D01*
X174821600Y-97701100D01*
X174821600Y-97701100D01*
G37*
G36*
X184221600Y-97701100D02*
X180018400Y-97701100D01*
X180018400Y-96862900D01*
X184221600Y-96862900D01*
X184221600Y-97701100D01*
X184221600Y-97701100D01*
G37*
G36*
X187972479Y-95203276D02*
X188014080Y-95215896D01*
X188052422Y-95236391D01*
X188086029Y-95263971D01*
X188113609Y-95297578D01*
X188134104Y-95335920D01*
X188146724Y-95377521D01*
X188151600Y-95427033D01*
X188151600Y-96572967D01*
X188146724Y-96622479D01*
X188134104Y-96664080D01*
X188113609Y-96702422D01*
X188086029Y-96736029D01*
X188052422Y-96763609D01*
X188014080Y-96784104D01*
X187972479Y-96796724D01*
X187922967Y-96801600D01*
X187027033Y-96801600D01*
X186977521Y-96796724D01*
X186935920Y-96784104D01*
X186897578Y-96763609D01*
X186863971Y-96736029D01*
X186836391Y-96702422D01*
X186815896Y-96664080D01*
X186803276Y-96622479D01*
X186798400Y-96572967D01*
X186798400Y-95427033D01*
X186803276Y-95377521D01*
X186815896Y-95335920D01*
X186836391Y-95297578D01*
X186863971Y-95263971D01*
X186897578Y-95236391D01*
X186935920Y-95215896D01*
X186977521Y-95203276D01*
X187027033Y-95198400D01*
X187922967Y-95198400D01*
X187972479Y-95203276D01*
X187972479Y-95203276D01*
G37*
G36*
X190022479Y-95203276D02*
X190064080Y-95215896D01*
X190102422Y-95236391D01*
X190136029Y-95263971D01*
X190163609Y-95297578D01*
X190184104Y-95335920D01*
X190196724Y-95377521D01*
X190201600Y-95427033D01*
X190201600Y-96572967D01*
X190196724Y-96622479D01*
X190184104Y-96664080D01*
X190163609Y-96702422D01*
X190136029Y-96736029D01*
X190102422Y-96763609D01*
X190064080Y-96784104D01*
X190022479Y-96796724D01*
X189972967Y-96801600D01*
X189077033Y-96801600D01*
X189027521Y-96796724D01*
X188985920Y-96784104D01*
X188947578Y-96763609D01*
X188913971Y-96736029D01*
X188886391Y-96702422D01*
X188865896Y-96664080D01*
X188853276Y-96622479D01*
X188848400Y-96572967D01*
X188848400Y-95427033D01*
X188853276Y-95377521D01*
X188865896Y-95335920D01*
X188886391Y-95297578D01*
X188913971Y-95263971D01*
X188947578Y-95236391D01*
X188985920Y-95215896D01*
X189027521Y-95203276D01*
X189077033Y-95198400D01*
X189972967Y-95198400D01*
X190022479Y-95203276D01*
X190022479Y-95203276D01*
G37*
G36*
X174821600Y-96431100D02*
X170618400Y-96431100D01*
X170618400Y-95592900D01*
X174821600Y-95592900D01*
X174821600Y-96431100D01*
X174821600Y-96431100D01*
G37*
G36*
X184221600Y-96431100D02*
X180018400Y-96431100D01*
X180018400Y-95592900D01*
X184221600Y-95592900D01*
X184221600Y-96431100D01*
X184221600Y-96431100D01*
G37*
G36*
X150137571Y-93699969D02*
X150310754Y-93771704D01*
X150465905Y-93875374D01*
X150466609Y-93875844D01*
X150599156Y-94008391D01*
X150599158Y-94008394D01*
X150703296Y-94164246D01*
X150775031Y-94337429D01*
X150811600Y-94521276D01*
X150811600Y-94708724D01*
X150775031Y-94892571D01*
X150703296Y-95065754D01*
X150639587Y-95161100D01*
X150599156Y-95221609D01*
X150466609Y-95354156D01*
X150466606Y-95354158D01*
X150310754Y-95458296D01*
X150137571Y-95530031D01*
X149953724Y-95566600D01*
X149766276Y-95566600D01*
X149582429Y-95530031D01*
X149409246Y-95458296D01*
X149253394Y-95354158D01*
X149253391Y-95354156D01*
X149120844Y-95221609D01*
X149080413Y-95161100D01*
X149016704Y-95065754D01*
X148944969Y-94892571D01*
X148908400Y-94708724D01*
X148908400Y-94521276D01*
X148944969Y-94337429D01*
X149016704Y-94164246D01*
X149120842Y-94008394D01*
X149120844Y-94008391D01*
X149253391Y-93875844D01*
X149254095Y-93875374D01*
X149409246Y-93771704D01*
X149582429Y-93699969D01*
X149766276Y-93663400D01*
X149953724Y-93663400D01*
X150137571Y-93699969D01*
X150137571Y-93699969D01*
G37*
G36*
X147597571Y-93699969D02*
X147770754Y-93771704D01*
X147925905Y-93875374D01*
X147926609Y-93875844D01*
X148059156Y-94008391D01*
X148059158Y-94008394D01*
X148163296Y-94164246D01*
X148235031Y-94337429D01*
X148271600Y-94521276D01*
X148271600Y-94708724D01*
X148235031Y-94892571D01*
X148163296Y-95065754D01*
X148099587Y-95161100D01*
X148059156Y-95221609D01*
X147926609Y-95354156D01*
X147926606Y-95354158D01*
X147770754Y-95458296D01*
X147597571Y-95530031D01*
X147413724Y-95566600D01*
X147226276Y-95566600D01*
X147042429Y-95530031D01*
X146869246Y-95458296D01*
X146713394Y-95354158D01*
X146713391Y-95354156D01*
X146580844Y-95221609D01*
X146540413Y-95161100D01*
X146476704Y-95065754D01*
X146404969Y-94892571D01*
X146368400Y-94708724D01*
X146368400Y-94521276D01*
X146404969Y-94337429D01*
X146476704Y-94164246D01*
X146580842Y-94008394D01*
X146580844Y-94008391D01*
X146713391Y-93875844D01*
X146714095Y-93875374D01*
X146869246Y-93771704D01*
X147042429Y-93699969D01*
X147226276Y-93663400D01*
X147413724Y-93663400D01*
X147597571Y-93699969D01*
X147597571Y-93699969D01*
G37*
G36*
X161522479Y-93953276D02*
X161564080Y-93965896D01*
X161602422Y-93986391D01*
X161636029Y-94013971D01*
X161663609Y-94047578D01*
X161684104Y-94085920D01*
X161696724Y-94127521D01*
X161701600Y-94177033D01*
X161701600Y-95322967D01*
X161696724Y-95372479D01*
X161684104Y-95414080D01*
X161663609Y-95452422D01*
X161636029Y-95486029D01*
X161602422Y-95513609D01*
X161564080Y-95534104D01*
X161522479Y-95546724D01*
X161472967Y-95551600D01*
X160577033Y-95551600D01*
X160527521Y-95546724D01*
X160485920Y-95534104D01*
X160447578Y-95513609D01*
X160413971Y-95486029D01*
X160386391Y-95452422D01*
X160365896Y-95414080D01*
X160353276Y-95372479D01*
X160348400Y-95322967D01*
X160348400Y-94177033D01*
X160353276Y-94127521D01*
X160365896Y-94085920D01*
X160386391Y-94047578D01*
X160413971Y-94013971D01*
X160447578Y-93986391D01*
X160485920Y-93965896D01*
X160527521Y-93953276D01*
X160577033Y-93948400D01*
X161472967Y-93948400D01*
X161522479Y-93953276D01*
X161522479Y-93953276D01*
G37*
G36*
X197522479Y-93953276D02*
X197564080Y-93965896D01*
X197602422Y-93986391D01*
X197636029Y-94013971D01*
X197663609Y-94047578D01*
X197684104Y-94085920D01*
X197696724Y-94127521D01*
X197701600Y-94177033D01*
X197701600Y-95322967D01*
X197696724Y-95372479D01*
X197684104Y-95414080D01*
X197663609Y-95452422D01*
X197636029Y-95486029D01*
X197602422Y-95513609D01*
X197564080Y-95534104D01*
X197522479Y-95546724D01*
X197472967Y-95551600D01*
X196577033Y-95551600D01*
X196527521Y-95546724D01*
X196485920Y-95534104D01*
X196447578Y-95513609D01*
X196413971Y-95486029D01*
X196386391Y-95452422D01*
X196365896Y-95414080D01*
X196353276Y-95372479D01*
X196348400Y-95322967D01*
X196348400Y-94177033D01*
X196353276Y-94127521D01*
X196365896Y-94085920D01*
X196386391Y-94047578D01*
X196413971Y-94013971D01*
X196447578Y-93986391D01*
X196485920Y-93965896D01*
X196527521Y-93953276D01*
X196577033Y-93948400D01*
X197472967Y-93948400D01*
X197522479Y-93953276D01*
X197522479Y-93953276D01*
G37*
G36*
X159472479Y-93953276D02*
X159514080Y-93965896D01*
X159552422Y-93986391D01*
X159586029Y-94013971D01*
X159613609Y-94047578D01*
X159634104Y-94085920D01*
X159646724Y-94127521D01*
X159651600Y-94177033D01*
X159651600Y-95322967D01*
X159646724Y-95372479D01*
X159634104Y-95414080D01*
X159613609Y-95452422D01*
X159586029Y-95486029D01*
X159552422Y-95513609D01*
X159514080Y-95534104D01*
X159472479Y-95546724D01*
X159422967Y-95551600D01*
X158527033Y-95551600D01*
X158477521Y-95546724D01*
X158435920Y-95534104D01*
X158397578Y-95513609D01*
X158363971Y-95486029D01*
X158336391Y-95452422D01*
X158315896Y-95414080D01*
X158303276Y-95372479D01*
X158298400Y-95322967D01*
X158298400Y-94177033D01*
X158303276Y-94127521D01*
X158315896Y-94085920D01*
X158336391Y-94047578D01*
X158363971Y-94013971D01*
X158397578Y-93986391D01*
X158435920Y-93965896D01*
X158477521Y-93953276D01*
X158527033Y-93948400D01*
X159422967Y-93948400D01*
X159472479Y-93953276D01*
X159472479Y-93953276D01*
G37*
G36*
X195472479Y-93953276D02*
X195514080Y-93965896D01*
X195552422Y-93986391D01*
X195586029Y-94013971D01*
X195613609Y-94047578D01*
X195634104Y-94085920D01*
X195646724Y-94127521D01*
X195651600Y-94177033D01*
X195651600Y-95322967D01*
X195646724Y-95372479D01*
X195634104Y-95414080D01*
X195613609Y-95452422D01*
X195586029Y-95486029D01*
X195552422Y-95513609D01*
X195514080Y-95534104D01*
X195472479Y-95546724D01*
X195422967Y-95551600D01*
X194527033Y-95551600D01*
X194477521Y-95546724D01*
X194435920Y-95534104D01*
X194397578Y-95513609D01*
X194363971Y-95486029D01*
X194336391Y-95452422D01*
X194315896Y-95414080D01*
X194303276Y-95372479D01*
X194298400Y-95322967D01*
X194298400Y-94177033D01*
X194303276Y-94127521D01*
X194315896Y-94085920D01*
X194336391Y-94047578D01*
X194363971Y-94013971D01*
X194397578Y-93986391D01*
X194435920Y-93965896D01*
X194477521Y-93953276D01*
X194527033Y-93948400D01*
X195422967Y-93948400D01*
X195472479Y-93953276D01*
X195472479Y-93953276D01*
G37*
G36*
X174821600Y-95161100D02*
X170618400Y-95161100D01*
X170618400Y-94322900D01*
X174821600Y-94322900D01*
X174821600Y-95161100D01*
X174821600Y-95161100D01*
G37*
G36*
X184221600Y-95161100D02*
X180018400Y-95161100D01*
X180018400Y-94322900D01*
X184221600Y-94322900D01*
X184221600Y-95161100D01*
X184221600Y-95161100D01*
G37*
G36*
X165722479Y-92703276D02*
X165764080Y-92715896D01*
X165802422Y-92736391D01*
X165836029Y-92763971D01*
X165863609Y-92797578D01*
X165884104Y-92835920D01*
X165896724Y-92877521D01*
X165901600Y-92927033D01*
X165901600Y-94072967D01*
X165896724Y-94122479D01*
X165884104Y-94164080D01*
X165863609Y-94202422D01*
X165836029Y-94236029D01*
X165802422Y-94263609D01*
X165764080Y-94284104D01*
X165722479Y-94296724D01*
X165672967Y-94301600D01*
X164777033Y-94301600D01*
X164727521Y-94296724D01*
X164685920Y-94284104D01*
X164647578Y-94263609D01*
X164613971Y-94236029D01*
X164586391Y-94202422D01*
X164565896Y-94164080D01*
X164553276Y-94122479D01*
X164548400Y-94072967D01*
X164548400Y-92927033D01*
X164553276Y-92877521D01*
X164565896Y-92835920D01*
X164586391Y-92797578D01*
X164613971Y-92763971D01*
X164647578Y-92736391D01*
X164685920Y-92715896D01*
X164727521Y-92703276D01*
X164777033Y-92698400D01*
X165672967Y-92698400D01*
X165722479Y-92703276D01*
X165722479Y-92703276D01*
G37*
G36*
X167772479Y-92703276D02*
X167814080Y-92715896D01*
X167852422Y-92736391D01*
X167886029Y-92763971D01*
X167913609Y-92797578D01*
X167934104Y-92835920D01*
X167946724Y-92877521D01*
X167951600Y-92927033D01*
X167951600Y-94072967D01*
X167946724Y-94122479D01*
X167934104Y-94164080D01*
X167913609Y-94202422D01*
X167886029Y-94236029D01*
X167852422Y-94263609D01*
X167814080Y-94284104D01*
X167772479Y-94296724D01*
X167722967Y-94301600D01*
X166827033Y-94301600D01*
X166777521Y-94296724D01*
X166735920Y-94284104D01*
X166697578Y-94263609D01*
X166663971Y-94236029D01*
X166636391Y-94202422D01*
X166615896Y-94164080D01*
X166603276Y-94122479D01*
X166598400Y-94072967D01*
X166598400Y-92927033D01*
X166603276Y-92877521D01*
X166615896Y-92835920D01*
X166636391Y-92797578D01*
X166663971Y-92763971D01*
X166697578Y-92736391D01*
X166735920Y-92715896D01*
X166777521Y-92703276D01*
X166827033Y-92698400D01*
X167722967Y-92698400D01*
X167772479Y-92703276D01*
X167772479Y-92703276D01*
G37*
G36*
X187972479Y-92703276D02*
X188014080Y-92715896D01*
X188052422Y-92736391D01*
X188086029Y-92763971D01*
X188113609Y-92797578D01*
X188134104Y-92835920D01*
X188146724Y-92877521D01*
X188151600Y-92927033D01*
X188151600Y-94072967D01*
X188146724Y-94122479D01*
X188134104Y-94164080D01*
X188113609Y-94202422D01*
X188086029Y-94236029D01*
X188052422Y-94263609D01*
X188014080Y-94284104D01*
X187972479Y-94296724D01*
X187922967Y-94301600D01*
X187027033Y-94301600D01*
X186977521Y-94296724D01*
X186935920Y-94284104D01*
X186897578Y-94263609D01*
X186863971Y-94236029D01*
X186836391Y-94202422D01*
X186815896Y-94164080D01*
X186803276Y-94122479D01*
X186798400Y-94072967D01*
X186798400Y-92927033D01*
X186803276Y-92877521D01*
X186815896Y-92835920D01*
X186836391Y-92797578D01*
X186863971Y-92763971D01*
X186897578Y-92736391D01*
X186935920Y-92715896D01*
X186977521Y-92703276D01*
X187027033Y-92698400D01*
X187922967Y-92698400D01*
X187972479Y-92703276D01*
X187972479Y-92703276D01*
G37*
G36*
X190022479Y-92703276D02*
X190064080Y-92715896D01*
X190102422Y-92736391D01*
X190136029Y-92763971D01*
X190163609Y-92797578D01*
X190184104Y-92835920D01*
X190196724Y-92877521D01*
X190201600Y-92927033D01*
X190201600Y-94072967D01*
X190196724Y-94122479D01*
X190184104Y-94164080D01*
X190163609Y-94202422D01*
X190136029Y-94236029D01*
X190102422Y-94263609D01*
X190064080Y-94284104D01*
X190022479Y-94296724D01*
X189972967Y-94301600D01*
X189077033Y-94301600D01*
X189027521Y-94296724D01*
X188985920Y-94284104D01*
X188947578Y-94263609D01*
X188913971Y-94236029D01*
X188886391Y-94202422D01*
X188865896Y-94164080D01*
X188853276Y-94122479D01*
X188848400Y-94072967D01*
X188848400Y-92927033D01*
X188853276Y-92877521D01*
X188865896Y-92835920D01*
X188886391Y-92797578D01*
X188913971Y-92763971D01*
X188947578Y-92736391D01*
X188985920Y-92715896D01*
X189027521Y-92703276D01*
X189077033Y-92698400D01*
X189972967Y-92698400D01*
X190022479Y-92703276D01*
X190022479Y-92703276D01*
G37*
G36*
X174821600Y-93891100D02*
X170618400Y-93891100D01*
X170618400Y-93052900D01*
X174821600Y-93052900D01*
X174821600Y-93891100D01*
X174821600Y-93891100D01*
G37*
G36*
X184221600Y-93891100D02*
X180018400Y-93891100D01*
X180018400Y-93052900D01*
X184221600Y-93052900D01*
X184221600Y-93891100D01*
X184221600Y-93891100D01*
G37*
G36*
X197522479Y-91453276D02*
X197564080Y-91465896D01*
X197602422Y-91486391D01*
X197636029Y-91513971D01*
X197663609Y-91547578D01*
X197684104Y-91585920D01*
X197696724Y-91627521D01*
X197701600Y-91677033D01*
X197701600Y-92822967D01*
X197696724Y-92872479D01*
X197684104Y-92914080D01*
X197663609Y-92952422D01*
X197636029Y-92986029D01*
X197602422Y-93013609D01*
X197564080Y-93034104D01*
X197522479Y-93046724D01*
X197472967Y-93051600D01*
X196577033Y-93051600D01*
X196527521Y-93046724D01*
X196485920Y-93034104D01*
X196447578Y-93013609D01*
X196413971Y-92986029D01*
X196386391Y-92952422D01*
X196365896Y-92914080D01*
X196353276Y-92872479D01*
X196348400Y-92822967D01*
X196348400Y-91677033D01*
X196353276Y-91627521D01*
X196365896Y-91585920D01*
X196386391Y-91547578D01*
X196413971Y-91513971D01*
X196447578Y-91486391D01*
X196485920Y-91465896D01*
X196527521Y-91453276D01*
X196577033Y-91448400D01*
X197472967Y-91448400D01*
X197522479Y-91453276D01*
X197522479Y-91453276D01*
G37*
G36*
X195472479Y-91453276D02*
X195514080Y-91465896D01*
X195552422Y-91486391D01*
X195586029Y-91513971D01*
X195613609Y-91547578D01*
X195634104Y-91585920D01*
X195646724Y-91627521D01*
X195651600Y-91677033D01*
X195651600Y-92822967D01*
X195646724Y-92872479D01*
X195634104Y-92914080D01*
X195613609Y-92952422D01*
X195586029Y-92986029D01*
X195552422Y-93013609D01*
X195514080Y-93034104D01*
X195472479Y-93046724D01*
X195422967Y-93051600D01*
X194527033Y-93051600D01*
X194477521Y-93046724D01*
X194435920Y-93034104D01*
X194397578Y-93013609D01*
X194363971Y-92986029D01*
X194336391Y-92952422D01*
X194315896Y-92914080D01*
X194303276Y-92872479D01*
X194298400Y-92822967D01*
X194298400Y-91677033D01*
X194303276Y-91627521D01*
X194315896Y-91585920D01*
X194336391Y-91547578D01*
X194363971Y-91513971D01*
X194397578Y-91486391D01*
X194435920Y-91465896D01*
X194477521Y-91453276D01*
X194527033Y-91448400D01*
X195422967Y-91448400D01*
X195472479Y-91453276D01*
X195472479Y-91453276D01*
G37*
G36*
X147597571Y-91159969D02*
X147770754Y-91231704D01*
X147925905Y-91335374D01*
X147926609Y-91335844D01*
X148059156Y-91468391D01*
X148059158Y-91468394D01*
X148163296Y-91624246D01*
X148235031Y-91797429D01*
X148271600Y-91981276D01*
X148271600Y-92168724D01*
X148235031Y-92352571D01*
X148163296Y-92525754D01*
X148099587Y-92621100D01*
X148059156Y-92681609D01*
X147926609Y-92814156D01*
X147926606Y-92814158D01*
X147770754Y-92918296D01*
X147597571Y-92990031D01*
X147413724Y-93026600D01*
X147226276Y-93026600D01*
X147042429Y-92990031D01*
X146869246Y-92918296D01*
X146713394Y-92814158D01*
X146713391Y-92814156D01*
X146580844Y-92681609D01*
X146540413Y-92621100D01*
X146476704Y-92525754D01*
X146404969Y-92352571D01*
X146368400Y-92168724D01*
X146368400Y-91981276D01*
X146404969Y-91797429D01*
X146476704Y-91624246D01*
X146580842Y-91468394D01*
X146580844Y-91468391D01*
X146713391Y-91335844D01*
X146714095Y-91335374D01*
X146869246Y-91231704D01*
X147042429Y-91159969D01*
X147226276Y-91123400D01*
X147413724Y-91123400D01*
X147597571Y-91159969D01*
X147597571Y-91159969D01*
G37*
G36*
X150137571Y-91159969D02*
X150310754Y-91231704D01*
X150465905Y-91335374D01*
X150466609Y-91335844D01*
X150599156Y-91468391D01*
X150599158Y-91468394D01*
X150703296Y-91624246D01*
X150775031Y-91797429D01*
X150811600Y-91981276D01*
X150811600Y-92168724D01*
X150775031Y-92352571D01*
X150703296Y-92525754D01*
X150639587Y-92621100D01*
X150599156Y-92681609D01*
X150466609Y-92814156D01*
X150466606Y-92814158D01*
X150310754Y-92918296D01*
X150137571Y-92990031D01*
X149953724Y-93026600D01*
X149766276Y-93026600D01*
X149582429Y-92990031D01*
X149409246Y-92918296D01*
X149253394Y-92814158D01*
X149253391Y-92814156D01*
X149120844Y-92681609D01*
X149080413Y-92621100D01*
X149016704Y-92525754D01*
X148944969Y-92352571D01*
X148908400Y-92168724D01*
X148908400Y-91981276D01*
X148944969Y-91797429D01*
X149016704Y-91624246D01*
X149120842Y-91468394D01*
X149120844Y-91468391D01*
X149253391Y-91335844D01*
X149254095Y-91335374D01*
X149409246Y-91231704D01*
X149582429Y-91159969D01*
X149766276Y-91123400D01*
X149953724Y-91123400D01*
X150137571Y-91159969D01*
X150137571Y-91159969D01*
G37*
G36*
X174821600Y-92621100D02*
X170618400Y-92621100D01*
X170618400Y-91782900D01*
X174821600Y-91782900D01*
X174821600Y-92621100D01*
X174821600Y-92621100D01*
G37*
G36*
X184221600Y-92621100D02*
X180018400Y-92621100D01*
X180018400Y-91782900D01*
X184221600Y-91782900D01*
X184221600Y-92621100D01*
X184221600Y-92621100D01*
G37*
G36*
X187972479Y-90203276D02*
X188014080Y-90215896D01*
X188052422Y-90236391D01*
X188086029Y-90263971D01*
X188113609Y-90297578D01*
X188134104Y-90335920D01*
X188146724Y-90377521D01*
X188151600Y-90427033D01*
X188151600Y-91572967D01*
X188146724Y-91622479D01*
X188134104Y-91664080D01*
X188113609Y-91702422D01*
X188086029Y-91736029D01*
X188052422Y-91763609D01*
X188014080Y-91784104D01*
X187972479Y-91796724D01*
X187922967Y-91801600D01*
X187027033Y-91801600D01*
X186977521Y-91796724D01*
X186935920Y-91784104D01*
X186897578Y-91763609D01*
X186863971Y-91736029D01*
X186836391Y-91702422D01*
X186815896Y-91664080D01*
X186803276Y-91622479D01*
X186798400Y-91572967D01*
X186798400Y-90427033D01*
X186803276Y-90377521D01*
X186815896Y-90335920D01*
X186836391Y-90297578D01*
X186863971Y-90263971D01*
X186897578Y-90236391D01*
X186935920Y-90215896D01*
X186977521Y-90203276D01*
X187027033Y-90198400D01*
X187922967Y-90198400D01*
X187972479Y-90203276D01*
X187972479Y-90203276D01*
G37*
G36*
X190022479Y-90203276D02*
X190064080Y-90215896D01*
X190102422Y-90236391D01*
X190136029Y-90263971D01*
X190163609Y-90297578D01*
X190184104Y-90335920D01*
X190196724Y-90377521D01*
X190201600Y-90427033D01*
X190201600Y-91572967D01*
X190196724Y-91622479D01*
X190184104Y-91664080D01*
X190163609Y-91702422D01*
X190136029Y-91736029D01*
X190102422Y-91763609D01*
X190064080Y-91784104D01*
X190022479Y-91796724D01*
X189972967Y-91801600D01*
X189077033Y-91801600D01*
X189027521Y-91796724D01*
X188985920Y-91784104D01*
X188947578Y-91763609D01*
X188913971Y-91736029D01*
X188886391Y-91702422D01*
X188865896Y-91664080D01*
X188853276Y-91622479D01*
X188848400Y-91572967D01*
X188848400Y-90427033D01*
X188853276Y-90377521D01*
X188865896Y-90335920D01*
X188886391Y-90297578D01*
X188913971Y-90263971D01*
X188947578Y-90236391D01*
X188985920Y-90215896D01*
X189027521Y-90203276D01*
X189077033Y-90198400D01*
X189972967Y-90198400D01*
X190022479Y-90203276D01*
X190022479Y-90203276D01*
G37*
G36*
X184221600Y-91351100D02*
X180018400Y-91351100D01*
X180018400Y-90512900D01*
X184221600Y-90512900D01*
X184221600Y-91351100D01*
X184221600Y-91351100D01*
G37*
G36*
X174821600Y-91351100D02*
X170618400Y-91351100D01*
X170618400Y-90512900D01*
X174821600Y-90512900D01*
X174821600Y-91351100D01*
X174821600Y-91351100D01*
G37*
G36*
X150137571Y-88619969D02*
X150310754Y-88691704D01*
X150465905Y-88795374D01*
X150466609Y-88795844D01*
X150599156Y-88928391D01*
X150599158Y-88928394D01*
X150703296Y-89084246D01*
X150775031Y-89257429D01*
X150811600Y-89441276D01*
X150811600Y-89628724D01*
X150775031Y-89812571D01*
X150703296Y-89985754D01*
X150639587Y-90081100D01*
X150599156Y-90141609D01*
X150466609Y-90274156D01*
X150466606Y-90274158D01*
X150310754Y-90378296D01*
X150137571Y-90450031D01*
X149953724Y-90486600D01*
X149766276Y-90486600D01*
X149582429Y-90450031D01*
X149409246Y-90378296D01*
X149253394Y-90274158D01*
X149253391Y-90274156D01*
X149120844Y-90141609D01*
X149080413Y-90081100D01*
X149016704Y-89985754D01*
X148944969Y-89812571D01*
X148908400Y-89628724D01*
X148908400Y-89441276D01*
X148944969Y-89257429D01*
X149016704Y-89084246D01*
X149120842Y-88928394D01*
X149120844Y-88928391D01*
X149253391Y-88795844D01*
X149254095Y-88795374D01*
X149409246Y-88691704D01*
X149582429Y-88619969D01*
X149766276Y-88583400D01*
X149953724Y-88583400D01*
X150137571Y-88619969D01*
X150137571Y-88619969D01*
G37*
G36*
X147597571Y-88619969D02*
X147770754Y-88691704D01*
X147925905Y-88795374D01*
X147926609Y-88795844D01*
X148059156Y-88928391D01*
X148059158Y-88928394D01*
X148163296Y-89084246D01*
X148235031Y-89257429D01*
X148271600Y-89441276D01*
X148271600Y-89628724D01*
X148235031Y-89812571D01*
X148163296Y-89985754D01*
X148099587Y-90081100D01*
X148059156Y-90141609D01*
X147926609Y-90274156D01*
X147926606Y-90274158D01*
X147770754Y-90378296D01*
X147597571Y-90450031D01*
X147413724Y-90486600D01*
X147226276Y-90486600D01*
X147042429Y-90450031D01*
X146869246Y-90378296D01*
X146713394Y-90274158D01*
X146713391Y-90274156D01*
X146580844Y-90141609D01*
X146540413Y-90081100D01*
X146476704Y-89985754D01*
X146404969Y-89812571D01*
X146368400Y-89628724D01*
X146368400Y-89441276D01*
X146404969Y-89257429D01*
X146476704Y-89084246D01*
X146580842Y-88928394D01*
X146580844Y-88928391D01*
X146713391Y-88795844D01*
X146714095Y-88795374D01*
X146869246Y-88691704D01*
X147042429Y-88619969D01*
X147226276Y-88583400D01*
X147413724Y-88583400D01*
X147597571Y-88619969D01*
X147597571Y-88619969D01*
G37*
G36*
X174821600Y-90081100D02*
X170618400Y-90081100D01*
X170618400Y-89242900D01*
X174821600Y-89242900D01*
X174821600Y-90081100D01*
X174821600Y-90081100D01*
G37*
G36*
X184221600Y-90081100D02*
X180018400Y-90081100D01*
X180018400Y-89242900D01*
X184221600Y-89242900D01*
X184221600Y-90081100D01*
X184221600Y-90081100D01*
G37*
G36*
X174821600Y-88811100D02*
X170618400Y-88811100D01*
X170618400Y-87972900D01*
X174821600Y-87972900D01*
X174821600Y-88811100D01*
X174821600Y-88811100D01*
G37*
G36*
X184221600Y-88811100D02*
X180018400Y-88811100D01*
X180018400Y-87972900D01*
X184221600Y-87972900D01*
X184221600Y-88811100D01*
X184221600Y-88811100D01*
G37*
G36*
X161476546Y-86062169D02*
X161655923Y-86116583D01*
X161821238Y-86204945D01*
X161966138Y-86323862D01*
X162085055Y-86468762D01*
X162173417Y-86634077D01*
X162227831Y-86813454D01*
X162246204Y-87000000D01*
X162227831Y-87186546D01*
X162173417Y-87365923D01*
X162085055Y-87531238D01*
X161966138Y-87676138D01*
X161821238Y-87795055D01*
X161655923Y-87883417D01*
X161476546Y-87937831D01*
X161336746Y-87951600D01*
X161243254Y-87951600D01*
X161103454Y-87937831D01*
X160924077Y-87883417D01*
X160758762Y-87795055D01*
X160613862Y-87676138D01*
X160494945Y-87531238D01*
X160406583Y-87365923D01*
X160352169Y-87186546D01*
X160333796Y-87000000D01*
X160352169Y-86813454D01*
X160406583Y-86634077D01*
X160494945Y-86468762D01*
X160613862Y-86323862D01*
X160758762Y-86204945D01*
X160924077Y-86116583D01*
X161103454Y-86062169D01*
X161243254Y-86048400D01*
X161336746Y-86048400D01*
X161476546Y-86062169D01*
X161476546Y-86062169D01*
G37*
G36*
X159701600Y-87951600D02*
X157798400Y-87951600D01*
X157798400Y-86048400D01*
X159701600Y-86048400D01*
X159701600Y-87951600D01*
X159701600Y-87951600D01*
G37*
G36*
X150137571Y-86079969D02*
X150310754Y-86151704D01*
X150465905Y-86255374D01*
X150466609Y-86255844D01*
X150599156Y-86388391D01*
X150599158Y-86388394D01*
X150703296Y-86544246D01*
X150775031Y-86717429D01*
X150811600Y-86901276D01*
X150811600Y-87088724D01*
X150775031Y-87272571D01*
X150703296Y-87445754D01*
X150646176Y-87531239D01*
X150599156Y-87601609D01*
X150466609Y-87734156D01*
X150466606Y-87734158D01*
X150310754Y-87838296D01*
X150137571Y-87910031D01*
X149953724Y-87946600D01*
X149766276Y-87946600D01*
X149582429Y-87910031D01*
X149409246Y-87838296D01*
X149253394Y-87734158D01*
X149253391Y-87734156D01*
X149120844Y-87601609D01*
X149073824Y-87531239D01*
X149016704Y-87445754D01*
X148944969Y-87272571D01*
X148908400Y-87088724D01*
X148908400Y-86901276D01*
X148944969Y-86717429D01*
X149016704Y-86544246D01*
X149120842Y-86388394D01*
X149120844Y-86388391D01*
X149253391Y-86255844D01*
X149254095Y-86255374D01*
X149409246Y-86151704D01*
X149582429Y-86079969D01*
X149766276Y-86043400D01*
X149953724Y-86043400D01*
X150137571Y-86079969D01*
X150137571Y-86079969D01*
G37*
G36*
X147597571Y-86079969D02*
X147770754Y-86151704D01*
X147925905Y-86255374D01*
X147926609Y-86255844D01*
X148059156Y-86388391D01*
X148059158Y-86388394D01*
X148163296Y-86544246D01*
X148235031Y-86717429D01*
X148271600Y-86901276D01*
X148271600Y-87088724D01*
X148235031Y-87272571D01*
X148163296Y-87445754D01*
X148106176Y-87531239D01*
X148059156Y-87601609D01*
X147926609Y-87734156D01*
X147926606Y-87734158D01*
X147770754Y-87838296D01*
X147597571Y-87910031D01*
X147413724Y-87946600D01*
X147226276Y-87946600D01*
X147042429Y-87910031D01*
X146869246Y-87838296D01*
X146713394Y-87734158D01*
X146713391Y-87734156D01*
X146580844Y-87601609D01*
X146533824Y-87531239D01*
X146476704Y-87445754D01*
X146404969Y-87272571D01*
X146368400Y-87088724D01*
X146368400Y-86901276D01*
X146404969Y-86717429D01*
X146476704Y-86544246D01*
X146580842Y-86388394D01*
X146580844Y-86388391D01*
X146713391Y-86255844D01*
X146714095Y-86255374D01*
X146869246Y-86151704D01*
X147042429Y-86079969D01*
X147226276Y-86043400D01*
X147413724Y-86043400D01*
X147597571Y-86079969D01*
X147597571Y-86079969D01*
G37*
G36*
X174821600Y-87541100D02*
X170618400Y-87541100D01*
X170618400Y-86702900D01*
X174821600Y-86702900D01*
X174821600Y-87541100D01*
X174821600Y-87541100D01*
G37*
G36*
X184221600Y-87541100D02*
X180018400Y-87541100D01*
X180018400Y-86702900D01*
X184221600Y-86702900D01*
X184221600Y-87541100D01*
X184221600Y-87541100D01*
G37*
G36*
X174821600Y-86271100D02*
X170618400Y-86271100D01*
X170618400Y-85432900D01*
X174821600Y-85432900D01*
X174821600Y-86271100D01*
X174821600Y-86271100D01*
G37*
G36*
X184221600Y-86271100D02*
X180018400Y-86271100D01*
X180018400Y-85432900D01*
X184221600Y-85432900D01*
X184221600Y-86271100D01*
X184221600Y-86271100D01*
G37*
G36*
X147597571Y-83539969D02*
X147770754Y-83611704D01*
X147925905Y-83715374D01*
X147926609Y-83715844D01*
X148059156Y-83848391D01*
X148059158Y-83848394D01*
X148163296Y-84004246D01*
X148235031Y-84177429D01*
X148271600Y-84361276D01*
X148271600Y-84548724D01*
X148235031Y-84732571D01*
X148163296Y-84905754D01*
X148099587Y-85001100D01*
X148059156Y-85061609D01*
X147926609Y-85194156D01*
X147926606Y-85194158D01*
X147770754Y-85298296D01*
X147597571Y-85370031D01*
X147413724Y-85406600D01*
X147226276Y-85406600D01*
X147042429Y-85370031D01*
X146869246Y-85298296D01*
X146713394Y-85194158D01*
X146713391Y-85194156D01*
X146580844Y-85061609D01*
X146540413Y-85001100D01*
X146476704Y-84905754D01*
X146404969Y-84732571D01*
X146368400Y-84548724D01*
X146368400Y-84361276D01*
X146404969Y-84177429D01*
X146476704Y-84004246D01*
X146580842Y-83848394D01*
X146580844Y-83848391D01*
X146713391Y-83715844D01*
X146714095Y-83715374D01*
X146869246Y-83611704D01*
X147042429Y-83539969D01*
X147226276Y-83503400D01*
X147413724Y-83503400D01*
X147597571Y-83539969D01*
X147597571Y-83539969D01*
G37*
G36*
X150137571Y-83539969D02*
X150310754Y-83611704D01*
X150465905Y-83715374D01*
X150466609Y-83715844D01*
X150599156Y-83848391D01*
X150599158Y-83848394D01*
X150703296Y-84004246D01*
X150775031Y-84177429D01*
X150811600Y-84361276D01*
X150811600Y-84548724D01*
X150775031Y-84732571D01*
X150703296Y-84905754D01*
X150639587Y-85001100D01*
X150599156Y-85061609D01*
X150466609Y-85194156D01*
X150466606Y-85194158D01*
X150310754Y-85298296D01*
X150137571Y-85370031D01*
X149953724Y-85406600D01*
X149766276Y-85406600D01*
X149582429Y-85370031D01*
X149409246Y-85298296D01*
X149253394Y-85194158D01*
X149253391Y-85194156D01*
X149120844Y-85061609D01*
X149080413Y-85001100D01*
X149016704Y-84905754D01*
X148944969Y-84732571D01*
X148908400Y-84548724D01*
X148908400Y-84361276D01*
X148944969Y-84177429D01*
X149016704Y-84004246D01*
X149120842Y-83848394D01*
X149120844Y-83848391D01*
X149253391Y-83715844D01*
X149254095Y-83715374D01*
X149409246Y-83611704D01*
X149582429Y-83539969D01*
X149766276Y-83503400D01*
X149953724Y-83503400D01*
X150137571Y-83539969D01*
X150137571Y-83539969D01*
G37*
G36*
X174821600Y-85001100D02*
X170618400Y-85001100D01*
X170618400Y-84162900D01*
X174821600Y-84162900D01*
X174821600Y-85001100D01*
X174821600Y-85001100D01*
G37*
G36*
X184221600Y-85001100D02*
X180018400Y-85001100D01*
X180018400Y-84162900D01*
X184221600Y-84162900D01*
X184221600Y-85001100D01*
X184221600Y-85001100D01*
G37*
G36*
X174821600Y-83731100D02*
X170618400Y-83731100D01*
X170618400Y-82892900D01*
X174821600Y-82892900D01*
X174821600Y-83731100D01*
X174821600Y-83731100D01*
G37*
G36*
X184221600Y-83731100D02*
X180018400Y-83731100D01*
X180018400Y-82892900D01*
X184221600Y-82892900D01*
X184221600Y-83731100D01*
X184221600Y-83731100D01*
G37*
G36*
X150137571Y-80999969D02*
X150310754Y-81071704D01*
X150465905Y-81175374D01*
X150466609Y-81175844D01*
X150599156Y-81308391D01*
X150599158Y-81308394D01*
X150703296Y-81464246D01*
X150775031Y-81637429D01*
X150811600Y-81821276D01*
X150811600Y-82008724D01*
X150775031Y-82192571D01*
X150703296Y-82365754D01*
X150639587Y-82461100D01*
X150599156Y-82521609D01*
X150466609Y-82654156D01*
X150466606Y-82654158D01*
X150310754Y-82758296D01*
X150137571Y-82830031D01*
X149953724Y-82866600D01*
X149766276Y-82866600D01*
X149582429Y-82830031D01*
X149409246Y-82758296D01*
X149253394Y-82654158D01*
X149253391Y-82654156D01*
X149120844Y-82521609D01*
X149080413Y-82461100D01*
X149016704Y-82365754D01*
X148944969Y-82192571D01*
X148908400Y-82008724D01*
X148908400Y-81821276D01*
X148944969Y-81637429D01*
X149016704Y-81464246D01*
X149120842Y-81308394D01*
X149120844Y-81308391D01*
X149253391Y-81175844D01*
X149254095Y-81175374D01*
X149409246Y-81071704D01*
X149582429Y-80999969D01*
X149766276Y-80963400D01*
X149953724Y-80963400D01*
X150137571Y-80999969D01*
X150137571Y-80999969D01*
G37*
G36*
X147597571Y-80999969D02*
X147770754Y-81071704D01*
X147925905Y-81175374D01*
X147926609Y-81175844D01*
X148059156Y-81308391D01*
X148059158Y-81308394D01*
X148163296Y-81464246D01*
X148235031Y-81637429D01*
X148271600Y-81821276D01*
X148271600Y-82008724D01*
X148235031Y-82192571D01*
X148163296Y-82365754D01*
X148099587Y-82461100D01*
X148059156Y-82521609D01*
X147926609Y-82654156D01*
X147926606Y-82654158D01*
X147770754Y-82758296D01*
X147597571Y-82830031D01*
X147413724Y-82866600D01*
X147226276Y-82866600D01*
X147042429Y-82830031D01*
X146869246Y-82758296D01*
X146713394Y-82654158D01*
X146713391Y-82654156D01*
X146580844Y-82521609D01*
X146540413Y-82461100D01*
X146476704Y-82365754D01*
X146404969Y-82192571D01*
X146368400Y-82008724D01*
X146368400Y-81821276D01*
X146404969Y-81637429D01*
X146476704Y-81464246D01*
X146580842Y-81308394D01*
X146580844Y-81308391D01*
X146713391Y-81175844D01*
X146714095Y-81175374D01*
X146869246Y-81071704D01*
X147042429Y-80999969D01*
X147226276Y-80963400D01*
X147413724Y-80963400D01*
X147597571Y-80999969D01*
X147597571Y-80999969D01*
G37*
G36*
X174821600Y-82461100D02*
X170618400Y-82461100D01*
X170618400Y-81622900D01*
X174821600Y-81622900D01*
X174821600Y-82461100D01*
X174821600Y-82461100D01*
G37*
G36*
X184221600Y-82461100D02*
X180018400Y-82461100D01*
X180018400Y-81622900D01*
X184221600Y-81622900D01*
X184221600Y-82461100D01*
X184221600Y-82461100D01*
G37*
G36*
X161450546Y-79368169D02*
X161629923Y-79422583D01*
X161795238Y-79510945D01*
X161940138Y-79629862D01*
X162059055Y-79774762D01*
X162147417Y-79940077D01*
X162201831Y-80119454D01*
X162220204Y-80306000D01*
X162201831Y-80492546D01*
X162147417Y-80671923D01*
X162059055Y-80837238D01*
X161940138Y-80982138D01*
X161795238Y-81101055D01*
X161629923Y-81189417D01*
X161450546Y-81243831D01*
X161310746Y-81257600D01*
X161217254Y-81257600D01*
X161077454Y-81243831D01*
X160898077Y-81189417D01*
X160732762Y-81101055D01*
X160587862Y-80982138D01*
X160468945Y-80837238D01*
X160380583Y-80671923D01*
X160326169Y-80492546D01*
X160307796Y-80306000D01*
X160326169Y-80119454D01*
X160380583Y-79940077D01*
X160468945Y-79774762D01*
X160587862Y-79629862D01*
X160732762Y-79510945D01*
X160898077Y-79422583D01*
X161077454Y-79368169D01*
X161217254Y-79354400D01*
X161310746Y-79354400D01*
X161450546Y-79368169D01*
X161450546Y-79368169D01*
G37*
G36*
X159675600Y-81257600D02*
X157772400Y-81257600D01*
X157772400Y-79354400D01*
X159675600Y-79354400D01*
X159675600Y-81257600D01*
X159675600Y-81257600D01*
G37*
G36*
X174821600Y-81191100D02*
X170618400Y-81191100D01*
X170618400Y-80352900D01*
X174821600Y-80352900D01*
X174821600Y-81191100D01*
X174821600Y-81191100D01*
G37*
G36*
X184221600Y-81191100D02*
X180018400Y-81191100D01*
X180018400Y-80352900D01*
X184221600Y-80352900D01*
X184221600Y-81191100D01*
X184221600Y-81191100D01*
G37*
G36*
X150137571Y-78459969D02*
X150310754Y-78531704D01*
X150465905Y-78635374D01*
X150466609Y-78635844D01*
X150599156Y-78768391D01*
X150599158Y-78768394D01*
X150703296Y-78924246D01*
X150775031Y-79097429D01*
X150811600Y-79281276D01*
X150811600Y-79468724D01*
X150775031Y-79652571D01*
X150703296Y-79825754D01*
X150639587Y-79921100D01*
X150599156Y-79981609D01*
X150466609Y-80114156D01*
X150466606Y-80114158D01*
X150310754Y-80218296D01*
X150137571Y-80290031D01*
X149953724Y-80326600D01*
X149766276Y-80326600D01*
X149582429Y-80290031D01*
X149409246Y-80218296D01*
X149253394Y-80114158D01*
X149253391Y-80114156D01*
X149120844Y-79981609D01*
X149080413Y-79921100D01*
X149016704Y-79825754D01*
X148944969Y-79652571D01*
X148908400Y-79468724D01*
X148908400Y-79281276D01*
X148944969Y-79097429D01*
X149016704Y-78924246D01*
X149120842Y-78768394D01*
X149120844Y-78768391D01*
X149253391Y-78635844D01*
X149254095Y-78635374D01*
X149409246Y-78531704D01*
X149582429Y-78459969D01*
X149766276Y-78423400D01*
X149953724Y-78423400D01*
X150137571Y-78459969D01*
X150137571Y-78459969D01*
G37*
G36*
X147597571Y-78459969D02*
X147770754Y-78531704D01*
X147925905Y-78635374D01*
X147926609Y-78635844D01*
X148059156Y-78768391D01*
X148059158Y-78768394D01*
X148163296Y-78924246D01*
X148235031Y-79097429D01*
X148271600Y-79281276D01*
X148271600Y-79468724D01*
X148235031Y-79652571D01*
X148163296Y-79825754D01*
X148099587Y-79921100D01*
X148059156Y-79981609D01*
X147926609Y-80114156D01*
X147926606Y-80114158D01*
X147770754Y-80218296D01*
X147597571Y-80290031D01*
X147413724Y-80326600D01*
X147226276Y-80326600D01*
X147042429Y-80290031D01*
X146869246Y-80218296D01*
X146713394Y-80114158D01*
X146713391Y-80114156D01*
X146580844Y-79981609D01*
X146540413Y-79921100D01*
X146476704Y-79825754D01*
X146404969Y-79652571D01*
X146368400Y-79468724D01*
X146368400Y-79281276D01*
X146404969Y-79097429D01*
X146476704Y-78924246D01*
X146580842Y-78768394D01*
X146580844Y-78768391D01*
X146713391Y-78635844D01*
X146714095Y-78635374D01*
X146869246Y-78531704D01*
X147042429Y-78459969D01*
X147226276Y-78423400D01*
X147413724Y-78423400D01*
X147597571Y-78459969D01*
X147597571Y-78459969D01*
G37*
G36*
X174821600Y-79921100D02*
X170618400Y-79921100D01*
X170618400Y-79082900D01*
X174821600Y-79082900D01*
X174821600Y-79921100D01*
X174821600Y-79921100D01*
G37*
G36*
X184221600Y-79921100D02*
X180018400Y-79921100D01*
X180018400Y-79082900D01*
X184221600Y-79082900D01*
X184221600Y-79921100D01*
X184221600Y-79921100D01*
G37*
G36*
X159675600Y-78717600D02*
X157772400Y-78717600D01*
X157772400Y-76814400D01*
X159675600Y-76814400D01*
X159675600Y-78717600D01*
X159675600Y-78717600D01*
G37*
G36*
X161450546Y-76828169D02*
X161629923Y-76882583D01*
X161795238Y-76970945D01*
X161940138Y-77089862D01*
X162059055Y-77234762D01*
X162147417Y-77400077D01*
X162201831Y-77579454D01*
X162220204Y-77766000D01*
X162201831Y-77952546D01*
X162147417Y-78131923D01*
X162059055Y-78297238D01*
X161940138Y-78442138D01*
X161795238Y-78561055D01*
X161629923Y-78649417D01*
X161450546Y-78703831D01*
X161310746Y-78717600D01*
X161217254Y-78717600D01*
X161077454Y-78703831D01*
X160898077Y-78649417D01*
X160732762Y-78561055D01*
X160587862Y-78442138D01*
X160468945Y-78297238D01*
X160380583Y-78131923D01*
X160326169Y-77952546D01*
X160307796Y-77766000D01*
X160326169Y-77579454D01*
X160380583Y-77400077D01*
X160468945Y-77234762D01*
X160587862Y-77089862D01*
X160732762Y-76970945D01*
X160898077Y-76882583D01*
X161077454Y-76828169D01*
X161217254Y-76814400D01*
X161310746Y-76814400D01*
X161450546Y-76828169D01*
X161450546Y-76828169D01*
G37*
G36*
X174821600Y-78651100D02*
X170618400Y-78651100D01*
X170618400Y-77812900D01*
X174821600Y-77812900D01*
X174821600Y-78651100D01*
X174821600Y-78651100D01*
G37*
G36*
X184221600Y-78651100D02*
X180018400Y-78651100D01*
X180018400Y-77812900D01*
X184221600Y-77812900D01*
X184221600Y-78651100D01*
X184221600Y-78651100D01*
G37*
G36*
X147597571Y-75919969D02*
X147770754Y-75991704D01*
X147925905Y-76095374D01*
X147926609Y-76095844D01*
X148059156Y-76228391D01*
X148059158Y-76228394D01*
X148163296Y-76384246D01*
X148235031Y-76557429D01*
X148271600Y-76741276D01*
X148271600Y-76928724D01*
X148235031Y-77112571D01*
X148163296Y-77285754D01*
X148086907Y-77400077D01*
X148059156Y-77441609D01*
X147926609Y-77574156D01*
X147926606Y-77574158D01*
X147770754Y-77678296D01*
X147597571Y-77750031D01*
X147413724Y-77786600D01*
X147226276Y-77786600D01*
X147042429Y-77750031D01*
X146869246Y-77678296D01*
X146713394Y-77574158D01*
X146713391Y-77574156D01*
X146580844Y-77441609D01*
X146553093Y-77400077D01*
X146476704Y-77285754D01*
X146404969Y-77112571D01*
X146368400Y-76928724D01*
X146368400Y-76741276D01*
X146404969Y-76557429D01*
X146476704Y-76384246D01*
X146580842Y-76228394D01*
X146580844Y-76228391D01*
X146713391Y-76095844D01*
X146714095Y-76095374D01*
X146869246Y-75991704D01*
X147042429Y-75919969D01*
X147226276Y-75883400D01*
X147413724Y-75883400D01*
X147597571Y-75919969D01*
X147597571Y-75919969D01*
G37*
G36*
X150137571Y-75919969D02*
X150310754Y-75991704D01*
X150465905Y-76095374D01*
X150466609Y-76095844D01*
X150599156Y-76228391D01*
X150599158Y-76228394D01*
X150703296Y-76384246D01*
X150775031Y-76557429D01*
X150811600Y-76741276D01*
X150811600Y-76928724D01*
X150775031Y-77112571D01*
X150703296Y-77285754D01*
X150626907Y-77400077D01*
X150599156Y-77441609D01*
X150466609Y-77574156D01*
X150466606Y-77574158D01*
X150310754Y-77678296D01*
X150137571Y-77750031D01*
X149953724Y-77786600D01*
X149766276Y-77786600D01*
X149582429Y-77750031D01*
X149409246Y-77678296D01*
X149253394Y-77574158D01*
X149253391Y-77574156D01*
X149120844Y-77441609D01*
X149093093Y-77400077D01*
X149016704Y-77285754D01*
X148944969Y-77112571D01*
X148908400Y-76928724D01*
X148908400Y-76741276D01*
X148944969Y-76557429D01*
X149016704Y-76384246D01*
X149120842Y-76228394D01*
X149120844Y-76228391D01*
X149253391Y-76095844D01*
X149254095Y-76095374D01*
X149409246Y-75991704D01*
X149582429Y-75919969D01*
X149766276Y-75883400D01*
X149953724Y-75883400D01*
X150137571Y-75919969D01*
X150137571Y-75919969D01*
G37*
G36*
X178814479Y-74203276D02*
X178856080Y-74215896D01*
X178894422Y-74236391D01*
X178928029Y-74263971D01*
X178955609Y-74297578D01*
X178976104Y-74335920D01*
X178988724Y-74377521D01*
X178993600Y-74427033D01*
X178993600Y-75572967D01*
X178988724Y-75622479D01*
X178976104Y-75664080D01*
X178955609Y-75702422D01*
X178928029Y-75736029D01*
X178894422Y-75763609D01*
X178856080Y-75784104D01*
X178814479Y-75796724D01*
X178764967Y-75801600D01*
X177869033Y-75801600D01*
X177819521Y-75796724D01*
X177777920Y-75784104D01*
X177739578Y-75763609D01*
X177705971Y-75736029D01*
X177678391Y-75702422D01*
X177657896Y-75664080D01*
X177645276Y-75622479D01*
X177640400Y-75572967D01*
X177640400Y-74427033D01*
X177645276Y-74377521D01*
X177657896Y-74335920D01*
X177678391Y-74297578D01*
X177705971Y-74263971D01*
X177739578Y-74236391D01*
X177777920Y-74215896D01*
X177819521Y-74203276D01*
X177869033Y-74198400D01*
X178764967Y-74198400D01*
X178814479Y-74203276D01*
X178814479Y-74203276D01*
G37*
G36*
X176764479Y-74203276D02*
X176806080Y-74215896D01*
X176844422Y-74236391D01*
X176878029Y-74263971D01*
X176905609Y-74297578D01*
X176926104Y-74335920D01*
X176938724Y-74377521D01*
X176943600Y-74427033D01*
X176943600Y-75572967D01*
X176938724Y-75622479D01*
X176926104Y-75664080D01*
X176905609Y-75702422D01*
X176878029Y-75736029D01*
X176844422Y-75763609D01*
X176806080Y-75784104D01*
X176764479Y-75796724D01*
X176714967Y-75801600D01*
X175819033Y-75801600D01*
X175769521Y-75796724D01*
X175727920Y-75784104D01*
X175689578Y-75763609D01*
X175655971Y-75736029D01*
X175628391Y-75702422D01*
X175607896Y-75664080D01*
X175595276Y-75622479D01*
X175590400Y-75572967D01*
X175590400Y-74427033D01*
X175595276Y-74377521D01*
X175607896Y-74335920D01*
X175628391Y-74297578D01*
X175655971Y-74263971D01*
X175689578Y-74236391D01*
X175727920Y-74215896D01*
X175769521Y-74203276D01*
X175819033Y-74198400D01*
X176714967Y-74198400D01*
X176764479Y-74203276D01*
X176764479Y-74203276D01*
G37*
G36*
X147597571Y-73379969D02*
X147770754Y-73451704D01*
X147925905Y-73555374D01*
X147926609Y-73555844D01*
X148059156Y-73688391D01*
X148059158Y-73688394D01*
X148163296Y-73844246D01*
X148235031Y-74017429D01*
X148271600Y-74201276D01*
X148271600Y-74388724D01*
X148235031Y-74572571D01*
X148163296Y-74745754D01*
X148059626Y-74900905D01*
X148059156Y-74901609D01*
X147926609Y-75034156D01*
X147926606Y-75034158D01*
X147770754Y-75138296D01*
X147597571Y-75210031D01*
X147413724Y-75246600D01*
X147226276Y-75246600D01*
X147042429Y-75210031D01*
X146869246Y-75138296D01*
X146713394Y-75034158D01*
X146713391Y-75034156D01*
X146580844Y-74901609D01*
X146580374Y-74900905D01*
X146476704Y-74745754D01*
X146404969Y-74572571D01*
X146368400Y-74388724D01*
X146368400Y-74201276D01*
X146404969Y-74017429D01*
X146476704Y-73844246D01*
X146580842Y-73688394D01*
X146580844Y-73688391D01*
X146713391Y-73555844D01*
X146714095Y-73555374D01*
X146869246Y-73451704D01*
X147042429Y-73379969D01*
X147226276Y-73343400D01*
X147413724Y-73343400D01*
X147597571Y-73379969D01*
X147597571Y-73379969D01*
G37*
G36*
X150137571Y-73379969D02*
X150310754Y-73451704D01*
X150465905Y-73555374D01*
X150466609Y-73555844D01*
X150599156Y-73688391D01*
X150599158Y-73688394D01*
X150703296Y-73844246D01*
X150775031Y-74017429D01*
X150811600Y-74201276D01*
X150811600Y-74388724D01*
X150775031Y-74572571D01*
X150703296Y-74745754D01*
X150599626Y-74900905D01*
X150599156Y-74901609D01*
X150466609Y-75034156D01*
X150466606Y-75034158D01*
X150310754Y-75138296D01*
X150137571Y-75210031D01*
X149953724Y-75246600D01*
X149766276Y-75246600D01*
X149582429Y-75210031D01*
X149409246Y-75138296D01*
X149253394Y-75034158D01*
X149253391Y-75034156D01*
X149120844Y-74901609D01*
X149120374Y-74900905D01*
X149016704Y-74745754D01*
X148944969Y-74572571D01*
X148908400Y-74388724D01*
X148908400Y-74201276D01*
X148944969Y-74017429D01*
X149016704Y-73844246D01*
X149120842Y-73688394D01*
X149120844Y-73688391D01*
X149253391Y-73555844D01*
X149254095Y-73555374D01*
X149409246Y-73451704D01*
X149582429Y-73379969D01*
X149766276Y-73343400D01*
X149953724Y-73343400D01*
X150137571Y-73379969D01*
X150137571Y-73379969D01*
G37*
G36*
X178814479Y-71703276D02*
X178856080Y-71715896D01*
X178894422Y-71736391D01*
X178928029Y-71763971D01*
X178955609Y-71797578D01*
X178976104Y-71835920D01*
X178988724Y-71877521D01*
X178993600Y-71927033D01*
X178993600Y-73072967D01*
X178988724Y-73122479D01*
X178976104Y-73164080D01*
X178955609Y-73202422D01*
X178928029Y-73236029D01*
X178894422Y-73263609D01*
X178856080Y-73284104D01*
X178814479Y-73296724D01*
X178764967Y-73301600D01*
X177869033Y-73301600D01*
X177819521Y-73296724D01*
X177777920Y-73284104D01*
X177739578Y-73263609D01*
X177705971Y-73236029D01*
X177678391Y-73202422D01*
X177657896Y-73164080D01*
X177645276Y-73122479D01*
X177640400Y-73072967D01*
X177640400Y-71927033D01*
X177645276Y-71877521D01*
X177657896Y-71835920D01*
X177678391Y-71797578D01*
X177705971Y-71763971D01*
X177739578Y-71736391D01*
X177777920Y-71715896D01*
X177819521Y-71703276D01*
X177869033Y-71698400D01*
X178764967Y-71698400D01*
X178814479Y-71703276D01*
X178814479Y-71703276D01*
G37*
G36*
X176764479Y-71703276D02*
X176806080Y-71715896D01*
X176844422Y-71736391D01*
X176878029Y-71763971D01*
X176905609Y-71797578D01*
X176926104Y-71835920D01*
X176938724Y-71877521D01*
X176943600Y-71927033D01*
X176943600Y-73072967D01*
X176938724Y-73122479D01*
X176926104Y-73164080D01*
X176905609Y-73202422D01*
X176878029Y-73236029D01*
X176844422Y-73263609D01*
X176806080Y-73284104D01*
X176764479Y-73296724D01*
X176714967Y-73301600D01*
X175819033Y-73301600D01*
X175769521Y-73296724D01*
X175727920Y-73284104D01*
X175689578Y-73263609D01*
X175655971Y-73236029D01*
X175628391Y-73202422D01*
X175607896Y-73164080D01*
X175595276Y-73122479D01*
X175590400Y-73072967D01*
X175590400Y-71927033D01*
X175595276Y-71877521D01*
X175607896Y-71835920D01*
X175628391Y-71797578D01*
X175655971Y-71763971D01*
X175689578Y-71736391D01*
X175727920Y-71715896D01*
X175769521Y-71703276D01*
X175819033Y-71698400D01*
X176714967Y-71698400D01*
X176764479Y-71703276D01*
X176764479Y-71703276D01*
G37*
G36*
X150137571Y-70839969D02*
X150310754Y-70911704D01*
X150465905Y-71015374D01*
X150466609Y-71015844D01*
X150599156Y-71148391D01*
X150599158Y-71148394D01*
X150703296Y-71304246D01*
X150775031Y-71477429D01*
X150811600Y-71661276D01*
X150811600Y-71848724D01*
X150775031Y-72032571D01*
X150703296Y-72205754D01*
X150599626Y-72360905D01*
X150599156Y-72361609D01*
X150466609Y-72494156D01*
X150466606Y-72494158D01*
X150310754Y-72598296D01*
X150137571Y-72670031D01*
X149953724Y-72706600D01*
X149766276Y-72706600D01*
X149582429Y-72670031D01*
X149409246Y-72598296D01*
X149253394Y-72494158D01*
X149253391Y-72494156D01*
X149120844Y-72361609D01*
X149120374Y-72360905D01*
X149016704Y-72205754D01*
X148944969Y-72032571D01*
X148908400Y-71848724D01*
X148908400Y-71661276D01*
X148944969Y-71477429D01*
X149016704Y-71304246D01*
X149120842Y-71148394D01*
X149120844Y-71148391D01*
X149253391Y-71015844D01*
X149254095Y-71015374D01*
X149409246Y-70911704D01*
X149582429Y-70839969D01*
X149766276Y-70803400D01*
X149953724Y-70803400D01*
X150137571Y-70839969D01*
X150137571Y-70839969D01*
G37*
G36*
X147597571Y-70839969D02*
X147770754Y-70911704D01*
X147925905Y-71015374D01*
X147926609Y-71015844D01*
X148059156Y-71148391D01*
X148059158Y-71148394D01*
X148163296Y-71304246D01*
X148235031Y-71477429D01*
X148271600Y-71661276D01*
X148271600Y-71848724D01*
X148235031Y-72032571D01*
X148163296Y-72205754D01*
X148059626Y-72360905D01*
X148059156Y-72361609D01*
X147926609Y-72494156D01*
X147926606Y-72494158D01*
X147770754Y-72598296D01*
X147597571Y-72670031D01*
X147413724Y-72706600D01*
X147226276Y-72706600D01*
X147042429Y-72670031D01*
X146869246Y-72598296D01*
X146713394Y-72494158D01*
X146713391Y-72494156D01*
X146580844Y-72361609D01*
X146580374Y-72360905D01*
X146476704Y-72205754D01*
X146404969Y-72032571D01*
X146368400Y-71848724D01*
X146368400Y-71661276D01*
X146404969Y-71477429D01*
X146476704Y-71304246D01*
X146580842Y-71148394D01*
X146580844Y-71148391D01*
X146713391Y-71015844D01*
X146714095Y-71015374D01*
X146869246Y-70911704D01*
X147042429Y-70839969D01*
X147226276Y-70803400D01*
X147413724Y-70803400D01*
X147597571Y-70839969D01*
X147597571Y-70839969D01*
G37*
G36*
X150137571Y-68299969D02*
X150310754Y-68371704D01*
X150465905Y-68475374D01*
X150466609Y-68475844D01*
X150599156Y-68608391D01*
X150599158Y-68608394D01*
X150703296Y-68764246D01*
X150775031Y-68937429D01*
X150811600Y-69121276D01*
X150811600Y-69308724D01*
X150775031Y-69492571D01*
X150703296Y-69665754D01*
X150599626Y-69820905D01*
X150599156Y-69821609D01*
X150466609Y-69954156D01*
X150466606Y-69954158D01*
X150310754Y-70058296D01*
X150137571Y-70130031D01*
X149953724Y-70166600D01*
X149766276Y-70166600D01*
X149582429Y-70130031D01*
X149409246Y-70058296D01*
X149253394Y-69954158D01*
X149253391Y-69954156D01*
X149120844Y-69821609D01*
X149120374Y-69820905D01*
X149016704Y-69665754D01*
X148944969Y-69492571D01*
X148908400Y-69308724D01*
X148908400Y-69121276D01*
X148944969Y-68937429D01*
X149016704Y-68764246D01*
X149120842Y-68608394D01*
X149120844Y-68608391D01*
X149253391Y-68475844D01*
X149254095Y-68475374D01*
X149409246Y-68371704D01*
X149582429Y-68299969D01*
X149766276Y-68263400D01*
X149953724Y-68263400D01*
X150137571Y-68299969D01*
X150137571Y-68299969D01*
G37*
G36*
X147597571Y-68299969D02*
X147770754Y-68371704D01*
X147925905Y-68475374D01*
X147926609Y-68475844D01*
X148059156Y-68608391D01*
X148059158Y-68608394D01*
X148163296Y-68764246D01*
X148235031Y-68937429D01*
X148271600Y-69121276D01*
X148271600Y-69308724D01*
X148235031Y-69492571D01*
X148163296Y-69665754D01*
X148059626Y-69820905D01*
X148059156Y-69821609D01*
X147926609Y-69954156D01*
X147926606Y-69954158D01*
X147770754Y-70058296D01*
X147597571Y-70130031D01*
X147413724Y-70166600D01*
X147226276Y-70166600D01*
X147042429Y-70130031D01*
X146869246Y-70058296D01*
X146713394Y-69954158D01*
X146713391Y-69954156D01*
X146580844Y-69821609D01*
X146580374Y-69820905D01*
X146476704Y-69665754D01*
X146404969Y-69492571D01*
X146368400Y-69308724D01*
X146368400Y-69121276D01*
X146404969Y-68937429D01*
X146476704Y-68764246D01*
X146580842Y-68608394D01*
X146580844Y-68608391D01*
X146713391Y-68475844D01*
X146714095Y-68475374D01*
X146869246Y-68371704D01*
X147042429Y-68299969D01*
X147226276Y-68263400D01*
X147413724Y-68263400D01*
X147597571Y-68299969D01*
X147597571Y-68299969D01*
G37*
G36*
X150137571Y-65759969D02*
X150310754Y-65831704D01*
X150465905Y-65935374D01*
X150466609Y-65935844D01*
X150599156Y-66068391D01*
X150599158Y-66068394D01*
X150703296Y-66224246D01*
X150775031Y-66397429D01*
X150811600Y-66581276D01*
X150811600Y-66768724D01*
X150775031Y-66952571D01*
X150703296Y-67125754D01*
X150599626Y-67280905D01*
X150599156Y-67281609D01*
X150466609Y-67414156D01*
X150466606Y-67414158D01*
X150310754Y-67518296D01*
X150137571Y-67590031D01*
X149953724Y-67626600D01*
X149766276Y-67626600D01*
X149582429Y-67590031D01*
X149409246Y-67518296D01*
X149253394Y-67414158D01*
X149253391Y-67414156D01*
X149120844Y-67281609D01*
X149120374Y-67280905D01*
X149016704Y-67125754D01*
X148944969Y-66952571D01*
X148908400Y-66768724D01*
X148908400Y-66581276D01*
X148944969Y-66397429D01*
X149016704Y-66224246D01*
X149120842Y-66068394D01*
X149120844Y-66068391D01*
X149253391Y-65935844D01*
X149254095Y-65935374D01*
X149409246Y-65831704D01*
X149582429Y-65759969D01*
X149766276Y-65723400D01*
X149953724Y-65723400D01*
X150137571Y-65759969D01*
X150137571Y-65759969D01*
G37*
G36*
X147597571Y-65759969D02*
X147770754Y-65831704D01*
X147925905Y-65935374D01*
X147926609Y-65935844D01*
X148059156Y-66068391D01*
X148059158Y-66068394D01*
X148163296Y-66224246D01*
X148235031Y-66397429D01*
X148271600Y-66581276D01*
X148271600Y-66768724D01*
X148235031Y-66952571D01*
X148163296Y-67125754D01*
X148059626Y-67280905D01*
X148059156Y-67281609D01*
X147926609Y-67414156D01*
X147926606Y-67414158D01*
X147770754Y-67518296D01*
X147597571Y-67590031D01*
X147413724Y-67626600D01*
X147226276Y-67626600D01*
X147042429Y-67590031D01*
X146869246Y-67518296D01*
X146713394Y-67414158D01*
X146713391Y-67414156D01*
X146580844Y-67281609D01*
X146580374Y-67280905D01*
X146476704Y-67125754D01*
X146404969Y-66952571D01*
X146368400Y-66768724D01*
X146368400Y-66581276D01*
X146404969Y-66397429D01*
X146476704Y-66224246D01*
X146580842Y-66068394D01*
X146580844Y-66068391D01*
X146713391Y-65935844D01*
X146714095Y-65935374D01*
X146869246Y-65831704D01*
X147042429Y-65759969D01*
X147226276Y-65723400D01*
X147413724Y-65723400D01*
X147597571Y-65759969D01*
X147597571Y-65759969D01*
G37*
G36*
X147597571Y-63219969D02*
X147770754Y-63291704D01*
X147925905Y-63395374D01*
X147926609Y-63395844D01*
X148059156Y-63528391D01*
X148059158Y-63528394D01*
X148163296Y-63684246D01*
X148235031Y-63857429D01*
X148271600Y-64041276D01*
X148271600Y-64228724D01*
X148235031Y-64412571D01*
X148163296Y-64585754D01*
X148059626Y-64740905D01*
X148059156Y-64741609D01*
X147926609Y-64874156D01*
X147926606Y-64874158D01*
X147770754Y-64978296D01*
X147597571Y-65050031D01*
X147413724Y-65086600D01*
X147226276Y-65086600D01*
X147042429Y-65050031D01*
X146869246Y-64978296D01*
X146713394Y-64874158D01*
X146713391Y-64874156D01*
X146580844Y-64741609D01*
X146580374Y-64740905D01*
X146476704Y-64585754D01*
X146404969Y-64412571D01*
X146368400Y-64228724D01*
X146368400Y-64041276D01*
X146404969Y-63857429D01*
X146476704Y-63684246D01*
X146580842Y-63528394D01*
X146580844Y-63528391D01*
X146713391Y-63395844D01*
X146714095Y-63395374D01*
X146869246Y-63291704D01*
X147042429Y-63219969D01*
X147226276Y-63183400D01*
X147413724Y-63183400D01*
X147597571Y-63219969D01*
X147597571Y-63219969D01*
G37*
G36*
X150137571Y-63219969D02*
X150310754Y-63291704D01*
X150465905Y-63395374D01*
X150466609Y-63395844D01*
X150599156Y-63528391D01*
X150599158Y-63528394D01*
X150703296Y-63684246D01*
X150775031Y-63857429D01*
X150811600Y-64041276D01*
X150811600Y-64228724D01*
X150775031Y-64412571D01*
X150703296Y-64585754D01*
X150599626Y-64740905D01*
X150599156Y-64741609D01*
X150466609Y-64874156D01*
X150466606Y-64874158D01*
X150310754Y-64978296D01*
X150137571Y-65050031D01*
X149953724Y-65086600D01*
X149766276Y-65086600D01*
X149582429Y-65050031D01*
X149409246Y-64978296D01*
X149253394Y-64874158D01*
X149253391Y-64874156D01*
X149120844Y-64741609D01*
X149120374Y-64740905D01*
X149016704Y-64585754D01*
X148944969Y-64412571D01*
X148908400Y-64228724D01*
X148908400Y-64041276D01*
X148944969Y-63857429D01*
X149016704Y-63684246D01*
X149120842Y-63528394D01*
X149120844Y-63528391D01*
X149253391Y-63395844D01*
X149254095Y-63395374D01*
X149409246Y-63291704D01*
X149582429Y-63219969D01*
X149766276Y-63183400D01*
X149953724Y-63183400D01*
X150137571Y-63219969D01*
X150137571Y-63219969D01*
G37*
G36*
X147597571Y-60679969D02*
X147770754Y-60751704D01*
X147925905Y-60855374D01*
X147926609Y-60855844D01*
X148059156Y-60988391D01*
X148059158Y-60988394D01*
X148163296Y-61144246D01*
X148235031Y-61317429D01*
X148271600Y-61501276D01*
X148271600Y-61688724D01*
X148235031Y-61872571D01*
X148163296Y-62045754D01*
X148059626Y-62200905D01*
X148059156Y-62201609D01*
X147926609Y-62334156D01*
X147926606Y-62334158D01*
X147770754Y-62438296D01*
X147597571Y-62510031D01*
X147413724Y-62546600D01*
X147226276Y-62546600D01*
X147042429Y-62510031D01*
X146869246Y-62438296D01*
X146713394Y-62334158D01*
X146713391Y-62334156D01*
X146580844Y-62201609D01*
X146580374Y-62200905D01*
X146476704Y-62045754D01*
X146404969Y-61872571D01*
X146368400Y-61688724D01*
X146368400Y-61501276D01*
X146404969Y-61317429D01*
X146476704Y-61144246D01*
X146580842Y-60988394D01*
X146580844Y-60988391D01*
X146713391Y-60855844D01*
X146714095Y-60855374D01*
X146869246Y-60751704D01*
X147042429Y-60679969D01*
X147226276Y-60643400D01*
X147413724Y-60643400D01*
X147597571Y-60679969D01*
X147597571Y-60679969D01*
G37*
G36*
X150137571Y-60679969D02*
X150310754Y-60751704D01*
X150465905Y-60855374D01*
X150466609Y-60855844D01*
X150599156Y-60988391D01*
X150599158Y-60988394D01*
X150703296Y-61144246D01*
X150775031Y-61317429D01*
X150811600Y-61501276D01*
X150811600Y-61688724D01*
X150775031Y-61872571D01*
X150703296Y-62045754D01*
X150599626Y-62200905D01*
X150599156Y-62201609D01*
X150466609Y-62334156D01*
X150466606Y-62334158D01*
X150310754Y-62438296D01*
X150137571Y-62510031D01*
X149953724Y-62546600D01*
X149766276Y-62546600D01*
X149582429Y-62510031D01*
X149409246Y-62438296D01*
X149253394Y-62334158D01*
X149253391Y-62334156D01*
X149120844Y-62201609D01*
X149120374Y-62200905D01*
X149016704Y-62045754D01*
X148944969Y-61872571D01*
X148908400Y-61688724D01*
X148908400Y-61501276D01*
X148944969Y-61317429D01*
X149016704Y-61144246D01*
X149120842Y-60988394D01*
X149120844Y-60988391D01*
X149253391Y-60855844D01*
X149254095Y-60855374D01*
X149409246Y-60751704D01*
X149582429Y-60679969D01*
X149766276Y-60643400D01*
X149953724Y-60643400D01*
X150137571Y-60679969D01*
X150137571Y-60679969D01*
G37*
G36*
X147597571Y-58139969D02*
X147770754Y-58211704D01*
X147925905Y-58315374D01*
X147926609Y-58315844D01*
X148059156Y-58448391D01*
X148059158Y-58448394D01*
X148163296Y-58604246D01*
X148235031Y-58777429D01*
X148271600Y-58961276D01*
X148271600Y-59148724D01*
X148235031Y-59332571D01*
X148163296Y-59505754D01*
X148059626Y-59660905D01*
X148059156Y-59661609D01*
X147926609Y-59794156D01*
X147926606Y-59794158D01*
X147770754Y-59898296D01*
X147597571Y-59970031D01*
X147413724Y-60006600D01*
X147226276Y-60006600D01*
X147042429Y-59970031D01*
X146869246Y-59898296D01*
X146713394Y-59794158D01*
X146713391Y-59794156D01*
X146580844Y-59661609D01*
X146580374Y-59660905D01*
X146476704Y-59505754D01*
X146404969Y-59332571D01*
X146368400Y-59148724D01*
X146368400Y-58961276D01*
X146404969Y-58777429D01*
X146476704Y-58604246D01*
X146580842Y-58448394D01*
X146580844Y-58448391D01*
X146713391Y-58315844D01*
X146714095Y-58315374D01*
X146869246Y-58211704D01*
X147042429Y-58139969D01*
X147226276Y-58103400D01*
X147413724Y-58103400D01*
X147597571Y-58139969D01*
X147597571Y-58139969D01*
G37*
G36*
X150137571Y-58139969D02*
X150310754Y-58211704D01*
X150465905Y-58315374D01*
X150466609Y-58315844D01*
X150599156Y-58448391D01*
X150599158Y-58448394D01*
X150703296Y-58604246D01*
X150775031Y-58777429D01*
X150811600Y-58961276D01*
X150811600Y-59148724D01*
X150775031Y-59332571D01*
X150703296Y-59505754D01*
X150599626Y-59660905D01*
X150599156Y-59661609D01*
X150466609Y-59794156D01*
X150466606Y-59794158D01*
X150310754Y-59898296D01*
X150137571Y-59970031D01*
X149953724Y-60006600D01*
X149766276Y-60006600D01*
X149582429Y-59970031D01*
X149409246Y-59898296D01*
X149253394Y-59794158D01*
X149253391Y-59794156D01*
X149120844Y-59661609D01*
X149120374Y-59660905D01*
X149016704Y-59505754D01*
X148944969Y-59332571D01*
X148908400Y-59148724D01*
X148908400Y-58961276D01*
X148944969Y-58777429D01*
X149016704Y-58604246D01*
X149120842Y-58448394D01*
X149120844Y-58448391D01*
X149253391Y-58315844D01*
X149254095Y-58315374D01*
X149409246Y-58211704D01*
X149582429Y-58139969D01*
X149766276Y-58103400D01*
X149953724Y-58103400D01*
X150137571Y-58139969D01*
X150137571Y-58139969D01*
G37*
G36*
X147597571Y-55599969D02*
X147770754Y-55671704D01*
X147925905Y-55775374D01*
X147926609Y-55775844D01*
X148059156Y-55908391D01*
X148059158Y-55908394D01*
X148163296Y-56064246D01*
X148235031Y-56237429D01*
X148271600Y-56421276D01*
X148271600Y-56608724D01*
X148235031Y-56792571D01*
X148163296Y-56965754D01*
X148059626Y-57120905D01*
X148059156Y-57121609D01*
X147926609Y-57254156D01*
X147926606Y-57254158D01*
X147770754Y-57358296D01*
X147597571Y-57430031D01*
X147413724Y-57466600D01*
X147226276Y-57466600D01*
X147042429Y-57430031D01*
X146869246Y-57358296D01*
X146713394Y-57254158D01*
X146713391Y-57254156D01*
X146580844Y-57121609D01*
X146580374Y-57120905D01*
X146476704Y-56965754D01*
X146404969Y-56792571D01*
X146368400Y-56608724D01*
X146368400Y-56421276D01*
X146404969Y-56237429D01*
X146476704Y-56064246D01*
X146580842Y-55908394D01*
X146580844Y-55908391D01*
X146713391Y-55775844D01*
X146714095Y-55775374D01*
X146869246Y-55671704D01*
X147042429Y-55599969D01*
X147226276Y-55563400D01*
X147413724Y-55563400D01*
X147597571Y-55599969D01*
X147597571Y-55599969D01*
G37*
G36*
X150137571Y-55599969D02*
X150310754Y-55671704D01*
X150465905Y-55775374D01*
X150466609Y-55775844D01*
X150599156Y-55908391D01*
X150599158Y-55908394D01*
X150703296Y-56064246D01*
X150775031Y-56237429D01*
X150811600Y-56421276D01*
X150811600Y-56608724D01*
X150775031Y-56792571D01*
X150703296Y-56965754D01*
X150599626Y-57120905D01*
X150599156Y-57121609D01*
X150466609Y-57254156D01*
X150466606Y-57254158D01*
X150310754Y-57358296D01*
X150137571Y-57430031D01*
X149953724Y-57466600D01*
X149766276Y-57466600D01*
X149582429Y-57430031D01*
X149409246Y-57358296D01*
X149253394Y-57254158D01*
X149253391Y-57254156D01*
X149120844Y-57121609D01*
X149120374Y-57120905D01*
X149016704Y-56965754D01*
X148944969Y-56792571D01*
X148908400Y-56608724D01*
X148908400Y-56421276D01*
X148944969Y-56237429D01*
X149016704Y-56064246D01*
X149120842Y-55908394D01*
X149120844Y-55908391D01*
X149253391Y-55775844D01*
X149254095Y-55775374D01*
X149409246Y-55671704D01*
X149582429Y-55599969D01*
X149766276Y-55563400D01*
X149953724Y-55563400D01*
X150137571Y-55599969D01*
X150137571Y-55599969D01*
G37*
M02*
